%TF.GenerationSoftware,KiCad,Pcbnew,7.0.5-4d25ed1034~172~ubuntu23.04.1*%
%TF.CreationDate,2023-06-30T15:52:37+03:00*%
%TF.ProjectId,nrf52840_dev,6e726635-3238-4343-905f-6465762e6b69,rev?*%
%TF.SameCoordinates,Original*%
%TF.FileFunction,Paste,Top*%
%TF.FilePolarity,Positive*%
%FSLAX46Y46*%
G04 Gerber Fmt 4.6, Leading zero omitted, Abs format (unit mm)*
G04 Created by KiCad (PCBNEW 7.0.5-4d25ed1034~172~ubuntu23.04.1) date 2023-06-30 15:52:37*
%MOMM*%
%LPD*%
G01*
G04 APERTURE LIST*
G04 Aperture macros list*
%AMRoundRect*
0 Rectangle with rounded corners*
0 $1 Rounding radius*
0 $2 $3 $4 $5 $6 $7 $8 $9 X,Y pos of 4 corners*
0 Add a 4 corners polygon primitive as box body*
4,1,4,$2,$3,$4,$5,$6,$7,$8,$9,$2,$3,0*
0 Add four circle primitives for the rounded corners*
1,1,$1+$1,$2,$3*
1,1,$1+$1,$4,$5*
1,1,$1+$1,$6,$7*
1,1,$1+$1,$8,$9*
0 Add four rect primitives between the rounded corners*
20,1,$1+$1,$2,$3,$4,$5,0*
20,1,$1+$1,$4,$5,$6,$7,0*
20,1,$1+$1,$6,$7,$8,$9,0*
20,1,$1+$1,$8,$9,$2,$3,0*%
G04 Aperture macros list end*
%ADD10RoundRect,0.250000X-0.475000X0.250000X-0.475000X-0.250000X0.475000X-0.250000X0.475000X0.250000X0*%
%ADD11RoundRect,0.225000X0.225000X0.250000X-0.225000X0.250000X-0.225000X-0.250000X0.225000X-0.250000X0*%
%ADD12R,0.800000X1.500000*%
%ADD13R,1.500000X0.800000*%
%ADD14RoundRect,0.250000X-0.375000X-0.625000X0.375000X-0.625000X0.375000X0.625000X-0.375000X0.625000X0*%
%ADD15RoundRect,0.200000X-0.200000X-0.275000X0.200000X-0.275000X0.200000X0.275000X-0.200000X0.275000X0*%
%ADD16R,0.480000X0.800000*%
%ADD17R,2.400000X0.740000*%
%ADD18RoundRect,0.250000X-0.312500X-0.625000X0.312500X-0.625000X0.312500X0.625000X-0.312500X0.625000X0*%
%ADD19RoundRect,0.250000X0.395000X-0.255000X0.395000X0.255000X-0.395000X0.255000X-0.395000X-0.255000X0*%
%ADD20RoundRect,0.150000X0.150000X-0.662500X0.150000X0.662500X-0.150000X0.662500X-0.150000X-0.662500X0*%
%ADD21RoundRect,0.112500X0.187500X0.112500X-0.187500X0.112500X-0.187500X-0.112500X0.187500X-0.112500X0*%
%ADD22RoundRect,0.250000X0.875000X1.025000X-0.875000X1.025000X-0.875000X-1.025000X0.875000X-1.025000X0*%
%ADD23RoundRect,0.225000X0.250000X-0.225000X0.250000X0.225000X-0.250000X0.225000X-0.250000X-0.225000X0*%
%ADD24RoundRect,0.250000X-0.325000X-0.450000X0.325000X-0.450000X0.325000X0.450000X-0.325000X0.450000X0*%
%ADD25RoundRect,0.250000X-0.250000X-0.475000X0.250000X-0.475000X0.250000X0.475000X-0.250000X0.475000X0*%
%ADD26RoundRect,0.150000X0.825000X0.150000X-0.825000X0.150000X-0.825000X-0.150000X0.825000X-0.150000X0*%
%ADD27RoundRect,0.250000X0.250000X0.475000X-0.250000X0.475000X-0.250000X-0.475000X0.250000X-0.475000X0*%
%ADD28RoundRect,0.250000X0.262500X0.450000X-0.262500X0.450000X-0.262500X-0.450000X0.262500X-0.450000X0*%
%ADD29R,2.413000X3.429000*%
%ADD30RoundRect,0.150000X0.587500X0.150000X-0.587500X0.150000X-0.587500X-0.150000X0.587500X-0.150000X0*%
%ADD31RoundRect,0.112500X-0.112500X0.187500X-0.112500X-0.187500X0.112500X-0.187500X0.112500X0.187500X0*%
%ADD32RoundRect,0.140000X0.170000X-0.140000X0.170000X0.140000X-0.170000X0.140000X-0.170000X-0.140000X0*%
%ADD33RoundRect,0.250000X-0.900000X1.000000X-0.900000X-1.000000X0.900000X-1.000000X0.900000X1.000000X0*%
%ADD34RoundRect,0.150000X-0.875000X-0.150000X0.875000X-0.150000X0.875000X0.150000X-0.875000X0.150000X0*%
%ADD35RoundRect,0.250000X0.475000X-0.250000X0.475000X0.250000X-0.475000X0.250000X-0.475000X-0.250000X0*%
%ADD36RoundRect,0.225000X-0.225000X-0.250000X0.225000X-0.250000X0.225000X0.250000X-0.225000X0.250000X0*%
%ADD37R,1.800000X0.750000*%
G04 APERTURE END LIST*
D10*
%TO.C,C2*%
X161670000Y-91850000D03*
X161670000Y-93750000D03*
%TD*%
D11*
%TO.C,C3*%
X139435000Y-92740000D03*
X137885000Y-92740000D03*
%TD*%
D12*
%TO.C,U1*%
X177695000Y-85111000D03*
X176425000Y-85111000D03*
X175155000Y-85111000D03*
X173885000Y-85111000D03*
X172615000Y-85111000D03*
X171345000Y-85111000D03*
X170075000Y-85111000D03*
X168805000Y-85111000D03*
X167535000Y-85111000D03*
X166265000Y-85111000D03*
D13*
X163796000Y-87010000D03*
X163796000Y-88280000D03*
X163796000Y-89550000D03*
X163796000Y-90820000D03*
X163796000Y-92090000D03*
X163796000Y-93360000D03*
X163796000Y-94630000D03*
X163796000Y-95900000D03*
D12*
X166265000Y-97849000D03*
X167535000Y-97849000D03*
X168805000Y-97849000D03*
X170075000Y-97849000D03*
X171345000Y-97849000D03*
X172615000Y-97849000D03*
X173885000Y-97849000D03*
X175155000Y-97849000D03*
X176425000Y-97849000D03*
X177695000Y-97849000D03*
%TD*%
D14*
%TO.C,D1*%
X166550000Y-81530000D03*
X169350000Y-81530000D03*
%TD*%
D11*
%TO.C,C20*%
X137605000Y-114580000D03*
X136055000Y-114580000D03*
%TD*%
D14*
%TO.C,D2*%
X174600000Y-81550000D03*
X177400000Y-81550000D03*
%TD*%
D15*
%TO.C,R3*%
X129540000Y-84460000D03*
X131190000Y-84460000D03*
%TD*%
D16*
%TO.C,U4*%
X139625000Y-108645000D03*
X138975000Y-108645000D03*
X138325000Y-108645000D03*
X137675000Y-108645000D03*
X137675000Y-113095000D03*
X138325000Y-113095000D03*
X138975000Y-113095000D03*
X139625000Y-113095000D03*
%TD*%
D17*
%TO.C,J3*%
X172880000Y-103040000D03*
X176780000Y-103040000D03*
X172880000Y-104310000D03*
X176780000Y-104310000D03*
X172880000Y-105580000D03*
X176780000Y-105580000D03*
X172880000Y-106850000D03*
X176780000Y-106850000D03*
X172880000Y-108120000D03*
X176780000Y-108120000D03*
%TD*%
D18*
%TO.C,R40*%
X150147500Y-106850000D03*
X153072500Y-106850000D03*
%TD*%
D19*
%TO.C,U3*%
X134027500Y-98742500D03*
X135627500Y-98742500D03*
X134027500Y-97482500D03*
X135627500Y-97482500D03*
D20*
X132922500Y-100750000D03*
X134192500Y-100750000D03*
X135462500Y-100750000D03*
X136732500Y-100750000D03*
X136732500Y-95475000D03*
X135462500Y-95475000D03*
X134192500Y-95475000D03*
X132922500Y-95475000D03*
%TD*%
D15*
%TO.C,R28*%
X137525000Y-104180000D03*
X139175000Y-104180000D03*
%TD*%
D11*
%TO.C,C14*%
X131397500Y-101090000D03*
X129847500Y-101090000D03*
%TD*%
D21*
%TO.C,D4*%
X144850000Y-99655000D03*
X142750000Y-99655000D03*
%TD*%
D11*
%TO.C,C4*%
X139455000Y-90240000D03*
X137905000Y-90240000D03*
%TD*%
D10*
%TO.C,C6*%
X144370000Y-81950000D03*
X144370000Y-83850000D03*
%TD*%
D22*
%TO.C,C16*%
X132690000Y-111090000D03*
X126290000Y-111090000D03*
%TD*%
D23*
%TO.C,C49*%
X169350000Y-103670000D03*
X169350000Y-102120000D03*
%TD*%
D11*
%TO.C,C11*%
X128810000Y-91510000D03*
X127260000Y-91510000D03*
%TD*%
D24*
%TO.C,L2*%
X149205000Y-108970000D03*
X151255000Y-108970000D03*
%TD*%
D25*
%TO.C,C12*%
X133722500Y-91230000D03*
X135622500Y-91230000D03*
%TD*%
D26*
%TO.C,U5*%
X142070000Y-84800000D03*
X142070000Y-83530000D03*
X142070000Y-82260000D03*
X142070000Y-80990000D03*
X137120000Y-80990000D03*
X137120000Y-82260000D03*
X137120000Y-83530000D03*
X137120000Y-84800000D03*
%TD*%
D27*
%TO.C,C40*%
X148500000Y-106910000D03*
X146600000Y-106910000D03*
%TD*%
D10*
%TO.C,C1*%
X159650000Y-91850000D03*
X159650000Y-93750000D03*
%TD*%
D28*
%TO.C,R4*%
X144725000Y-101625000D03*
X142900000Y-101625000D03*
%TD*%
D29*
%TO.C,L1*%
X128105000Y-105280000D03*
X133940000Y-105280000D03*
%TD*%
D28*
%TO.C,R2*%
X172892500Y-81550000D03*
X171067500Y-81550000D03*
%TD*%
D30*
%TO.C,D3*%
X134790000Y-83840000D03*
X134790000Y-81940000D03*
X132915000Y-82890000D03*
%TD*%
D15*
%TO.C,R29*%
X137535000Y-102630000D03*
X139185000Y-102630000D03*
%TD*%
D28*
%TO.C,R1*%
X164782500Y-81440000D03*
X162957500Y-81440000D03*
%TD*%
D31*
%TO.C,D18*%
X131620000Y-87970000D03*
X131620000Y-90070000D03*
%TD*%
D32*
%TO.C,C15*%
X136340000Y-103920000D03*
X136340000Y-102960000D03*
%TD*%
D22*
%TO.C,C17*%
X132790000Y-115950000D03*
X126390000Y-115950000D03*
%TD*%
D25*
%TO.C,C13*%
X133722500Y-93260000D03*
X135622500Y-93260000D03*
%TD*%
D33*
%TO.C,D19*%
X129772500Y-94190000D03*
X129772500Y-98490000D03*
%TD*%
D15*
%TO.C,R27*%
X130210000Y-91470000D03*
X131860000Y-91470000D03*
%TD*%
D34*
%TO.C,U2*%
X147440000Y-83190000D03*
X147440000Y-84460000D03*
X147440000Y-85730000D03*
X147440000Y-87000000D03*
X147440000Y-88270000D03*
X147440000Y-89540000D03*
X147440000Y-90810000D03*
X147440000Y-92080000D03*
X147440000Y-93350000D03*
X156740000Y-93350000D03*
X156740000Y-92080000D03*
X156740000Y-90810000D03*
X156740000Y-89540000D03*
X156740000Y-88270000D03*
X156740000Y-87000000D03*
X156740000Y-85730000D03*
X156740000Y-84460000D03*
X156740000Y-83190000D03*
%TD*%
D35*
%TO.C,C5*%
X159300000Y-83410000D03*
X159300000Y-81510000D03*
%TD*%
D36*
%TO.C,C19*%
X139125000Y-114570000D03*
X140675000Y-114570000D03*
%TD*%
D30*
%TO.C,Q5*%
X129615000Y-89960000D03*
X129615000Y-88060000D03*
X127740000Y-89010000D03*
%TD*%
D11*
%TO.C,C18*%
X139065000Y-107110000D03*
X137515000Y-107110000D03*
%TD*%
D37*
%TO.C,U17*%
X155250000Y-102380000D03*
X155250000Y-103480000D03*
X155250000Y-104580000D03*
X155250000Y-105680000D03*
X155250000Y-106780000D03*
X155250000Y-107880000D03*
X155250000Y-108980000D03*
X155250000Y-111980000D03*
X155250000Y-113080000D03*
X155250000Y-114180000D03*
X155250000Y-115280000D03*
X155250000Y-116380000D03*
X167250000Y-116380000D03*
X167250000Y-115280000D03*
X167250000Y-114180000D03*
X167250000Y-113080000D03*
X167250000Y-111980000D03*
X167250000Y-108980000D03*
X167250000Y-107880000D03*
X167250000Y-106780000D03*
X167250000Y-105680000D03*
X167250000Y-104580000D03*
X167250000Y-103480000D03*
X167250000Y-102380000D03*
%TD*%
M02*
