%TF.GenerationSoftware,KiCad,Pcbnew,7.0.6-7.0.6~ubuntu23.04.1*%
%TF.CreationDate,2023-07-25T15:56:09+03:00*%
%TF.ProjectId,nrf52840_dev,6e726635-3238-4343-905f-6465762e6b69,rev?*%
%TF.SameCoordinates,Original*%
%TF.FileFunction,Soldermask,Top*%
%TF.FilePolarity,Negative*%
%FSLAX46Y46*%
G04 Gerber Fmt 4.6, Leading zero omitted, Abs format (unit mm)*
G04 Created by KiCad (PCBNEW 7.0.6-7.0.6~ubuntu23.04.1) date 2023-07-25 15:56:09*
%MOMM*%
%LPD*%
G01*
G04 APERTURE LIST*
G04 Aperture macros list*
%AMRoundRect*
0 Rectangle with rounded corners*
0 $1 Rounding radius*
0 $2 $3 $4 $5 $6 $7 $8 $9 X,Y pos of 4 corners*
0 Add a 4 corners polygon primitive as box body*
4,1,4,$2,$3,$4,$5,$6,$7,$8,$9,$2,$3,0*
0 Add four circle primitives for the rounded corners*
1,1,$1+$1,$2,$3*
1,1,$1+$1,$4,$5*
1,1,$1+$1,$6,$7*
1,1,$1+$1,$8,$9*
0 Add four rect primitives between the rounded corners*
20,1,$1+$1,$2,$3,$4,$5,0*
20,1,$1+$1,$4,$5,$6,$7,0*
20,1,$1+$1,$6,$7,$8,$9,0*
20,1,$1+$1,$8,$9,$2,$3,0*%
%AMFreePoly0*
4,1,19,0.500000,-0.750000,0.000000,-0.750000,0.000000,-0.744911,-0.071157,-0.744911,-0.207708,-0.704816,-0.327430,-0.627875,-0.420627,-0.520320,-0.479746,-0.390866,-0.500000,-0.250000,-0.500000,0.250000,-0.479746,0.390866,-0.420627,0.520320,-0.327430,0.627875,-0.207708,0.704816,-0.071157,0.744911,0.000000,0.744911,0.000000,0.750000,0.500000,0.750000,0.500000,-0.750000,0.500000,-0.750000,
$1*%
%AMFreePoly1*
4,1,19,0.000000,0.744911,0.071157,0.744911,0.207708,0.704816,0.327430,0.627875,0.420627,0.520320,0.479746,0.390866,0.500000,0.250000,0.500000,-0.250000,0.479746,-0.390866,0.420627,-0.520320,0.327430,-0.627875,0.207708,-0.704816,0.071157,-0.744911,0.000000,-0.744911,0.000000,-0.750000,-0.500000,-0.750000,-0.500000,0.750000,0.000000,0.750000,0.000000,0.744911,0.000000,0.744911,
$1*%
G04 Aperture macros list end*
%ADD10C,0.800000*%
%ADD11C,6.400000*%
%ADD12RoundRect,0.250000X-0.475000X0.250000X-0.475000X-0.250000X0.475000X-0.250000X0.475000X0.250000X0*%
%ADD13RoundRect,0.225000X0.225000X0.250000X-0.225000X0.250000X-0.225000X-0.250000X0.225000X-0.250000X0*%
%ADD14C,2.050000*%
%ADD15C,2.250000*%
%ADD16R,0.800000X1.500000*%
%ADD17R,1.500000X0.800000*%
%ADD18R,1.000000X0.650000*%
%ADD19R,0.650000X1.000000*%
%ADD20RoundRect,0.250000X-0.375000X-0.625000X0.375000X-0.625000X0.375000X0.625000X-0.375000X0.625000X0*%
%ADD21RoundRect,0.200000X-0.200000X-0.275000X0.200000X-0.275000X0.200000X0.275000X-0.200000X0.275000X0*%
%ADD22R,0.480000X0.800000*%
%ADD23FreePoly0,180.000000*%
%ADD24FreePoly1,180.000000*%
%ADD25R,2.400000X0.740000*%
%ADD26RoundRect,0.250000X-0.625000X0.312500X-0.625000X-0.312500X0.625000X-0.312500X0.625000X0.312500X0*%
%ADD27C,1.500000*%
%ADD28RoundRect,0.150000X0.150000X-0.662500X0.150000X0.662500X-0.150000X0.662500X-0.150000X-0.662500X0*%
%ADD29R,3.200000X2.514000*%
%ADD30RoundRect,0.250000X0.250000X0.475000X-0.250000X0.475000X-0.250000X-0.475000X0.250000X-0.475000X0*%
%ADD31RoundRect,0.112500X0.187500X0.112500X-0.187500X0.112500X-0.187500X-0.112500X0.187500X-0.112500X0*%
%ADD32RoundRect,0.250000X0.875000X1.025000X-0.875000X1.025000X-0.875000X-1.025000X0.875000X-1.025000X0*%
%ADD33RoundRect,0.250000X0.475000X-0.250000X0.475000X0.250000X-0.475000X0.250000X-0.475000X-0.250000X0*%
%ADD34RoundRect,0.250000X0.450000X-0.325000X0.450000X0.325000X-0.450000X0.325000X-0.450000X-0.325000X0*%
%ADD35RoundRect,0.250000X-0.250000X-0.475000X0.250000X-0.475000X0.250000X0.475000X-0.250000X0.475000X0*%
%ADD36RoundRect,0.250000X-0.725000X0.600000X-0.725000X-0.600000X0.725000X-0.600000X0.725000X0.600000X0*%
%ADD37O,1.950000X1.700000*%
%ADD38RoundRect,0.150000X0.825000X0.150000X-0.825000X0.150000X-0.825000X-0.150000X0.825000X-0.150000X0*%
%ADD39RoundRect,0.225000X-0.250000X0.225000X-0.250000X-0.225000X0.250000X-0.225000X0.250000X0.225000X0*%
%ADD40RoundRect,0.250000X0.262500X0.450000X-0.262500X0.450000X-0.262500X-0.450000X0.262500X-0.450000X0*%
%ADD41R,2.413000X3.429000*%
%ADD42RoundRect,0.150000X0.587500X0.150000X-0.587500X0.150000X-0.587500X-0.150000X0.587500X-0.150000X0*%
%ADD43RoundRect,0.112500X-0.112500X0.187500X-0.112500X-0.187500X0.112500X-0.187500X0.112500X0.187500X0*%
%ADD44RoundRect,0.140000X0.170000X-0.140000X0.170000X0.140000X-0.170000X0.140000X-0.170000X-0.140000X0*%
%ADD45R,1.600000X1.600000*%
%ADD46C,1.600000*%
%ADD47RoundRect,0.250000X-0.900000X1.000000X-0.900000X-1.000000X0.900000X-1.000000X0.900000X1.000000X0*%
%ADD48RoundRect,0.150000X-0.875000X-0.150000X0.875000X-0.150000X0.875000X0.150000X-0.875000X0.150000X0*%
%ADD49R,1.800000X0.750000*%
G04 APERTURE END LIST*
D10*
%TO.C,H1*%
X121550000Y-83410000D03*
X122252944Y-81712944D03*
X122252944Y-85107056D03*
X123950000Y-81010000D03*
D11*
X123950000Y-83410000D03*
D10*
X123950000Y-85810000D03*
X125647056Y-81712944D03*
X125647056Y-85107056D03*
X126350000Y-83410000D03*
%TD*%
D12*
%TO.C,C2*%
X161670000Y-91850000D03*
X161670000Y-93750000D03*
%TD*%
D13*
%TO.C,C3*%
X139435000Y-92740000D03*
X137885000Y-92740000D03*
%TD*%
D14*
%TO.C,J2*%
X148380000Y-114170000D03*
D15*
X150920000Y-116710000D03*
X150920000Y-111630000D03*
X145840000Y-116710000D03*
X145840000Y-111630000D03*
%TD*%
D16*
%TO.C,U1*%
X177695000Y-85111000D03*
X176425000Y-85111000D03*
X175155000Y-85111000D03*
X173885000Y-85111000D03*
X172615000Y-85111000D03*
X171345000Y-85111000D03*
X170075000Y-85111000D03*
X168805000Y-85111000D03*
X167535000Y-85111000D03*
X166265000Y-85111000D03*
D17*
X163796000Y-87010000D03*
D18*
X165757000Y-87647000D03*
D17*
X163796000Y-88280000D03*
D18*
X165757000Y-88917000D03*
D17*
X163796000Y-89550000D03*
D18*
X165757000Y-90187000D03*
D17*
X163796000Y-90820000D03*
D18*
X165757000Y-91457000D03*
D17*
X163796000Y-92090000D03*
D18*
X165757000Y-92727000D03*
D17*
X163796000Y-93360000D03*
D18*
X165757000Y-93997000D03*
D17*
X163796000Y-94630000D03*
D18*
X165757000Y-95267000D03*
D17*
X163796000Y-95900000D03*
D16*
X166265000Y-97849000D03*
X167535000Y-97849000D03*
D19*
X168297000Y-95521000D03*
D16*
X168805000Y-97849000D03*
D19*
X169567000Y-95521000D03*
D16*
X170075000Y-97849000D03*
D19*
X170837000Y-95521000D03*
D16*
X171345000Y-97849000D03*
D19*
X172107000Y-95521000D03*
D16*
X172615000Y-97849000D03*
D19*
X173377000Y-95521000D03*
D16*
X173885000Y-97849000D03*
D19*
X174647000Y-95521000D03*
D16*
X175155000Y-97849000D03*
D19*
X175917000Y-95521000D03*
D16*
X176425000Y-97849000D03*
D19*
X177187000Y-95521000D03*
D16*
X177695000Y-97849000D03*
%TD*%
D20*
%TO.C,D1*%
X166550000Y-81530000D03*
X169350000Y-81530000D03*
%TD*%
D13*
%TO.C,C20*%
X137605000Y-114580000D03*
X136055000Y-114580000D03*
%TD*%
D20*
%TO.C,D2*%
X174600000Y-81550000D03*
X177400000Y-81550000D03*
%TD*%
D21*
%TO.C,R3*%
X129540000Y-84460000D03*
X131190000Y-84460000D03*
%TD*%
D22*
%TO.C,U4*%
X139625000Y-108645000D03*
X138975000Y-108645000D03*
X138325000Y-108645000D03*
X137675000Y-108645000D03*
X137675000Y-113095000D03*
X138325000Y-113095000D03*
X138975000Y-113095000D03*
X139625000Y-113095000D03*
%TD*%
D23*
%TO.C,JP1*%
X130840000Y-82410000D03*
D24*
X129540000Y-82410000D03*
%TD*%
D25*
%TO.C,J3*%
X172880000Y-103040000D03*
X176780000Y-103040000D03*
X172880000Y-104310000D03*
X176780000Y-104310000D03*
X172880000Y-105580000D03*
X176780000Y-105580000D03*
X172880000Y-106850000D03*
X176780000Y-106850000D03*
X172880000Y-108120000D03*
X176780000Y-108120000D03*
%TD*%
D26*
%TO.C,R40*%
X151360000Y-106170000D03*
X151360000Y-109095000D03*
%TD*%
D27*
%TO.C,Y1*%
X143010000Y-94190000D03*
X143010000Y-89310000D03*
%TD*%
D28*
%TO.C,U3*%
X132922500Y-100750000D03*
X134192500Y-100750000D03*
X135462500Y-100750000D03*
X136732500Y-100750000D03*
X136732500Y-95475000D03*
X135462500Y-95475000D03*
X134192500Y-95475000D03*
X132922500Y-95475000D03*
D29*
X134827500Y-98112500D03*
%TD*%
D21*
%TO.C,R28*%
X137525000Y-104180000D03*
X139175000Y-104180000D03*
%TD*%
D30*
%TO.C,C14*%
X131250000Y-101030000D03*
X129350000Y-101030000D03*
%TD*%
D31*
%TO.C,D4*%
X144850000Y-99655000D03*
X142750000Y-99655000D03*
%TD*%
D13*
%TO.C,C4*%
X139455000Y-90240000D03*
X137905000Y-90240000D03*
%TD*%
D12*
%TO.C,C6*%
X144370000Y-81950000D03*
X144370000Y-83850000D03*
%TD*%
D32*
%TO.C,C16*%
X132690000Y-111090000D03*
X126290000Y-111090000D03*
%TD*%
D33*
%TO.C,C49*%
X169450000Y-103950000D03*
X169450000Y-102050000D03*
%TD*%
D13*
%TO.C,C11*%
X128810000Y-91510000D03*
X127260000Y-91510000D03*
%TD*%
D34*
%TO.C,L2*%
X148390000Y-109090000D03*
X148390000Y-107040000D03*
%TD*%
D35*
%TO.C,C12*%
X133722500Y-91230000D03*
X135622500Y-91230000D03*
%TD*%
D36*
%TO.C,J1*%
X122520000Y-96020000D03*
D37*
X122520000Y-98520000D03*
X122520000Y-101020000D03*
X122520000Y-103520000D03*
%TD*%
D38*
%TO.C,U5*%
X142070000Y-84800000D03*
X142070000Y-83530000D03*
X142070000Y-82260000D03*
X142070000Y-80990000D03*
X137120000Y-80990000D03*
X137120000Y-82260000D03*
X137120000Y-83530000D03*
X137120000Y-84800000D03*
%TD*%
D10*
%TO.C,H2*%
X172652944Y-114917056D03*
X173355888Y-113220000D03*
X173355888Y-116614112D03*
X175052944Y-112517056D03*
D11*
X175052944Y-114917056D03*
D10*
X175052944Y-117317056D03*
X176750000Y-113220000D03*
X176750000Y-116614112D03*
X177452944Y-114917056D03*
%TD*%
D39*
%TO.C,C40*%
X146640000Y-106910000D03*
X146640000Y-108460000D03*
%TD*%
D12*
%TO.C,C1*%
X159650000Y-91850000D03*
X159650000Y-93750000D03*
%TD*%
D40*
%TO.C,R4*%
X144725000Y-101625000D03*
X142900000Y-101625000D03*
%TD*%
D41*
%TO.C,L1*%
X128055000Y-105340000D03*
X133890000Y-105340000D03*
%TD*%
D40*
%TO.C,R2*%
X172892500Y-81550000D03*
X171067500Y-81550000D03*
%TD*%
D42*
%TO.C,D3*%
X134790000Y-83840000D03*
X134790000Y-81940000D03*
X132915000Y-82890000D03*
%TD*%
D21*
%TO.C,R29*%
X137535000Y-102630000D03*
X139185000Y-102630000D03*
%TD*%
D40*
%TO.C,R1*%
X164782500Y-81440000D03*
X162957500Y-81440000D03*
%TD*%
D43*
%TO.C,D18*%
X131620000Y-87970000D03*
X131620000Y-90070000D03*
%TD*%
D44*
%TO.C,C15*%
X136340000Y-103920000D03*
X136340000Y-102960000D03*
%TD*%
D32*
%TO.C,C17*%
X132790000Y-115950000D03*
X126390000Y-115950000D03*
%TD*%
D35*
%TO.C,C13*%
X133722500Y-93260000D03*
X135622500Y-93260000D03*
%TD*%
D45*
%TO.C,C7*%
X149830000Y-101222651D03*
D46*
X149830000Y-97722651D03*
%TD*%
D47*
%TO.C,D19*%
X129772500Y-94190000D03*
X129772500Y-98490000D03*
%TD*%
D21*
%TO.C,R27*%
X130210000Y-91470000D03*
X131860000Y-91470000D03*
%TD*%
D48*
%TO.C,U2*%
X147440000Y-83190000D03*
X147440000Y-84460000D03*
X147440000Y-85730000D03*
X147440000Y-87000000D03*
X147440000Y-88270000D03*
X147440000Y-89540000D03*
X147440000Y-90810000D03*
X147440000Y-92080000D03*
X147440000Y-93350000D03*
X156740000Y-93350000D03*
X156740000Y-92080000D03*
X156740000Y-90810000D03*
X156740000Y-89540000D03*
X156740000Y-88270000D03*
X156740000Y-87000000D03*
X156740000Y-85730000D03*
X156740000Y-84460000D03*
X156740000Y-83190000D03*
%TD*%
D33*
%TO.C,C5*%
X159300000Y-83410000D03*
X159300000Y-81510000D03*
%TD*%
D35*
%TO.C,C19*%
X139120000Y-114810000D03*
X141020000Y-114810000D03*
%TD*%
D42*
%TO.C,Q5*%
X129615000Y-89960000D03*
X129615000Y-88060000D03*
X127740000Y-89010000D03*
%TD*%
D30*
%TO.C,C18*%
X139190000Y-106920000D03*
X137290000Y-106920000D03*
%TD*%
D49*
%TO.C,U17*%
X155250000Y-102380000D03*
X155250000Y-103480000D03*
X155250000Y-104580000D03*
X155250000Y-105680000D03*
X155250000Y-106780000D03*
X155250000Y-107880000D03*
X155250000Y-108980000D03*
X155250000Y-111980000D03*
X155250000Y-113080000D03*
X155250000Y-114180000D03*
X155250000Y-115280000D03*
X155250000Y-116380000D03*
X167250000Y-116380000D03*
X167250000Y-115280000D03*
X167250000Y-114180000D03*
X167250000Y-113080000D03*
X167250000Y-111980000D03*
X167250000Y-108980000D03*
X167250000Y-107880000D03*
X167250000Y-106780000D03*
X167250000Y-105680000D03*
X167250000Y-104580000D03*
X167250000Y-103480000D03*
X167250000Y-102380000D03*
%TD*%
M02*
