M48
; DRILL file {KiCad 7.0.5-4d25ed1034~172~ubuntu23.04.1} date Пт 30 июн 2023 15:52:48
; FORMAT={-:-/ absolute / metric / decimal}
; #@! TF.CreationDate,2023-06-30T15:52:48+03:00
; #@! TF.GenerationSoftware,Kicad,Pcbnew,7.0.5-4d25ed1034~172~ubuntu23.04.1
; #@! TF.FileFunction,Plated,1,2,PTH
FMAT,2
METRIC
; #@! TA.AperFunction,Plated,PTH,ComponentDrill
T1C0.300
; #@! TA.AperFunction,Plated,PTH,ViaDrill
T2C0.400
; #@! TA.AperFunction,Plated,PTH,ComponentDrill
T3C0.500
; #@! TA.AperFunction,Plated,PTH,ComponentDrill
T4C0.800
; #@! TA.AperFunction,Plated,PTH,ComponentDrill
T5C0.950
; #@! TA.AperFunction,Plated,PTH,ComponentDrill
T6C1.500
; #@! TA.AperFunction,Plated,PTH,ComponentDrill
T7C1.700
; #@! TA.AperFunction,Plated,PTH,ComponentDrill
T8C3.200
%
G90
G05
T1
X165.757Y-87.647
X165.757Y-88.917
X165.757Y-90.187
X165.757Y-91.457
X165.757Y-92.727
X165.757Y-93.997
X165.757Y-95.267
X168.297Y-95.521
X169.567Y-95.521
X170.837Y-95.521
X172.107Y-95.521
X173.377Y-95.521
X174.647Y-95.521
X175.917Y-95.521
X177.187Y-95.521
T2
X122.0Y-109.0
X122.0Y-111.0
X122.0Y-113.0
X122.0Y-115.0
X122.0Y-117.0
X124.0Y-109.0
X124.0Y-111.0
X124.0Y-113.0
X124.0Y-115.0
X124.0Y-117.0
X126.57Y-91.44
X131.35Y-97.38
X131.35Y-98.38
X131.41Y-99.35
X132.24Y-97.3
X132.24Y-98.26
X132.26Y-91.92
X132.27Y-99.14
X132.65Y-83.67
X134.192Y-94.27
X134.99Y-98.09
X135.0Y-87.0
X135.45Y-102.2
X135.79Y-85.13
X135.97Y-113.42
X136.09Y-111.77
X136.63Y-90.93
X136.63Y-92.97
X137.0Y-87.0
X137.0Y-94.4
X137.15Y-98.67
X137.18Y-97.25
X137.48Y-106.12
X137.62Y-109.48
X137.66Y-111.39
X137.84Y-91.49
X139.0Y-81.0
X139.0Y-87.0
X139.0Y-95.0
X139.0Y-97.0
X139.0Y-99.0
X139.0Y-101.0
X139.67Y-110.09
X139.75Y-111.58
X140.0Y-84.0
X141.0Y-100.0
X141.0Y-103.0
X141.0Y-105.0
X141.73Y-114.62
X145.18Y-83.81
X145.7Y-81.94
X149.48Y-93.38
X150.0Y-86.0
X150.0Y-89.0
X150.0Y-92.0
X152.97Y-104.08
X153.28Y-84.75
X153.28Y-91.87
X153.28Y-99.24
X155.0Y-86.0
X155.0Y-89.0
X155.0Y-93.0
X155.0Y-97.0
X155.0Y-100.0
X156.83Y-108.96
X156.85Y-114.15
X156.87Y-116.34
X158.0Y-97.0
X158.0Y-100.0
X159.0Y-108.0
X159.0Y-110.0
X159.0Y-113.0
X159.0Y-115.0
X160.67Y-91.85
X160.71Y-94.77
X161.0Y-97.0
X161.0Y-100.0
X161.0Y-108.0
X161.0Y-110.0
X161.0Y-113.0
X161.0Y-115.0
X161.04Y-81.71
X162.56Y-92.09
X162.69Y-94.97
X163.0Y-108.0
X163.0Y-110.0
X163.0Y-113.0
X163.0Y-115.0
X165.61Y-104.6
X165.73Y-103.3
X167.2Y-99.59
X168.0Y-88.0
X168.0Y-91.0
X168.0Y-94.0
X168.29Y-99.57
X169.36Y-101.13
X170.0Y-107.0
X170.0Y-109.0
X170.0Y-111.0
X170.0Y-113.0
X170.0Y-115.0
X170.0Y-117.0
X170.67Y-103.31
X170.84Y-108.2
X171.0Y-88.0
X171.0Y-91.0
X171.0Y-94.0
X171.0Y-101.0
X172.59Y-83.59
X172.61Y-86.51
X173.0Y-101.0
X174.0Y-88.0
X174.0Y-91.0
X174.0Y-94.0
X177.0Y-88.0
X177.0Y-91.0
X177.0Y-94.0
X178.0Y-101.0
X178.72Y-105.52
T3
X121.55Y-83.41
X122.253Y-81.713
X122.253Y-85.107
X123.95Y-81.01
X123.95Y-85.81
X125.647Y-81.713
X125.647Y-85.107
X126.35Y-83.41
X172.653Y-114.917
X173.356Y-113.22
X173.356Y-116.614
X175.053Y-112.517
X175.053Y-117.317
X176.75Y-113.22
X176.75Y-116.614
X177.453Y-114.917
T4
X143.01Y-89.31
X143.01Y-94.19
X149.83Y-97.723
X149.83Y-101.223
T5
X122.52Y-96.02
X122.52Y-98.52
X122.52Y-101.02
X122.52Y-103.52
T6
X148.38Y-114.17
T7
X145.84Y-111.63
X145.84Y-116.71
X150.92Y-111.63
X150.92Y-116.71
T8
X123.95Y-83.41
X175.053Y-114.917
T0
M30
