%TF.GenerationSoftware,KiCad,Pcbnew,7.0.5-4d25ed1034~172~ubuntu23.04.1*%
%TF.CreationDate,2023-06-30T15:52:37+03:00*%
%TF.ProjectId,nrf52840_dev,6e726635-3238-4343-905f-6465762e6b69,rev?*%
%TF.SameCoordinates,Original*%
%TF.FileFunction,Copper,L2,Bot*%
%TF.FilePolarity,Positive*%
%FSLAX46Y46*%
G04 Gerber Fmt 4.6, Leading zero omitted, Abs format (unit mm)*
G04 Created by KiCad (PCBNEW 7.0.5-4d25ed1034~172~ubuntu23.04.1) date 2023-06-30 15:52:37*
%MOMM*%
%LPD*%
G01*
G04 APERTURE LIST*
G04 Aperture macros list*
%AMRoundRect*
0 Rectangle with rounded corners*
0 $1 Rounding radius*
0 $2 $3 $4 $5 $6 $7 $8 $9 X,Y pos of 4 corners*
0 Add a 4 corners polygon primitive as box body*
4,1,4,$2,$3,$4,$5,$6,$7,$8,$9,$2,$3,0*
0 Add four circle primitives for the rounded corners*
1,1,$1+$1,$2,$3*
1,1,$1+$1,$4,$5*
1,1,$1+$1,$6,$7*
1,1,$1+$1,$8,$9*
0 Add four rect primitives between the rounded corners*
20,1,$1+$1,$2,$3,$4,$5,0*
20,1,$1+$1,$4,$5,$6,$7,0*
20,1,$1+$1,$6,$7,$8,$9,0*
20,1,$1+$1,$8,$9,$2,$3,0*%
G04 Aperture macros list end*
%TA.AperFunction,ComponentPad*%
%ADD10C,0.800000*%
%TD*%
%TA.AperFunction,ComponentPad*%
%ADD11C,6.400000*%
%TD*%
%TA.AperFunction,ComponentPad*%
%ADD12C,2.050000*%
%TD*%
%TA.AperFunction,ComponentPad*%
%ADD13C,2.250000*%
%TD*%
%TA.AperFunction,ComponentPad*%
%ADD14R,1.000000X0.650000*%
%TD*%
%TA.AperFunction,ComponentPad*%
%ADD15R,0.650000X1.000000*%
%TD*%
%TA.AperFunction,ComponentPad*%
%ADD16C,1.500000*%
%TD*%
%TA.AperFunction,ComponentPad*%
%ADD17RoundRect,0.250000X-0.725000X0.600000X-0.725000X-0.600000X0.725000X-0.600000X0.725000X0.600000X0*%
%TD*%
%TA.AperFunction,ComponentPad*%
%ADD18O,1.950000X1.700000*%
%TD*%
%TA.AperFunction,ComponentPad*%
%ADD19R,1.600000X1.600000*%
%TD*%
%TA.AperFunction,ComponentPad*%
%ADD20C,1.600000*%
%TD*%
%TA.AperFunction,ViaPad*%
%ADD21C,0.800000*%
%TD*%
%TA.AperFunction,Conductor*%
%ADD22C,0.800000*%
%TD*%
%TA.AperFunction,Conductor*%
%ADD23C,0.500000*%
%TD*%
%TA.AperFunction,Conductor*%
%ADD24C,0.300000*%
%TD*%
G04 APERTURE END LIST*
D10*
%TO.P,H1,1,1*%
%TO.N,GND*%
X121550000Y-83410000D03*
X122252944Y-81712944D03*
X122252944Y-85107056D03*
X123950000Y-81010000D03*
D11*
X123950000Y-83410000D03*
D10*
X123950000Y-85810000D03*
X125647056Y-81712944D03*
X125647056Y-85107056D03*
X126350000Y-83410000D03*
%TD*%
D12*
%TO.P,J2,1,In*%
%TO.N,/ublox/GPS_RF*%
X148380000Y-114170000D03*
D13*
%TO.P,J2,2,Ext*%
%TO.N,GND*%
X150920000Y-116710000D03*
X150920000Y-111630000D03*
X145840000Y-116710000D03*
X145840000Y-111630000D03*
%TD*%
D14*
%TO.P,U1,12,P0.26*%
%TO.N,/CS*%
X165757000Y-87647000D03*
%TO.P,U1,14,P0.06*%
%TO.N,unconnected-(U1-P0.06-Pad14)*%
X165757000Y-88917000D03*
%TO.P,U1,16,P0.08*%
%TO.N,unconnected-(U1-P0.08-Pad16)*%
X165757000Y-90187000D03*
%TO.P,U1,18,P0.04(AIN2)*%
%TO.N,unconnected-(U1-P0.04(AIN2)-Pad18)*%
X165757000Y-91457000D03*
%TO.P,U1,20,P0.12*%
%TO.N,unconnected-(U1-P0.12-Pad20)*%
X165757000Y-92727000D03*
%TO.P,U1,22,P0.07*%
%TO.N,/RX*%
X165757000Y-93997000D03*
%TO.P,U1,24,GND*%
%TO.N,GND*%
X165757000Y-95267000D03*
D15*
%TO.P,U1,28,P0.15*%
%TO.N,/TX*%
X168297000Y-95521000D03*
%TO.P,U1,30,P0.17*%
%TO.N,unconnected-(U1-P0.17-Pad30)*%
X169567000Y-95521000D03*
%TO.P,U1,32,P0.20*%
%TO.N,unconnected-(U1-P0.20-Pad32)*%
X170837000Y-95521000D03*
%TO.P,U1,34,P0.22*%
%TO.N,unconnected-(U1-P0.22-Pad34)*%
X172107000Y-95521000D03*
%TO.P,U1,36,P1.00*%
%TO.N,unconnected-(U1-P1.00-Pad36)*%
X173377000Y-95521000D03*
%TO.P,U1,38,P1.02*%
%TO.N,unconnected-(U1-P1.02-Pad38)*%
X174647000Y-95521000D03*
%TO.P,U1,40,P1.04*%
%TO.N,unconnected-(U1-P1.04-Pad40)*%
X175917000Y-95521000D03*
%TO.P,U1,42,P1.06*%
%TO.N,unconnected-(U1-P1.06-Pad42)*%
X177187000Y-95521000D03*
%TD*%
D16*
%TO.P,Y1,1,1*%
%TO.N,Net-(U2-OSC1)*%
X143010000Y-94190000D03*
%TO.P,Y1,2,2*%
%TO.N,Net-(U2-OSC2)*%
X143010000Y-89310000D03*
%TD*%
D17*
%TO.P,J1,1,Pin_1*%
%TO.N,/CANH*%
X122520000Y-96020000D03*
D18*
%TO.P,J1,2,Pin_2*%
%TO.N,/CANL*%
X122520000Y-98520000D03*
%TO.P,J1,3,Pin_3*%
%TO.N,/12VIN*%
X122520000Y-101020000D03*
%TO.P,J1,4,Pin_4*%
%TO.N,GND*%
X122520000Y-103520000D03*
%TD*%
D10*
%TO.P,H2,1,1*%
%TO.N,GND*%
X172652944Y-114917056D03*
X173355888Y-113220000D03*
X173355888Y-116614112D03*
X175052944Y-112517056D03*
D11*
X175052944Y-114917056D03*
D10*
X175052944Y-117317056D03*
X176750000Y-113220000D03*
X176750000Y-116614112D03*
X177452944Y-114917056D03*
%TD*%
D19*
%TO.P,C7,1*%
%TO.N,/ublox/GPS_VBAT*%
X149830000Y-101222651D03*
D20*
%TO.P,C7,2*%
%TO.N,GND*%
X149830000Y-97722651D03*
%TD*%
D21*
%TO.N,/3V3*%
X145700000Y-81940000D03*
X165730000Y-103300000D03*
X153280000Y-99240000D03*
X153280000Y-91870000D03*
X162560000Y-92090000D03*
X160670000Y-91850000D03*
X162690000Y-94970000D03*
X153280000Y-84750000D03*
%TO.N,GND*%
X168000000Y-94000000D03*
X161000000Y-110000000D03*
X170000000Y-107000000D03*
X137620000Y-109480000D03*
X137660000Y-111390000D03*
X177000000Y-94000000D03*
X132240000Y-98260000D03*
X124000000Y-109000000D03*
X141000000Y-103000000D03*
X122000000Y-111000000D03*
X136090000Y-111770000D03*
X141000000Y-105000000D03*
X137480000Y-106120000D03*
X155000000Y-100000000D03*
X170000000Y-117000000D03*
X134990000Y-98090000D03*
X168000000Y-88000000D03*
X135450000Y-102200000D03*
X131350000Y-98380000D03*
X139670000Y-110090000D03*
X137150000Y-98670000D03*
X160710000Y-94770000D03*
X124000000Y-111000000D03*
X163000000Y-108000000D03*
X156870000Y-116340000D03*
X132240000Y-97300000D03*
X170000000Y-111000000D03*
X174000000Y-88000000D03*
X161000000Y-108000000D03*
X171000000Y-101000000D03*
X161000000Y-97000000D03*
X159000000Y-108000000D03*
X139000000Y-87000000D03*
X163000000Y-115000000D03*
X170000000Y-109000000D03*
X141000000Y-100000000D03*
X139000000Y-99000000D03*
X161000000Y-100000000D03*
X136630000Y-92970000D03*
X177000000Y-91000000D03*
X178720000Y-105520000D03*
X158000000Y-100000000D03*
X131350000Y-97380000D03*
X159000000Y-115000000D03*
X139750000Y-111580000D03*
X170840000Y-108200000D03*
X159000000Y-110000000D03*
X170000000Y-115000000D03*
X124000000Y-117000000D03*
X170000000Y-113000000D03*
X136630000Y-90930000D03*
X145180000Y-83810000D03*
X124000000Y-113000000D03*
X174000000Y-94000000D03*
X137180000Y-97250000D03*
X139000000Y-97000000D03*
X150000000Y-89000000D03*
X172590000Y-83590000D03*
X132270000Y-99140000D03*
X150000000Y-86000000D03*
X122000000Y-113000000D03*
X135970000Y-113420000D03*
X137840000Y-91490000D03*
X172610000Y-86510000D03*
X124000000Y-115000000D03*
X178000000Y-101000000D03*
X122000000Y-115000000D03*
X156830000Y-108960000D03*
X122000000Y-109000000D03*
X173000000Y-101000000D03*
X177000000Y-88000000D03*
X155000000Y-89000000D03*
X163000000Y-110000000D03*
X169360000Y-101130000D03*
X171000000Y-88000000D03*
X135000000Y-87000000D03*
X163000000Y-113000000D03*
X126570000Y-91440000D03*
X137000000Y-87000000D03*
X171000000Y-94000000D03*
X139000000Y-101000000D03*
X132650000Y-83670000D03*
X135790000Y-85130000D03*
X171000000Y-91000000D03*
X155000000Y-93000000D03*
X150000000Y-92000000D03*
X161000000Y-115000000D03*
X161000000Y-113000000D03*
X159000000Y-113000000D03*
X141730000Y-114620000D03*
X139000000Y-95000000D03*
X155000000Y-86000000D03*
X132260000Y-91920000D03*
X131410000Y-99350000D03*
X158000000Y-97000000D03*
X149480000Y-93380000D03*
X155000000Y-97000000D03*
X139000000Y-81000000D03*
X140000000Y-84000000D03*
X174000000Y-91000000D03*
X161040000Y-81710000D03*
X122000000Y-117000000D03*
X168000000Y-91000000D03*
X156850000Y-114150000D03*
%TO.N,/RX*%
X167200000Y-99590000D03*
%TO.N,/TX*%
X168290000Y-99570000D03*
%TO.N,/ublox/GPS_VBAT*%
X165610000Y-104600000D03*
%TO.N,Net-(D18-K)*%
X137000000Y-94400000D03*
X134192500Y-94270000D03*
%TO.N,/5V*%
X152970000Y-104080000D03*
X170670000Y-103310000D03*
%TD*%
D22*
%TO.N,/3V3*%
X150470000Y-81940000D02*
X153280000Y-84750000D01*
D23*
X165730000Y-103300000D02*
X156850000Y-103300000D01*
D24*
X162690000Y-94970000D02*
X162690000Y-92220000D01*
D22*
X160670000Y-91850000D02*
X153300000Y-91850000D01*
D23*
X156850000Y-103300000D02*
X153280000Y-99730000D01*
D22*
X145700000Y-81940000D02*
X150470000Y-81940000D01*
X153300000Y-91850000D02*
X153280000Y-91870000D01*
D24*
X162690000Y-92220000D02*
X162560000Y-92090000D01*
D23*
X153280000Y-99730000D02*
X153280000Y-99240000D01*
D24*
%TO.N,/RX*%
X167200000Y-94620000D02*
X167200000Y-99590000D01*
X166577000Y-93997000D02*
X167200000Y-94620000D01*
X165757000Y-93997000D02*
X166577000Y-93997000D01*
%TO.N,/TX*%
X168297000Y-95521000D02*
X168297000Y-99563000D01*
X168297000Y-99563000D02*
X168290000Y-99570000D01*
D23*
%TO.N,/ublox/GPS_VBAT*%
X156650000Y-104600000D02*
X153425000Y-101375000D01*
X165610000Y-104600000D02*
X156650000Y-104600000D01*
X153272651Y-101222651D02*
X153425000Y-101375000D01*
X149830000Y-101222651D02*
X153272651Y-101222651D01*
%TO.N,Net-(D18-K)*%
X137000000Y-94400000D02*
X134322500Y-94400000D01*
X134322500Y-94400000D02*
X134192500Y-94270000D01*
%TO.N,/5V*%
X154470000Y-104080000D02*
X156050000Y-105660000D01*
X152970000Y-104080000D02*
X154470000Y-104080000D01*
X168320000Y-105660000D02*
X170670000Y-103310000D01*
X156050000Y-105660000D02*
X168320000Y-105660000D01*
%TD*%
%TA.AperFunction,Conductor*%
%TO.N,GND*%
G36*
X127540151Y-79593845D02*
G01*
X176591619Y-79599364D01*
X176593342Y-79599870D01*
X176642351Y-79599870D01*
X176645591Y-79599954D01*
X176777315Y-79606856D01*
X176961730Y-79617211D01*
X176967909Y-79617872D01*
X177120564Y-79642049D01*
X177283603Y-79669750D01*
X177289227Y-79670979D01*
X177442388Y-79712017D01*
X177543818Y-79741239D01*
X177597837Y-79756802D01*
X177602887Y-79758494D01*
X177751809Y-79815659D01*
X177753265Y-79816240D01*
X177900820Y-79877358D01*
X177905171Y-79879364D01*
X178048042Y-79952160D01*
X178049872Y-79953131D01*
X178188890Y-80029963D01*
X178192655Y-80032222D01*
X178256822Y-80073892D01*
X178327478Y-80119777D01*
X178329588Y-80121209D01*
X178458775Y-80212872D01*
X178461915Y-80215254D01*
X178494849Y-80241923D01*
X178587058Y-80316592D01*
X178589289Y-80318491D01*
X178700549Y-80417919D01*
X178707274Y-80423929D01*
X178709783Y-80426300D01*
X178823697Y-80540214D01*
X178826069Y-80542724D01*
X178931502Y-80660703D01*
X178933412Y-80662948D01*
X178990855Y-80733883D01*
X179034744Y-80788083D01*
X179037126Y-80791223D01*
X179128789Y-80920410D01*
X179130221Y-80922520D01*
X179217768Y-81057329D01*
X179220035Y-81061108D01*
X179296867Y-81200126D01*
X179297845Y-81201969D01*
X179313608Y-81232905D01*
X179370624Y-81344806D01*
X179372650Y-81349202D01*
X179396916Y-81407785D01*
X179433743Y-81496696D01*
X179434344Y-81498203D01*
X179491501Y-81647104D01*
X179493196Y-81652161D01*
X179537996Y-81807662D01*
X179579016Y-81960760D01*
X179580254Y-81966424D01*
X179607959Y-82129491D01*
X179632122Y-82282057D01*
X179632788Y-82288284D01*
X179643146Y-82472753D01*
X179650045Y-82604405D01*
X179650130Y-82607650D01*
X179650130Y-115472349D01*
X179650045Y-115475594D01*
X179643146Y-115607245D01*
X179632788Y-115791714D01*
X179632122Y-115797941D01*
X179607959Y-115950507D01*
X179580254Y-116113574D01*
X179579016Y-116119238D01*
X179537996Y-116272336D01*
X179493196Y-116427837D01*
X179491501Y-116432894D01*
X179434344Y-116581795D01*
X179433743Y-116583302D01*
X179372657Y-116730782D01*
X179370618Y-116735205D01*
X179297845Y-116878029D01*
X179296867Y-116879872D01*
X179220035Y-117018890D01*
X179217768Y-117022669D01*
X179130221Y-117157478D01*
X179128789Y-117159588D01*
X179037126Y-117288775D01*
X179034744Y-117291915D01*
X178933439Y-117417019D01*
X178931485Y-117419315D01*
X178826069Y-117537274D01*
X178823680Y-117539802D01*
X178709802Y-117653680D01*
X178707274Y-117656069D01*
X178589315Y-117761485D01*
X178587019Y-117763439D01*
X178461915Y-117864744D01*
X178458775Y-117867126D01*
X178329588Y-117958789D01*
X178327478Y-117960221D01*
X178192669Y-118047768D01*
X178188890Y-118050035D01*
X178049872Y-118126867D01*
X178048029Y-118127845D01*
X177905205Y-118200618D01*
X177900782Y-118202657D01*
X177753302Y-118263743D01*
X177751795Y-118264344D01*
X177602894Y-118321501D01*
X177597837Y-118323196D01*
X177442336Y-118367996D01*
X177289238Y-118409016D01*
X177283574Y-118410254D01*
X177120507Y-118437959D01*
X176967941Y-118462122D01*
X176961714Y-118462788D01*
X176777245Y-118473146D01*
X176652833Y-118479665D01*
X176645592Y-118480045D01*
X176642349Y-118480130D01*
X123067651Y-118480130D01*
X123064407Y-118480045D01*
X123056010Y-118479605D01*
X122932753Y-118473146D01*
X122748284Y-118462788D01*
X122742057Y-118462122D01*
X122589491Y-118437959D01*
X122426424Y-118410254D01*
X122420760Y-118409016D01*
X122306201Y-118378321D01*
X122267646Y-118367991D01*
X122112161Y-118323196D01*
X122107104Y-118321501D01*
X121958203Y-118264344D01*
X121956696Y-118263743D01*
X121885256Y-118234153D01*
X121809202Y-118202650D01*
X121804806Y-118200624D01*
X121719296Y-118157055D01*
X121661969Y-118127845D01*
X121660126Y-118126867D01*
X121521108Y-118050035D01*
X121517329Y-118047768D01*
X121382520Y-117960221D01*
X121380410Y-117958789D01*
X121251223Y-117867126D01*
X121248083Y-117864744D01*
X121193883Y-117820855D01*
X121122948Y-117763412D01*
X121120703Y-117761502D01*
X121002724Y-117656069D01*
X121000214Y-117653697D01*
X120886300Y-117539783D01*
X120883929Y-117537274D01*
X120778491Y-117419289D01*
X120776592Y-117417058D01*
X120701923Y-117324849D01*
X120675254Y-117291915D01*
X120672872Y-117288775D01*
X120581209Y-117159588D01*
X120579777Y-117157478D01*
X120533892Y-117086822D01*
X120492222Y-117022655D01*
X120489963Y-117018890D01*
X120413131Y-116879872D01*
X120412153Y-116878029D01*
X120339364Y-116735171D01*
X120337358Y-116730820D01*
X120276240Y-116583265D01*
X120275654Y-116581795D01*
X120218494Y-116432887D01*
X120216802Y-116427837D01*
X120201239Y-116373818D01*
X120172017Y-116272388D01*
X120130979Y-116119227D01*
X120129750Y-116113603D01*
X120102049Y-115950564D01*
X120077872Y-115797909D01*
X120077211Y-115791730D01*
X120066853Y-115607245D01*
X120059954Y-115475592D01*
X120059870Y-115472350D01*
X120059870Y-114169999D01*
X146849783Y-114169999D01*
X146868623Y-114409382D01*
X146924674Y-114642853D01*
X146924678Y-114642865D01*
X147016565Y-114864702D01*
X147142026Y-115069436D01*
X147142028Y-115069439D01*
X147297973Y-115252027D01*
X147480561Y-115407972D01*
X147480563Y-115407973D01*
X147685297Y-115533434D01*
X147782047Y-115573508D01*
X147907137Y-115625323D01*
X148140621Y-115681377D01*
X148380000Y-115700217D01*
X148619379Y-115681377D01*
X148852863Y-115625323D01*
X149074704Y-115533433D01*
X149279439Y-115407972D01*
X149462027Y-115252027D01*
X149617972Y-115069439D01*
X149743433Y-114864704D01*
X149835323Y-114642863D01*
X149891377Y-114409379D01*
X149910217Y-114170000D01*
X149891377Y-113930621D01*
X149835323Y-113697137D01*
X149783508Y-113572047D01*
X149743434Y-113475297D01*
X149617973Y-113270563D01*
X149617972Y-113270561D01*
X149462027Y-113087973D01*
X149279439Y-112932028D01*
X149279436Y-112932026D01*
X149074702Y-112806565D01*
X148852865Y-112714678D01*
X148852867Y-112714678D01*
X148852863Y-112714677D01*
X148852859Y-112714676D01*
X148852853Y-112714674D01*
X148619382Y-112658623D01*
X148439844Y-112644492D01*
X148380000Y-112639783D01*
X148379999Y-112639783D01*
X148140617Y-112658623D01*
X147907146Y-112714674D01*
X147907134Y-112714678D01*
X147685297Y-112806565D01*
X147480563Y-112932026D01*
X147297973Y-113087973D01*
X147142026Y-113270563D01*
X147016565Y-113475297D01*
X146924678Y-113697134D01*
X146924674Y-113697146D01*
X146868623Y-113930617D01*
X146849783Y-114169999D01*
X120059870Y-114169999D01*
X120059870Y-101020000D01*
X121039341Y-101020000D01*
X121059936Y-101255403D01*
X121059938Y-101255413D01*
X121121094Y-101483655D01*
X121121096Y-101483659D01*
X121121097Y-101483663D01*
X121171031Y-101590746D01*
X121220964Y-101697828D01*
X121220965Y-101697830D01*
X121356505Y-101891402D01*
X121523597Y-102058494D01*
X121717169Y-102194034D01*
X121717171Y-102194035D01*
X121931337Y-102293903D01*
X122159592Y-102355063D01*
X122336032Y-102370499D01*
X122336033Y-102370500D01*
X122336034Y-102370500D01*
X122703967Y-102370500D01*
X122703967Y-102370499D01*
X122880408Y-102355063D01*
X123108663Y-102293903D01*
X123322829Y-102194035D01*
X123499226Y-102070521D01*
X148529500Y-102070521D01*
X148529501Y-102070527D01*
X148535908Y-102130134D01*
X148586202Y-102264979D01*
X148586206Y-102264986D01*
X148672452Y-102380195D01*
X148672455Y-102380198D01*
X148787664Y-102466444D01*
X148787671Y-102466448D01*
X148922517Y-102516742D01*
X148922516Y-102516742D01*
X148929444Y-102517486D01*
X148982127Y-102523151D01*
X150677872Y-102523150D01*
X150737483Y-102516742D01*
X150872331Y-102466447D01*
X150987546Y-102380197D01*
X151073796Y-102264982D01*
X151124091Y-102130134D01*
X151129062Y-102083893D01*
X151155799Y-102019345D01*
X151213191Y-101979497D01*
X151252351Y-101973151D01*
X152910421Y-101973151D01*
X152977460Y-101992836D01*
X152998102Y-102009470D01*
X154106451Y-103117819D01*
X154139936Y-103179142D01*
X154134952Y-103248834D01*
X154093080Y-103304767D01*
X154027616Y-103329184D01*
X154018770Y-103329500D01*
X153509337Y-103329500D01*
X153442298Y-103309815D01*
X153436452Y-103305818D01*
X153422734Y-103295851D01*
X153422729Y-103295848D01*
X153249807Y-103218857D01*
X153249802Y-103218855D01*
X153104001Y-103187865D01*
X153064646Y-103179500D01*
X152875354Y-103179500D01*
X152842897Y-103186398D01*
X152690197Y-103218855D01*
X152690192Y-103218857D01*
X152517270Y-103295848D01*
X152517265Y-103295851D01*
X152364129Y-103407111D01*
X152237466Y-103547785D01*
X152142821Y-103711715D01*
X152142818Y-103711722D01*
X152084327Y-103891740D01*
X152084326Y-103891744D01*
X152064540Y-104080000D01*
X152084326Y-104268256D01*
X152084327Y-104268259D01*
X152142818Y-104448277D01*
X152142821Y-104448284D01*
X152237467Y-104612216D01*
X152364128Y-104752887D01*
X152364129Y-104752888D01*
X152517265Y-104864148D01*
X152517270Y-104864151D01*
X152690192Y-104941142D01*
X152690197Y-104941144D01*
X152875354Y-104980500D01*
X152875355Y-104980500D01*
X153064644Y-104980500D01*
X153064646Y-104980500D01*
X153249803Y-104941144D01*
X153422730Y-104864151D01*
X153424776Y-104862664D01*
X153436452Y-104854182D01*
X153502258Y-104830702D01*
X153509337Y-104830500D01*
X154107770Y-104830500D01*
X154174809Y-104850185D01*
X154195451Y-104866819D01*
X155474267Y-106145634D01*
X155486048Y-106159266D01*
X155500390Y-106178530D01*
X155540420Y-106212119D01*
X155544392Y-106215759D01*
X155547313Y-106218680D01*
X155550223Y-106221591D01*
X155575246Y-106241375D01*
X155576628Y-106242501D01*
X155588797Y-106252712D01*
X155634786Y-106291302D01*
X155640823Y-106295272D01*
X155640789Y-106295322D01*
X155647144Y-106299370D01*
X155647177Y-106299318D01*
X155653318Y-106303106D01*
X155653323Y-106303110D01*
X155722144Y-106335201D01*
X155723660Y-106335935D01*
X155791567Y-106370040D01*
X155791572Y-106370041D01*
X155798355Y-106372510D01*
X155798334Y-106372567D01*
X155805451Y-106375040D01*
X155805470Y-106374984D01*
X155812324Y-106377254D01*
X155812327Y-106377256D01*
X155886715Y-106392615D01*
X155888352Y-106392978D01*
X155962279Y-106410500D01*
X155962285Y-106410500D01*
X155969452Y-106411338D01*
X155969445Y-106411397D01*
X155976946Y-106412163D01*
X155976952Y-106412104D01*
X155984141Y-106412733D01*
X155984143Y-106412732D01*
X155984144Y-106412733D01*
X156005764Y-106412104D01*
X156060012Y-106410526D01*
X156061815Y-106410500D01*
X168256295Y-106410500D01*
X168274265Y-106411809D01*
X168298023Y-106415289D01*
X168350068Y-106410735D01*
X168355470Y-106410500D01*
X168363704Y-106410500D01*
X168363709Y-106410500D01*
X168395458Y-106406788D01*
X168397075Y-106406622D01*
X168472797Y-106399999D01*
X168472805Y-106399996D01*
X168479866Y-106398539D01*
X168479878Y-106398598D01*
X168487243Y-106396965D01*
X168487229Y-106396906D01*
X168494251Y-106395241D01*
X168494255Y-106395241D01*
X168565587Y-106369277D01*
X168567286Y-106368688D01*
X168639334Y-106344814D01*
X168639342Y-106344808D01*
X168645882Y-106341760D01*
X168645908Y-106341816D01*
X168652690Y-106338532D01*
X168652663Y-106338478D01*
X168659109Y-106335239D01*
X168659117Y-106335237D01*
X168722612Y-106293475D01*
X168723977Y-106292605D01*
X168788656Y-106252712D01*
X168788661Y-106252706D01*
X168794325Y-106248229D01*
X168794363Y-106248277D01*
X168800200Y-106243522D01*
X168800161Y-106243475D01*
X168805691Y-106238833D01*
X168805696Y-106238830D01*
X168857799Y-106183602D01*
X168858992Y-106182374D01*
X170822771Y-104218595D01*
X170884092Y-104185112D01*
X170884448Y-104185034D01*
X170949803Y-104171144D01*
X171122730Y-104094151D01*
X171275871Y-103982888D01*
X171402533Y-103842216D01*
X171497179Y-103678284D01*
X171555674Y-103498256D01*
X171575460Y-103310000D01*
X171555674Y-103121744D01*
X171497179Y-102941716D01*
X171402533Y-102777784D01*
X171275871Y-102637112D01*
X171275870Y-102637111D01*
X171122734Y-102525851D01*
X171122729Y-102525848D01*
X170949807Y-102448857D01*
X170949802Y-102448855D01*
X170804001Y-102417865D01*
X170764646Y-102409500D01*
X170575354Y-102409500D01*
X170542897Y-102416398D01*
X170390197Y-102448855D01*
X170390192Y-102448857D01*
X170217270Y-102525848D01*
X170217265Y-102525851D01*
X170064129Y-102637111D01*
X169937466Y-102777785D01*
X169842821Y-102941715D01*
X169842819Y-102941719D01*
X169787478Y-103112041D01*
X169757228Y-103161403D01*
X168045451Y-104873181D01*
X167984128Y-104906666D01*
X167957770Y-104909500D01*
X166620646Y-104909500D01*
X166553607Y-104889815D01*
X166507852Y-104837011D01*
X166497325Y-104772541D01*
X166515460Y-104600000D01*
X166495674Y-104411744D01*
X166437179Y-104231716D01*
X166351593Y-104083476D01*
X166335120Y-104015575D01*
X166357973Y-103949549D01*
X166366817Y-103938518D01*
X166462533Y-103832216D01*
X166557179Y-103668284D01*
X166615674Y-103488256D01*
X166635460Y-103300000D01*
X166615674Y-103111744D01*
X166557179Y-102931716D01*
X166462533Y-102767784D01*
X166335871Y-102627112D01*
X166335870Y-102627111D01*
X166182734Y-102515851D01*
X166182729Y-102515848D01*
X166009807Y-102438857D01*
X166009802Y-102438855D01*
X165864001Y-102407865D01*
X165824646Y-102399500D01*
X165635354Y-102399500D01*
X165602897Y-102406398D01*
X165450197Y-102438855D01*
X165450192Y-102438857D01*
X165277270Y-102515848D01*
X165277265Y-102515851D01*
X165263548Y-102525818D01*
X165197742Y-102549298D01*
X165190663Y-102549500D01*
X157212229Y-102549500D01*
X157145190Y-102529815D01*
X157124548Y-102513181D01*
X154188492Y-99577124D01*
X154155007Y-99515801D01*
X154158243Y-99451122D01*
X154165674Y-99428256D01*
X154185460Y-99240000D01*
X154165674Y-99051744D01*
X154107179Y-98871716D01*
X154012533Y-98707784D01*
X153885871Y-98567112D01*
X153821027Y-98520000D01*
X153732734Y-98455851D01*
X153732729Y-98455848D01*
X153559807Y-98378857D01*
X153559802Y-98378855D01*
X153414000Y-98347865D01*
X153374646Y-98339500D01*
X153185354Y-98339500D01*
X153152897Y-98346398D01*
X153000197Y-98378855D01*
X153000192Y-98378857D01*
X152827270Y-98455848D01*
X152827265Y-98455851D01*
X152674129Y-98567111D01*
X152547466Y-98707785D01*
X152452821Y-98871715D01*
X152452818Y-98871722D01*
X152394327Y-99051740D01*
X152394326Y-99051744D01*
X152374540Y-99240000D01*
X152394326Y-99428256D01*
X152394327Y-99428259D01*
X152452821Y-99608285D01*
X152512887Y-99712322D01*
X152528387Y-99770168D01*
X152529026Y-99770131D01*
X152529081Y-99770125D01*
X152529081Y-99770128D01*
X152529291Y-99770116D01*
X152529500Y-99773712D01*
X152533202Y-99805391D01*
X152533383Y-99807159D01*
X152536065Y-99837811D01*
X152540000Y-99882792D01*
X152541461Y-99889867D01*
X152541403Y-99889878D01*
X152543034Y-99897237D01*
X152543092Y-99897224D01*
X152544757Y-99904249D01*
X152544758Y-99904254D01*
X152544759Y-99904255D01*
X152564423Y-99958284D01*
X152570708Y-99975551D01*
X152571299Y-99977253D01*
X152595182Y-100049326D01*
X152598236Y-100055874D01*
X152598182Y-100055898D01*
X152601470Y-100062688D01*
X152601521Y-100062663D01*
X152604761Y-100069113D01*
X152604762Y-100069114D01*
X152604763Y-100069117D01*
X152646494Y-100132567D01*
X152647443Y-100134058D01*
X152675979Y-100180322D01*
X152687289Y-100198657D01*
X152691766Y-100204319D01*
X152691719Y-100204356D01*
X152696482Y-100210202D01*
X152696528Y-100210164D01*
X152701173Y-100215699D01*
X152745963Y-100257956D01*
X152781218Y-100318279D01*
X152778263Y-100388086D01*
X152738037Y-100445214D01*
X152673311Y-100471525D01*
X152660870Y-100472151D01*
X151252351Y-100472151D01*
X151185312Y-100452466D01*
X151139557Y-100399662D01*
X151129061Y-100361403D01*
X151128281Y-100354151D01*
X151125319Y-100326587D01*
X151124091Y-100315167D01*
X151073797Y-100180322D01*
X151073793Y-100180315D01*
X150987547Y-100065106D01*
X150987544Y-100065103D01*
X150872335Y-99978857D01*
X150872328Y-99978853D01*
X150737482Y-99928559D01*
X150737483Y-99928559D01*
X150677883Y-99922152D01*
X150677881Y-99922151D01*
X150677873Y-99922151D01*
X150677864Y-99922151D01*
X148982129Y-99922151D01*
X148982123Y-99922152D01*
X148922516Y-99928559D01*
X148787671Y-99978853D01*
X148787664Y-99978857D01*
X148672455Y-100065103D01*
X148672452Y-100065106D01*
X148586206Y-100180315D01*
X148586202Y-100180322D01*
X148535908Y-100315168D01*
X148529501Y-100374767D01*
X148529500Y-100374786D01*
X148529500Y-102070521D01*
X123499226Y-102070521D01*
X123516401Y-102058495D01*
X123683495Y-101891401D01*
X123819035Y-101697830D01*
X123918903Y-101483663D01*
X123980063Y-101255408D01*
X124000659Y-101020000D01*
X123980063Y-100784592D01*
X123918903Y-100556337D01*
X123819035Y-100342171D01*
X123819034Y-100342169D01*
X123683494Y-100148597D01*
X123516403Y-99981506D01*
X123440786Y-99928559D01*
X123359401Y-99871573D01*
X123315778Y-99816999D01*
X123308584Y-99747500D01*
X123340106Y-99685145D01*
X123359398Y-99668428D01*
X123516401Y-99558495D01*
X123683495Y-99391401D01*
X123819035Y-99197830D01*
X123918903Y-98983663D01*
X123980063Y-98755408D01*
X124000659Y-98520000D01*
X123980063Y-98284592D01*
X123918903Y-98056337D01*
X123819035Y-97842171D01*
X123819034Y-97842169D01*
X123683494Y-97648597D01*
X123536295Y-97501398D01*
X123502810Y-97440075D01*
X123507794Y-97370383D01*
X123549666Y-97314450D01*
X123558880Y-97308178D01*
X123564334Y-97304814D01*
X123713656Y-97212712D01*
X123837712Y-97088656D01*
X123929814Y-96939334D01*
X123984999Y-96772797D01*
X123995500Y-96670009D01*
X123995499Y-95369992D01*
X123995456Y-95369575D01*
X123984999Y-95267203D01*
X123984998Y-95267200D01*
X123957477Y-95184148D01*
X123929814Y-95100666D01*
X123837712Y-94951344D01*
X123713656Y-94827288D01*
X123564334Y-94735186D01*
X123397797Y-94680001D01*
X123397795Y-94680000D01*
X123295010Y-94669500D01*
X121744998Y-94669500D01*
X121744981Y-94669501D01*
X121642203Y-94680000D01*
X121642200Y-94680001D01*
X121475668Y-94735185D01*
X121475663Y-94735187D01*
X121326342Y-94827289D01*
X121202289Y-94951342D01*
X121110187Y-95100663D01*
X121110185Y-95100668D01*
X121087150Y-95170185D01*
X121055001Y-95267203D01*
X121055001Y-95267204D01*
X121055000Y-95267204D01*
X121044500Y-95369983D01*
X121044500Y-96670001D01*
X121044501Y-96670018D01*
X121055000Y-96772796D01*
X121055001Y-96772799D01*
X121110185Y-96939331D01*
X121110187Y-96939336D01*
X121202289Y-97088657D01*
X121326344Y-97212712D01*
X121481120Y-97308178D01*
X121527845Y-97360126D01*
X121539068Y-97429088D01*
X121511224Y-97493171D01*
X121503706Y-97501398D01*
X121356501Y-97648603D01*
X121356501Y-97648604D01*
X121220967Y-97842165D01*
X121220965Y-97842169D01*
X121121098Y-98056335D01*
X121121094Y-98056344D01*
X121059938Y-98284586D01*
X121059936Y-98284596D01*
X121039341Y-98519999D01*
X121039341Y-98520000D01*
X121059936Y-98755403D01*
X121059938Y-98755413D01*
X121121094Y-98983655D01*
X121121096Y-98983659D01*
X121121097Y-98983663D01*
X121155661Y-99057785D01*
X121220964Y-99197828D01*
X121220965Y-99197830D01*
X121356505Y-99391402D01*
X121523597Y-99558494D01*
X121680595Y-99668425D01*
X121724220Y-99723002D01*
X121731414Y-99792500D01*
X121699891Y-99854855D01*
X121680595Y-99871575D01*
X121523597Y-99981505D01*
X121356506Y-100148597D01*
X121356501Y-100148604D01*
X121220967Y-100342165D01*
X121220965Y-100342169D01*
X121121098Y-100556335D01*
X121121094Y-100556344D01*
X121059938Y-100784586D01*
X121059936Y-100784596D01*
X121039341Y-101019999D01*
X121039341Y-101020000D01*
X120059870Y-101020000D01*
X120059870Y-94270000D01*
X133287040Y-94270000D01*
X133306826Y-94458256D01*
X133306827Y-94458259D01*
X133365318Y-94638277D01*
X133365321Y-94638284D01*
X133459967Y-94802216D01*
X133505808Y-94853127D01*
X133586629Y-94942888D01*
X133739765Y-95054148D01*
X133739770Y-95054151D01*
X133912692Y-95131142D01*
X133912697Y-95131144D01*
X134097854Y-95170500D01*
X134097855Y-95170500D01*
X134287144Y-95170500D01*
X134287146Y-95170500D01*
X134368489Y-95153209D01*
X134394270Y-95150500D01*
X136460663Y-95150500D01*
X136527702Y-95170185D01*
X136533548Y-95174182D01*
X136547265Y-95184148D01*
X136547270Y-95184151D01*
X136720192Y-95261142D01*
X136720197Y-95261144D01*
X136905354Y-95300500D01*
X136905355Y-95300500D01*
X137094644Y-95300500D01*
X137094646Y-95300500D01*
X137279803Y-95261144D01*
X137452730Y-95184151D01*
X137605871Y-95072888D01*
X137732533Y-94932216D01*
X137827179Y-94768284D01*
X137885674Y-94588256D01*
X137905460Y-94400000D01*
X137885674Y-94211744D01*
X137878610Y-94190002D01*
X141754723Y-94190002D01*
X141773793Y-94407975D01*
X141773793Y-94407979D01*
X141830422Y-94619322D01*
X141830424Y-94619326D01*
X141830425Y-94619330D01*
X141876661Y-94718484D01*
X141922897Y-94817638D01*
X141929654Y-94827288D01*
X142048402Y-94996877D01*
X142203123Y-95151598D01*
X142382361Y-95277102D01*
X142580670Y-95369575D01*
X142580676Y-95369576D01*
X142580677Y-95369577D01*
X142611364Y-95377799D01*
X142792023Y-95426207D01*
X142974926Y-95442208D01*
X143009998Y-95445277D01*
X143010000Y-95445277D01*
X143010002Y-95445277D01*
X143038254Y-95442805D01*
X143227977Y-95426207D01*
X143439330Y-95369575D01*
X143637639Y-95277102D01*
X143816877Y-95151598D01*
X143971598Y-94996877D01*
X144097102Y-94817639D01*
X144189575Y-94619330D01*
X144246207Y-94407977D01*
X144265277Y-94190000D01*
X144246207Y-93972023D01*
X144189575Y-93760670D01*
X144097102Y-93562362D01*
X144097100Y-93562359D01*
X144097099Y-93562357D01*
X143971599Y-93383124D01*
X143935527Y-93347052D01*
X143816877Y-93228402D01*
X143637639Y-93102898D01*
X143637640Y-93102898D01*
X143637638Y-93102897D01*
X143538484Y-93056661D01*
X143439330Y-93010425D01*
X143439326Y-93010424D01*
X143439322Y-93010422D01*
X143227977Y-92953793D01*
X143010002Y-92934723D01*
X143009998Y-92934723D01*
X142864681Y-92947436D01*
X142792023Y-92953793D01*
X142792020Y-92953793D01*
X142580677Y-93010422D01*
X142580668Y-93010426D01*
X142382361Y-93102898D01*
X142382357Y-93102900D01*
X142203121Y-93228402D01*
X142048402Y-93383121D01*
X141922900Y-93562357D01*
X141922898Y-93562361D01*
X141830426Y-93760668D01*
X141830422Y-93760677D01*
X141773793Y-93972020D01*
X141773793Y-93972024D01*
X141754723Y-94189997D01*
X141754723Y-94190002D01*
X137878610Y-94190002D01*
X137827179Y-94031716D01*
X137732533Y-93867784D01*
X137605871Y-93727112D01*
X137605870Y-93727111D01*
X137452734Y-93615851D01*
X137452729Y-93615848D01*
X137279807Y-93538857D01*
X137279802Y-93538855D01*
X137134001Y-93507865D01*
X137094646Y-93499500D01*
X136905354Y-93499500D01*
X136886093Y-93503594D01*
X136720197Y-93538855D01*
X136720192Y-93538857D01*
X136547270Y-93615848D01*
X136547265Y-93615851D01*
X136533548Y-93625818D01*
X136467742Y-93649298D01*
X136460663Y-93649500D01*
X134900750Y-93649500D01*
X134833711Y-93629815D01*
X134808603Y-93608475D01*
X134798371Y-93597112D01*
X134798369Y-93597111D01*
X134798367Y-93597108D01*
X134798364Y-93597106D01*
X134645234Y-93485851D01*
X134645229Y-93485848D01*
X134472307Y-93408857D01*
X134472302Y-93408855D01*
X134326501Y-93377865D01*
X134287146Y-93369500D01*
X134097854Y-93369500D01*
X134065397Y-93376398D01*
X133912697Y-93408855D01*
X133912692Y-93408857D01*
X133739770Y-93485848D01*
X133739765Y-93485851D01*
X133586629Y-93597111D01*
X133459966Y-93737785D01*
X133365321Y-93901715D01*
X133365318Y-93901722D01*
X133323081Y-94031716D01*
X133306826Y-94081744D01*
X133287040Y-94270000D01*
X120059870Y-94270000D01*
X120059870Y-91870002D01*
X152374540Y-91870002D01*
X152376005Y-91883945D01*
X152376514Y-91903389D01*
X152375780Y-91917386D01*
X152375780Y-91917387D01*
X152386641Y-91985969D01*
X152387065Y-91989185D01*
X152394325Y-92058249D01*
X152394326Y-92058255D01*
X152398661Y-92071599D01*
X152403199Y-92090504D01*
X152405392Y-92104348D01*
X152405394Y-92104354D01*
X152430272Y-92169163D01*
X152431355Y-92172222D01*
X152452820Y-92238283D01*
X152459827Y-92250418D01*
X152468206Y-92267985D01*
X152473227Y-92281067D01*
X152511048Y-92339307D01*
X152512743Y-92342074D01*
X152519707Y-92354135D01*
X152547467Y-92402216D01*
X152547469Y-92402218D01*
X152547470Y-92402220D01*
X152556848Y-92412635D01*
X152568697Y-92428077D01*
X152576326Y-92439826D01*
X152625422Y-92488921D01*
X152627657Y-92491276D01*
X152674129Y-92542888D01*
X152685468Y-92551126D01*
X152700265Y-92563764D01*
X152710176Y-92573675D01*
X152768415Y-92611496D01*
X152771074Y-92613322D01*
X152827270Y-92654151D01*
X152839418Y-92659559D01*
X152840073Y-92659851D01*
X152857174Y-92669137D01*
X152868925Y-92676768D01*
X152868930Y-92676771D01*
X152869993Y-92677179D01*
X152933759Y-92701656D01*
X152936742Y-92702891D01*
X153000197Y-92731144D01*
X153013918Y-92734060D01*
X153032564Y-92739583D01*
X153045650Y-92744607D01*
X153114258Y-92755472D01*
X153117391Y-92756053D01*
X153185354Y-92770500D01*
X153199373Y-92770500D01*
X153218772Y-92772027D01*
X153232612Y-92774219D01*
X153301959Y-92770584D01*
X153305203Y-92770500D01*
X153374643Y-92770500D01*
X153374646Y-92770500D01*
X153388359Y-92767584D01*
X153407647Y-92765046D01*
X153421646Y-92764313D01*
X153457428Y-92754724D01*
X153489522Y-92750500D01*
X160764643Y-92750500D01*
X160764646Y-92750500D01*
X160807894Y-92741307D01*
X160814283Y-92740295D01*
X160858256Y-92735674D01*
X160900308Y-92722009D01*
X160906551Y-92720336D01*
X160949803Y-92711144D01*
X160990197Y-92693158D01*
X160996228Y-92690842D01*
X161038284Y-92677179D01*
X161076586Y-92655063D01*
X161082333Y-92652136D01*
X161122730Y-92634151D01*
X161158504Y-92608159D01*
X161163906Y-92604650D01*
X161202216Y-92582533D01*
X161235071Y-92552948D01*
X161240098Y-92548876D01*
X161275871Y-92522888D01*
X161305453Y-92490032D01*
X161310032Y-92485453D01*
X161342888Y-92455871D01*
X161368876Y-92420098D01*
X161372948Y-92415071D01*
X161402533Y-92382216D01*
X161424650Y-92343906D01*
X161428159Y-92338504D01*
X161454151Y-92302730D01*
X161454641Y-92301628D01*
X161455094Y-92301095D01*
X161457402Y-92297099D01*
X161458132Y-92297520D01*
X161499887Y-92248389D01*
X161566734Y-92228062D01*
X161633959Y-92247102D01*
X161680219Y-92299465D01*
X161685855Y-92313738D01*
X161732818Y-92458278D01*
X161732821Y-92458284D01*
X161827467Y-92622216D01*
X161954129Y-92762888D01*
X161954128Y-92762888D01*
X161969725Y-92774219D01*
X161988384Y-92787776D01*
X162031050Y-92843104D01*
X162039500Y-92888094D01*
X162039500Y-94299078D01*
X162019815Y-94366117D01*
X162007650Y-94382050D01*
X161957466Y-94437785D01*
X161862821Y-94601715D01*
X161862818Y-94601722D01*
X161805325Y-94778669D01*
X161804326Y-94781744D01*
X161784540Y-94970000D01*
X161804326Y-95158256D01*
X161804327Y-95158259D01*
X161862818Y-95338277D01*
X161862821Y-95338284D01*
X161957467Y-95502216D01*
X162084129Y-95642887D01*
X162084129Y-95642888D01*
X162237265Y-95754148D01*
X162237270Y-95754151D01*
X162410192Y-95831142D01*
X162410197Y-95831144D01*
X162595354Y-95870500D01*
X162595355Y-95870500D01*
X162784644Y-95870500D01*
X162784646Y-95870500D01*
X162969803Y-95831144D01*
X163142730Y-95754151D01*
X163295871Y-95642888D01*
X163422533Y-95502216D01*
X163517179Y-95338284D01*
X163575674Y-95158256D01*
X163595460Y-94970000D01*
X163575674Y-94781744D01*
X163517179Y-94601716D01*
X163422533Y-94437784D01*
X163372350Y-94382050D01*
X163366505Y-94369870D01*
X164756500Y-94369870D01*
X164756501Y-94369876D01*
X164762908Y-94429483D01*
X164813202Y-94564328D01*
X164813206Y-94564335D01*
X164899452Y-94679544D01*
X164899455Y-94679547D01*
X165014664Y-94765793D01*
X165014671Y-94765797D01*
X165149517Y-94816091D01*
X165149516Y-94816091D01*
X165156444Y-94816835D01*
X165209127Y-94822500D01*
X166304872Y-94822499D01*
X166364483Y-94816091D01*
X166371140Y-94813607D01*
X166440829Y-94808619D01*
X166502155Y-94842100D01*
X166502160Y-94842106D01*
X166513181Y-94853127D01*
X166546666Y-94914450D01*
X166549500Y-94940808D01*
X166549500Y-98919078D01*
X166529815Y-98986117D01*
X166517650Y-99002050D01*
X166467466Y-99057785D01*
X166372821Y-99221715D01*
X166372818Y-99221722D01*
X166317686Y-99391402D01*
X166314326Y-99401744D01*
X166294540Y-99590000D01*
X166314326Y-99778256D01*
X166314327Y-99778259D01*
X166372818Y-99958277D01*
X166372821Y-99958284D01*
X166467467Y-100122216D01*
X166543329Y-100206469D01*
X166594129Y-100262888D01*
X166747265Y-100374148D01*
X166747270Y-100374151D01*
X166920192Y-100451142D01*
X166920197Y-100451144D01*
X167105354Y-100490500D01*
X167105355Y-100490500D01*
X167294644Y-100490500D01*
X167294646Y-100490500D01*
X167479803Y-100451144D01*
X167651322Y-100374778D01*
X167652728Y-100374152D01*
X167652728Y-100374151D01*
X167652730Y-100374151D01*
X167685878Y-100350067D01*
X167751682Y-100326587D01*
X167819736Y-100342411D01*
X167831648Y-100350067D01*
X167837265Y-100354148D01*
X167837270Y-100354151D01*
X168010192Y-100431142D01*
X168010197Y-100431144D01*
X168195354Y-100470500D01*
X168195355Y-100470500D01*
X168384644Y-100470500D01*
X168384646Y-100470500D01*
X168569803Y-100431144D01*
X168742730Y-100354151D01*
X168895871Y-100242888D01*
X169022533Y-100102216D01*
X169117179Y-99938284D01*
X169175674Y-99758256D01*
X169195460Y-99570000D01*
X169175674Y-99381744D01*
X169117179Y-99201716D01*
X169030593Y-99051744D01*
X169022534Y-99037785D01*
X169022529Y-99037778D01*
X168979350Y-98989823D01*
X168949120Y-98926831D01*
X168947500Y-98906851D01*
X168947500Y-96623931D01*
X168967185Y-96556892D01*
X169019989Y-96511137D01*
X169089147Y-96501193D01*
X169114834Y-96507749D01*
X169134517Y-96515091D01*
X169194127Y-96521500D01*
X169939872Y-96521499D01*
X169999483Y-96515091D01*
X170036746Y-96501193D01*
X170134329Y-96464797D01*
X170142112Y-96460547D01*
X170143865Y-96463757D01*
X170192999Y-96445361D01*
X170261291Y-96460127D01*
X170262263Y-96460752D01*
X170269670Y-96464797D01*
X170344155Y-96492577D01*
X170404517Y-96515091D01*
X170464127Y-96521500D01*
X171209872Y-96521499D01*
X171269483Y-96515091D01*
X171306746Y-96501193D01*
X171404329Y-96464797D01*
X171412112Y-96460547D01*
X171413865Y-96463757D01*
X171462999Y-96445361D01*
X171531291Y-96460127D01*
X171532263Y-96460752D01*
X171539670Y-96464797D01*
X171614155Y-96492577D01*
X171674517Y-96515091D01*
X171734127Y-96521500D01*
X172479872Y-96521499D01*
X172539483Y-96515091D01*
X172576746Y-96501193D01*
X172674329Y-96464797D01*
X172682112Y-96460547D01*
X172683865Y-96463757D01*
X172732999Y-96445361D01*
X172801291Y-96460127D01*
X172802263Y-96460752D01*
X172809670Y-96464797D01*
X172884155Y-96492577D01*
X172944517Y-96515091D01*
X173004127Y-96521500D01*
X173749872Y-96521499D01*
X173809483Y-96515091D01*
X173846746Y-96501193D01*
X173944329Y-96464797D01*
X173952112Y-96460547D01*
X173953865Y-96463757D01*
X174002999Y-96445361D01*
X174071291Y-96460127D01*
X174072263Y-96460752D01*
X174079670Y-96464797D01*
X174154155Y-96492577D01*
X174214517Y-96515091D01*
X174274127Y-96521500D01*
X175019872Y-96521499D01*
X175079483Y-96515091D01*
X175116746Y-96501193D01*
X175214329Y-96464797D01*
X175222112Y-96460547D01*
X175223865Y-96463757D01*
X175272999Y-96445361D01*
X175341291Y-96460127D01*
X175342263Y-96460752D01*
X175349670Y-96464797D01*
X175424155Y-96492577D01*
X175484517Y-96515091D01*
X175544127Y-96521500D01*
X176289872Y-96521499D01*
X176349483Y-96515091D01*
X176386746Y-96501193D01*
X176484329Y-96464797D01*
X176492112Y-96460547D01*
X176493873Y-96463773D01*
X176542868Y-96445371D01*
X176611175Y-96460065D01*
X176612149Y-96460689D01*
X176619670Y-96464797D01*
X176694155Y-96492577D01*
X176754517Y-96515091D01*
X176814127Y-96521500D01*
X177559872Y-96521499D01*
X177619483Y-96515091D01*
X177754331Y-96464796D01*
X177869546Y-96378546D01*
X177955796Y-96263331D01*
X178006091Y-96128483D01*
X178012500Y-96068873D01*
X178012499Y-94973128D01*
X178006091Y-94913517D01*
X177979456Y-94842106D01*
X177955797Y-94778671D01*
X177955793Y-94778664D01*
X177869547Y-94663455D01*
X177869544Y-94663452D01*
X177754335Y-94577206D01*
X177754328Y-94577202D01*
X177619486Y-94526910D01*
X177619485Y-94526909D01*
X177619483Y-94526909D01*
X177559873Y-94520500D01*
X177559863Y-94520500D01*
X176814129Y-94520500D01*
X176814123Y-94520501D01*
X176754516Y-94526908D01*
X176619671Y-94577202D01*
X176611886Y-94581454D01*
X176610153Y-94578280D01*
X176560698Y-94596659D01*
X176492443Y-94581725D01*
X176491497Y-94581117D01*
X176484328Y-94577202D01*
X176349486Y-94526910D01*
X176349485Y-94526909D01*
X176349483Y-94526909D01*
X176289873Y-94520500D01*
X176289863Y-94520500D01*
X175544129Y-94520500D01*
X175544123Y-94520501D01*
X175484516Y-94526908D01*
X175349671Y-94577202D01*
X175341886Y-94581454D01*
X175340153Y-94578280D01*
X175290698Y-94596659D01*
X175222443Y-94581725D01*
X175221497Y-94581117D01*
X175214328Y-94577202D01*
X175079486Y-94526910D01*
X175079485Y-94526909D01*
X175079483Y-94526909D01*
X175019873Y-94520500D01*
X175019863Y-94520500D01*
X174274129Y-94520500D01*
X174274123Y-94520501D01*
X174214516Y-94526908D01*
X174079671Y-94577202D01*
X174071886Y-94581454D01*
X174070153Y-94578280D01*
X174020698Y-94596659D01*
X173952443Y-94581725D01*
X173951497Y-94581117D01*
X173944328Y-94577202D01*
X173809486Y-94526910D01*
X173809485Y-94526909D01*
X173809483Y-94526909D01*
X173749873Y-94520500D01*
X173749863Y-94520500D01*
X173004129Y-94520500D01*
X173004123Y-94520501D01*
X172944516Y-94526908D01*
X172809671Y-94577202D01*
X172801890Y-94581452D01*
X172800154Y-94578274D01*
X172750742Y-94596656D01*
X172682481Y-94581747D01*
X172681528Y-94581134D01*
X172674329Y-94577202D01*
X172539486Y-94526910D01*
X172539485Y-94526909D01*
X172539483Y-94526909D01*
X172479873Y-94520500D01*
X172479863Y-94520500D01*
X171734129Y-94520500D01*
X171734123Y-94520501D01*
X171674516Y-94526908D01*
X171539671Y-94577202D01*
X171531886Y-94581454D01*
X171530153Y-94578280D01*
X171480698Y-94596659D01*
X171412443Y-94581725D01*
X171411497Y-94581117D01*
X171404328Y-94577202D01*
X171269486Y-94526910D01*
X171269485Y-94526909D01*
X171269483Y-94526909D01*
X171209873Y-94520500D01*
X171209863Y-94520500D01*
X170464129Y-94520500D01*
X170464123Y-94520501D01*
X170404516Y-94526908D01*
X170269671Y-94577202D01*
X170261886Y-94581454D01*
X170260153Y-94578280D01*
X170210698Y-94596659D01*
X170142443Y-94581725D01*
X170141497Y-94581117D01*
X170134328Y-94577202D01*
X169999486Y-94526910D01*
X169999485Y-94526909D01*
X169999483Y-94526909D01*
X169939873Y-94520500D01*
X169939863Y-94520500D01*
X169194129Y-94520500D01*
X169194123Y-94520501D01*
X169134516Y-94526908D01*
X168999671Y-94577202D01*
X168991890Y-94581452D01*
X168990154Y-94578274D01*
X168940742Y-94596656D01*
X168872481Y-94581747D01*
X168871528Y-94581134D01*
X168864329Y-94577202D01*
X168729486Y-94526910D01*
X168729485Y-94526909D01*
X168729483Y-94526909D01*
X168669873Y-94520500D01*
X168669864Y-94520500D01*
X167944505Y-94520500D01*
X167877466Y-94500815D01*
X167831711Y-94448011D01*
X167829228Y-94442186D01*
X167817188Y-94411775D01*
X167815296Y-94406248D01*
X167804729Y-94369876D01*
X167801744Y-94359602D01*
X167790940Y-94341334D01*
X167782378Y-94323856D01*
X167774568Y-94304129D01*
X167774565Y-94304125D01*
X167749772Y-94270000D01*
X167746014Y-94264827D01*
X167742811Y-94259951D01*
X167718081Y-94218135D01*
X167718079Y-94218133D01*
X167718078Y-94218131D01*
X167703075Y-94203129D01*
X167690435Y-94188330D01*
X167677961Y-94171160D01*
X167640528Y-94140194D01*
X167636206Y-94136260D01*
X167097434Y-93597488D01*
X167087361Y-93584914D01*
X167087174Y-93585070D01*
X167082198Y-93579055D01*
X167039388Y-93538855D01*
X167030432Y-93530445D01*
X167029058Y-93529112D01*
X167008035Y-93508089D01*
X167002240Y-93503594D01*
X166997798Y-93499799D01*
X166962396Y-93466554D01*
X166962388Y-93466548D01*
X166943792Y-93456325D01*
X166927531Y-93445644D01*
X166910763Y-93432637D01*
X166885158Y-93421557D01*
X166866178Y-93413343D01*
X166860956Y-93410786D01*
X166818368Y-93387373D01*
X166818365Y-93387372D01*
X166812916Y-93385973D01*
X166752879Y-93350234D01*
X166721694Y-93287710D01*
X166727574Y-93222535D01*
X166751089Y-93159488D01*
X166751088Y-93159488D01*
X166751091Y-93159483D01*
X166757500Y-93099873D01*
X166757499Y-92354128D01*
X166751091Y-92294517D01*
X166746076Y-92281070D01*
X166700797Y-92159670D01*
X166696547Y-92151888D01*
X166699741Y-92150143D01*
X166681352Y-92100870D01*
X166696190Y-92032594D01*
X166696806Y-92031637D01*
X166700797Y-92024329D01*
X166715104Y-91985969D01*
X166751091Y-91889483D01*
X166757500Y-91829873D01*
X166757499Y-91084128D01*
X166751091Y-91024517D01*
X166751090Y-91024513D01*
X166700797Y-90889670D01*
X166696547Y-90881888D01*
X166699741Y-90880143D01*
X166681352Y-90830870D01*
X166696190Y-90762594D01*
X166696806Y-90761637D01*
X166700797Y-90754329D01*
X166712052Y-90724150D01*
X166751091Y-90619483D01*
X166757500Y-90559873D01*
X166757499Y-89814128D01*
X166751091Y-89754517D01*
X166700797Y-89619671D01*
X166700797Y-89619670D01*
X166696547Y-89611888D01*
X166699757Y-89610134D01*
X166681361Y-89561001D01*
X166696127Y-89492709D01*
X166696752Y-89491736D01*
X166700797Y-89484329D01*
X166712052Y-89454150D01*
X166751091Y-89349483D01*
X166757500Y-89289873D01*
X166757499Y-88544128D01*
X166751091Y-88484517D01*
X166700796Y-88349669D01*
X166700795Y-88349668D01*
X166696546Y-88341886D01*
X166699724Y-88340150D01*
X166681344Y-88290741D01*
X166696253Y-88222480D01*
X166696866Y-88221526D01*
X166700793Y-88214335D01*
X166700792Y-88214335D01*
X166700796Y-88214331D01*
X166751091Y-88079483D01*
X166757500Y-88019873D01*
X166757499Y-87274128D01*
X166751091Y-87214517D01*
X166700796Y-87079669D01*
X166700795Y-87079668D01*
X166700793Y-87079664D01*
X166614547Y-86964455D01*
X166614544Y-86964452D01*
X166499335Y-86878206D01*
X166499328Y-86878202D01*
X166364482Y-86827908D01*
X166364483Y-86827908D01*
X166304883Y-86821501D01*
X166304881Y-86821500D01*
X166304873Y-86821500D01*
X166304864Y-86821500D01*
X165209129Y-86821500D01*
X165209123Y-86821501D01*
X165149516Y-86827908D01*
X165014671Y-86878202D01*
X165014664Y-86878206D01*
X164899455Y-86964452D01*
X164899452Y-86964455D01*
X164813206Y-87079664D01*
X164813202Y-87079671D01*
X164762910Y-87214513D01*
X164762909Y-87214517D01*
X164756500Y-87274127D01*
X164756500Y-87274134D01*
X164756500Y-87274135D01*
X164756500Y-88019870D01*
X164756501Y-88019876D01*
X164762908Y-88079483D01*
X164813202Y-88214329D01*
X164817453Y-88222112D01*
X164814263Y-88223853D01*
X164832650Y-88273172D01*
X164817788Y-88341443D01*
X164817173Y-88342400D01*
X164813202Y-88349671D01*
X164762910Y-88484513D01*
X164762909Y-88484517D01*
X164756500Y-88544127D01*
X164756500Y-88544134D01*
X164756500Y-88544135D01*
X164756500Y-89289870D01*
X164756501Y-89289876D01*
X164762908Y-89349483D01*
X164813202Y-89484328D01*
X164817454Y-89492114D01*
X164814280Y-89493846D01*
X164832659Y-89543302D01*
X164817725Y-89611557D01*
X164817117Y-89612502D01*
X164813202Y-89619671D01*
X164762910Y-89754513D01*
X164762909Y-89754517D01*
X164756500Y-89814127D01*
X164756500Y-89814134D01*
X164756500Y-89814135D01*
X164756500Y-90559870D01*
X164756501Y-90559876D01*
X164762908Y-90619483D01*
X164813202Y-90754328D01*
X164817454Y-90762114D01*
X164814263Y-90763855D01*
X164832649Y-90813171D01*
X164817787Y-90881442D01*
X164817176Y-90882393D01*
X164813202Y-90889671D01*
X164762910Y-91024513D01*
X164762909Y-91024517D01*
X164756500Y-91084127D01*
X164756500Y-91084134D01*
X164756500Y-91084135D01*
X164756500Y-91829870D01*
X164756501Y-91829876D01*
X164762908Y-91889483D01*
X164813202Y-92024328D01*
X164817454Y-92032114D01*
X164814280Y-92033846D01*
X164832659Y-92083302D01*
X164817725Y-92151557D01*
X164817117Y-92152502D01*
X164813202Y-92159671D01*
X164767924Y-92281070D01*
X164762909Y-92294517D01*
X164756500Y-92354127D01*
X164756500Y-92354134D01*
X164756500Y-92354135D01*
X164756500Y-93099870D01*
X164756501Y-93099876D01*
X164762908Y-93159483D01*
X164813202Y-93294328D01*
X164817454Y-93302114D01*
X164814280Y-93303846D01*
X164832659Y-93353302D01*
X164817725Y-93421557D01*
X164817117Y-93422502D01*
X164813202Y-93429671D01*
X164762910Y-93564513D01*
X164762909Y-93564517D01*
X164756500Y-93624127D01*
X164756500Y-93624134D01*
X164756500Y-93624135D01*
X164756500Y-94369870D01*
X163366505Y-94369870D01*
X163342120Y-94319058D01*
X163340500Y-94299078D01*
X163340500Y-92572359D01*
X163357113Y-92510359D01*
X163387179Y-92458284D01*
X163445674Y-92278256D01*
X163465460Y-92090000D01*
X163445674Y-91901744D01*
X163387179Y-91721716D01*
X163292533Y-91557784D01*
X163165871Y-91417112D01*
X163138557Y-91397267D01*
X163012734Y-91305851D01*
X163012729Y-91305848D01*
X162839807Y-91228857D01*
X162839802Y-91228855D01*
X162690453Y-91197111D01*
X162654646Y-91189500D01*
X162465354Y-91189500D01*
X162432897Y-91196398D01*
X162280197Y-91228855D01*
X162280192Y-91228857D01*
X162107270Y-91305848D01*
X162107265Y-91305851D01*
X161954129Y-91417111D01*
X161827465Y-91557785D01*
X161771189Y-91655259D01*
X161720622Y-91703475D01*
X161652015Y-91716697D01*
X161587150Y-91690729D01*
X161546622Y-91633815D01*
X161545871Y-91631576D01*
X161542010Y-91619695D01*
X161540334Y-91613434D01*
X161537752Y-91601288D01*
X161531144Y-91570197D01*
X161513163Y-91529812D01*
X161510835Y-91523748D01*
X161503676Y-91501713D01*
X161497179Y-91481716D01*
X161490010Y-91469300D01*
X161475075Y-91443430D01*
X161472127Y-91437644D01*
X161462985Y-91417111D01*
X161454151Y-91397270D01*
X161454149Y-91397267D01*
X161454149Y-91397266D01*
X161428175Y-91361516D01*
X161424638Y-91356070D01*
X161402535Y-91317787D01*
X161402528Y-91317777D01*
X161372954Y-91284934D01*
X161368870Y-91279892D01*
X161342888Y-91244129D01*
X161342887Y-91244128D01*
X161310034Y-91214546D01*
X161305453Y-91209966D01*
X161275871Y-91177112D01*
X161275870Y-91177111D01*
X161275869Y-91177110D01*
X161240119Y-91151137D01*
X161235072Y-91147050D01*
X161202222Y-91117471D01*
X161202212Y-91117464D01*
X161163930Y-91095362D01*
X161158484Y-91091825D01*
X161156821Y-91090617D01*
X161122736Y-91065853D01*
X161122732Y-91065850D01*
X161082353Y-91047872D01*
X161076567Y-91044924D01*
X161038284Y-91022821D01*
X161038281Y-91022820D01*
X161038277Y-91022818D01*
X160996242Y-91009160D01*
X160990179Y-91006833D01*
X160985343Y-91004680D01*
X160949803Y-90988856D01*
X160949802Y-90988856D01*
X160906569Y-90979666D01*
X160900301Y-90977987D01*
X160889861Y-90974595D01*
X160858256Y-90964325D01*
X160814291Y-90959704D01*
X160807880Y-90958688D01*
X160764647Y-90949500D01*
X160764646Y-90949500D01*
X160717192Y-90949500D01*
X153380627Y-90949500D01*
X153361228Y-90947973D01*
X153347389Y-90945781D01*
X153347388Y-90945781D01*
X153278046Y-90949415D01*
X153274803Y-90949500D01*
X153252808Y-90949500D01*
X153237403Y-90951118D01*
X153230933Y-90951798D01*
X153227702Y-90952052D01*
X153158356Y-90955687D01*
X153144809Y-90959317D01*
X153125686Y-90962860D01*
X153111745Y-90964325D01*
X153111743Y-90964325D01*
X153045702Y-90985784D01*
X153042590Y-90986705D01*
X152975517Y-91004677D01*
X152975503Y-91004683D01*
X152963022Y-91011043D01*
X152945049Y-91018488D01*
X152931715Y-91022820D01*
X152871592Y-91057533D01*
X152868740Y-91059082D01*
X152806853Y-91090616D01*
X152806837Y-91090626D01*
X152795948Y-91099444D01*
X152779923Y-91110458D01*
X152767785Y-91117466D01*
X152767781Y-91117469D01*
X152716173Y-91163935D01*
X152713711Y-91166038D01*
X152696613Y-91179886D01*
X152693906Y-91182324D01*
X152688868Y-91186403D01*
X152674129Y-91197111D01*
X152674124Y-91197116D01*
X152654025Y-91219437D01*
X152649437Y-91224025D01*
X152627116Y-91244124D01*
X152627111Y-91244129D01*
X152616403Y-91258868D01*
X152612324Y-91263906D01*
X152609886Y-91266613D01*
X152596038Y-91283711D01*
X152593935Y-91286173D01*
X152547469Y-91337781D01*
X152547466Y-91337785D01*
X152540458Y-91349923D01*
X152529444Y-91365948D01*
X152520626Y-91376837D01*
X152520616Y-91376853D01*
X152489082Y-91438740D01*
X152487533Y-91441592D01*
X152452821Y-91501713D01*
X152448487Y-91515053D01*
X152441045Y-91533020D01*
X152434680Y-91545512D01*
X152416706Y-91612584D01*
X152415785Y-91615692D01*
X152394326Y-91681742D01*
X152394325Y-91681745D01*
X152392860Y-91695686D01*
X152389315Y-91714812D01*
X152385686Y-91728352D01*
X152382052Y-91797704D01*
X152381798Y-91800927D01*
X152378757Y-91829872D01*
X152374540Y-91870001D01*
X152374540Y-91870002D01*
X120059870Y-91870002D01*
X120059870Y-89310000D01*
X141754723Y-89310000D01*
X141770655Y-89492114D01*
X141773793Y-89527975D01*
X141773793Y-89527979D01*
X141830422Y-89739322D01*
X141830424Y-89739326D01*
X141830425Y-89739330D01*
X141865304Y-89814128D01*
X141922897Y-89937638D01*
X141922898Y-89937639D01*
X142048402Y-90116877D01*
X142203123Y-90271598D01*
X142382361Y-90397102D01*
X142580670Y-90489575D01*
X142792023Y-90546207D01*
X142974926Y-90562208D01*
X143009998Y-90565277D01*
X143010000Y-90565277D01*
X143010002Y-90565277D01*
X143038254Y-90562805D01*
X143227977Y-90546207D01*
X143439330Y-90489575D01*
X143637639Y-90397102D01*
X143816877Y-90271598D01*
X143971598Y-90116877D01*
X144097102Y-89937639D01*
X144189575Y-89739330D01*
X144246207Y-89527977D01*
X144265277Y-89310000D01*
X144263516Y-89289876D01*
X144261569Y-89267618D01*
X144246207Y-89092023D01*
X144189575Y-88880670D01*
X144097102Y-88682362D01*
X144097100Y-88682359D01*
X144097099Y-88682357D01*
X143971599Y-88503124D01*
X143952988Y-88484513D01*
X143816877Y-88348402D01*
X143637639Y-88222898D01*
X143637640Y-88222898D01*
X143637638Y-88222897D01*
X143538484Y-88176661D01*
X143439330Y-88130425D01*
X143439326Y-88130424D01*
X143439322Y-88130422D01*
X143227977Y-88073793D01*
X143010002Y-88054723D01*
X143009998Y-88054723D01*
X142864681Y-88067436D01*
X142792023Y-88073793D01*
X142792020Y-88073793D01*
X142580677Y-88130422D01*
X142580668Y-88130426D01*
X142382361Y-88222898D01*
X142382357Y-88222900D01*
X142203121Y-88348402D01*
X142048402Y-88503121D01*
X141922900Y-88682357D01*
X141922898Y-88682361D01*
X141830426Y-88880668D01*
X141830422Y-88880677D01*
X141773793Y-89092020D01*
X141773793Y-89092024D01*
X141756484Y-89289876D01*
X141754723Y-89310000D01*
X120059870Y-89310000D01*
X120059870Y-82599898D01*
X120058105Y-82590981D01*
X120055915Y-82560417D01*
X120060831Y-82466606D01*
X120071185Y-82282242D01*
X120071846Y-82276063D01*
X120096031Y-82123365D01*
X120123725Y-81960374D01*
X120124948Y-81954772D01*
X120128906Y-81939999D01*
X144794540Y-81939999D01*
X144799160Y-81983960D01*
X144799500Y-81990445D01*
X144799500Y-82034646D01*
X144808688Y-82077880D01*
X144809704Y-82084291D01*
X144814325Y-82128256D01*
X144827986Y-82170296D01*
X144829666Y-82176569D01*
X144838856Y-82219803D01*
X144838855Y-82219803D01*
X144856833Y-82260179D01*
X144859160Y-82266242D01*
X144872818Y-82308277D01*
X144872820Y-82308281D01*
X144872821Y-82308284D01*
X144894924Y-82346567D01*
X144897872Y-82352353D01*
X144915850Y-82392732D01*
X144915853Y-82392736D01*
X144941825Y-82428484D01*
X144945362Y-82433930D01*
X144967464Y-82472212D01*
X144967471Y-82472222D01*
X144997050Y-82505072D01*
X145001137Y-82510119D01*
X145027110Y-82545869D01*
X145027111Y-82545870D01*
X145027112Y-82545871D01*
X145059966Y-82575453D01*
X145064546Y-82580034D01*
X145094128Y-82612887D01*
X145094129Y-82612888D01*
X145129892Y-82638870D01*
X145134934Y-82642954D01*
X145167777Y-82672528D01*
X145167787Y-82672535D01*
X145206070Y-82694638D01*
X145211516Y-82698175D01*
X145247266Y-82724149D01*
X145287644Y-82742127D01*
X145293430Y-82745075D01*
X145319300Y-82760010D01*
X145331716Y-82767179D01*
X145373755Y-82780837D01*
X145379812Y-82783163D01*
X145420193Y-82801142D01*
X145420192Y-82801142D01*
X145420197Y-82801144D01*
X145454720Y-82808481D01*
X145463435Y-82810334D01*
X145469698Y-82812011D01*
X145511744Y-82825674D01*
X145543051Y-82828964D01*
X145555709Y-82830295D01*
X145562123Y-82831311D01*
X145605354Y-82840500D01*
X145652808Y-82840500D01*
X150045639Y-82840500D01*
X150112678Y-82860185D01*
X150133320Y-82876819D01*
X152625422Y-85368921D01*
X152627643Y-85371260D01*
X152674129Y-85422888D01*
X152693363Y-85436862D01*
X152730314Y-85463708D01*
X152732861Y-85465662D01*
X152767030Y-85493332D01*
X152786844Y-85509378D01*
X152786853Y-85509384D01*
X152799339Y-85515746D01*
X152815929Y-85525912D01*
X152826073Y-85533281D01*
X152827270Y-85534151D01*
X152883172Y-85559040D01*
X152890700Y-85562392D01*
X152893607Y-85563777D01*
X152955512Y-85595320D01*
X152969055Y-85598948D01*
X152987395Y-85605444D01*
X153000192Y-85611142D01*
X153000200Y-85611145D01*
X153023448Y-85616086D01*
X153068127Y-85625583D01*
X153071252Y-85626333D01*
X153138354Y-85644313D01*
X153152352Y-85645046D01*
X153171640Y-85647585D01*
X153185354Y-85650500D01*
X153254797Y-85650500D01*
X153258040Y-85650584D01*
X153327388Y-85654219D01*
X153341227Y-85652027D01*
X153360627Y-85650500D01*
X153374644Y-85650500D01*
X153374646Y-85650500D01*
X153442594Y-85636056D01*
X153445754Y-85635470D01*
X153514350Y-85624607D01*
X153527426Y-85619587D01*
X153546084Y-85614060D01*
X153547953Y-85613662D01*
X153559803Y-85611144D01*
X153623255Y-85582891D01*
X153626216Y-85581664D01*
X153691070Y-85556771D01*
X153702827Y-85549135D01*
X153719924Y-85539852D01*
X153732730Y-85534151D01*
X153788941Y-85493310D01*
X153791563Y-85491508D01*
X153849825Y-85453674D01*
X153859731Y-85443766D01*
X153874529Y-85431127D01*
X153885871Y-85422888D01*
X153932357Y-85371258D01*
X153934539Y-85368958D01*
X153983674Y-85319825D01*
X153991308Y-85308068D01*
X154003153Y-85292631D01*
X154012533Y-85282216D01*
X154047267Y-85222052D01*
X154048953Y-85219304D01*
X154052071Y-85214501D01*
X154086771Y-85161070D01*
X154091790Y-85147992D01*
X154100169Y-85130422D01*
X154107179Y-85118284D01*
X154128643Y-85052220D01*
X154129718Y-85049186D01*
X154154607Y-84984350D01*
X154156800Y-84970500D01*
X154161341Y-84951590D01*
X154165674Y-84938256D01*
X154172936Y-84869158D01*
X154173353Y-84865989D01*
X154184219Y-84797388D01*
X154183485Y-84783390D01*
X154183995Y-84763932D01*
X154185460Y-84750000D01*
X154178201Y-84680935D01*
X154177947Y-84677717D01*
X154174313Y-84608354D01*
X154170684Y-84594812D01*
X154167138Y-84575684D01*
X154165674Y-84561744D01*
X154144218Y-84495708D01*
X154143296Y-84492596D01*
X154125321Y-84425517D01*
X154125320Y-84425512D01*
X154118956Y-84413022D01*
X154111511Y-84395050D01*
X154107179Y-84381716D01*
X154107177Y-84381712D01*
X154107175Y-84381707D01*
X154083670Y-84340998D01*
X154072443Y-84321552D01*
X154070920Y-84318747D01*
X154039383Y-84256851D01*
X154039382Y-84256849D01*
X154030560Y-84245955D01*
X154019538Y-84229918D01*
X154012532Y-84217783D01*
X154012531Y-84217781D01*
X153966060Y-84166170D01*
X153963952Y-84163702D01*
X153950118Y-84146619D01*
X153934577Y-84131078D01*
X153932341Y-84128722D01*
X153885872Y-84077113D01*
X153885871Y-84077112D01*
X153874525Y-84068869D01*
X153859734Y-84056235D01*
X151163764Y-81360265D01*
X151151126Y-81345468D01*
X151142887Y-81334128D01*
X151091277Y-81287657D01*
X151088922Y-81285423D01*
X151073382Y-81269882D01*
X151056295Y-81256043D01*
X151053831Y-81253939D01*
X151002220Y-81207470D01*
X151002213Y-81207465D01*
X150990070Y-81200454D01*
X150974043Y-81189438D01*
X150963153Y-81180620D01*
X150963151Y-81180619D01*
X150963149Y-81180617D01*
X150944259Y-81170992D01*
X150901266Y-81149085D01*
X150898414Y-81147537D01*
X150838282Y-81112820D01*
X150824949Y-81108488D01*
X150806978Y-81101043D01*
X150794498Y-81094684D01*
X150794486Y-81094679D01*
X150727409Y-81076705D01*
X150724309Y-81075787D01*
X150658256Y-81054326D01*
X150658251Y-81054325D01*
X150658249Y-81054325D01*
X150644314Y-81052860D01*
X150625189Y-81049315D01*
X150611653Y-81045688D01*
X150611643Y-81045686D01*
X150542290Y-81042051D01*
X150539059Y-81041797D01*
X150524537Y-81040271D01*
X150517192Y-81039500D01*
X150517189Y-81039500D01*
X150495203Y-81039500D01*
X150491959Y-81039415D01*
X150422612Y-81035781D01*
X150422611Y-81035781D01*
X150408772Y-81037973D01*
X150389373Y-81039500D01*
X145605351Y-81039500D01*
X145562119Y-81048688D01*
X145555710Y-81049703D01*
X145511743Y-81054325D01*
X145469705Y-81067985D01*
X145463434Y-81069665D01*
X145420195Y-81078856D01*
X145379815Y-81096834D01*
X145373755Y-81099160D01*
X145331719Y-81112819D01*
X145293430Y-81134924D01*
X145287647Y-81137871D01*
X145247267Y-81155850D01*
X145211512Y-81181826D01*
X145206069Y-81185361D01*
X145167788Y-81207463D01*
X145167785Y-81207465D01*
X145134935Y-81237044D01*
X145129889Y-81241130D01*
X145094125Y-81267115D01*
X145064550Y-81299960D01*
X145059960Y-81304550D01*
X145027115Y-81334125D01*
X145001130Y-81369889D01*
X144997044Y-81374935D01*
X144967465Y-81407785D01*
X144967463Y-81407788D01*
X144945361Y-81446069D01*
X144941826Y-81451512D01*
X144915850Y-81487267D01*
X144897871Y-81527647D01*
X144894924Y-81533430D01*
X144872819Y-81571719D01*
X144859160Y-81613755D01*
X144856834Y-81619815D01*
X144838856Y-81660195D01*
X144829665Y-81703434D01*
X144827985Y-81709705D01*
X144814325Y-81751743D01*
X144809703Y-81795710D01*
X144808688Y-81802119D01*
X144799500Y-81845351D01*
X144799500Y-81889553D01*
X144799160Y-81896037D01*
X144794540Y-81939999D01*
X120128906Y-81939999D01*
X120166009Y-81801532D01*
X120210779Y-81646135D01*
X120212461Y-81641117D01*
X120269683Y-81492048D01*
X120270176Y-81490811D01*
X120331334Y-81343163D01*
X120333350Y-81338791D01*
X120406173Y-81195868D01*
X120407100Y-81194123D01*
X120483941Y-81055089D01*
X120486203Y-81051321D01*
X120496295Y-81035781D01*
X120573797Y-80916436D01*
X120575167Y-80914419D01*
X120666872Y-80785173D01*
X120669202Y-80782100D01*
X120770587Y-80656901D01*
X120772441Y-80654722D01*
X120877954Y-80536653D01*
X120880273Y-80534201D01*
X120994201Y-80420273D01*
X120996653Y-80417954D01*
X121114722Y-80312441D01*
X121116901Y-80310587D01*
X121242100Y-80209202D01*
X121245173Y-80206872D01*
X121374419Y-80115167D01*
X121376436Y-80113797D01*
X121511321Y-80026203D01*
X121515089Y-80023941D01*
X121654123Y-79947100D01*
X121655868Y-79946173D01*
X121798791Y-79873350D01*
X121803163Y-79871334D01*
X121950811Y-79810176D01*
X121952048Y-79809683D01*
X122101117Y-79752461D01*
X122106135Y-79750779D01*
X122261532Y-79706009D01*
X122414772Y-79664948D01*
X122420374Y-79663725D01*
X122583365Y-79636031D01*
X122736063Y-79611846D01*
X122742242Y-79611185D01*
X122926606Y-79600831D01*
X123058379Y-79593925D01*
X123061622Y-79593841D01*
X127503845Y-79593841D01*
X127540151Y-79593845D01*
G37*
%TD.AperFunction*%
%TD*%
M02*
