%TF.GenerationSoftware,KiCad,Pcbnew,7.0.5-4d25ed1034~172~ubuntu23.04.1*%
%TF.CreationDate,2023-06-30T15:52:37+03:00*%
%TF.ProjectId,nrf52840_dev,6e726635-3238-4343-905f-6465762e6b69,rev?*%
%TF.SameCoordinates,Original*%
%TF.FileFunction,Legend,Bot*%
%TF.FilePolarity,Positive*%
%FSLAX46Y46*%
G04 Gerber Fmt 4.6, Leading zero omitted, Abs format (unit mm)*
G04 Created by KiCad (PCBNEW 7.0.5-4d25ed1034~172~ubuntu23.04.1) date 2023-06-30 15:52:37*
%MOMM*%
%LPD*%
G01*
G04 APERTURE LIST*
%ADD10C,0.150000*%
G04 APERTURE END LIST*
D10*
G36*
X127794836Y-103243352D02*
G01*
X127868948Y-103317464D01*
X127907442Y-103394450D01*
X127950826Y-103567985D01*
X127950826Y-103692374D01*
X127907442Y-103865907D01*
X127868948Y-103942896D01*
X127794836Y-104017008D01*
X127680321Y-104055180D01*
X127529398Y-104055180D01*
X127529398Y-103205180D01*
X127680322Y-103205180D01*
X127794836Y-103243352D01*
G37*
G36*
X128660476Y-104742857D02*
G01*
X124702143Y-104742857D01*
X124702143Y-103698435D01*
X125281058Y-103698435D01*
X125284160Y-103710843D01*
X125284160Y-103712391D01*
X125286764Y-103721260D01*
X125330778Y-103897315D01*
X125329848Y-103905929D01*
X125336014Y-103918262D01*
X125336633Y-103920735D01*
X125340815Y-103927862D01*
X125383110Y-104012452D01*
X125385793Y-104024784D01*
X125400420Y-104039411D01*
X125414482Y-104054529D01*
X125415900Y-104054891D01*
X125493748Y-104132739D01*
X125505027Y-104146748D01*
X125519568Y-104151595D01*
X125533021Y-104158941D01*
X125540088Y-104158435D01*
X125659856Y-104198358D01*
X125670471Y-104205180D01*
X125691150Y-104205180D01*
X125711790Y-104205926D01*
X125713049Y-104205180D01*
X125831310Y-104205180D01*
X125849194Y-104207111D01*
X125862907Y-104200254D01*
X125877610Y-104195937D01*
X125882248Y-104190583D01*
X125973772Y-104144821D01*
X125985140Y-104134247D01*
X126328719Y-104134247D01*
X126335367Y-104153181D01*
X126341022Y-104172440D01*
X126342612Y-104173818D01*
X126343310Y-104175804D01*
X126359140Y-104188139D01*
X126374308Y-104201282D01*
X126376391Y-104201581D01*
X126378051Y-104202875D01*
X126398041Y-104204694D01*
X126417903Y-104207550D01*
X126419816Y-104206676D01*
X126421914Y-104206867D01*
X126439718Y-104197587D01*
X126457967Y-104189254D01*
X126459104Y-104187483D01*
X126460971Y-104186511D01*
X126470927Y-104169087D01*
X126481779Y-104152202D01*
X126481779Y-104150096D01*
X126903207Y-103412598D01*
X126903207Y-104140962D01*
X126912450Y-104172440D01*
X126945736Y-104201282D01*
X126989331Y-104207550D01*
X127029395Y-104189254D01*
X127053207Y-104152202D01*
X127053207Y-104141304D01*
X127377028Y-104141304D01*
X127383947Y-104156456D01*
X127388641Y-104172440D01*
X127392953Y-104176176D01*
X127395324Y-104181368D01*
X127409340Y-104190375D01*
X127421927Y-104201282D01*
X127427573Y-104202093D01*
X127432376Y-104205180D01*
X127449038Y-104205180D01*
X127465522Y-104207550D01*
X127470712Y-104205180D01*
X127683091Y-104205180D01*
X127695318Y-104208295D01*
X127714930Y-104201757D01*
X127734753Y-104195937D01*
X127735711Y-104194830D01*
X127855237Y-104154988D01*
X127872811Y-104151166D01*
X127883651Y-104140325D01*
X127896235Y-104131580D01*
X127898942Y-104125034D01*
X127976972Y-104047004D01*
X127987822Y-104040561D01*
X127997072Y-104022059D01*
X128006968Y-104003938D01*
X128006863Y-104002477D01*
X128039315Y-103937574D01*
X128045627Y-103931640D01*
X128048971Y-103918262D01*
X128050111Y-103915983D01*
X128051574Y-103907850D01*
X128095593Y-103731772D01*
X128100826Y-103723631D01*
X128100825Y-103710843D01*
X128101202Y-103709339D01*
X128100825Y-103700092D01*
X128100826Y-103571094D01*
X128103928Y-103561926D01*
X128100825Y-103549517D01*
X128100826Y-103547970D01*
X128098221Y-103539100D01*
X128054207Y-103363043D01*
X128055137Y-103354432D01*
X128048971Y-103342101D01*
X128048353Y-103339626D01*
X128044165Y-103332487D01*
X128001875Y-103247907D01*
X127999193Y-103235577D01*
X127984573Y-103220957D01*
X127970504Y-103205832D01*
X127969085Y-103205469D01*
X127891240Y-103127624D01*
X127879960Y-103113613D01*
X127865415Y-103108764D01*
X127851965Y-103101420D01*
X127844898Y-103101925D01*
X127725129Y-103062001D01*
X127714515Y-103055180D01*
X127693836Y-103055180D01*
X127673196Y-103054434D01*
X127671937Y-103055180D01*
X127459758Y-103055180D01*
X127443274Y-103052810D01*
X127428121Y-103059729D01*
X127412138Y-103064423D01*
X127408401Y-103068735D01*
X127403210Y-103071106D01*
X127394202Y-103085122D01*
X127383296Y-103097709D01*
X127382484Y-103103355D01*
X127379398Y-103108158D01*
X127379398Y-103124820D01*
X127377028Y-103141304D01*
X127379398Y-103146493D01*
X127379398Y-104124820D01*
X127377028Y-104141304D01*
X127053207Y-104141304D01*
X127053207Y-103138976D01*
X127056267Y-103126112D01*
X127049617Y-103107175D01*
X127043964Y-103087920D01*
X127042373Y-103086541D01*
X127041676Y-103084556D01*
X127025845Y-103072220D01*
X127010678Y-103059078D01*
X127008594Y-103058778D01*
X127006935Y-103057485D01*
X126986944Y-103055665D01*
X126967083Y-103052810D01*
X126965169Y-103053683D01*
X126963072Y-103053493D01*
X126945267Y-103062772D01*
X126927019Y-103071106D01*
X126925881Y-103072876D01*
X126924015Y-103073849D01*
X126914058Y-103091272D01*
X126903207Y-103108158D01*
X126903207Y-103110263D01*
X126481779Y-103847762D01*
X126481779Y-103119398D01*
X126472536Y-103087920D01*
X126439250Y-103059078D01*
X126395655Y-103052810D01*
X126355591Y-103071106D01*
X126331779Y-103108158D01*
X126331779Y-104121383D01*
X126328719Y-104134247D01*
X125985140Y-104134247D01*
X125997794Y-104122477D01*
X126008705Y-104079806D01*
X125994815Y-104038011D01*
X125960533Y-104010359D01*
X125916744Y-104005631D01*
X125817645Y-104055180D01*
X125704663Y-104055180D01*
X125590149Y-104017008D01*
X125516036Y-103942895D01*
X125477543Y-103865909D01*
X125434160Y-103692374D01*
X125434160Y-103567986D01*
X125477543Y-103394453D01*
X125516037Y-103317464D01*
X125590150Y-103243351D01*
X125704663Y-103205180D01*
X125775560Y-103205180D01*
X125890074Y-103243352D01*
X125903207Y-103256485D01*
X125903207Y-103483752D01*
X125776949Y-103483752D01*
X125745471Y-103492995D01*
X125716629Y-103526281D01*
X125710361Y-103569876D01*
X125728657Y-103609940D01*
X125765709Y-103633752D01*
X125972847Y-103633752D01*
X125989331Y-103636122D01*
X126004483Y-103629202D01*
X126020467Y-103624509D01*
X126024203Y-103620196D01*
X126029395Y-103617826D01*
X126038402Y-103603809D01*
X126049309Y-103591223D01*
X126050120Y-103585576D01*
X126053207Y-103580774D01*
X126053207Y-103564111D01*
X126055577Y-103547628D01*
X126053207Y-103542438D01*
X126053206Y-103238949D01*
X126056174Y-103230995D01*
X126053207Y-103217355D01*
X126053207Y-103214637D01*
X126050925Y-103206865D01*
X126046812Y-103187958D01*
X126044775Y-103185921D01*
X126043964Y-103183159D01*
X126029350Y-103170496D01*
X125986478Y-103127624D01*
X125975198Y-103113613D01*
X125960653Y-103108764D01*
X125947203Y-103101420D01*
X125940136Y-103101925D01*
X125820367Y-103062001D01*
X125809753Y-103055180D01*
X125789074Y-103055180D01*
X125768434Y-103054434D01*
X125767175Y-103055180D01*
X125701895Y-103055180D01*
X125689668Y-103052065D01*
X125670060Y-103058600D01*
X125650233Y-103064423D01*
X125649273Y-103065530D01*
X125529753Y-103105371D01*
X125512175Y-103109195D01*
X125501333Y-103120036D01*
X125488750Y-103128782D01*
X125486042Y-103135327D01*
X125408013Y-103213356D01*
X125397164Y-103219800D01*
X125387913Y-103238300D01*
X125378018Y-103256423D01*
X125378122Y-103257883D01*
X125345670Y-103322787D01*
X125339359Y-103328722D01*
X125336014Y-103342099D01*
X125334875Y-103344379D01*
X125333411Y-103352511D01*
X125289392Y-103528588D01*
X125284160Y-103536730D01*
X125284160Y-103549518D01*
X125283784Y-103551022D01*
X125284160Y-103560268D01*
X125284160Y-103689266D01*
X125281058Y-103698435D01*
X124702143Y-103698435D01*
X124702143Y-102632143D01*
X128660476Y-102632143D01*
X128660476Y-104742857D01*
G37*
G36*
X128374762Y-102132857D02*
G01*
X124702143Y-102132857D01*
X124702143Y-100531304D01*
X125281790Y-100531304D01*
X125300086Y-100571368D01*
X125337138Y-100595180D01*
X125569874Y-100595180D01*
X125569874Y-101291495D01*
X125514079Y-101235700D01*
X125507636Y-101224851D01*
X125489135Y-101215600D01*
X125471013Y-101205705D01*
X125469552Y-101205809D01*
X125383057Y-101162562D01*
X125350769Y-101156752D01*
X125310086Y-101173625D01*
X125284983Y-101209815D01*
X125283431Y-101253831D01*
X125305922Y-101291700D01*
X125409971Y-101343725D01*
X125491352Y-101425105D01*
X125576132Y-101552276D01*
X125579117Y-101562440D01*
X125588093Y-101570218D01*
X125588451Y-101570754D01*
X125596244Y-101577280D01*
X125612403Y-101591282D01*
X125613079Y-101591379D01*
X125613603Y-101591818D01*
X125634828Y-101594506D01*
X125655998Y-101597550D01*
X125656619Y-101597266D01*
X125657297Y-101597352D01*
X125676587Y-101588147D01*
X125696062Y-101579254D01*
X125696431Y-101578678D01*
X125697047Y-101578385D01*
X125708295Y-101560219D01*
X125719874Y-101542202D01*
X125719874Y-101541518D01*
X125720233Y-101540939D01*
X125719874Y-101519545D01*
X125719874Y-100595180D01*
X125941370Y-100595180D01*
X125972848Y-100585937D01*
X126001690Y-100552651D01*
X126007160Y-100514604D01*
X126185955Y-100514604D01*
X126187760Y-100522901D01*
X126186552Y-100531304D01*
X126192349Y-100543998D01*
X126195317Y-100557641D01*
X126201321Y-100563645D01*
X126204848Y-100571368D01*
X126216590Y-100578914D01*
X126769797Y-101132122D01*
X126807969Y-101246636D01*
X126807969Y-101311998D01*
X126773710Y-101380515D01*
X126743303Y-101410922D01*
X126674788Y-101445180D01*
X126472104Y-101445180D01*
X126403586Y-101410921D01*
X126356950Y-101364285D01*
X126328156Y-101348562D01*
X126284225Y-101351705D01*
X126248966Y-101378099D01*
X126233574Y-101419366D01*
X126242936Y-101462403D01*
X126299478Y-101518945D01*
X126305922Y-101529795D01*
X126324431Y-101539049D01*
X126342545Y-101548940D01*
X126344003Y-101548835D01*
X126417249Y-101585458D01*
X126432376Y-101595180D01*
X126447706Y-101595180D01*
X126462789Y-101597894D01*
X126469333Y-101595180D01*
X126688453Y-101595180D01*
X126706337Y-101597111D01*
X126720050Y-101590254D01*
X126734753Y-101585937D01*
X126739391Y-101580583D01*
X126812860Y-101543848D01*
X126825192Y-101541166D01*
X126826881Y-101539477D01*
X127092938Y-101539477D01*
X127115395Y-101577365D01*
X127154771Y-101597097D01*
X127198564Y-101592410D01*
X127232871Y-101564789D01*
X127502017Y-100757351D01*
X127767608Y-101554125D01*
X127786331Y-101581065D01*
X127827030Y-101597901D01*
X127870370Y-101590061D01*
X127902592Y-101560035D01*
X127913465Y-101517354D01*
X127577457Y-100509330D01*
X127577763Y-100500883D01*
X127570631Y-100488850D01*
X127569759Y-100486234D01*
X127565146Y-100479596D01*
X127555306Y-100462995D01*
X127552700Y-100461689D01*
X127551036Y-100459294D01*
X127533182Y-100451908D01*
X127515930Y-100443263D01*
X127513032Y-100443573D01*
X127510337Y-100442458D01*
X127491329Y-100445896D01*
X127472136Y-100447951D01*
X127469865Y-100449779D01*
X127466997Y-100450298D01*
X127452873Y-100463459D01*
X127437830Y-100475571D01*
X127436907Y-100478337D01*
X127434775Y-100480325D01*
X127430007Y-100499037D01*
X127094123Y-101506692D01*
X127092938Y-101539477D01*
X126826881Y-101539477D01*
X126839819Y-101526538D01*
X126854937Y-101512477D01*
X126855299Y-101511058D01*
X126881734Y-101484623D01*
X126892584Y-101478180D01*
X126901838Y-101459670D01*
X126911729Y-101441557D01*
X126911624Y-101440098D01*
X126948247Y-101366852D01*
X126957969Y-101351726D01*
X126957969Y-101336396D01*
X126960683Y-101321313D01*
X126957969Y-101314769D01*
X126957969Y-101243867D01*
X126961084Y-101231640D01*
X126954544Y-101212020D01*
X126948726Y-101192206D01*
X126947619Y-101191247D01*
X126907777Y-101071718D01*
X126903955Y-101054148D01*
X126893116Y-101043309D01*
X126884369Y-101030723D01*
X126877821Y-101028014D01*
X126444988Y-100595180D01*
X126893751Y-100595180D01*
X126925229Y-100585937D01*
X126954071Y-100552651D01*
X126960339Y-100509056D01*
X126942043Y-100468992D01*
X126904991Y-100445180D01*
X126283064Y-100445180D01*
X126280537Y-100443800D01*
X126261248Y-100445180D01*
X126253140Y-100445180D01*
X126250528Y-100445946D01*
X126236606Y-100446943D01*
X126229809Y-100452030D01*
X126221662Y-100454423D01*
X126212521Y-100464972D01*
X126201347Y-100473337D01*
X126198379Y-100481292D01*
X126192820Y-100487709D01*
X126190833Y-100501523D01*
X126185955Y-100514604D01*
X126007160Y-100514604D01*
X126007958Y-100509056D01*
X125989662Y-100468992D01*
X125952610Y-100445180D01*
X125650234Y-100445180D01*
X125633750Y-100442810D01*
X125628560Y-100445180D01*
X125348378Y-100445180D01*
X125316900Y-100454423D01*
X125288058Y-100487709D01*
X125281790Y-100531304D01*
X124702143Y-100531304D01*
X124702143Y-100022143D01*
X128374762Y-100022143D01*
X128374762Y-102132857D01*
G37*
G36*
X126527255Y-98603008D02*
G01*
X126393217Y-98200895D01*
X126661293Y-98200895D01*
X126527255Y-98603008D01*
G37*
G36*
X130244733Y-97949439D02*
G01*
X130316675Y-98021381D01*
X130357017Y-98182747D01*
X130357017Y-98497613D01*
X130316675Y-98658979D01*
X130244732Y-98730922D01*
X130176217Y-98765180D01*
X130021152Y-98765180D01*
X129952634Y-98730921D01*
X129880692Y-98658979D01*
X129840351Y-98497613D01*
X129840351Y-98182748D01*
X129880692Y-98021381D01*
X129952635Y-97949438D01*
X130021151Y-97915180D01*
X130176216Y-97915180D01*
X130244733Y-97949439D01*
G37*
G36*
X132209524Y-99452857D02*
G01*
X124632143Y-99452857D01*
X124632143Y-98408435D01*
X125211058Y-98408435D01*
X125214160Y-98420843D01*
X125214160Y-98422391D01*
X125216764Y-98431260D01*
X125260778Y-98607315D01*
X125259848Y-98615929D01*
X125266014Y-98628262D01*
X125266633Y-98630735D01*
X125270815Y-98637862D01*
X125313110Y-98722452D01*
X125315793Y-98734784D01*
X125330420Y-98749411D01*
X125344482Y-98764529D01*
X125345900Y-98764891D01*
X125423748Y-98842739D01*
X125435027Y-98856748D01*
X125449568Y-98861595D01*
X125463021Y-98868941D01*
X125470088Y-98868435D01*
X125589856Y-98908358D01*
X125600471Y-98915180D01*
X125621150Y-98915180D01*
X125641790Y-98915926D01*
X125643049Y-98915180D01*
X125708329Y-98915180D01*
X125720556Y-98918295D01*
X125740168Y-98911757D01*
X125759991Y-98905937D01*
X125760949Y-98904830D01*
X125880475Y-98864988D01*
X125898049Y-98861166D01*
X125908889Y-98850325D01*
X125921473Y-98841580D01*
X125924180Y-98835034D01*
X125968864Y-98790351D01*
X125984586Y-98761557D01*
X125981444Y-98717626D01*
X125955050Y-98682368D01*
X125913783Y-98666975D01*
X125870746Y-98676337D01*
X125820074Y-98727008D01*
X125705559Y-98765180D01*
X125634663Y-98765180D01*
X125520149Y-98727008D01*
X125446036Y-98652895D01*
X125407543Y-98575909D01*
X125364160Y-98402375D01*
X125364160Y-98277986D01*
X125407543Y-98104453D01*
X125446037Y-98027464D01*
X125520150Y-97953351D01*
X125634663Y-97915180D01*
X125705560Y-97915180D01*
X125820074Y-97953352D01*
X125862798Y-97996076D01*
X125891592Y-98011798D01*
X125935523Y-98008656D01*
X125970781Y-97982262D01*
X125986174Y-97940995D01*
X125976812Y-97897958D01*
X125921859Y-97843005D01*
X126115807Y-97843005D01*
X126212399Y-98132782D01*
X126211790Y-98137019D01*
X126219274Y-98153408D01*
X126451814Y-98851029D01*
X126451509Y-98859477D01*
X126458641Y-98871510D01*
X126459513Y-98874125D01*
X126464121Y-98880756D01*
X126473966Y-98897365D01*
X126476572Y-98898671D01*
X126478236Y-98901065D01*
X126496078Y-98908445D01*
X126513342Y-98917097D01*
X126516241Y-98916786D01*
X126518935Y-98917901D01*
X126537922Y-98914466D01*
X126557135Y-98912410D01*
X126559408Y-98910579D01*
X126562275Y-98910061D01*
X126576393Y-98896904D01*
X126591442Y-98884789D01*
X126592364Y-98882022D01*
X126594497Y-98880035D01*
X126599263Y-98861324D01*
X126604955Y-98844247D01*
X127115862Y-98844247D01*
X127122510Y-98863181D01*
X127128165Y-98882440D01*
X127129755Y-98883818D01*
X127130453Y-98885804D01*
X127146283Y-98898139D01*
X127161451Y-98911282D01*
X127163534Y-98911581D01*
X127165194Y-98912875D01*
X127185184Y-98914694D01*
X127205046Y-98917550D01*
X127206959Y-98916676D01*
X127209057Y-98916867D01*
X127226861Y-98907587D01*
X127245110Y-98899254D01*
X127246247Y-98897483D01*
X127248114Y-98896511D01*
X127258070Y-98879087D01*
X127268922Y-98862202D01*
X127268922Y-98860097D01*
X127690350Y-98122598D01*
X127690350Y-98850962D01*
X127699593Y-98882440D01*
X127732879Y-98911282D01*
X127776474Y-98917550D01*
X127816538Y-98899254D01*
X127840350Y-98862202D01*
X127840350Y-97851304D01*
X128926076Y-97851304D01*
X128928446Y-97856493D01*
X128928446Y-98850962D01*
X128937689Y-98882440D01*
X128970975Y-98911282D01*
X129014570Y-98917550D01*
X129054634Y-98899254D01*
X129078446Y-98862202D01*
X129078446Y-98503673D01*
X129687249Y-98503673D01*
X129690350Y-98516080D01*
X129690351Y-98517629D01*
X129692955Y-98526498D01*
X129739931Y-98714401D01*
X129744365Y-98734784D01*
X129753145Y-98743564D01*
X129759426Y-98754269D01*
X129768394Y-98758813D01*
X129848526Y-98838945D01*
X129854970Y-98849795D01*
X129873471Y-98859045D01*
X129891593Y-98868941D01*
X129893053Y-98868836D01*
X129966297Y-98905458D01*
X129981424Y-98915180D01*
X129996754Y-98915180D01*
X130011837Y-98917894D01*
X130018381Y-98915180D01*
X130189882Y-98915180D01*
X130207766Y-98917111D01*
X130221479Y-98910254D01*
X130236182Y-98905937D01*
X130240820Y-98900583D01*
X130314289Y-98863848D01*
X130326621Y-98861166D01*
X130341248Y-98846538D01*
X130355484Y-98833297D01*
X130689893Y-98833297D01*
X130691594Y-98866060D01*
X130717294Y-98901828D01*
X130758252Y-98918023D01*
X130801464Y-98909504D01*
X130833211Y-98878975D01*
X131007562Y-98146696D01*
X131119167Y-98565213D01*
X131119496Y-98578356D01*
X131130811Y-98595030D01*
X131141274Y-98612243D01*
X131143092Y-98613128D01*
X131144227Y-98614801D01*
X131162752Y-98622707D01*
X131180868Y-98631534D01*
X131182875Y-98631296D01*
X131184735Y-98632090D01*
X131204597Y-98628725D01*
X131224606Y-98626358D01*
X131226166Y-98625072D01*
X131228160Y-98624735D01*
X131243049Y-98611166D01*
X131258603Y-98598356D01*
X131259221Y-98596430D01*
X131260715Y-98595069D01*
X131265903Y-98575612D01*
X131272064Y-98556420D01*
X131271542Y-98554465D01*
X131380281Y-98146694D01*
X131552031Y-98868040D01*
X131568313Y-98896521D01*
X131607375Y-98916869D01*
X131651236Y-98912869D01*
X131685973Y-98885791D01*
X131700555Y-98844231D01*
X131459178Y-97830451D01*
X131458824Y-97816290D01*
X131448073Y-97800447D01*
X131438578Y-97783838D01*
X131435831Y-97782407D01*
X131434093Y-97779845D01*
X131416486Y-97772330D01*
X131399517Y-97763491D01*
X131396434Y-97763772D01*
X131393585Y-97762556D01*
X131374704Y-97765753D01*
X131355656Y-97767491D01*
X131353215Y-97769393D01*
X131350160Y-97769911D01*
X131336009Y-97782805D01*
X131320919Y-97794569D01*
X131319893Y-97797491D01*
X131317605Y-97799577D01*
X131312674Y-97818064D01*
X131306337Y-97836128D01*
X131307054Y-97839141D01*
X131193922Y-98263386D01*
X131077937Y-97828441D01*
X131077203Y-97814300D01*
X131066037Y-97798760D01*
X131056094Y-97782404D01*
X131053310Y-97781047D01*
X131051503Y-97778532D01*
X131033699Y-97771492D01*
X131016500Y-97763112D01*
X131013425Y-97763475D01*
X131010545Y-97762337D01*
X130991760Y-97766040D01*
X130972762Y-97768289D01*
X130970372Y-97770256D01*
X130967333Y-97770856D01*
X130953532Y-97784126D01*
X130938765Y-97796290D01*
X130937818Y-97799237D01*
X130935586Y-97801385D01*
X130931152Y-97820005D01*
X130925304Y-97838226D01*
X130926101Y-97841218D01*
X130689893Y-98833297D01*
X130355484Y-98833297D01*
X130356366Y-98832477D01*
X130356728Y-98831058D01*
X130436610Y-98751176D01*
X130451818Y-98736878D01*
X130454829Y-98724831D01*
X130460778Y-98713938D01*
X130460060Y-98703908D01*
X130501784Y-98537010D01*
X130507017Y-98528869D01*
X130507017Y-98516081D01*
X130507393Y-98514577D01*
X130507017Y-98505330D01*
X130507017Y-98185856D01*
X130510119Y-98176688D01*
X130507017Y-98164279D01*
X130507017Y-98162732D01*
X130504412Y-98153862D01*
X130457436Y-97965959D01*
X130453003Y-97945577D01*
X130444223Y-97936797D01*
X130437942Y-97926091D01*
X130428971Y-97921545D01*
X130348843Y-97841417D01*
X130342399Y-97830567D01*
X130323902Y-97821318D01*
X130305775Y-97811420D01*
X130304314Y-97811524D01*
X130231071Y-97774901D01*
X130215944Y-97765180D01*
X130200615Y-97765180D01*
X130185532Y-97762466D01*
X130178988Y-97765180D01*
X130007486Y-97765180D01*
X129989602Y-97763249D01*
X129975888Y-97770105D01*
X129961186Y-97774423D01*
X129956546Y-97779776D01*
X129883076Y-97816512D01*
X129870747Y-97819195D01*
X129856122Y-97833819D01*
X129841002Y-97847885D01*
X129840639Y-97849302D01*
X129760748Y-97929193D01*
X129745550Y-97943484D01*
X129742538Y-97955528D01*
X129736590Y-97966423D01*
X129737307Y-97976453D01*
X129695583Y-98143350D01*
X129690351Y-98151492D01*
X129690350Y-98164280D01*
X129689975Y-98165784D01*
X129690351Y-98175030D01*
X129690351Y-98494504D01*
X129687249Y-98503673D01*
X129078446Y-98503673D01*
X129078446Y-97915180D01*
X129490418Y-97915180D01*
X129521896Y-97905937D01*
X129550738Y-97872651D01*
X129557006Y-97829056D01*
X129538710Y-97788992D01*
X129501658Y-97765180D01*
X129008806Y-97765180D01*
X128992322Y-97762810D01*
X128977169Y-97769729D01*
X128961186Y-97774423D01*
X128957449Y-97778735D01*
X128952258Y-97781106D01*
X128943250Y-97795122D01*
X128932344Y-97807709D01*
X128931532Y-97813355D01*
X128928446Y-97818158D01*
X128928446Y-97834820D01*
X128926076Y-97851304D01*
X127840350Y-97851304D01*
X127840350Y-97848976D01*
X127843410Y-97836112D01*
X127836760Y-97817175D01*
X127831107Y-97797920D01*
X127829516Y-97796541D01*
X127828819Y-97794556D01*
X127812988Y-97782220D01*
X127797821Y-97769078D01*
X127795737Y-97768778D01*
X127794078Y-97767485D01*
X127774087Y-97765665D01*
X127754226Y-97762810D01*
X127752312Y-97763683D01*
X127750215Y-97763493D01*
X127732410Y-97772772D01*
X127714162Y-97781106D01*
X127713024Y-97782876D01*
X127711158Y-97783849D01*
X127701201Y-97801272D01*
X127690350Y-97818158D01*
X127690350Y-97820263D01*
X127268922Y-98557762D01*
X127268922Y-97829398D01*
X127259679Y-97797920D01*
X127226393Y-97769078D01*
X127182798Y-97762810D01*
X127142734Y-97781106D01*
X127118922Y-97818158D01*
X127118921Y-98831383D01*
X127115862Y-98844247D01*
X126604955Y-98844247D01*
X126831789Y-98163746D01*
X126836452Y-98158366D01*
X126838627Y-98143231D01*
X126935149Y-97853669D01*
X126936334Y-97820883D01*
X126913877Y-97782995D01*
X126874501Y-97763263D01*
X126830707Y-97767951D01*
X126796401Y-97795571D01*
X126711293Y-98050895D01*
X126343218Y-98050895D01*
X126261664Y-97806234D01*
X126242941Y-97779294D01*
X126202242Y-97762458D01*
X126158902Y-97770298D01*
X126126680Y-97800325D01*
X126115807Y-97843005D01*
X125921859Y-97843005D01*
X125916478Y-97837624D01*
X125905198Y-97823613D01*
X125890653Y-97818764D01*
X125877203Y-97811420D01*
X125870136Y-97811925D01*
X125750367Y-97772001D01*
X125739753Y-97765180D01*
X125719074Y-97765180D01*
X125698434Y-97764434D01*
X125697175Y-97765180D01*
X125631895Y-97765180D01*
X125619668Y-97762065D01*
X125600060Y-97768600D01*
X125580233Y-97774423D01*
X125579273Y-97775530D01*
X125459753Y-97815371D01*
X125442175Y-97819195D01*
X125431333Y-97830036D01*
X125418750Y-97838782D01*
X125416042Y-97845327D01*
X125338013Y-97923356D01*
X125327164Y-97929800D01*
X125317913Y-97948300D01*
X125308018Y-97966423D01*
X125308122Y-97967883D01*
X125275670Y-98032787D01*
X125269359Y-98038722D01*
X125266014Y-98052099D01*
X125264875Y-98054379D01*
X125263411Y-98062511D01*
X125219392Y-98238588D01*
X125214160Y-98246730D01*
X125214160Y-98259518D01*
X125213784Y-98261022D01*
X125214160Y-98270268D01*
X125214160Y-98399266D01*
X125211058Y-98408435D01*
X124632143Y-98408435D01*
X124632143Y-97342143D01*
X132209524Y-97342143D01*
X132209524Y-99452857D01*
G37*
G36*
X126527255Y-95893008D02*
G01*
X126393217Y-95490895D01*
X126661293Y-95490895D01*
X126527255Y-95893008D01*
G37*
G36*
X130733333Y-96742857D02*
G01*
X124632143Y-96742857D01*
X124632143Y-95698435D01*
X125211058Y-95698435D01*
X125214160Y-95710842D01*
X125214160Y-95712391D01*
X125216764Y-95721260D01*
X125260778Y-95897315D01*
X125259848Y-95905929D01*
X125266014Y-95918262D01*
X125266633Y-95920735D01*
X125270815Y-95927862D01*
X125313110Y-96012452D01*
X125315793Y-96024784D01*
X125330420Y-96039411D01*
X125344482Y-96054529D01*
X125345900Y-96054891D01*
X125423748Y-96132739D01*
X125435027Y-96146748D01*
X125449568Y-96151595D01*
X125463021Y-96158941D01*
X125470088Y-96158435D01*
X125589856Y-96198358D01*
X125600471Y-96205180D01*
X125621150Y-96205180D01*
X125641790Y-96205926D01*
X125643049Y-96205180D01*
X125708329Y-96205180D01*
X125720556Y-96208295D01*
X125740168Y-96201757D01*
X125759991Y-96195937D01*
X125760949Y-96194830D01*
X125880475Y-96154988D01*
X125898049Y-96151166D01*
X125908889Y-96140325D01*
X125921473Y-96131580D01*
X125924180Y-96125034D01*
X125968864Y-96080351D01*
X125984586Y-96051557D01*
X125981444Y-96007626D01*
X125955050Y-95972368D01*
X125913783Y-95956975D01*
X125870746Y-95966337D01*
X125820074Y-96017008D01*
X125705559Y-96055180D01*
X125634663Y-96055180D01*
X125520149Y-96017008D01*
X125446036Y-95942895D01*
X125407543Y-95865909D01*
X125364160Y-95692374D01*
X125364160Y-95567986D01*
X125407543Y-95394453D01*
X125446038Y-95317463D01*
X125520150Y-95243351D01*
X125634663Y-95205180D01*
X125705560Y-95205180D01*
X125820074Y-95243352D01*
X125862798Y-95286076D01*
X125891592Y-95301798D01*
X125935523Y-95298656D01*
X125970781Y-95272262D01*
X125986174Y-95230995D01*
X125976812Y-95187958D01*
X125921859Y-95133005D01*
X126115807Y-95133005D01*
X126212399Y-95422782D01*
X126211790Y-95427019D01*
X126219274Y-95443408D01*
X126451814Y-96141029D01*
X126451509Y-96149477D01*
X126458641Y-96161510D01*
X126459513Y-96164125D01*
X126464121Y-96170756D01*
X126473966Y-96187365D01*
X126476572Y-96188671D01*
X126478236Y-96191065D01*
X126496078Y-96198445D01*
X126513342Y-96207097D01*
X126516241Y-96206786D01*
X126518935Y-96207901D01*
X126537922Y-96204466D01*
X126557135Y-96202410D01*
X126559408Y-96200579D01*
X126562275Y-96200061D01*
X126576393Y-96186904D01*
X126591442Y-96174789D01*
X126592364Y-96172022D01*
X126594497Y-96170035D01*
X126599263Y-96151324D01*
X126604955Y-96134247D01*
X127115862Y-96134247D01*
X127122510Y-96153181D01*
X127128165Y-96172440D01*
X127129755Y-96173818D01*
X127130453Y-96175804D01*
X127146283Y-96188139D01*
X127161451Y-96201282D01*
X127163534Y-96201581D01*
X127165194Y-96202875D01*
X127185184Y-96204694D01*
X127205046Y-96207550D01*
X127206959Y-96206676D01*
X127209057Y-96206867D01*
X127226861Y-96197587D01*
X127245110Y-96189254D01*
X127246247Y-96187483D01*
X127248114Y-96186511D01*
X127258070Y-96169087D01*
X127268922Y-96152202D01*
X127268922Y-96150097D01*
X127690350Y-95412598D01*
X127690350Y-96140962D01*
X127699593Y-96172440D01*
X127732879Y-96201282D01*
X127776474Y-96207550D01*
X127816538Y-96189254D01*
X127840350Y-96152202D01*
X127840350Y-95665114D01*
X128926076Y-95665114D01*
X128928446Y-95670303D01*
X128928446Y-96140962D01*
X128937689Y-96172440D01*
X128970975Y-96201282D01*
X129014570Y-96207550D01*
X129054634Y-96189254D01*
X129078446Y-96152202D01*
X129078446Y-95728990D01*
X129499874Y-95728990D01*
X129499874Y-96140962D01*
X129509117Y-96172440D01*
X129542403Y-96201282D01*
X129585998Y-96207550D01*
X129626062Y-96189254D01*
X129649874Y-96152202D01*
X129649874Y-96140962D01*
X129976065Y-96140962D01*
X129985308Y-96172440D01*
X130018594Y-96201282D01*
X130062189Y-96207550D01*
X130102253Y-96189254D01*
X130126065Y-96152202D01*
X130126065Y-95119398D01*
X130116822Y-95087920D01*
X130083536Y-95059078D01*
X130039941Y-95052810D01*
X129999877Y-95071106D01*
X129976065Y-95108158D01*
X129976065Y-96140962D01*
X129649874Y-96140962D01*
X129649874Y-95659349D01*
X129652244Y-95642866D01*
X129649874Y-95637676D01*
X129649874Y-95119398D01*
X129640631Y-95087920D01*
X129607345Y-95059078D01*
X129563750Y-95052810D01*
X129523686Y-95071106D01*
X129499874Y-95108158D01*
X129499874Y-95578990D01*
X129078446Y-95578990D01*
X129078446Y-95119398D01*
X129069203Y-95087920D01*
X129035917Y-95059078D01*
X128992322Y-95052810D01*
X128952258Y-95071106D01*
X128928446Y-95108158D01*
X128928446Y-95648630D01*
X128926076Y-95665114D01*
X127840350Y-95665114D01*
X127840350Y-95138976D01*
X127843410Y-95126112D01*
X127836760Y-95107175D01*
X127831107Y-95087920D01*
X127829516Y-95086541D01*
X127828819Y-95084556D01*
X127812988Y-95072220D01*
X127797821Y-95059078D01*
X127795737Y-95058778D01*
X127794078Y-95057485D01*
X127774087Y-95055665D01*
X127754226Y-95052810D01*
X127752312Y-95053683D01*
X127750215Y-95053493D01*
X127732410Y-95062772D01*
X127714162Y-95071106D01*
X127713024Y-95072876D01*
X127711158Y-95073849D01*
X127701201Y-95091272D01*
X127690350Y-95108158D01*
X127690350Y-95110263D01*
X127268922Y-95847762D01*
X127268922Y-95119398D01*
X127259679Y-95087920D01*
X127226393Y-95059078D01*
X127182798Y-95052810D01*
X127142734Y-95071106D01*
X127118922Y-95108158D01*
X127118921Y-96121383D01*
X127115862Y-96134247D01*
X126604955Y-96134247D01*
X126831789Y-95453746D01*
X126836452Y-95448366D01*
X126838627Y-95433231D01*
X126935149Y-95143669D01*
X126936334Y-95110883D01*
X126913877Y-95072995D01*
X126874501Y-95053263D01*
X126830707Y-95057951D01*
X126796401Y-95085571D01*
X126711293Y-95340895D01*
X126343218Y-95340895D01*
X126261664Y-95096234D01*
X126242941Y-95069294D01*
X126202242Y-95052458D01*
X126158902Y-95060298D01*
X126126680Y-95090325D01*
X126115807Y-95133005D01*
X125921859Y-95133005D01*
X125916478Y-95127624D01*
X125905198Y-95113613D01*
X125890653Y-95108764D01*
X125877203Y-95101420D01*
X125870136Y-95101925D01*
X125750367Y-95062001D01*
X125739753Y-95055180D01*
X125719074Y-95055180D01*
X125698434Y-95054434D01*
X125697175Y-95055180D01*
X125631895Y-95055180D01*
X125619668Y-95052065D01*
X125600060Y-95058600D01*
X125580233Y-95064423D01*
X125579273Y-95065530D01*
X125459753Y-95105371D01*
X125442175Y-95109195D01*
X125431333Y-95120036D01*
X125418750Y-95128782D01*
X125416042Y-95135327D01*
X125338013Y-95213356D01*
X125327164Y-95219800D01*
X125317913Y-95238300D01*
X125308018Y-95256423D01*
X125308122Y-95257883D01*
X125275670Y-95322787D01*
X125269359Y-95328722D01*
X125266014Y-95342099D01*
X125264875Y-95344379D01*
X125263411Y-95352511D01*
X125219392Y-95528588D01*
X125214160Y-95536730D01*
X125214160Y-95549517D01*
X125213784Y-95551022D01*
X125214160Y-95560268D01*
X125214160Y-95689266D01*
X125211058Y-95698435D01*
X124632143Y-95698435D01*
X124632143Y-94632143D01*
X130733333Y-94632143D01*
X130733333Y-96742857D01*
G37*
M02*
