%TF.GenerationSoftware,KiCad,Pcbnew,7.0.6-7.0.6~ubuntu23.04.1*%
%TF.CreationDate,2023-07-25T15:56:09+03:00*%
%TF.ProjectId,nrf52840_dev,6e726635-3238-4343-905f-6465762e6b69,rev?*%
%TF.SameCoordinates,Original*%
%TF.FileFunction,Legend,Bot*%
%TF.FilePolarity,Positive*%
%FSLAX46Y46*%
G04 Gerber Fmt 4.6, Leading zero omitted, Abs format (unit mm)*
G04 Created by KiCad (PCBNEW 7.0.6-7.0.6~ubuntu23.04.1) date 2023-07-25 15:56:09*
%MOMM*%
%LPD*%
G01*
G04 APERTURE LIST*
%ADD10C,0.150000*%
G04 APERTURE END LIST*
D10*
G36*
X126527255Y-95893009D02*
G01*
X126393217Y-95490895D01*
X126661293Y-95490895D01*
X126527255Y-95893009D01*
G37*
G36*
X130268922Y-96348037D02*
G01*
X125071303Y-96348037D01*
X125071303Y-95701609D01*
X125214160Y-95701609D01*
X125215345Y-95704866D01*
X125216399Y-95719799D01*
X125264018Y-95910275D01*
X125266006Y-95913219D01*
X125269697Y-95925626D01*
X125317316Y-96020864D01*
X125318505Y-96021989D01*
X125331365Y-96040356D01*
X125426603Y-96135594D01*
X125430667Y-96137489D01*
X125433014Y-96141309D01*
X125455919Y-96153712D01*
X125598775Y-96201331D01*
X125600410Y-96201286D01*
X125622493Y-96205180D01*
X125717731Y-96205180D01*
X125719269Y-96204619D01*
X125741448Y-96201331D01*
X125884305Y-96153712D01*
X125887817Y-96150924D01*
X125892284Y-96150534D01*
X125913621Y-96135594D01*
X125961240Y-96087975D01*
X125982921Y-96041479D01*
X125969644Y-95991924D01*
X125927618Y-95962498D01*
X125876511Y-95966969D01*
X125855174Y-95981909D01*
X125820074Y-96017008D01*
X125705561Y-96055180D01*
X125634663Y-96055180D01*
X125520150Y-96017009D01*
X125446037Y-95942896D01*
X125407543Y-95865909D01*
X125364159Y-95692374D01*
X125364159Y-95567986D01*
X125407543Y-95394451D01*
X125446037Y-95317464D01*
X125520149Y-95243352D01*
X125634664Y-95205180D01*
X125705560Y-95205180D01*
X125820073Y-95243351D01*
X125855174Y-95278452D01*
X125901670Y-95300133D01*
X125951225Y-95286856D01*
X125980651Y-95244830D01*
X125976180Y-95193723D01*
X125961240Y-95172386D01*
X125916985Y-95128131D01*
X126118950Y-95128131D01*
X126122771Y-95153897D01*
X126456104Y-96153897D01*
X126457446Y-96155588D01*
X126457505Y-96157747D01*
X126473254Y-96175508D01*
X126487995Y-96194083D01*
X126490108Y-96194515D01*
X126491542Y-96196132D01*
X126515012Y-96199612D01*
X126538256Y-96204369D01*
X126540155Y-96203340D01*
X126542291Y-96203657D01*
X126562504Y-96191238D01*
X126583370Y-96179940D01*
X126584163Y-96177932D01*
X126586003Y-96176802D01*
X126598406Y-96153897D01*
X126606312Y-96130180D01*
X127118922Y-96130180D01*
X127121293Y-96136696D01*
X127120120Y-96143532D01*
X127129859Y-96160229D01*
X127136469Y-96178389D01*
X127142474Y-96181856D01*
X127145969Y-96187848D01*
X127164160Y-96194377D01*
X127180898Y-96204041D01*
X127187729Y-96202836D01*
X127194256Y-96205179D01*
X127212387Y-96198488D01*
X127231422Y-96195132D01*
X127235879Y-96189819D01*
X127242386Y-96187419D01*
X127259040Y-96167390D01*
X127690350Y-95412596D01*
X127690350Y-96130180D01*
X127707897Y-96178389D01*
X127752326Y-96204041D01*
X127802850Y-96195132D01*
X127835827Y-96155832D01*
X127840350Y-96130180D01*
X128928446Y-96130180D01*
X128945993Y-96178389D01*
X128990422Y-96204041D01*
X129040946Y-96195132D01*
X129073923Y-96155832D01*
X129078446Y-96130180D01*
X129078446Y-95728990D01*
X129499874Y-95728990D01*
X129499874Y-96130180D01*
X129517421Y-96178389D01*
X129561850Y-96204041D01*
X129612374Y-96195132D01*
X129645351Y-96155832D01*
X129649874Y-96130180D01*
X129976065Y-96130180D01*
X129993612Y-96178389D01*
X130038041Y-96204041D01*
X130088565Y-96195132D01*
X130121542Y-96155832D01*
X130126065Y-96130180D01*
X130126065Y-95130180D01*
X130108518Y-95081971D01*
X130064089Y-95056319D01*
X130013565Y-95065228D01*
X129980588Y-95104528D01*
X129976065Y-95130180D01*
X129976065Y-96130180D01*
X129649874Y-96130180D01*
X129649874Y-95130180D01*
X129632327Y-95081971D01*
X129587898Y-95056319D01*
X129537374Y-95065228D01*
X129504397Y-95104528D01*
X129499874Y-95130180D01*
X129499874Y-95578990D01*
X129078446Y-95578990D01*
X129078446Y-95130180D01*
X129060899Y-95081971D01*
X129016470Y-95056319D01*
X128965946Y-95065228D01*
X128932969Y-95104528D01*
X128928446Y-95130180D01*
X128928446Y-96130180D01*
X127840350Y-96130180D01*
X127840350Y-95130180D01*
X127837977Y-95123662D01*
X127839152Y-95116827D01*
X127829412Y-95100129D01*
X127822803Y-95081971D01*
X127816798Y-95078503D01*
X127813303Y-95072512D01*
X127795111Y-95065982D01*
X127778374Y-95056319D01*
X127771542Y-95057523D01*
X127765016Y-95055181D01*
X127746884Y-95061871D01*
X127727850Y-95065228D01*
X127723392Y-95070540D01*
X127716886Y-95072941D01*
X127700232Y-95092969D01*
X127268922Y-95847763D01*
X127268922Y-95130180D01*
X127251375Y-95081971D01*
X127206946Y-95056319D01*
X127156422Y-95065228D01*
X127123445Y-95104528D01*
X127118922Y-95130180D01*
X127118922Y-96130180D01*
X126606312Y-96130180D01*
X126931739Y-95153897D01*
X126930338Y-95102614D01*
X126896300Y-95064228D01*
X126845552Y-95056703D01*
X126801839Y-95083558D01*
X126789437Y-95106463D01*
X126711293Y-95340895D01*
X126343217Y-95340895D01*
X126265073Y-95106463D01*
X126233182Y-95066277D01*
X126182921Y-95055991D01*
X126137807Y-95080420D01*
X126118950Y-95128131D01*
X125916985Y-95128131D01*
X125913621Y-95124767D01*
X125909558Y-95122872D01*
X125907211Y-95119052D01*
X125884306Y-95106649D01*
X125741449Y-95059029D01*
X125739813Y-95059073D01*
X125717731Y-95055180D01*
X125622493Y-95055180D01*
X125620954Y-95055740D01*
X125598776Y-95059029D01*
X125455918Y-95106649D01*
X125452407Y-95109435D01*
X125447940Y-95109826D01*
X125426603Y-95124767D01*
X125331365Y-95220005D01*
X125330674Y-95221486D01*
X125317316Y-95239497D01*
X125269697Y-95334735D01*
X125269290Y-95338263D01*
X125264018Y-95350086D01*
X125216399Y-95540562D01*
X125216759Y-95544010D01*
X125214160Y-95558752D01*
X125214160Y-95701609D01*
X125071303Y-95701609D01*
X125071303Y-94912323D01*
X130268922Y-94912323D01*
X130268922Y-96348037D01*
G37*
G36*
X128053179Y-101738037D02*
G01*
X125141438Y-101738037D01*
X125141438Y-101238960D01*
X125284295Y-101238960D01*
X125304698Y-101286031D01*
X125325619Y-101301548D01*
X125409971Y-101343724D01*
X125491350Y-101425103D01*
X125582470Y-101561783D01*
X125585946Y-101564337D01*
X125587421Y-101568389D01*
X125606270Y-101579272D01*
X125623812Y-101592162D01*
X125628115Y-101591884D01*
X125631850Y-101594041D01*
X125653282Y-101590261D01*
X125675008Y-101588861D01*
X125678127Y-101585880D01*
X125682374Y-101585132D01*
X125696364Y-101568459D01*
X125712105Y-101553422D01*
X125712579Y-101549135D01*
X125715351Y-101545832D01*
X125719874Y-101520180D01*
X125719874Y-100595180D01*
X125930588Y-100595180D01*
X125978797Y-100577633D01*
X126004449Y-100533204D01*
X125999856Y-100507156D01*
X126190061Y-100507156D01*
X126193982Y-100529393D01*
X126195949Y-100551876D01*
X126198618Y-100555689D01*
X126198970Y-100557680D01*
X126201498Y-100559801D01*
X126210889Y-100573213D01*
X126769797Y-101132122D01*
X126807969Y-101246636D01*
X126807969Y-101311999D01*
X126773711Y-101380514D01*
X126743304Y-101410921D01*
X126674788Y-101445180D01*
X126472103Y-101445180D01*
X126403587Y-101410922D01*
X126364574Y-101371909D01*
X126318077Y-101350228D01*
X126268523Y-101363505D01*
X126239096Y-101405531D01*
X126243568Y-101456638D01*
X126258508Y-101477975D01*
X126306127Y-101525594D01*
X126307608Y-101526285D01*
X126325619Y-101539643D01*
X126420857Y-101587262D01*
X126425310Y-101587774D01*
X126428746Y-101590657D01*
X126454398Y-101595180D01*
X126692493Y-101595180D01*
X126696706Y-101593646D01*
X126701067Y-101594688D01*
X126726034Y-101587262D01*
X126821272Y-101539643D01*
X126822397Y-101538453D01*
X126840764Y-101525594D01*
X126869895Y-101496463D01*
X127097533Y-101496463D01*
X127098934Y-101547747D01*
X127132971Y-101586132D01*
X127183720Y-101593657D01*
X127227432Y-101566802D01*
X127239835Y-101543897D01*
X127502017Y-100757350D01*
X127764199Y-101543897D01*
X127796090Y-101584083D01*
X127846351Y-101594369D01*
X127891465Y-101569940D01*
X127910322Y-101522228D01*
X127906501Y-101496463D01*
X127573168Y-100496463D01*
X127571825Y-100494771D01*
X127571767Y-100492614D01*
X127556025Y-100474861D01*
X127541277Y-100456277D01*
X127539162Y-100455844D01*
X127537729Y-100454228D01*
X127514260Y-100450748D01*
X127491016Y-100445991D01*
X127489116Y-100447019D01*
X127486981Y-100446703D01*
X127466763Y-100459123D01*
X127445902Y-100470420D01*
X127445108Y-100472427D01*
X127443268Y-100473558D01*
X127430866Y-100496463D01*
X127097533Y-101496463D01*
X126869895Y-101496463D01*
X126888383Y-101477975D01*
X126889074Y-101476493D01*
X126902432Y-101458483D01*
X126950051Y-101363245D01*
X126950563Y-101358791D01*
X126953446Y-101355356D01*
X126957969Y-101329704D01*
X126957969Y-101234466D01*
X126957409Y-101232928D01*
X126954120Y-101210748D01*
X126906501Y-101067892D01*
X126903714Y-101064381D01*
X126903324Y-101059913D01*
X126888383Y-101038576D01*
X126444988Y-100595180D01*
X126882969Y-100595180D01*
X126931178Y-100577633D01*
X126956830Y-100533204D01*
X126947921Y-100482680D01*
X126908621Y-100449703D01*
X126882969Y-100445180D01*
X126263922Y-100445180D01*
X126242710Y-100452900D01*
X126220904Y-100458743D01*
X126218935Y-100461553D01*
X126215713Y-100462727D01*
X126204425Y-100482277D01*
X126191478Y-100500768D01*
X126191776Y-100504184D01*
X126190061Y-100507156D01*
X125999856Y-100507156D01*
X125995540Y-100482680D01*
X125956240Y-100449703D01*
X125930588Y-100445180D01*
X125359160Y-100445180D01*
X125310951Y-100462727D01*
X125285299Y-100507156D01*
X125294208Y-100557680D01*
X125333508Y-100590657D01*
X125359160Y-100595180D01*
X125569874Y-100595180D01*
X125569873Y-101291495D01*
X125507431Y-101229052D01*
X125505949Y-101228361D01*
X125487939Y-101215003D01*
X125392701Y-101167384D01*
X125341734Y-101161519D01*
X125298921Y-101189785D01*
X125284295Y-101238960D01*
X125141438Y-101238960D01*
X125141438Y-100302323D01*
X128053179Y-100302323D01*
X128053179Y-101738037D01*
G37*
G36*
X127794835Y-103243351D02*
G01*
X127868948Y-103317464D01*
X127907442Y-103394452D01*
X127950826Y-103567986D01*
X127950826Y-103692375D01*
X127907442Y-103865909D01*
X127868949Y-103942896D01*
X127794836Y-104017008D01*
X127680323Y-104055180D01*
X127529398Y-104055180D01*
X127529398Y-103205180D01*
X127680322Y-103205180D01*
X127794835Y-103243351D01*
G37*
G36*
X128243683Y-104348037D02*
G01*
X125141303Y-104348037D01*
X125141303Y-103701609D01*
X125284160Y-103701609D01*
X125285345Y-103704866D01*
X125286399Y-103719799D01*
X125334018Y-103910275D01*
X125336006Y-103913219D01*
X125339697Y-103925626D01*
X125387316Y-104020864D01*
X125388505Y-104021989D01*
X125401365Y-104040356D01*
X125496603Y-104135594D01*
X125500667Y-104137489D01*
X125503014Y-104141309D01*
X125525919Y-104153712D01*
X125668775Y-104201331D01*
X125670410Y-104201286D01*
X125692493Y-104205180D01*
X125835350Y-104205180D01*
X125839563Y-104203646D01*
X125843924Y-104204688D01*
X125868891Y-104197262D01*
X125964129Y-104149643D01*
X125982557Y-104130180D01*
X126331779Y-104130180D01*
X126334150Y-104136696D01*
X126332977Y-104143532D01*
X126342716Y-104160229D01*
X126349326Y-104178389D01*
X126355331Y-104181856D01*
X126358826Y-104187848D01*
X126377017Y-104194377D01*
X126393755Y-104204041D01*
X126400586Y-104202836D01*
X126407113Y-104205179D01*
X126425244Y-104198488D01*
X126444279Y-104195132D01*
X126448736Y-104189819D01*
X126455243Y-104187419D01*
X126471897Y-104167390D01*
X126903207Y-103412596D01*
X126903207Y-104130180D01*
X126920754Y-104178389D01*
X126965183Y-104204041D01*
X127015707Y-104195132D01*
X127048684Y-104155832D01*
X127053207Y-104130180D01*
X127379398Y-104130180D01*
X127386061Y-104148488D01*
X127389446Y-104167680D01*
X127394630Y-104172030D01*
X127396945Y-104178389D01*
X127413818Y-104188131D01*
X127428746Y-104200657D01*
X127438488Y-104202374D01*
X127441374Y-104204041D01*
X127444656Y-104203462D01*
X127454398Y-104205180D01*
X127692493Y-104205180D01*
X127694031Y-104204619D01*
X127716210Y-104201331D01*
X127859067Y-104153712D01*
X127862579Y-104150924D01*
X127867046Y-104150534D01*
X127888383Y-104135594D01*
X127983621Y-104040356D01*
X127984311Y-104038874D01*
X127997670Y-104020864D01*
X128045289Y-103925626D01*
X128045695Y-103922097D01*
X128050968Y-103910275D01*
X128098587Y-103719799D01*
X128098226Y-103716350D01*
X128100826Y-103701609D01*
X128100826Y-103558752D01*
X128099640Y-103555494D01*
X128098587Y-103540562D01*
X128050968Y-103350086D01*
X128048979Y-103347141D01*
X128045289Y-103334735D01*
X127997670Y-103239497D01*
X127996483Y-103238373D01*
X127983621Y-103220005D01*
X127888383Y-103124767D01*
X127884320Y-103122872D01*
X127881973Y-103119052D01*
X127859068Y-103106649D01*
X127716211Y-103059029D01*
X127714575Y-103059073D01*
X127692493Y-103055180D01*
X127454398Y-103055180D01*
X127436089Y-103061843D01*
X127416898Y-103065228D01*
X127412547Y-103070412D01*
X127406189Y-103072727D01*
X127396446Y-103089600D01*
X127383921Y-103104528D01*
X127382203Y-103114270D01*
X127380537Y-103117156D01*
X127381115Y-103120438D01*
X127379398Y-103130180D01*
X127379398Y-104130180D01*
X127053207Y-104130180D01*
X127053207Y-103130180D01*
X127050834Y-103123662D01*
X127052009Y-103116827D01*
X127042269Y-103100129D01*
X127035660Y-103081971D01*
X127029655Y-103078503D01*
X127026160Y-103072512D01*
X127007968Y-103065982D01*
X126991231Y-103056319D01*
X126984399Y-103057523D01*
X126977873Y-103055181D01*
X126959741Y-103061871D01*
X126940707Y-103065228D01*
X126936249Y-103070540D01*
X126929743Y-103072941D01*
X126913089Y-103092969D01*
X126481779Y-103847763D01*
X126481779Y-103130180D01*
X126464232Y-103081971D01*
X126419803Y-103056319D01*
X126369279Y-103065228D01*
X126336302Y-103104528D01*
X126331779Y-103130180D01*
X126331779Y-104130180D01*
X125982557Y-104130180D01*
X125999401Y-104112389D01*
X126002476Y-104061179D01*
X125971912Y-104019973D01*
X125922013Y-104008053D01*
X125897047Y-104015479D01*
X125817645Y-104055180D01*
X125704663Y-104055180D01*
X125590150Y-104017009D01*
X125516037Y-103942896D01*
X125477543Y-103865908D01*
X125434160Y-103692374D01*
X125434160Y-103567986D01*
X125477543Y-103394451D01*
X125516037Y-103317464D01*
X125590149Y-103243352D01*
X125704664Y-103205180D01*
X125775560Y-103205180D01*
X125890073Y-103243351D01*
X125903207Y-103256484D01*
X125903207Y-103483752D01*
X125787731Y-103483752D01*
X125739522Y-103501299D01*
X125713870Y-103545728D01*
X125722779Y-103596252D01*
X125762079Y-103629229D01*
X125787731Y-103633752D01*
X125978207Y-103633752D01*
X125996515Y-103627088D01*
X126015707Y-103623704D01*
X126020057Y-103618519D01*
X126026416Y-103616205D01*
X126036158Y-103599331D01*
X126048684Y-103584404D01*
X126050401Y-103574661D01*
X126052068Y-103571776D01*
X126051489Y-103568493D01*
X126053207Y-103558752D01*
X126053207Y-103225419D01*
X126047606Y-103210033D01*
X126046180Y-103193723D01*
X126036788Y-103180310D01*
X126035660Y-103177210D01*
X126033910Y-103176199D01*
X126031240Y-103172386D01*
X125983621Y-103124767D01*
X125979558Y-103122872D01*
X125977211Y-103119052D01*
X125954306Y-103106649D01*
X125811449Y-103059029D01*
X125809813Y-103059073D01*
X125787731Y-103055180D01*
X125692493Y-103055180D01*
X125690954Y-103055740D01*
X125668776Y-103059029D01*
X125525918Y-103106649D01*
X125522407Y-103109435D01*
X125517940Y-103109826D01*
X125496603Y-103124767D01*
X125401365Y-103220005D01*
X125400674Y-103221486D01*
X125387316Y-103239497D01*
X125339697Y-103334735D01*
X125339290Y-103338263D01*
X125334018Y-103350086D01*
X125286399Y-103540562D01*
X125286759Y-103544010D01*
X125284160Y-103558752D01*
X125284160Y-103701609D01*
X125141303Y-103701609D01*
X125141303Y-102912323D01*
X128243683Y-102912323D01*
X128243683Y-104348037D01*
G37*
G36*
X130244732Y-97949438D02*
G01*
X130316675Y-98021381D01*
X130357017Y-98182747D01*
X130357017Y-98497613D01*
X130316675Y-98658979D01*
X130244732Y-98730922D01*
X130176217Y-98765180D01*
X130021151Y-98765180D01*
X129952634Y-98730922D01*
X129880692Y-98658979D01*
X129840351Y-98497613D01*
X129840351Y-98182748D01*
X129880692Y-98021381D01*
X129952634Y-97949439D01*
X130021152Y-97915180D01*
X130176216Y-97915180D01*
X130244732Y-97949438D01*
G37*
G36*
X126527255Y-98603009D02*
G01*
X126393217Y-98200895D01*
X126661293Y-98200895D01*
X126527255Y-98603009D01*
G37*
G36*
X131839853Y-99058037D02*
G01*
X125071303Y-99058037D01*
X125071303Y-98411609D01*
X125214160Y-98411609D01*
X125215345Y-98414866D01*
X125216399Y-98429799D01*
X125264018Y-98620275D01*
X125266006Y-98623219D01*
X125269697Y-98635626D01*
X125317316Y-98730864D01*
X125318505Y-98731989D01*
X125331365Y-98750356D01*
X125426603Y-98845594D01*
X125430667Y-98847489D01*
X125433014Y-98851309D01*
X125455919Y-98863712D01*
X125598775Y-98911331D01*
X125600410Y-98911286D01*
X125622493Y-98915180D01*
X125717731Y-98915180D01*
X125719269Y-98914619D01*
X125741448Y-98911331D01*
X125884305Y-98863712D01*
X125887817Y-98860924D01*
X125892284Y-98860534D01*
X125913621Y-98845594D01*
X125961240Y-98797975D01*
X125982921Y-98751479D01*
X125969644Y-98701924D01*
X125927618Y-98672498D01*
X125876511Y-98676969D01*
X125855174Y-98691909D01*
X125820074Y-98727008D01*
X125705561Y-98765180D01*
X125634663Y-98765180D01*
X125520150Y-98727009D01*
X125446036Y-98652895D01*
X125407543Y-98575909D01*
X125364159Y-98402374D01*
X125364159Y-98277986D01*
X125407543Y-98104452D01*
X125446037Y-98027464D01*
X125520149Y-97953352D01*
X125634664Y-97915180D01*
X125705560Y-97915180D01*
X125820073Y-97953351D01*
X125855174Y-97988452D01*
X125901670Y-98010133D01*
X125951225Y-97996856D01*
X125980651Y-97954830D01*
X125976180Y-97903723D01*
X125961240Y-97882386D01*
X125916985Y-97838131D01*
X126118950Y-97838131D01*
X126122771Y-97863897D01*
X126456104Y-98863897D01*
X126457446Y-98865588D01*
X126457505Y-98867747D01*
X126473254Y-98885508D01*
X126487995Y-98904083D01*
X126490108Y-98904515D01*
X126491542Y-98906132D01*
X126515012Y-98909612D01*
X126538256Y-98914369D01*
X126540155Y-98913340D01*
X126542291Y-98913657D01*
X126562504Y-98901238D01*
X126583370Y-98889940D01*
X126584163Y-98887932D01*
X126586003Y-98886802D01*
X126598406Y-98863897D01*
X126606312Y-98840180D01*
X127118922Y-98840180D01*
X127121293Y-98846696D01*
X127120120Y-98853532D01*
X127129859Y-98870229D01*
X127136469Y-98888389D01*
X127142474Y-98891856D01*
X127145969Y-98897848D01*
X127164160Y-98904377D01*
X127180898Y-98914041D01*
X127187729Y-98912836D01*
X127194256Y-98915179D01*
X127212387Y-98908488D01*
X127231422Y-98905132D01*
X127235879Y-98899819D01*
X127242386Y-98897419D01*
X127259040Y-98877390D01*
X127690350Y-98122596D01*
X127690350Y-98840180D01*
X127707897Y-98888389D01*
X127752326Y-98914041D01*
X127802850Y-98905132D01*
X127835827Y-98865832D01*
X127840350Y-98840180D01*
X128928446Y-98840180D01*
X128945993Y-98888389D01*
X128990422Y-98914041D01*
X129040946Y-98905132D01*
X129073923Y-98865832D01*
X129078446Y-98840180D01*
X129078446Y-98506847D01*
X129690351Y-98506847D01*
X129691536Y-98510104D01*
X129692590Y-98525037D01*
X129740209Y-98715513D01*
X129744351Y-98721646D01*
X129744997Y-98729019D01*
X129759937Y-98750356D01*
X129855175Y-98845594D01*
X129856656Y-98846284D01*
X129874667Y-98859643D01*
X129969905Y-98907262D01*
X129974358Y-98907774D01*
X129977794Y-98910657D01*
X130003446Y-98915180D01*
X130193922Y-98915180D01*
X130198135Y-98913646D01*
X130202496Y-98914688D01*
X130227463Y-98907262D01*
X130322701Y-98859643D01*
X130323826Y-98858453D01*
X130342193Y-98845594D01*
X130364979Y-98822808D01*
X130692391Y-98822808D01*
X130698294Y-98873771D01*
X130735573Y-98909016D01*
X130786787Y-98912051D01*
X130827970Y-98881458D01*
X130838311Y-98857552D01*
X131007562Y-98146695D01*
X131121454Y-98573791D01*
X131125381Y-98579413D01*
X131125987Y-98586244D01*
X131139722Y-98599946D01*
X131150831Y-98615851D01*
X131157452Y-98617633D01*
X131162307Y-98622477D01*
X131181633Y-98624144D01*
X131200369Y-98629189D01*
X131206589Y-98626297D01*
X131213420Y-98626887D01*
X131229295Y-98615742D01*
X131246892Y-98607563D01*
X131249797Y-98601350D01*
X131255410Y-98597411D01*
X131266390Y-98573791D01*
X131380281Y-98146695D01*
X131549534Y-98857551D01*
X131577770Y-98900385D01*
X131626932Y-98915049D01*
X131674018Y-98894680D01*
X131696996Y-98848810D01*
X131695454Y-98822808D01*
X131457358Y-97822808D01*
X131453028Y-97816239D01*
X131452333Y-97808402D01*
X131439270Y-97795370D01*
X131429122Y-97779975D01*
X131421586Y-97777727D01*
X131416014Y-97772168D01*
X131397631Y-97770581D01*
X131379960Y-97765311D01*
X131372739Y-97768434D01*
X131364900Y-97767758D01*
X131349800Y-97778357D01*
X131332874Y-97785680D01*
X131329350Y-97792713D01*
X131322910Y-97797235D01*
X131311930Y-97820855D01*
X131193921Y-98263385D01*
X131075914Y-97820855D01*
X131071408Y-97814403D01*
X131070503Y-97806589D01*
X131057097Y-97793915D01*
X131046537Y-97778795D01*
X131038942Y-97776750D01*
X131033224Y-97771344D01*
X131014809Y-97770252D01*
X130996999Y-97765457D01*
X130989864Y-97768773D01*
X130982010Y-97768308D01*
X130967202Y-97779307D01*
X130950477Y-97787083D01*
X130947143Y-97794209D01*
X130940827Y-97798902D01*
X130930486Y-97822808D01*
X130692391Y-98822808D01*
X130364979Y-98822808D01*
X130437431Y-98750356D01*
X130440558Y-98743648D01*
X130446549Y-98739302D01*
X130457159Y-98715513D01*
X130504778Y-98525037D01*
X130504417Y-98521588D01*
X130507017Y-98506847D01*
X130507017Y-98173514D01*
X130505831Y-98170256D01*
X130504778Y-98155324D01*
X130457159Y-97964848D01*
X130453017Y-97958715D01*
X130452372Y-97951342D01*
X130437431Y-97930005D01*
X130342193Y-97834767D01*
X130340710Y-97834075D01*
X130322702Y-97820718D01*
X130227464Y-97773098D01*
X130223009Y-97772585D01*
X130219574Y-97769703D01*
X130193922Y-97765180D01*
X130003446Y-97765180D01*
X129999232Y-97766713D01*
X129994871Y-97765672D01*
X129969905Y-97773098D01*
X129874666Y-97820718D01*
X129873540Y-97821906D01*
X129855175Y-97834767D01*
X129759937Y-97930005D01*
X129756809Y-97936712D01*
X129750819Y-97941059D01*
X129740209Y-97964848D01*
X129692590Y-98155324D01*
X129692950Y-98158772D01*
X129690351Y-98173514D01*
X129690351Y-98506847D01*
X129078446Y-98506847D01*
X129078446Y-97915180D01*
X129479636Y-97915180D01*
X129527845Y-97897633D01*
X129553497Y-97853204D01*
X129544588Y-97802680D01*
X129505288Y-97769703D01*
X129479636Y-97765180D01*
X129003446Y-97765180D01*
X128985137Y-97771843D01*
X128965946Y-97775228D01*
X128961595Y-97780412D01*
X128955237Y-97782727D01*
X128945494Y-97799600D01*
X128932969Y-97814528D01*
X128931251Y-97824270D01*
X128929585Y-97827156D01*
X128930163Y-97830438D01*
X128928446Y-97840180D01*
X128928446Y-98840180D01*
X127840350Y-98840180D01*
X127840350Y-97840180D01*
X127837977Y-97833662D01*
X127839152Y-97826827D01*
X127829412Y-97810129D01*
X127822803Y-97791971D01*
X127816798Y-97788503D01*
X127813303Y-97782512D01*
X127795111Y-97775982D01*
X127778374Y-97766319D01*
X127771542Y-97767523D01*
X127765016Y-97765181D01*
X127746884Y-97771871D01*
X127727850Y-97775228D01*
X127723392Y-97780540D01*
X127716886Y-97782941D01*
X127700232Y-97802969D01*
X127268922Y-98557763D01*
X127268922Y-97840180D01*
X127251375Y-97791971D01*
X127206946Y-97766319D01*
X127156422Y-97775228D01*
X127123445Y-97814528D01*
X127118922Y-97840180D01*
X127118922Y-98840180D01*
X126606312Y-98840180D01*
X126931739Y-97863897D01*
X126930338Y-97812614D01*
X126896300Y-97774228D01*
X126845552Y-97766703D01*
X126801839Y-97793558D01*
X126789437Y-97816463D01*
X126711293Y-98050895D01*
X126343217Y-98050895D01*
X126265073Y-97816463D01*
X126233182Y-97776277D01*
X126182921Y-97765991D01*
X126137807Y-97790420D01*
X126118950Y-97838131D01*
X125916985Y-97838131D01*
X125913621Y-97834767D01*
X125909558Y-97832872D01*
X125907211Y-97829052D01*
X125884306Y-97816649D01*
X125741449Y-97769029D01*
X125739813Y-97769073D01*
X125717731Y-97765180D01*
X125622493Y-97765180D01*
X125620954Y-97765740D01*
X125598776Y-97769029D01*
X125455918Y-97816649D01*
X125452407Y-97819435D01*
X125447940Y-97819826D01*
X125426603Y-97834767D01*
X125331365Y-97930005D01*
X125330674Y-97931486D01*
X125317316Y-97949497D01*
X125269697Y-98044735D01*
X125269290Y-98048263D01*
X125264018Y-98060086D01*
X125216399Y-98250562D01*
X125216759Y-98254010D01*
X125214160Y-98268752D01*
X125214160Y-98411609D01*
X125071303Y-98411609D01*
X125071303Y-97622323D01*
X131839853Y-97622323D01*
X131839853Y-99058037D01*
G37*
%TO.C,LOGO1*%
G36*
X133351711Y-115261709D02*
G01*
X133342331Y-115271089D01*
X133332952Y-115261709D01*
X133342331Y-115252329D01*
X133351711Y-115261709D01*
G37*
G36*
X137429981Y-114611912D02*
G01*
X137436046Y-114662023D01*
X137439884Y-114742480D01*
X137441224Y-114849610D01*
X137441227Y-114867562D01*
X137441617Y-114964357D01*
X137443346Y-115030852D01*
X137447388Y-115073304D01*
X137454717Y-115097969D01*
X137466304Y-115111103D01*
X137483124Y-115118964D01*
X137506534Y-115128062D01*
X137513089Y-115136683D01*
X137485806Y-115146911D01*
X137457739Y-115163181D01*
X137426416Y-115201154D01*
X137416938Y-115220011D01*
X137407729Y-115229563D01*
X137404975Y-115206908D01*
X137397790Y-115177948D01*
X137372659Y-115136561D01*
X137357693Y-115119375D01*
X137352059Y-115104937D01*
X137372659Y-115102256D01*
X137380188Y-115101185D01*
X137390517Y-115091585D01*
X137397335Y-115067265D01*
X137401339Y-115022527D01*
X137403230Y-114951673D01*
X137403705Y-114849006D01*
X137404891Y-114747841D01*
X137408593Y-114665805D01*
X137414541Y-114613882D01*
X137422464Y-114595756D01*
X137429981Y-114611912D01*
G37*
G36*
X135679117Y-115779226D02*
G01*
X135704264Y-115801975D01*
X135745948Y-115847328D01*
X135799409Y-115909953D01*
X135859887Y-115984516D01*
X135908977Y-116046021D01*
X135961850Y-116109860D01*
X135999942Y-116151028D01*
X136027828Y-116173779D01*
X136050080Y-116182363D01*
X136071272Y-116181032D01*
X136088913Y-116177694D01*
X136109316Y-116181036D01*
X136117938Y-116204336D01*
X136120517Y-116256375D01*
X136120411Y-116289014D01*
X136115117Y-116322573D01*
X136102696Y-116322487D01*
X136074631Y-116309133D01*
X136028232Y-116302846D01*
X136002580Y-116301995D01*
X135985749Y-116294472D01*
X135996763Y-116274708D01*
X136007487Y-116256842D01*
X136002165Y-116223120D01*
X136001491Y-116222242D01*
X135981851Y-116196937D01*
X135944594Y-116149131D01*
X135894801Y-116085340D01*
X135837554Y-116012078D01*
X135832711Y-116005883D01*
X135775858Y-115933147D01*
X135726844Y-115870416D01*
X135690761Y-115824207D01*
X135672699Y-115801037D01*
X135664690Y-115787300D01*
X135675216Y-115777588D01*
X135679117Y-115779226D01*
G37*
G36*
X136597907Y-112605167D02*
G01*
X136634560Y-112618233D01*
X136691474Y-112641491D01*
X136724778Y-112659554D01*
X136728373Y-112669418D01*
X136720055Y-112671272D01*
X136677903Y-112677371D01*
X136606898Y-112685976D01*
X136512778Y-112696436D01*
X136401283Y-112708104D01*
X136278151Y-112720330D01*
X136215590Y-112726462D01*
X136099109Y-112738339D01*
X135997976Y-112749249D01*
X135917694Y-112758568D01*
X135863766Y-112765670D01*
X135841693Y-112769931D01*
X135831402Y-112780321D01*
X135839746Y-112790029D01*
X135870882Y-112798745D01*
X135927751Y-112806882D01*
X136013296Y-112814855D01*
X136130459Y-112823078D01*
X136282183Y-112831966D01*
X136299343Y-112832913D01*
X136452066Y-112841518D01*
X136615188Y-112850975D01*
X136776741Y-112860574D01*
X136924760Y-112869605D01*
X137047280Y-112877358D01*
X137375566Y-112898702D01*
X137113640Y-112941443D01*
X137022520Y-112956630D01*
X136938690Y-112971730D01*
X136878831Y-112984478D01*
X136844298Y-112995105D01*
X136836445Y-113003840D01*
X136856627Y-113010916D01*
X136906199Y-113016562D01*
X136986515Y-113021008D01*
X137098931Y-113024486D01*
X137244801Y-113027226D01*
X137425480Y-113029458D01*
X137642322Y-113031413D01*
X137713440Y-113032046D01*
X137882311Y-113034031D01*
X138040843Y-113036553D01*
X138184507Y-113039498D01*
X138308772Y-113042754D01*
X138409110Y-113046208D01*
X138480989Y-113049748D01*
X138519879Y-113053260D01*
X138613676Y-113068801D01*
X138519879Y-113081361D01*
X138507774Y-113082829D01*
X138445507Y-113088516D01*
X138358461Y-113094731D01*
X138256475Y-113100817D01*
X138149385Y-113106117D01*
X138130295Y-113106989D01*
X138017205Y-113113749D01*
X137935987Y-113121664D01*
X137887769Y-113130431D01*
X137873682Y-113139748D01*
X137894853Y-113149312D01*
X137952413Y-113158822D01*
X137974133Y-113161531D01*
X138050394Y-113171313D01*
X138125936Y-113181303D01*
X138139735Y-113182860D01*
X138202876Y-113187041D01*
X138290622Y-113190203D01*
X138393271Y-113192062D01*
X138501120Y-113192332D01*
X138522423Y-113192253D01*
X138640924Y-113193140D01*
X138760481Y-113195942D01*
X138868239Y-113200275D01*
X138951342Y-113205756D01*
X139120175Y-113220806D01*
X138949597Y-113223569D01*
X138902059Y-113224486D01*
X138784068Y-113227893D01*
X138667923Y-113232655D01*
X138559567Y-113238394D01*
X138464944Y-113244732D01*
X138389997Y-113251287D01*
X138340670Y-113257683D01*
X138322907Y-113263539D01*
X138325382Y-113266354D01*
X138353858Y-113278090D01*
X138407446Y-113293855D01*
X138477671Y-113311047D01*
X138632435Y-113345874D01*
X138472981Y-113360176D01*
X138393597Y-113367111D01*
X138287942Y-113376057D01*
X138172202Y-113385646D01*
X138060278Y-113394714D01*
X138051413Y-113395424D01*
X137947468Y-113404009D01*
X137848459Y-113412604D01*
X137765209Y-113420248D01*
X137708543Y-113425978D01*
X137610057Y-113437007D01*
X137610057Y-113520495D01*
X137611478Y-113567830D01*
X137622490Y-113621858D01*
X137650264Y-113657673D01*
X137701663Y-113682520D01*
X137783551Y-113703646D01*
X137813458Y-113710033D01*
X138022589Y-113748687D01*
X138259411Y-113783363D01*
X138515519Y-113812946D01*
X138782509Y-113836317D01*
X138906638Y-113845527D01*
X139029276Y-113854721D01*
X139140428Y-113863143D01*
X139231450Y-113870139D01*
X139293698Y-113875053D01*
X139429702Y-113886107D01*
X139429702Y-114109617D01*
X139430063Y-114196423D01*
X139431069Y-114271034D01*
X139432564Y-114323925D01*
X139434392Y-114347196D01*
X139427833Y-114357422D01*
X139396873Y-114367260D01*
X139381890Y-114370325D01*
X139370522Y-114378333D01*
X139362862Y-114396617D01*
X139358178Y-114430625D01*
X139355738Y-114485805D01*
X139354812Y-114567606D01*
X139354665Y-114681478D01*
X139354665Y-114989700D01*
X139404181Y-114989700D01*
X139423743Y-114989967D01*
X139438186Y-114994043D01*
X139426076Y-115007581D01*
X139385085Y-115036261D01*
X139357817Y-115054457D01*
X139326019Y-115070955D01*
X139304786Y-115068174D01*
X139281167Y-115047517D01*
X139261345Y-115020220D01*
X139263114Y-114994959D01*
X139267250Y-114983507D01*
X139274115Y-114939124D01*
X139280988Y-114868293D01*
X139287259Y-114777737D01*
X139292316Y-114674176D01*
X139304265Y-114370645D01*
X138457161Y-114370645D01*
X137610057Y-114370645D01*
X137610057Y-114464442D01*
X137610057Y-114558238D01*
X137457386Y-114558238D01*
X137411107Y-114558975D01*
X137310940Y-114563333D01*
X137199810Y-114570731D01*
X137094377Y-114580163D01*
X137019706Y-114587793D01*
X136951276Y-114593364D01*
X136903992Y-114593592D01*
X136868807Y-114587687D01*
X136836677Y-114574857D01*
X136798556Y-114554312D01*
X136713075Y-114506536D01*
X136629735Y-114593354D01*
X136628184Y-114594986D01*
X136601840Y-114623746D01*
X136553836Y-114677022D01*
X136487025Y-114751599D01*
X136404260Y-114844262D01*
X136308394Y-114951800D01*
X136202280Y-115070997D01*
X136088770Y-115198640D01*
X135970718Y-115331515D01*
X135850977Y-115466409D01*
X135732398Y-115600107D01*
X135617837Y-115729397D01*
X135510144Y-115851063D01*
X135412173Y-115961894D01*
X135326778Y-116058674D01*
X135256810Y-116138190D01*
X135205123Y-116197228D01*
X135174570Y-116232575D01*
X135168118Y-116240682D01*
X135156356Y-116272527D01*
X135169001Y-116314547D01*
X135178895Y-116337742D01*
X135180755Y-116355442D01*
X135162598Y-116351990D01*
X135147284Y-116345804D01*
X135102725Y-116327837D01*
X135088584Y-116323672D01*
X135078164Y-116333239D01*
X135082714Y-116370822D01*
X135087525Y-116408052D01*
X135074611Y-116421947D01*
X135034101Y-116420895D01*
X135033782Y-116420866D01*
X135015741Y-116420677D01*
X134997308Y-116425468D01*
X134975524Y-116438210D01*
X134947426Y-116461879D01*
X134910053Y-116499447D01*
X134860443Y-116553890D01*
X134795635Y-116628180D01*
X134712668Y-116725292D01*
X134608580Y-116848200D01*
X134576277Y-116886551D01*
X134486661Y-116994450D01*
X134406279Y-117093407D01*
X134338181Y-117179522D01*
X134285416Y-117248898D01*
X134251033Y-117297638D01*
X134238080Y-117321844D01*
X134242682Y-117360558D01*
X134267095Y-117422138D01*
X134305237Y-117487201D01*
X134349642Y-117543379D01*
X134392848Y-117578306D01*
X134418195Y-117592755D01*
X134441524Y-117621123D01*
X134443345Y-117666275D01*
X134437564Y-117725936D01*
X134370380Y-117680344D01*
X134354224Y-117669908D01*
X134306660Y-117644577D01*
X134272985Y-117634155D01*
X134263641Y-117633621D01*
X134256135Y-117626513D01*
X134279096Y-117606084D01*
X134291665Y-117595540D01*
X134300275Y-117581269D01*
X134299597Y-117560614D01*
X134287614Y-117528426D01*
X134262313Y-117479553D01*
X134221678Y-117408846D01*
X134163693Y-117311155D01*
X134099364Y-117203289D01*
X133603839Y-117203289D01*
X133108314Y-117203289D01*
X133152055Y-117301775D01*
X133203840Y-117416217D01*
X133246020Y-117503289D01*
X133280289Y-117564894D01*
X133309611Y-117605799D01*
X133336951Y-117630770D01*
X133365274Y-117644573D01*
X133396538Y-117656593D01*
X133412550Y-117673761D01*
X133403655Y-117700851D01*
X133390702Y-117724481D01*
X133379874Y-117742953D01*
X133379430Y-117743252D01*
X133359714Y-117737570D01*
X133321673Y-117719619D01*
X133320658Y-117719092D01*
X133276079Y-117699383D01*
X133244434Y-117691145D01*
X133235051Y-117688415D01*
X133230879Y-117666780D01*
X133229107Y-117647385D01*
X133214638Y-117599732D01*
X133189975Y-117533624D01*
X133158692Y-117457406D01*
X133124365Y-117379425D01*
X133090566Y-117308028D01*
X133060871Y-117251560D01*
X133038854Y-117218369D01*
X133013809Y-117197496D01*
X132979518Y-117184530D01*
X132950248Y-117173778D01*
X132911531Y-117146756D01*
X132878165Y-117114821D01*
X132863971Y-117089360D01*
X132866434Y-117084352D01*
X132887249Y-117054125D01*
X132926523Y-117000947D01*
X132980938Y-116929216D01*
X132981306Y-116928739D01*
X134383391Y-116928739D01*
X134398548Y-116940660D01*
X134418703Y-116928913D01*
X134453093Y-116898645D01*
X134490742Y-116860553D01*
X134521081Y-116825353D01*
X134533543Y-116803763D01*
X134531167Y-116794701D01*
X134510269Y-116790810D01*
X134474932Y-116808126D01*
X134433877Y-116843201D01*
X134423057Y-116855000D01*
X134392432Y-116897783D01*
X134383391Y-116928739D01*
X132981306Y-116928739D01*
X133047173Y-116843329D01*
X133121910Y-116747683D01*
X133157367Y-116702591D01*
X134573246Y-116702591D01*
X134590409Y-116715549D01*
X134601093Y-116711958D01*
X134620865Y-116686602D01*
X134624791Y-116675001D01*
X134622764Y-116651445D01*
X134594510Y-116654024D01*
X134591894Y-116655108D01*
X134574157Y-116676201D01*
X134573246Y-116702591D01*
X133157367Y-116702591D01*
X133178036Y-116676305D01*
X133256217Y-116576894D01*
X133256532Y-116576494D01*
X134669607Y-116576494D01*
X134700432Y-116584235D01*
X134724528Y-116574191D01*
X134763952Y-116544890D01*
X134805765Y-116506404D01*
X134838941Y-116468985D01*
X134852450Y-116442888D01*
X134852317Y-116441147D01*
X134836909Y-116435121D01*
X134801867Y-116448253D01*
X134755737Y-116476303D01*
X134707066Y-116515030D01*
X134672405Y-116553014D01*
X134669607Y-116576494D01*
X133256532Y-116576494D01*
X133351839Y-116455318D01*
X133461970Y-116315304D01*
X133583678Y-116160581D01*
X133585280Y-116158544D01*
X135058485Y-116158544D01*
X135069414Y-116171532D01*
X135069907Y-116171528D01*
X135104509Y-116159531D01*
X135137741Y-116133352D01*
X135152597Y-116106322D01*
X135146270Y-116079356D01*
X135122826Y-116070659D01*
X135089447Y-116093724D01*
X135066443Y-116128135D01*
X135058485Y-116158544D01*
X133585280Y-116158544D01*
X133714030Y-115994876D01*
X133746432Y-115953688D01*
X135252842Y-115953688D01*
X135264046Y-115965180D01*
X135269491Y-115964459D01*
X135283912Y-115946421D01*
X135283697Y-115942176D01*
X135275639Y-115927662D01*
X135272630Y-115928525D01*
X135255773Y-115946421D01*
X135252842Y-115953688D01*
X133746432Y-115953688D01*
X133790652Y-115897476D01*
X135304973Y-115897476D01*
X135330810Y-115908902D01*
X135343933Y-115905634D01*
X135358949Y-115880764D01*
X135358320Y-115872706D01*
X135342635Y-115853182D01*
X135315177Y-115865131D01*
X135309631Y-115871531D01*
X135304973Y-115897476D01*
X133790652Y-115897476D01*
X133850094Y-115821915D01*
X133872947Y-115792866D01*
X135415227Y-115792866D01*
X135420191Y-115811552D01*
X135439671Y-115813381D01*
X135466966Y-115791139D01*
X135494556Y-115748987D01*
X135501239Y-115734828D01*
X135514123Y-115698394D01*
X135511896Y-115683792D01*
X135488140Y-115696526D01*
X135455708Y-115728050D01*
X135427366Y-115764719D01*
X135415227Y-115792866D01*
X133872947Y-115792866D01*
X133988940Y-115645426D01*
X134086137Y-115521882D01*
X135658945Y-115521882D01*
X135661844Y-115533718D01*
X135697034Y-115522871D01*
X135739900Y-115494996D01*
X135775531Y-115460842D01*
X135790411Y-115431188D01*
X135792706Y-115420073D01*
X135815947Y-115396618D01*
X135832525Y-115383798D01*
X135851709Y-115347713D01*
X135857198Y-115323926D01*
X135858415Y-115308607D01*
X135856032Y-115310385D01*
X135834082Y-115331070D01*
X135794474Y-115370054D01*
X135743513Y-115421162D01*
X135727510Y-115437573D01*
X135681670Y-115488682D01*
X135658945Y-115521882D01*
X134086137Y-115521882D01*
X134127633Y-115469137D01*
X134170677Y-115414391D01*
X134297707Y-115252396D01*
X134360788Y-115171617D01*
X136025596Y-115171617D01*
X136040202Y-115172881D01*
X136074535Y-115145376D01*
X136099529Y-115111482D01*
X136105852Y-115082479D01*
X136104638Y-115079754D01*
X136087348Y-115079996D01*
X136056477Y-115111527D01*
X136033124Y-115146095D01*
X136025596Y-115171617D01*
X134360788Y-115171617D01*
X134416748Y-115099958D01*
X134525890Y-114959560D01*
X134546101Y-114933422D01*
X136203114Y-114933422D01*
X136208020Y-114955308D01*
X136229065Y-114970941D01*
X136245984Y-114963909D01*
X136264827Y-114933422D01*
X136265055Y-114905046D01*
X136238876Y-114895904D01*
X136216553Y-114901866D01*
X136203114Y-114933422D01*
X134546101Y-114933422D01*
X134623222Y-114833687D01*
X134666206Y-114777721D01*
X136371947Y-114777721D01*
X136380004Y-114798047D01*
X136401452Y-114798554D01*
X136421204Y-114774588D01*
X136424983Y-114761325D01*
X136425070Y-114726986D01*
X136419230Y-114719768D01*
X136400367Y-114725456D01*
X136380904Y-114748309D01*
X136371947Y-114777721D01*
X134666206Y-114777721D01*
X134706834Y-114724823D01*
X134774816Y-114635451D01*
X134811093Y-114586983D01*
X136510910Y-114586983D01*
X136516488Y-114615388D01*
X136536982Y-114612593D01*
X136566044Y-114576813D01*
X136570231Y-114569709D01*
X136588170Y-114535922D01*
X136585880Y-114522878D01*
X136562788Y-114520719D01*
X136538948Y-114527958D01*
X136515444Y-114562604D01*
X136510910Y-114586983D01*
X134811093Y-114586983D01*
X134825258Y-114568057D01*
X134856249Y-114525124D01*
X134865879Y-114509136D01*
X134855849Y-114507549D01*
X134814035Y-114508799D01*
X134746343Y-114513870D01*
X134659640Y-114521974D01*
X134560792Y-114532322D01*
X134456664Y-114544127D01*
X134354123Y-114556599D01*
X134260034Y-114568951D01*
X134181262Y-114580394D01*
X134124673Y-114590140D01*
X134097134Y-114597401D01*
X134081317Y-114602536D01*
X134024106Y-114604792D01*
X133939553Y-114595265D01*
X133909585Y-114590544D01*
X133853862Y-114583704D01*
X133818561Y-114586035D01*
X133791776Y-114599633D01*
X133761596Y-114626595D01*
X133730157Y-114654630D01*
X133712597Y-114661782D01*
X133708136Y-114644918D01*
X133705039Y-114630697D01*
X133682233Y-114615006D01*
X133648188Y-114617390D01*
X133616048Y-114635294D01*
X133598959Y-114666159D01*
X133593893Y-114682687D01*
X133567838Y-114728057D01*
X133528612Y-114776648D01*
X133527499Y-114777830D01*
X133487182Y-114827053D01*
X133468698Y-114872944D01*
X133464266Y-114934607D01*
X133463348Y-114965067D01*
X133450368Y-115027659D01*
X133417368Y-115080075D01*
X133410915Y-115088120D01*
X133382154Y-115135408D01*
X133370470Y-115175311D01*
X133367455Y-115198987D01*
X133355463Y-115214811D01*
X133336324Y-115208738D01*
X133311809Y-115180723D01*
X133308074Y-115147419D01*
X133308663Y-115145503D01*
X133302668Y-115113088D01*
X133278469Y-115072138D01*
X133264116Y-115050947D01*
X133244817Y-114996316D01*
X133239156Y-114919097D01*
X133238856Y-114892665D01*
X133232790Y-114836200D01*
X133213966Y-114793206D01*
X133175947Y-114746070D01*
X133154680Y-114721640D01*
X133121208Y-114678854D01*
X133104328Y-114650874D01*
X133100910Y-114643806D01*
X133084874Y-114635537D01*
X133050278Y-114638063D01*
X132988450Y-114651424D01*
X132940972Y-114664127D01*
X132893519Y-114680320D01*
X132871369Y-114692758D01*
X132868097Y-114695776D01*
X132837198Y-114704715D01*
X132787827Y-114708312D01*
X132713897Y-114708312D01*
X132713897Y-114913133D01*
X132713897Y-115117955D01*
X132647006Y-115159295D01*
X132641539Y-115162682D01*
X132606651Y-115186868D01*
X132588904Y-115211535D01*
X132583251Y-115249010D01*
X132584645Y-115311623D01*
X132585075Y-115367718D01*
X132577436Y-115420848D01*
X132558681Y-115453103D01*
X132552952Y-115458658D01*
X132526213Y-115473431D01*
X132498144Y-115458663D01*
X132481119Y-115436059D01*
X132475386Y-115398136D01*
X132480460Y-115334813D01*
X132484361Y-115300011D01*
X132484780Y-115252744D01*
X132472761Y-115220219D01*
X132444757Y-115187835D01*
X132439122Y-115182358D01*
X132400944Y-115152123D01*
X132372394Y-115139811D01*
X132368026Y-115138783D01*
X132358874Y-115123519D01*
X132353761Y-115086021D01*
X132352254Y-115021229D01*
X132353918Y-114924080D01*
X132359743Y-114708312D01*
X132163823Y-114708312D01*
X132110705Y-114708146D01*
X132038988Y-114709464D01*
X131991933Y-114717971D01*
X131963647Y-114739673D01*
X131948237Y-114780573D01*
X131939808Y-114846675D01*
X131932466Y-114943982D01*
X131928866Y-115015228D01*
X131931132Y-115089675D01*
X131941352Y-115133390D01*
X131950588Y-115159888D01*
X131945404Y-115188488D01*
X131938894Y-115201515D01*
X131930136Y-115247009D01*
X131924799Y-115311761D01*
X131923037Y-115384461D01*
X131925002Y-115453801D01*
X131930845Y-115508474D01*
X131940718Y-115537170D01*
X131941116Y-115537571D01*
X131959963Y-115564530D01*
X131961480Y-115582738D01*
X131944617Y-115580522D01*
X131934164Y-115583152D01*
X131911806Y-115610802D01*
X131886998Y-115659142D01*
X131872549Y-115690824D01*
X131843415Y-115745860D01*
X131819056Y-115781758D01*
X131807147Y-115799219D01*
X131796869Y-115843130D01*
X131799268Y-115912380D01*
X131801169Y-115967023D01*
X131794395Y-116039968D01*
X131778856Y-116099632D01*
X131756848Y-116134013D01*
X131755352Y-116139753D01*
X131752081Y-116177360D01*
X131748513Y-116246546D01*
X131744776Y-116343365D01*
X131741000Y-116463872D01*
X131737315Y-116604124D01*
X131733851Y-116760175D01*
X131730737Y-116928079D01*
X131717566Y-117712766D01*
X131786849Y-117778107D01*
X131821042Y-117812993D01*
X131840540Y-117844187D01*
X131834792Y-117864787D01*
X131817226Y-117876125D01*
X131790943Y-117863614D01*
X131758600Y-117842832D01*
X131735393Y-117847557D01*
X131732428Y-117876505D01*
X131734108Y-117898335D01*
X131721292Y-117924510D01*
X131712675Y-117928090D01*
X131700899Y-117918587D01*
X131695484Y-117902384D01*
X131672147Y-117871309D01*
X131653712Y-117841901D01*
X131665337Y-117807422D01*
X131665867Y-117806503D01*
X131671183Y-117786583D01*
X131675033Y-117747663D01*
X131677424Y-117687102D01*
X131678366Y-117602258D01*
X131677864Y-117490490D01*
X131675928Y-117349155D01*
X131672564Y-117175612D01*
X131667781Y-116967220D01*
X131665573Y-116876731D01*
X131660985Y-116695832D01*
X131656823Y-116547238D01*
X131652852Y-116427331D01*
X131648838Y-116332493D01*
X131644545Y-116259106D01*
X131639739Y-116203550D01*
X131634185Y-116162209D01*
X131627649Y-116131464D01*
X131619895Y-116107697D01*
X131610690Y-116087290D01*
X131598463Y-116061269D01*
X131584512Y-116012699D01*
X131591986Y-115977132D01*
X131593581Y-115973989D01*
X131602864Y-115915165D01*
X131584796Y-115844009D01*
X131541741Y-115770264D01*
X131533810Y-115759148D01*
X131505848Y-115705431D01*
X131494547Y-115657967D01*
X131487790Y-115621935D01*
X131454886Y-115592874D01*
X131438346Y-115586225D01*
X131426168Y-115572233D01*
X131445506Y-115547920D01*
X131446628Y-115546728D01*
X131462147Y-115512382D01*
X131472579Y-115456483D01*
X131477882Y-115388812D01*
X131478016Y-115319152D01*
X131472939Y-115257284D01*
X131462611Y-115212990D01*
X131446989Y-115196052D01*
X131443069Y-115195966D01*
X131427824Y-115187481D01*
X131438160Y-115158737D01*
X131446167Y-115125618D01*
X131447508Y-115063018D01*
X131441421Y-114986452D01*
X131429378Y-114907931D01*
X131412853Y-114839465D01*
X131393318Y-114793066D01*
X131377157Y-114759195D01*
X131382200Y-114736322D01*
X131391737Y-114721939D01*
X131399381Y-114679300D01*
X131399284Y-114624420D01*
X131391805Y-114571922D01*
X131377302Y-114536429D01*
X131330860Y-114493256D01*
X131274058Y-114461816D01*
X131217787Y-114446388D01*
X131171564Y-114449535D01*
X131144905Y-114473821D01*
X131141940Y-114479348D01*
X131120196Y-114492792D01*
X131074839Y-114499889D01*
X130999006Y-114501960D01*
X130960876Y-114502581D01*
X130876357Y-114511088D01*
X130827490Y-114529502D01*
X130772261Y-114553917D01*
X130710540Y-114551523D01*
X130659761Y-114520719D01*
X130658688Y-114519561D01*
X130609789Y-114492430D01*
X130538789Y-114483658D01*
X130455976Y-114493230D01*
X130371634Y-114521131D01*
X130347640Y-114531573D01*
X130274523Y-114553934D01*
X130209435Y-114553065D01*
X130136081Y-114529550D01*
X130115998Y-114522965D01*
X130061869Y-114511399D01*
X129991859Y-114500778D01*
X129914791Y-114491919D01*
X129839490Y-114485637D01*
X129774778Y-114482746D01*
X129729480Y-114484063D01*
X129712420Y-114490402D01*
X129714133Y-114496036D01*
X129729645Y-114528652D01*
X129757837Y-114582028D01*
X129794457Y-114647995D01*
X129807533Y-114671389D01*
X129850697Y-114751159D01*
X129902885Y-114850224D01*
X129958665Y-114958209D01*
X130012606Y-115064737D01*
X130030369Y-115100026D01*
X130087953Y-115212168D01*
X130147209Y-115324727D01*
X130202096Y-115426324D01*
X130246577Y-115505579D01*
X130264375Y-115536668D01*
X130309410Y-115617022D01*
X130365977Y-115719470D01*
X130430115Y-115836786D01*
X130497865Y-115961744D01*
X130565265Y-116087115D01*
X130598077Y-116148391D01*
X130667476Y-116277740D01*
X130735925Y-116405009D01*
X130799245Y-116522444D01*
X130853258Y-116622289D01*
X130893783Y-116696790D01*
X130915070Y-116735725D01*
X130992837Y-116878124D01*
X131054771Y-116992396D01*
X131102573Y-117082424D01*
X131137947Y-117152093D01*
X131162595Y-117205287D01*
X131178219Y-117245890D01*
X131186524Y-117277787D01*
X131189210Y-117304862D01*
X131187981Y-117330999D01*
X131184541Y-117360082D01*
X131172117Y-117459517D01*
X131095258Y-117458028D01*
X131018399Y-117456539D01*
X130930001Y-117650474D01*
X130881944Y-117749825D01*
X130836700Y-117828518D01*
X130800453Y-117873518D01*
X130773814Y-117884081D01*
X130757398Y-117859466D01*
X130755588Y-117836613D01*
X130772596Y-117822344D01*
X130787528Y-117810276D01*
X130816162Y-117770602D01*
X130852889Y-117709829D01*
X130893337Y-117634752D01*
X130989173Y-117447159D01*
X130505560Y-117448171D01*
X130021947Y-117449182D01*
X129938747Y-117565416D01*
X129909820Y-117605835D01*
X129847298Y-117693500D01*
X129803044Y-117756667D01*
X129774470Y-117799698D01*
X129758983Y-117826953D01*
X129753995Y-117842792D01*
X129756915Y-117851578D01*
X129765153Y-117857672D01*
X129769826Y-117861804D01*
X129761611Y-117878612D01*
X129716816Y-117900679D01*
X129644717Y-117929000D01*
X129626134Y-117869629D01*
X129626035Y-117869311D01*
X129615681Y-117829641D01*
X129622615Y-117815883D01*
X129651503Y-117818659D01*
X129674942Y-117821228D01*
X129695254Y-117814917D01*
X129718454Y-117794210D01*
X129750688Y-117753615D01*
X129798099Y-117687641D01*
X129847034Y-117618595D01*
X129652077Y-117316044D01*
X129763173Y-117316044D01*
X129765352Y-117343528D01*
X129793489Y-117384093D01*
X129798316Y-117389987D01*
X129829865Y-117433169D01*
X129848086Y-117465919D01*
X129850237Y-117471084D01*
X129861955Y-117474245D01*
X129878553Y-117442470D01*
X129881372Y-117434701D01*
X129887705Y-117374958D01*
X129870686Y-117322296D01*
X129834258Y-117290264D01*
X129810252Y-117281535D01*
X129790770Y-117282637D01*
X129770440Y-117304366D01*
X129763173Y-117316044D01*
X129652077Y-117316044D01*
X129511080Y-117097232D01*
X129618624Y-117097232D01*
X129619853Y-117103340D01*
X129632972Y-117133788D01*
X129654078Y-117173272D01*
X129675178Y-117207467D01*
X129688277Y-117222049D01*
X129699413Y-117215516D01*
X129722989Y-117189220D01*
X129726480Y-117184307D01*
X129736688Y-117154590D01*
X129717460Y-117123563D01*
X129699579Y-117109386D01*
X129664530Y-117093873D01*
X129632582Y-117088499D01*
X129618624Y-117097232D01*
X129511080Y-117097232D01*
X129412151Y-116943706D01*
X129514645Y-116943706D01*
X129531480Y-116979978D01*
X129547363Y-117001318D01*
X129562020Y-117007662D01*
X129576930Y-116984700D01*
X129585443Y-116961407D01*
X129586387Y-116926591D01*
X129574418Y-116911043D01*
X129543064Y-116904296D01*
X129515468Y-116921868D01*
X129514645Y-116943706D01*
X129412151Y-116943706D01*
X129383829Y-116899753D01*
X129316584Y-116795391D01*
X129245663Y-116685310D01*
X129364771Y-116685310D01*
X129370111Y-116727005D01*
X129401767Y-116781398D01*
X129419378Y-116803684D01*
X129454176Y-116838569D01*
X129477637Y-116842824D01*
X129494276Y-116818248D01*
X129490421Y-116788201D01*
X129460179Y-116750438D01*
X129458681Y-116749116D01*
X129430890Y-116714406D01*
X129425074Y-116685258D01*
X129426202Y-116670704D01*
X129404311Y-116659272D01*
X129385625Y-116662123D01*
X129364771Y-116685310D01*
X129245663Y-116685310D01*
X129219781Y-116645137D01*
X129154367Y-116543590D01*
X129281554Y-116543590D01*
X129282593Y-116561483D01*
X129294685Y-116593503D01*
X129313788Y-116598932D01*
X129331626Y-116572924D01*
X129329158Y-116552896D01*
X129309946Y-116517819D01*
X129308788Y-116516290D01*
X129290630Y-116495591D01*
X129283252Y-116503148D01*
X129281554Y-116543590D01*
X129154367Y-116543590D01*
X129127985Y-116502635D01*
X129043750Y-116371849D01*
X128969628Y-116256744D01*
X128914838Y-116171636D01*
X129008118Y-116171636D01*
X129018905Y-116210128D01*
X129025464Y-116220347D01*
X129057563Y-116241282D01*
X129089747Y-116233769D01*
X129108035Y-116199479D01*
X129107014Y-116177801D01*
X129086968Y-116145793D01*
X129054267Y-116132444D01*
X129022019Y-116145915D01*
X129008118Y-116171636D01*
X128914838Y-116171636D01*
X128908173Y-116161283D01*
X128861937Y-116089430D01*
X128859710Y-116085966D01*
X130356792Y-116085966D01*
X130361049Y-116119944D01*
X130369355Y-116140310D01*
X130395722Y-116186422D01*
X130429062Y-116233218D01*
X130461037Y-116269504D01*
X130483311Y-116284087D01*
X130483823Y-116284070D01*
X130489649Y-116269002D01*
X130479051Y-116232209D01*
X130455765Y-116183220D01*
X130423526Y-116131563D01*
X130398947Y-116101272D01*
X130371143Y-116080062D01*
X130356792Y-116085966D01*
X128859710Y-116085966D01*
X128833472Y-116045149D01*
X128817113Y-116020046D01*
X128778131Y-115963405D01*
X128769236Y-115951791D01*
X128849955Y-115951791D01*
X128859547Y-115976126D01*
X128890415Y-116022047D01*
X128892862Y-116025347D01*
X128920593Y-116058403D01*
X128940429Y-116064460D01*
X128964230Y-116047625D01*
X128970188Y-116041989D01*
X128987027Y-116012161D01*
X128976576Y-115972759D01*
X128959682Y-115941022D01*
X128939096Y-115930011D01*
X128906669Y-115945470D01*
X128891175Y-115952792D01*
X128864460Y-115953456D01*
X128862971Y-115952559D01*
X128849955Y-115951791D01*
X128769236Y-115951791D01*
X128747944Y-115923992D01*
X128732025Y-115909145D01*
X128727066Y-115910616D01*
X128695945Y-115926909D01*
X128644871Y-115957421D01*
X128581951Y-115997385D01*
X128556223Y-116014145D01*
X128498713Y-116051558D01*
X128457434Y-116078338D01*
X128439983Y-116089554D01*
X128439534Y-116090194D01*
X128446674Y-116109639D01*
X128468122Y-116146148D01*
X128502450Y-116199056D01*
X128443276Y-116157155D01*
X128433048Y-116150094D01*
X128391932Y-116125281D01*
X128366151Y-116115254D01*
X128356463Y-116102967D01*
X128357244Y-116067940D01*
X128357881Y-116064722D01*
X128369870Y-116035243D01*
X128388941Y-116039426D01*
X128396518Y-116042627D01*
X128427081Y-116035324D01*
X128478420Y-116005949D01*
X128553869Y-115952748D01*
X128696143Y-115847270D01*
X128693458Y-115843245D01*
X128793218Y-115843245D01*
X128795065Y-115856156D01*
X128809680Y-115871384D01*
X128822415Y-115866827D01*
X128849495Y-115843245D01*
X128854690Y-115836723D01*
X128860133Y-115819213D01*
X128833033Y-115815106D01*
X128809068Y-115820386D01*
X128793218Y-115843245D01*
X128693458Y-115843245D01*
X128668427Y-115805727D01*
X130216555Y-115805727D01*
X130228578Y-115862004D01*
X130231247Y-115872807D01*
X130250306Y-115918907D01*
X130276242Y-115956721D01*
X130302671Y-115980182D01*
X130323210Y-115983224D01*
X130331475Y-115959782D01*
X130329064Y-115950147D01*
X130308583Y-115914643D01*
X130274015Y-115870675D01*
X130216555Y-115805727D01*
X128668427Y-115805727D01*
X128410271Y-115418783D01*
X128493070Y-115418783D01*
X128494562Y-115424225D01*
X128512693Y-115454414D01*
X128545610Y-115499382D01*
X128585962Y-115550090D01*
X128626396Y-115597500D01*
X128659562Y-115632574D01*
X128678107Y-115646273D01*
X128694823Y-115640488D01*
X128728416Y-115619829D01*
X128750781Y-115601490D01*
X128751352Y-115596498D01*
X130128354Y-115596498D01*
X130130005Y-115629061D01*
X130156286Y-115689413D01*
X130161372Y-115698741D01*
X130183322Y-115726250D01*
X130195883Y-115722999D01*
X130196097Y-115694263D01*
X130181006Y-115645320D01*
X130180016Y-115642967D01*
X130159425Y-115605475D01*
X130141606Y-115589996D01*
X130128354Y-115596498D01*
X128751352Y-115596498D01*
X128752833Y-115583551D01*
X128729094Y-115554171D01*
X128699599Y-115526000D01*
X128672996Y-115517484D01*
X128658589Y-115541765D01*
X128654391Y-115551123D01*
X128636281Y-115550301D01*
X128599850Y-115522971D01*
X128587020Y-115511102D01*
X128561096Y-115473858D01*
X128567992Y-115448981D01*
X128607392Y-115439922D01*
X128610426Y-115439897D01*
X128614439Y-115438680D01*
X130042340Y-115438680D01*
X130045033Y-115472750D01*
X130058943Y-115493196D01*
X130078287Y-115490545D01*
X130087605Y-115459788D01*
X130084890Y-115438323D01*
X130070811Y-115412998D01*
X130053853Y-115414468D01*
X130042340Y-115438680D01*
X128614439Y-115438680D01*
X128633731Y-115432830D01*
X128626419Y-115407093D01*
X128612008Y-115382995D01*
X128582334Y-115339428D01*
X128563892Y-115318395D01*
X128548002Y-115320994D01*
X128524682Y-115352837D01*
X128502537Y-115391733D01*
X128493070Y-115418783D01*
X128410271Y-115418783D01*
X128303691Y-115259032D01*
X128292773Y-115242678D01*
X128204566Y-115111485D01*
X128148240Y-115028790D01*
X128272060Y-115028790D01*
X128276305Y-115054058D01*
X128305478Y-115064737D01*
X128325762Y-115068827D01*
X128367391Y-115092294D01*
X128402964Y-115126210D01*
X128418033Y-115158533D01*
X128414858Y-115167163D01*
X128389894Y-115177292D01*
X128373342Y-115178185D01*
X128364022Y-115186645D01*
X128370577Y-115211379D01*
X128393369Y-115261073D01*
X128405115Y-115283852D01*
X128430535Y-115319330D01*
X128448647Y-115325253D01*
X128455551Y-115299227D01*
X128458820Y-115286105D01*
X128483690Y-115271089D01*
X128500048Y-115268797D01*
X128501215Y-115267098D01*
X129920393Y-115267098D01*
X129927667Y-115312935D01*
X129942817Y-115347772D01*
X129959833Y-115363194D01*
X129989119Y-115369658D01*
X129991956Y-115368538D01*
X130010367Y-115343460D01*
X130007603Y-115305610D01*
X129984429Y-115271089D01*
X129969524Y-115254770D01*
X129956290Y-115221894D01*
X129954556Y-115211073D01*
X129937531Y-115196052D01*
X129931426Y-115198476D01*
X129921484Y-115224274D01*
X129920393Y-115267098D01*
X128501215Y-115267098D01*
X128509080Y-115255650D01*
X128500627Y-115226627D01*
X128473038Y-115176997D01*
X128424660Y-115102031D01*
X128409396Y-115079129D01*
X128372282Y-115023953D01*
X128354577Y-114998142D01*
X129788771Y-114998142D01*
X129801701Y-115047800D01*
X129828678Y-115102256D01*
X129854600Y-115140250D01*
X129869387Y-115149802D01*
X129877357Y-115132619D01*
X129878213Y-115104510D01*
X129866045Y-115057582D01*
X129853447Y-115029185D01*
X129836645Y-114985010D01*
X129828070Y-114967534D01*
X129806805Y-114952182D01*
X129791321Y-114963112D01*
X129788771Y-114998142D01*
X128354577Y-114998142D01*
X128346030Y-114985681D01*
X128335554Y-114971511D01*
X128325257Y-114975097D01*
X128289469Y-114999086D01*
X128272060Y-115028790D01*
X128148240Y-115028790D01*
X128122560Y-114991087D01*
X128049161Y-114884907D01*
X127986778Y-114796365D01*
X127937818Y-114728884D01*
X127904689Y-114685886D01*
X127889798Y-114670793D01*
X127883079Y-114675288D01*
X127876664Y-114703873D01*
X127875858Y-114762089D01*
X127880469Y-114853696D01*
X127882907Y-114892326D01*
X127887880Y-114984077D01*
X127891349Y-115066803D01*
X127892677Y-115126309D01*
X127895036Y-115177407D01*
X127905845Y-115212537D01*
X127928756Y-115229485D01*
X127933954Y-115231462D01*
X127952364Y-115242427D01*
X127948348Y-115259772D01*
X127920543Y-115294228D01*
X127915532Y-115300024D01*
X127888250Y-115328585D01*
X127874289Y-115330580D01*
X127864537Y-115308298D01*
X127855161Y-115286480D01*
X127839923Y-115271113D01*
X127836807Y-115260377D01*
X127833763Y-115217840D01*
X127831961Y-115148633D01*
X127831540Y-115058867D01*
X127832642Y-114954653D01*
X127838166Y-114638170D01*
X127579392Y-114626548D01*
X127549355Y-114625246D01*
X127441631Y-114621027D01*
X127309609Y-114616347D01*
X127261569Y-114614768D01*
X128025224Y-114614768D01*
X128031971Y-114680211D01*
X128055559Y-114756782D01*
X128091247Y-114833252D01*
X128134292Y-114898390D01*
X128179952Y-114940966D01*
X128183533Y-114943072D01*
X128213734Y-114949750D01*
X128240919Y-114925147D01*
X128262337Y-114892359D01*
X128263527Y-114865048D01*
X128240177Y-114829142D01*
X128231073Y-114817753D01*
X128211429Y-114804163D01*
X128194424Y-114820121D01*
X128185534Y-114831378D01*
X128166928Y-114834346D01*
X128136052Y-114810951D01*
X128088186Y-114758784D01*
X128073372Y-114716973D01*
X128090575Y-114682024D01*
X128103256Y-114667282D01*
X129624873Y-114667282D01*
X129626845Y-114695653D01*
X129645043Y-114747003D01*
X129653163Y-114766510D01*
X129680194Y-114823931D01*
X129704103Y-114865596D01*
X129720326Y-114887786D01*
X129729746Y-114890171D01*
X129731164Y-114857870D01*
X129729618Y-114839918D01*
X129717647Y-114785131D01*
X129697713Y-114723450D01*
X129678950Y-114679401D01*
X129658412Y-114651120D01*
X129638668Y-114651240D01*
X129638429Y-114651388D01*
X129624873Y-114667282D01*
X128103256Y-114667282D01*
X128105247Y-114664967D01*
X128108208Y-114641658D01*
X128088381Y-114605684D01*
X128084242Y-114599407D01*
X128058999Y-114566057D01*
X128043604Y-114562786D01*
X128030559Y-114587196D01*
X128025224Y-114614768D01*
X127261569Y-114614768D01*
X127163085Y-114611531D01*
X127011852Y-114606906D01*
X126865707Y-114602798D01*
X126410795Y-114590669D01*
X126410795Y-114893949D01*
X126411063Y-114984450D01*
X126412491Y-115075196D01*
X126415588Y-115137686D01*
X126420839Y-115177193D01*
X126428729Y-115198986D01*
X126439744Y-115208338D01*
X126451044Y-115213310D01*
X126458118Y-115226749D01*
X126438199Y-115253141D01*
X126423498Y-115268284D01*
X126401456Y-115276377D01*
X126372412Y-115256616D01*
X126351313Y-115231513D01*
X126355685Y-115204025D01*
X126358039Y-115199193D01*
X126364145Y-115161204D01*
X126368164Y-115092564D01*
X126369879Y-114998444D01*
X126369074Y-114884015D01*
X126363897Y-114586377D01*
X126152856Y-114581072D01*
X125941814Y-114575768D01*
X125941814Y-114509913D01*
X126454546Y-114509913D01*
X126460946Y-114518004D01*
X126499902Y-114520123D01*
X126533199Y-114515789D01*
X126902738Y-114515789D01*
X126915958Y-114536030D01*
X126954119Y-114551850D01*
X127013098Y-114558238D01*
X127025260Y-114558136D01*
X127030964Y-114557628D01*
X127474743Y-114557628D01*
X127481081Y-114572684D01*
X127519216Y-114583888D01*
X127530860Y-114586022D01*
X127580997Y-114588162D01*
X127602210Y-114574665D01*
X127591241Y-114547188D01*
X127568191Y-114529088D01*
X127522407Y-114522979D01*
X127482067Y-114546453D01*
X127474743Y-114557628D01*
X127030964Y-114557628D01*
X127081401Y-114553136D01*
X127101645Y-114541644D01*
X127085472Y-114525096D01*
X127036895Y-114506650D01*
X129543874Y-114506650D01*
X129546058Y-114520817D01*
X129561852Y-114558081D01*
X129573763Y-114569882D01*
X129597202Y-114568638D01*
X129613666Y-114546291D01*
X129612324Y-114512601D01*
X129607777Y-114503947D01*
X129582975Y-114485914D01*
X129556199Y-114486339D01*
X129543874Y-114506650D01*
X127036895Y-114506650D01*
X127032363Y-114504929D01*
X127016505Y-114500265D01*
X126973432Y-114488623D01*
X126952636Y-114484682D01*
X126918578Y-114496142D01*
X126902738Y-114515789D01*
X126533199Y-114515789D01*
X126543786Y-114514411D01*
X126560869Y-114495707D01*
X126560850Y-114494619D01*
X126546238Y-114474097D01*
X126512401Y-114474234D01*
X126471072Y-114495110D01*
X126454546Y-114509913D01*
X125941814Y-114509913D01*
X125941814Y-114332513D01*
X125941814Y-114298122D01*
X137846275Y-114298122D01*
X137849898Y-114320144D01*
X137887201Y-114328485D01*
X137938148Y-114324315D01*
X138435463Y-114324315D01*
X138444645Y-114327939D01*
X138482121Y-114331678D01*
X138538639Y-114333127D01*
X138595890Y-114331033D01*
X138631405Y-114322595D01*
X138641814Y-114306095D01*
X138641792Y-114305882D01*
X138727296Y-114305882D01*
X138747615Y-114312696D01*
X138798971Y-114314368D01*
X138808987Y-114314330D01*
X138857909Y-114311180D01*
X138880319Y-114300052D01*
X138885322Y-114278413D01*
X138998240Y-114278413D01*
X138998980Y-114280958D01*
X139021441Y-114291382D01*
X139065460Y-114295609D01*
X139070817Y-114295571D01*
X139115345Y-114289343D01*
X139124959Y-114272159D01*
X139119739Y-114263071D01*
X139089767Y-114247375D01*
X139049222Y-114245208D01*
X139013561Y-114255808D01*
X138998240Y-114278413D01*
X138885322Y-114278413D01*
X138885684Y-114276849D01*
X138884790Y-114255447D01*
X138880995Y-114242333D01*
X138880707Y-114242483D01*
X138859170Y-114246809D01*
X138816734Y-114252797D01*
X138768467Y-114265846D01*
X138734711Y-114287313D01*
X138731612Y-114291232D01*
X138727296Y-114305882D01*
X138641792Y-114305882D01*
X138640613Y-114294497D01*
X138627745Y-114270891D01*
X138622401Y-114269788D01*
X138590033Y-114273611D01*
X138542056Y-114284615D01*
X138491570Y-114299159D01*
X138451673Y-114313606D01*
X138435463Y-114324315D01*
X137938148Y-114324315D01*
X137957158Y-114322759D01*
X137972972Y-114320083D01*
X138023595Y-114304512D01*
X138041519Y-114284099D01*
X138041435Y-114282676D01*
X138023312Y-114266329D01*
X137982580Y-114258376D01*
X137932297Y-114258785D01*
X137885521Y-114267523D01*
X137855313Y-114284559D01*
X137846275Y-114298122D01*
X125941814Y-114298122D01*
X125941814Y-114089257D01*
X126194531Y-114089257D01*
X126311717Y-114087313D01*
X126466314Y-114077038D01*
X126515307Y-114069493D01*
X126917294Y-114069493D01*
X126924396Y-114083810D01*
X126959338Y-114106461D01*
X127013677Y-114126108D01*
X127076411Y-114139119D01*
X127136536Y-114141861D01*
X127159327Y-114139945D01*
X127211783Y-114128407D01*
X127231012Y-114107117D01*
X127219841Y-114073765D01*
X127204288Y-114062328D01*
X127160571Y-114050151D01*
X127101136Y-114043125D01*
X127036537Y-114041396D01*
X126977327Y-114045116D01*
X126934062Y-114054431D01*
X126917294Y-114069493D01*
X126515307Y-114069493D01*
X126588475Y-114058225D01*
X126598511Y-114056039D01*
X126654665Y-114043622D01*
X126693482Y-114030623D01*
X126717328Y-114010909D01*
X126728567Y-113978344D01*
X126729564Y-113926796D01*
X126727019Y-113898446D01*
X129470969Y-113898446D01*
X129474876Y-113935603D01*
X129484147Y-113959718D01*
X129499464Y-113978434D01*
X129506175Y-113984327D01*
X129518401Y-113991309D01*
X129537005Y-113997200D01*
X129565102Y-114002145D01*
X129605805Y-114006287D01*
X129662229Y-114009770D01*
X129737486Y-114012737D01*
X129834690Y-114015333D01*
X129956957Y-114017701D01*
X130107398Y-114019986D01*
X130289129Y-114022330D01*
X130505263Y-114024877D01*
X130598423Y-114025900D01*
X130826839Y-114027913D01*
X131022106Y-114028852D01*
X131183496Y-114028720D01*
X131310285Y-114027525D01*
X131401747Y-114025270D01*
X131457157Y-114021962D01*
X131475788Y-114017606D01*
X131473218Y-114011108D01*
X131448293Y-113986242D01*
X131405441Y-113956268D01*
X131335094Y-113913370D01*
X131419510Y-113896044D01*
X131483218Y-113882726D01*
X131578808Y-113861170D01*
X131643327Y-113843787D01*
X131680701Y-113829451D01*
X131694857Y-113817034D01*
X131694942Y-113816721D01*
X131680616Y-113802325D01*
X131638921Y-113783060D01*
X131578633Y-113763005D01*
X131515979Y-113743457D01*
X131468673Y-113725671D01*
X131447369Y-113713619D01*
X131455156Y-113701276D01*
X131487405Y-113681881D01*
X131533019Y-113661560D01*
X131580128Y-113645537D01*
X131616862Y-113639035D01*
X131622487Y-113638838D01*
X131642363Y-113627635D01*
X131633728Y-113597662D01*
X131596085Y-113546714D01*
X131547549Y-113489032D01*
X131638268Y-113450146D01*
X131728987Y-113411259D01*
X131621323Y-113350238D01*
X131567528Y-113319153D01*
X131523689Y-113292624D01*
X131502888Y-113278445D01*
X131506712Y-113271371D01*
X131536664Y-113255266D01*
X131587307Y-113236056D01*
X131597548Y-113232552D01*
X131668607Y-113198321D01*
X131707700Y-113154800D01*
X131719658Y-113096911D01*
X131719555Y-113092447D01*
X131712294Y-113066196D01*
X131690336Y-113046929D01*
X131649127Y-113033660D01*
X131584114Y-113025403D01*
X131490744Y-113021172D01*
X131364466Y-113019981D01*
X131312958Y-113019716D01*
X131221550Y-113017800D01*
X131148249Y-113014335D01*
X131099523Y-113009682D01*
X131081844Y-113004202D01*
X131093932Y-112999340D01*
X131137013Y-112991856D01*
X131204541Y-112983248D01*
X131289396Y-112974173D01*
X131384457Y-112965288D01*
X131482604Y-112957253D01*
X131576715Y-112950725D01*
X131659670Y-112946362D01*
X131724348Y-112944823D01*
X131742843Y-112944192D01*
X131786270Y-112933332D01*
X131796735Y-112914099D01*
X131774633Y-112893170D01*
X131720358Y-112877223D01*
X131646021Y-112865336D01*
X131673942Y-112811344D01*
X131687357Y-112785401D01*
X131757176Y-112785401D01*
X131757452Y-112787391D01*
X131779871Y-112802468D01*
X131835638Y-112814927D01*
X131921087Y-112824347D01*
X132032556Y-112830308D01*
X132166378Y-112832388D01*
X132213595Y-112832675D01*
X132279484Y-112834264D01*
X132323184Y-112836932D01*
X132337030Y-112840324D01*
X132324320Y-112843902D01*
X132280680Y-112850963D01*
X132213948Y-112859636D01*
X132132242Y-112868791D01*
X132055954Y-112876827D01*
X131970196Y-112886766D01*
X131912476Y-112895951D01*
X131877243Y-112906217D01*
X131858948Y-112919402D01*
X131852041Y-112937341D01*
X131850972Y-112961873D01*
X131843224Y-113003357D01*
X131813454Y-113025416D01*
X131791597Y-113034999D01*
X131775936Y-113055743D01*
X131780334Y-113072525D01*
X131808300Y-113108337D01*
X131849895Y-113138569D01*
X131890788Y-113151295D01*
X131897155Y-113151376D01*
X131918853Y-113157386D01*
X131908781Y-113177590D01*
X131906113Y-113181052D01*
X131902992Y-113198437D01*
X131924650Y-113215405D01*
X131976831Y-113236968D01*
X132003436Y-113246958D01*
X132059493Y-113271029D01*
X132081692Y-113288248D01*
X132071759Y-113300975D01*
X132031421Y-113311567D01*
X132021628Y-113313547D01*
X131976652Y-113326685D01*
X131953239Y-113340359D01*
X131962588Y-113355458D01*
X131998065Y-113381166D01*
X132051932Y-113411455D01*
X132160500Y-113466575D01*
X132043281Y-113501217D01*
X131986025Y-113521052D01*
X131942639Y-113542063D01*
X131926035Y-113558586D01*
X131929109Y-113565639D01*
X131957414Y-113584860D01*
X132005736Y-113602210D01*
X132037981Y-113610846D01*
X132113448Y-113631799D01*
X132188639Y-113653402D01*
X132291814Y-113683697D01*
X132122981Y-113725113D01*
X132080262Y-113735831D01*
X132019443Y-113752162D01*
X131981362Y-113763902D01*
X131972907Y-113769034D01*
X132019160Y-113775299D01*
X132125591Y-113790381D01*
X132220213Y-113804674D01*
X132296678Y-113817160D01*
X132348637Y-113826824D01*
X132369743Y-113832646D01*
X132370183Y-113834202D01*
X132352567Y-113843307D01*
X132311448Y-113853365D01*
X132301781Y-113855368D01*
X132261328Y-113868931D01*
X132244916Y-113883755D01*
X132246654Y-113885595D01*
X132275666Y-113891110D01*
X132337865Y-113895743D01*
X132429937Y-113899354D01*
X132548569Y-113901798D01*
X132690448Y-113902934D01*
X132709505Y-113902994D01*
X132850984Y-113903934D01*
X132957932Y-113905745D01*
X133033018Y-113908570D01*
X133078908Y-113912553D01*
X133098270Y-113917835D01*
X133093772Y-113924560D01*
X133066491Y-113941507D01*
X133051563Y-113960809D01*
X133056132Y-113962326D01*
X133091698Y-113965251D01*
X133159641Y-113967963D01*
X133256525Y-113970406D01*
X133378918Y-113972528D01*
X133523385Y-113974272D01*
X133686491Y-113975586D01*
X133864803Y-113976414D01*
X134054886Y-113976702D01*
X135058209Y-113976702D01*
X135115271Y-113925114D01*
X135142522Y-113891790D01*
X135179151Y-113831893D01*
X135216956Y-113759001D01*
X135250586Y-113684262D01*
X135274688Y-113618822D01*
X135283912Y-113573832D01*
X135283847Y-113571955D01*
X135280171Y-113562552D01*
X135267889Y-113554402D01*
X135242890Y-113546867D01*
X135201065Y-113539308D01*
X135138301Y-113531087D01*
X135050489Y-113521566D01*
X134933517Y-113510105D01*
X134783276Y-113496067D01*
X134770442Y-113494873D01*
X134661056Y-113483962D01*
X134566908Y-113473292D01*
X134493537Y-113463589D01*
X134446478Y-113455577D01*
X134431270Y-113449982D01*
X134433074Y-113448463D01*
X134461239Y-113440506D01*
X134515049Y-113431929D01*
X134584860Y-113424341D01*
X134648306Y-113418432D01*
X134745678Y-113408438D01*
X134847822Y-113397112D01*
X134947722Y-113385318D01*
X135038362Y-113373917D01*
X135112728Y-113363770D01*
X135163802Y-113355739D01*
X135184571Y-113350685D01*
X135184727Y-113350472D01*
X135169683Y-113345088D01*
X135126598Y-113338073D01*
X135064341Y-113330889D01*
X135045801Y-113329043D01*
X134976572Y-113322016D01*
X134880468Y-113312141D01*
X134764938Y-113300189D01*
X134637434Y-113286929D01*
X134505404Y-113273131D01*
X134454694Y-113267832D01*
X134322040Y-113254101D01*
X134195860Y-113241213D01*
X134083861Y-113229944D01*
X133993754Y-113221075D01*
X133933247Y-113215381D01*
X133924700Y-113214597D01*
X133853453Y-113206316D01*
X133796208Y-113196786D01*
X133764679Y-113187915D01*
X133757176Y-113183561D01*
X133751747Y-113176931D01*
X133759909Y-113170391D01*
X133786352Y-113162716D01*
X133835762Y-113152680D01*
X133912827Y-113139061D01*
X134022235Y-113120632D01*
X134082879Y-113110046D01*
X134149105Y-113097169D01*
X134192887Y-113086979D01*
X134206914Y-113081043D01*
X134203544Y-113079680D01*
X134171330Y-113074175D01*
X134111425Y-113066887D01*
X134031072Y-113058462D01*
X133937516Y-113049545D01*
X133838001Y-113040784D01*
X133739771Y-113032825D01*
X133650070Y-113026314D01*
X133576143Y-113021897D01*
X133525234Y-113020221D01*
X133523818Y-113020217D01*
X133457821Y-113018204D01*
X133426758Y-113013158D01*
X133428267Y-113005758D01*
X133459989Y-112996683D01*
X133519563Y-112986613D01*
X133604629Y-112976228D01*
X133712826Y-112966207D01*
X133718401Y-112965756D01*
X133884426Y-112951852D01*
X134013829Y-112939849D01*
X134107419Y-112929493D01*
X134166005Y-112920529D01*
X134190397Y-112912702D01*
X134181404Y-112905757D01*
X134139835Y-112899440D01*
X134066499Y-112893495D01*
X133962207Y-112887667D01*
X133937964Y-112886424D01*
X133843292Y-112879771D01*
X133776681Y-112870862D01*
X133730323Y-112858321D01*
X133696407Y-112840769D01*
X133642479Y-112804250D01*
X133952006Y-112792714D01*
X134137224Y-112785688D01*
X134339523Y-112777616D01*
X134508063Y-112770342D01*
X134644936Y-112763747D01*
X134752232Y-112757711D01*
X134832043Y-112752113D01*
X134886462Y-112746834D01*
X134917579Y-112741753D01*
X134927486Y-112736751D01*
X134925601Y-112728466D01*
X134901561Y-112707927D01*
X134847809Y-112688820D01*
X134761746Y-112670378D01*
X134640773Y-112651829D01*
X134633709Y-112650897D01*
X134544213Y-112641866D01*
X134429562Y-112634188D01*
X134293934Y-112627849D01*
X134141507Y-112622831D01*
X133976456Y-112619120D01*
X133802960Y-112616698D01*
X133625195Y-112615551D01*
X133447338Y-112615662D01*
X133273567Y-112617014D01*
X133108058Y-112619594D01*
X132954989Y-112623383D01*
X132818536Y-112628367D01*
X132702877Y-112634529D01*
X132612188Y-112641853D01*
X132550648Y-112650324D01*
X132522432Y-112659925D01*
X132521888Y-112661970D01*
X132542660Y-112669551D01*
X132595804Y-112677267D01*
X132677308Y-112684637D01*
X132783165Y-112691180D01*
X132812504Y-112692693D01*
X132961931Y-112700882D01*
X133075074Y-112708066D01*
X133151797Y-112714293D01*
X133191964Y-112719612D01*
X133195438Y-112724070D01*
X133162082Y-112727715D01*
X133091758Y-112730595D01*
X132984331Y-112732758D01*
X132839664Y-112734251D01*
X132657619Y-112735124D01*
X132589537Y-112735350D01*
X132386125Y-112736515D01*
X132216728Y-112738428D01*
X132078651Y-112741240D01*
X131969205Y-112745101D01*
X131885695Y-112750161D01*
X131825429Y-112756571D01*
X131785716Y-112764480D01*
X131763863Y-112774040D01*
X131757176Y-112785401D01*
X131687357Y-112785401D01*
X131701862Y-112757352D01*
X131396543Y-112760217D01*
X131356501Y-112760654D01*
X131223642Y-112762799D01*
X131078048Y-112766030D01*
X130924288Y-112770165D01*
X130766929Y-112775025D01*
X130610538Y-112780429D01*
X130459682Y-112786196D01*
X130318930Y-112792146D01*
X130192849Y-112798098D01*
X130086005Y-112803872D01*
X130002967Y-112809287D01*
X129948301Y-112814163D01*
X129926576Y-112818319D01*
X129930093Y-112824284D01*
X129961110Y-112830453D01*
X130014131Y-112833147D01*
X130024238Y-112833295D01*
X130086382Y-112835727D01*
X130171707Y-112840680D01*
X130274152Y-112847643D01*
X130387655Y-112856107D01*
X130506156Y-112865563D01*
X130623594Y-112875500D01*
X130733908Y-112885409D01*
X130831035Y-112894782D01*
X130908917Y-112903107D01*
X130961490Y-112909876D01*
X130982694Y-112914578D01*
X130978904Y-112922272D01*
X130948966Y-112926153D01*
X130947596Y-112926165D01*
X130914144Y-112927736D01*
X130849075Y-112931695D01*
X130757678Y-112937688D01*
X130645238Y-112945360D01*
X130517041Y-112954360D01*
X130378373Y-112964332D01*
X130317120Y-112968805D01*
X130147670Y-112981513D01*
X130013898Y-112992382D01*
X129914463Y-113001847D01*
X129848024Y-113010342D01*
X129813242Y-113018303D01*
X129808777Y-113026164D01*
X129833289Y-113034361D01*
X129885437Y-113043329D01*
X129963882Y-113053503D01*
X130067283Y-113065317D01*
X130089783Y-113067839D01*
X130179678Y-113078573D01*
X130253700Y-113088443D01*
X130304700Y-113096447D01*
X130325530Y-113101579D01*
X130325968Y-113102161D01*
X130313624Y-113111378D01*
X130276538Y-113121371D01*
X130221933Y-113132236D01*
X130157952Y-113145438D01*
X130096984Y-113158339D01*
X130153262Y-113171357D01*
X130162395Y-113173294D01*
X130223170Y-113181935D01*
X130289266Y-113186594D01*
X130306531Y-113187523D01*
X130351452Y-113196267D01*
X130367977Y-113209310D01*
X130353744Y-113221162D01*
X130306386Y-113226332D01*
X130297035Y-113226574D01*
X130249954Y-113229756D01*
X130178390Y-113236043D01*
X130089213Y-113244690D01*
X129989291Y-113254950D01*
X129885496Y-113266077D01*
X129784697Y-113277326D01*
X129693763Y-113287950D01*
X129619565Y-113297203D01*
X129568971Y-113304338D01*
X129548852Y-113308610D01*
X129549193Y-113309733D01*
X129565133Y-113314264D01*
X129605208Y-113321143D01*
X129672049Y-113330734D01*
X129768286Y-113343403D01*
X129896548Y-113359513D01*
X130059466Y-113379430D01*
X130064487Y-113380038D01*
X130145339Y-113390271D01*
X130192796Y-113397788D01*
X130210580Y-113403808D01*
X130202414Y-113409546D01*
X130172021Y-113416221D01*
X130124495Y-113422618D01*
X130049482Y-113429766D01*
X129957563Y-113436745D01*
X129859068Y-113442681D01*
X129857050Y-113442786D01*
X129755545Y-113448887D01*
X129684705Y-113455538D01*
X129637797Y-113463938D01*
X129608087Y-113475285D01*
X129588842Y-113490778D01*
X129560991Y-113513375D01*
X129523971Y-113526480D01*
X129510224Y-113530312D01*
X129499351Y-113546861D01*
X129491237Y-113582336D01*
X129484511Y-113642926D01*
X129477800Y-113734820D01*
X129476532Y-113754438D01*
X129471748Y-113840606D01*
X129470969Y-113898446D01*
X126727019Y-113898446D01*
X126722682Y-113850130D01*
X126710286Y-113742211D01*
X126698163Y-113639710D01*
X126688256Y-113569069D01*
X126679005Y-113524917D01*
X126668846Y-113501833D01*
X126656213Y-113494396D01*
X126639541Y-113497188D01*
X126636995Y-113497893D01*
X126595193Y-113498863D01*
X126542436Y-113489055D01*
X126522046Y-113483962D01*
X126474126Y-113482416D01*
X126454838Y-113502599D01*
X126465995Y-113543225D01*
X126476235Y-113563589D01*
X126477242Y-113575508D01*
X126463601Y-113578398D01*
X126429984Y-113571841D01*
X126371063Y-113555416D01*
X126281511Y-113528705D01*
X126252672Y-113520038D01*
X126183547Y-113498700D01*
X126145374Y-113484857D01*
X126134330Y-113476132D01*
X126146591Y-113470144D01*
X126178335Y-113464516D01*
X126180755Y-113464146D01*
X126237876Y-113456713D01*
X126315390Y-113448173D01*
X126397247Y-113440299D01*
X126451128Y-113434576D01*
X126515924Y-113423544D01*
X126550522Y-113411274D01*
X126552498Y-113398821D01*
X126519428Y-113387236D01*
X126496585Y-113383893D01*
X126439637Y-113378167D01*
X126362384Y-113371956D01*
X126274799Y-113366122D01*
X126206799Y-113361168D01*
X126139705Y-113354059D01*
X126095670Y-113346630D01*
X126081904Y-113339865D01*
X126096296Y-113335584D01*
X126142994Y-113329756D01*
X126215827Y-113323753D01*
X126308539Y-113318075D01*
X126414873Y-113313224D01*
X126590510Y-113306155D01*
X126765039Y-113298234D01*
X126904663Y-113290706D01*
X127010797Y-113283473D01*
X127084856Y-113276436D01*
X127128254Y-113269496D01*
X127142405Y-113262556D01*
X127137372Y-113253436D01*
X127109577Y-113239264D01*
X127106148Y-113237726D01*
X127119828Y-113233690D01*
X127162206Y-113230380D01*
X127226822Y-113228396D01*
X127280463Y-113227307D01*
X127396105Y-113222991D01*
X127496795Y-113216610D01*
X127579312Y-113208702D01*
X127640441Y-113199803D01*
X127676962Y-113190449D01*
X127685656Y-113181178D01*
X127663307Y-113172526D01*
X127606696Y-113165031D01*
X127587879Y-113163069D01*
X127574894Y-113159540D01*
X127598150Y-113156683D01*
X127658284Y-113154366D01*
X127727772Y-113151297D01*
X127805819Y-113145360D01*
X127864636Y-113138210D01*
X127939673Y-113125537D01*
X127855256Y-113102740D01*
X127770840Y-113079942D01*
X127883395Y-113077504D01*
X127886174Y-113077443D01*
X127946023Y-113075376D01*
X127974232Y-113070964D01*
X127976476Y-113061778D01*
X127958432Y-113045389D01*
X127954036Y-113041784D01*
X127945779Y-113031718D01*
X127951819Y-113025094D01*
X127976791Y-113021554D01*
X128025335Y-113020739D01*
X128102086Y-113022293D01*
X128211681Y-113025858D01*
X128233122Y-113026600D01*
X128335484Y-113029815D01*
X128404808Y-113031037D01*
X128444878Y-113030000D01*
X128459479Y-113026438D01*
X128452395Y-113020086D01*
X128427413Y-113010675D01*
X128412765Y-113005894D01*
X128356424Y-112990068D01*
X128314857Y-112982020D01*
X128302761Y-112977705D01*
X128323734Y-112969411D01*
X128377331Y-112957811D01*
X128461151Y-112943418D01*
X128572797Y-112926747D01*
X128607171Y-112921612D01*
X128673670Y-112909858D01*
X128719724Y-112899107D01*
X128736940Y-112891179D01*
X128736868Y-112890740D01*
X128718292Y-112879388D01*
X128673236Y-112862202D01*
X128610910Y-112842724D01*
X128581140Y-112833913D01*
X128538013Y-112818786D01*
X128519294Y-112806669D01*
X128527167Y-112796941D01*
X128563815Y-112788980D01*
X128631423Y-112782164D01*
X128732175Y-112775873D01*
X128868255Y-112769484D01*
X128915173Y-112767438D01*
X129100346Y-112758665D01*
X129249364Y-112750302D01*
X129363336Y-112742263D01*
X129443371Y-112734460D01*
X129490579Y-112726806D01*
X129506068Y-112719212D01*
X129502303Y-112715504D01*
X129470959Y-112704123D01*
X129414723Y-112690033D01*
X129341925Y-112675457D01*
X129264607Y-112661791D01*
X129192941Y-112649393D01*
X129129001Y-112638290D01*
X129074277Y-112628404D01*
X129030258Y-112619656D01*
X128998434Y-112611970D01*
X128980294Y-112605267D01*
X128977328Y-112599468D01*
X128991026Y-112594497D01*
X129022877Y-112590275D01*
X129074370Y-112586724D01*
X129146996Y-112583766D01*
X129242243Y-112581323D01*
X129361602Y-112579318D01*
X129506562Y-112577671D01*
X129678613Y-112576306D01*
X129879243Y-112575145D01*
X130109943Y-112574109D01*
X130372203Y-112573120D01*
X130667511Y-112572100D01*
X130997358Y-112570972D01*
X131363232Y-112569658D01*
X131614196Y-112568723D01*
X131954467Y-112567456D01*
X132299633Y-112566174D01*
X132645836Y-112564889D01*
X132989222Y-112563617D01*
X133325935Y-112562371D01*
X133652120Y-112561166D01*
X133963919Y-112560016D01*
X134257479Y-112558935D01*
X134528943Y-112557937D01*
X134774456Y-112557038D01*
X134990162Y-112556250D01*
X135172205Y-112555589D01*
X136439302Y-112551000D01*
X136597907Y-112605167D01*
G37*
%TD*%
M02*
