%TF.GenerationSoftware,KiCad,Pcbnew,7.0.6-7.0.6~ubuntu23.04.1*%
%TF.CreationDate,2023-07-25T15:56:09+03:00*%
%TF.ProjectId,nrf52840_dev,6e726635-3238-4343-905f-6465762e6b69,rev?*%
%TF.SameCoordinates,Original*%
%TF.FileFunction,Copper,L1,Top*%
%TF.FilePolarity,Positive*%
%FSLAX46Y46*%
G04 Gerber Fmt 4.6, Leading zero omitted, Abs format (unit mm)*
G04 Created by KiCad (PCBNEW 7.0.6-7.0.6~ubuntu23.04.1) date 2023-07-25 15:56:09*
%MOMM*%
%LPD*%
G01*
G04 APERTURE LIST*
G04 Aperture macros list*
%AMRoundRect*
0 Rectangle with rounded corners*
0 $1 Rounding radius*
0 $2 $3 $4 $5 $6 $7 $8 $9 X,Y pos of 4 corners*
0 Add a 4 corners polygon primitive as box body*
4,1,4,$2,$3,$4,$5,$6,$7,$8,$9,$2,$3,0*
0 Add four circle primitives for the rounded corners*
1,1,$1+$1,$2,$3*
1,1,$1+$1,$4,$5*
1,1,$1+$1,$6,$7*
1,1,$1+$1,$8,$9*
0 Add four rect primitives between the rounded corners*
20,1,$1+$1,$2,$3,$4,$5,0*
20,1,$1+$1,$4,$5,$6,$7,0*
20,1,$1+$1,$6,$7,$8,$9,0*
20,1,$1+$1,$8,$9,$2,$3,0*%
%AMFreePoly0*
4,1,19,0.500000,-0.750000,0.000000,-0.750000,0.000000,-0.744911,-0.071157,-0.744911,-0.207708,-0.704816,-0.327430,-0.627875,-0.420627,-0.520320,-0.479746,-0.390866,-0.500000,-0.250000,-0.500000,0.250000,-0.479746,0.390866,-0.420627,0.520320,-0.327430,0.627875,-0.207708,0.704816,-0.071157,0.744911,0.000000,0.744911,0.000000,0.750000,0.500000,0.750000,0.500000,-0.750000,0.500000,-0.750000,
$1*%
%AMFreePoly1*
4,1,19,0.000000,0.744911,0.071157,0.744911,0.207708,0.704816,0.327430,0.627875,0.420627,0.520320,0.479746,0.390866,0.500000,0.250000,0.500000,-0.250000,0.479746,-0.390866,0.420627,-0.520320,0.327430,-0.627875,0.207708,-0.704816,0.071157,-0.744911,0.000000,-0.744911,0.000000,-0.750000,-0.500000,-0.750000,-0.500000,0.750000,0.000000,0.750000,0.000000,0.744911,0.000000,0.744911,
$1*%
G04 Aperture macros list end*
%TA.AperFunction,ComponentPad*%
%ADD10C,0.800000*%
%TD*%
%TA.AperFunction,ComponentPad*%
%ADD11C,6.400000*%
%TD*%
%TA.AperFunction,SMDPad,CuDef*%
%ADD12RoundRect,0.250000X-0.475000X0.250000X-0.475000X-0.250000X0.475000X-0.250000X0.475000X0.250000X0*%
%TD*%
%TA.AperFunction,SMDPad,CuDef*%
%ADD13RoundRect,0.225000X0.225000X0.250000X-0.225000X0.250000X-0.225000X-0.250000X0.225000X-0.250000X0*%
%TD*%
%TA.AperFunction,ComponentPad*%
%ADD14C,2.050000*%
%TD*%
%TA.AperFunction,ComponentPad*%
%ADD15C,2.250000*%
%TD*%
%TA.AperFunction,SMDPad,CuDef*%
%ADD16R,0.800000X1.500000*%
%TD*%
%TA.AperFunction,SMDPad,CuDef*%
%ADD17R,1.500000X0.800000*%
%TD*%
%TA.AperFunction,ComponentPad*%
%ADD18R,1.000000X0.650000*%
%TD*%
%TA.AperFunction,ComponentPad*%
%ADD19R,0.650000X1.000000*%
%TD*%
%TA.AperFunction,SMDPad,CuDef*%
%ADD20RoundRect,0.250000X-0.375000X-0.625000X0.375000X-0.625000X0.375000X0.625000X-0.375000X0.625000X0*%
%TD*%
%TA.AperFunction,SMDPad,CuDef*%
%ADD21RoundRect,0.200000X-0.200000X-0.275000X0.200000X-0.275000X0.200000X0.275000X-0.200000X0.275000X0*%
%TD*%
%TA.AperFunction,SMDPad,CuDef*%
%ADD22R,0.480000X0.800000*%
%TD*%
%TA.AperFunction,SMDPad,CuDef*%
%ADD23FreePoly0,180.000000*%
%TD*%
%TA.AperFunction,SMDPad,CuDef*%
%ADD24FreePoly1,180.000000*%
%TD*%
%TA.AperFunction,SMDPad,CuDef*%
%ADD25R,2.400000X0.740000*%
%TD*%
%TA.AperFunction,SMDPad,CuDef*%
%ADD26RoundRect,0.250000X-0.625000X0.312500X-0.625000X-0.312500X0.625000X-0.312500X0.625000X0.312500X0*%
%TD*%
%TA.AperFunction,ComponentPad*%
%ADD27C,1.500000*%
%TD*%
%TA.AperFunction,SMDPad,CuDef*%
%ADD28RoundRect,0.150000X0.150000X-0.662500X0.150000X0.662500X-0.150000X0.662500X-0.150000X-0.662500X0*%
%TD*%
%TA.AperFunction,SMDPad,CuDef*%
%ADD29R,3.200000X2.514000*%
%TD*%
%TA.AperFunction,SMDPad,CuDef*%
%ADD30RoundRect,0.250000X0.250000X0.475000X-0.250000X0.475000X-0.250000X-0.475000X0.250000X-0.475000X0*%
%TD*%
%TA.AperFunction,SMDPad,CuDef*%
%ADD31RoundRect,0.112500X0.187500X0.112500X-0.187500X0.112500X-0.187500X-0.112500X0.187500X-0.112500X0*%
%TD*%
%TA.AperFunction,SMDPad,CuDef*%
%ADD32RoundRect,0.250000X0.875000X1.025000X-0.875000X1.025000X-0.875000X-1.025000X0.875000X-1.025000X0*%
%TD*%
%TA.AperFunction,SMDPad,CuDef*%
%ADD33RoundRect,0.250000X0.475000X-0.250000X0.475000X0.250000X-0.475000X0.250000X-0.475000X-0.250000X0*%
%TD*%
%TA.AperFunction,SMDPad,CuDef*%
%ADD34RoundRect,0.250000X0.450000X-0.325000X0.450000X0.325000X-0.450000X0.325000X-0.450000X-0.325000X0*%
%TD*%
%TA.AperFunction,SMDPad,CuDef*%
%ADD35RoundRect,0.250000X-0.250000X-0.475000X0.250000X-0.475000X0.250000X0.475000X-0.250000X0.475000X0*%
%TD*%
%TA.AperFunction,ComponentPad*%
%ADD36RoundRect,0.250000X-0.725000X0.600000X-0.725000X-0.600000X0.725000X-0.600000X0.725000X0.600000X0*%
%TD*%
%TA.AperFunction,ComponentPad*%
%ADD37O,1.950000X1.700000*%
%TD*%
%TA.AperFunction,SMDPad,CuDef*%
%ADD38RoundRect,0.150000X0.825000X0.150000X-0.825000X0.150000X-0.825000X-0.150000X0.825000X-0.150000X0*%
%TD*%
%TA.AperFunction,SMDPad,CuDef*%
%ADD39RoundRect,0.225000X-0.250000X0.225000X-0.250000X-0.225000X0.250000X-0.225000X0.250000X0.225000X0*%
%TD*%
%TA.AperFunction,SMDPad,CuDef*%
%ADD40RoundRect,0.250000X0.262500X0.450000X-0.262500X0.450000X-0.262500X-0.450000X0.262500X-0.450000X0*%
%TD*%
%TA.AperFunction,SMDPad,CuDef*%
%ADD41R,2.413000X3.429000*%
%TD*%
%TA.AperFunction,SMDPad,CuDef*%
%ADD42RoundRect,0.150000X0.587500X0.150000X-0.587500X0.150000X-0.587500X-0.150000X0.587500X-0.150000X0*%
%TD*%
%TA.AperFunction,SMDPad,CuDef*%
%ADD43RoundRect,0.112500X-0.112500X0.187500X-0.112500X-0.187500X0.112500X-0.187500X0.112500X0.187500X0*%
%TD*%
%TA.AperFunction,SMDPad,CuDef*%
%ADD44RoundRect,0.140000X0.170000X-0.140000X0.170000X0.140000X-0.170000X0.140000X-0.170000X-0.140000X0*%
%TD*%
%TA.AperFunction,ComponentPad*%
%ADD45R,1.600000X1.600000*%
%TD*%
%TA.AperFunction,ComponentPad*%
%ADD46C,1.600000*%
%TD*%
%TA.AperFunction,SMDPad,CuDef*%
%ADD47RoundRect,0.250000X-0.900000X1.000000X-0.900000X-1.000000X0.900000X-1.000000X0.900000X1.000000X0*%
%TD*%
%TA.AperFunction,SMDPad,CuDef*%
%ADD48RoundRect,0.150000X-0.875000X-0.150000X0.875000X-0.150000X0.875000X0.150000X-0.875000X0.150000X0*%
%TD*%
%TA.AperFunction,SMDPad,CuDef*%
%ADD49R,1.800000X0.750000*%
%TD*%
%TA.AperFunction,ViaPad*%
%ADD50C,0.800000*%
%TD*%
%TA.AperFunction,Conductor*%
%ADD51C,0.300000*%
%TD*%
%TA.AperFunction,Conductor*%
%ADD52C,0.800000*%
%TD*%
%TA.AperFunction,Conductor*%
%ADD53C,0.500000*%
%TD*%
%TA.AperFunction,Conductor*%
%ADD54C,0.250000*%
%TD*%
G04 APERTURE END LIST*
D10*
%TO.P,H1,1,1*%
%TO.N,GND*%
X121550000Y-83410000D03*
X122252944Y-81712944D03*
X122252944Y-85107056D03*
X123950000Y-81010000D03*
D11*
X123950000Y-83410000D03*
D10*
X123950000Y-85810000D03*
X125647056Y-81712944D03*
X125647056Y-85107056D03*
X126350000Y-83410000D03*
%TD*%
D12*
%TO.P,C2,1*%
%TO.N,/3V3*%
X161670000Y-91850000D03*
%TO.P,C2,2*%
%TO.N,GND*%
X161670000Y-93750000D03*
%TD*%
D13*
%TO.P,C3,1*%
%TO.N,Net-(U2-OSC1)*%
X139435000Y-92740000D03*
%TO.P,C3,2*%
%TO.N,GND*%
X137885000Y-92740000D03*
%TD*%
D14*
%TO.P,J2,1,In*%
%TO.N,/ublox/GPS_RF*%
X148380000Y-114170000D03*
D15*
%TO.P,J2,2,Ext*%
%TO.N,GND*%
X150920000Y-116710000D03*
X150920000Y-111630000D03*
X145840000Y-116710000D03*
X145840000Y-111630000D03*
%TD*%
D16*
%TO.P,U1,1,P1.11*%
%TO.N,/LED2*%
X177695000Y-85111000D03*
%TO.P,U1,2,P1.10*%
%TO.N,unconnected-(U1-P1.10-Pad2)*%
X176425000Y-85111000D03*
%TO.P,U1,3,P0.03(AIN1)*%
%TO.N,unconnected-(U1-P0.03(AIN1)-Pad3)*%
X175155000Y-85111000D03*
%TO.P,U1,4,P0.28(AIN4)*%
%TO.N,unconnected-(U1-P0.28(AIN4)-Pad4)*%
X173885000Y-85111000D03*
%TO.P,U1,5,GND*%
%TO.N,GND*%
X172615000Y-85111000D03*
%TO.P,U1,6,P1.13*%
%TO.N,unconnected-(U1-P1.13-Pad6)*%
X171345000Y-85111000D03*
%TO.P,U1,7,P0.02(AIN0)*%
%TO.N,unconnected-(U1-P0.02(AIN0)-Pad7)*%
X170075000Y-85111000D03*
%TO.P,U1,8,P0.29(AIN5)*%
%TO.N,/LED1*%
X168805000Y-85111000D03*
%TO.P,U1,9,P0.31(AIN7)*%
%TO.N,unconnected-(U1-P0.31(AIN7)-Pad9)*%
X167535000Y-85111000D03*
%TO.P,U1,10,P0.30(AIN6)*%
%TO.N,/MCP_RST*%
X166265000Y-85111000D03*
D17*
%TO.P,U1,11,P0.00(XL1)*%
%TO.N,/MISO*%
X163796000Y-87010000D03*
D18*
%TO.P,U1,12,P0.26*%
%TO.N,/CS*%
X165757000Y-87647000D03*
D17*
%TO.P,U1,13,P0.01(XL2)*%
%TO.N,/MOSI*%
X163796000Y-88280000D03*
D18*
%TO.P,U1,14,P0.06*%
%TO.N,unconnected-(U1-P0.06-Pad14)*%
X165757000Y-88917000D03*
D17*
%TO.P,U1,15,P0.05(AIN3)*%
%TO.N,/SCK*%
X163796000Y-89550000D03*
D18*
%TO.P,U1,16,P0.08*%
%TO.N,unconnected-(U1-P0.08-Pad16)*%
X165757000Y-90187000D03*
D17*
%TO.P,U1,17,P1.09*%
%TO.N,/IRQ*%
X163796000Y-90820000D03*
D18*
%TO.P,U1,18,P0.04(AIN2)*%
%TO.N,unconnected-(U1-P0.04(AIN2)-Pad18)*%
X165757000Y-91457000D03*
D17*
%TO.P,U1,19,VDD*%
%TO.N,/3V3*%
X163796000Y-92090000D03*
D18*
%TO.P,U1,20,P0.12*%
%TO.N,unconnected-(U1-P0.12-Pad20)*%
X165757000Y-92727000D03*
D17*
%TO.P,U1,21,GND*%
%TO.N,GND*%
X163796000Y-93360000D03*
D18*
%TO.P,U1,22,P0.07*%
%TO.N,/RX*%
X165757000Y-93997000D03*
D17*
%TO.P,U1,23,VDDH*%
%TO.N,/3V3*%
X163796000Y-94630000D03*
D18*
%TO.P,U1,24,GND*%
%TO.N,GND*%
X165757000Y-95267000D03*
D17*
%TO.P,U1,25,DCCH*%
%TO.N,unconnected-(U1-DCCH-Pad25)*%
X163796000Y-95900000D03*
D16*
%TO.P,U1,26,P0.18(RST)*%
%TO.N,unconnected-(U1-P0.18(RST)-Pad26)*%
X166265000Y-97849000D03*
%TO.P,U1,27,VBUS*%
%TO.N,unconnected-(U1-VBUS-Pad27)*%
X167535000Y-97849000D03*
D19*
%TO.P,U1,28,P0.15*%
%TO.N,/TX*%
X168297000Y-95521000D03*
D16*
%TO.P,U1,29,USB_DN*%
%TO.N,unconnected-(U1-USB_DN-Pad29)*%
X168805000Y-97849000D03*
D19*
%TO.P,U1,30,P0.17*%
%TO.N,unconnected-(U1-P0.17-Pad30)*%
X169567000Y-95521000D03*
D16*
%TO.P,U1,31,USB_DP*%
%TO.N,unconnected-(U1-USB_DP-Pad31)*%
X170075000Y-97849000D03*
D19*
%TO.P,U1,32,P0.20*%
%TO.N,unconnected-(U1-P0.20-Pad32)*%
X170837000Y-95521000D03*
D16*
%TO.P,U1,33,P0.13*%
%TO.N,unconnected-(U1-P0.13-Pad33)*%
X171345000Y-97849000D03*
D19*
%TO.P,U1,34,P0.22*%
%TO.N,unconnected-(U1-P0.22-Pad34)*%
X172107000Y-95521000D03*
D16*
%TO.P,U1,35,P0.24*%
%TO.N,unconnected-(U1-P0.24-Pad35)*%
X172615000Y-97849000D03*
D19*
%TO.P,U1,36,P1.00*%
%TO.N,unconnected-(U1-P1.00-Pad36)*%
X173377000Y-95521000D03*
D16*
%TO.P,U1,37,SWDIO*%
%TO.N,/SWD_IO*%
X173885000Y-97849000D03*
D19*
%TO.P,U1,38,P1.02*%
%TO.N,unconnected-(U1-P1.02-Pad38)*%
X174647000Y-95521000D03*
D16*
%TO.P,U1,39,SWD_CLK*%
%TO.N,/SWD_CLK*%
X175155000Y-97849000D03*
D19*
%TO.P,U1,40,P1.04*%
%TO.N,unconnected-(U1-P1.04-Pad40)*%
X175917000Y-95521000D03*
D16*
%TO.P,U1,41,P0.09(NFC1)*%
%TO.N,unconnected-(U1-P0.09(NFC1)-Pad41)*%
X176425000Y-97849000D03*
D19*
%TO.P,U1,42,P1.06*%
%TO.N,unconnected-(U1-P1.06-Pad42)*%
X177187000Y-95521000D03*
D16*
%TO.P,U1,43,P0.10(NFC2)*%
%TO.N,unconnected-(U1-P0.10(NFC2)-Pad43)*%
X177695000Y-97849000D03*
%TD*%
D20*
%TO.P,D1,1,K*%
%TO.N,Net-(D1-K)*%
X166550000Y-81530000D03*
%TO.P,D1,2,A*%
%TO.N,/LED1*%
X169350000Y-81530000D03*
%TD*%
D13*
%TO.P,C20,1*%
%TO.N,Net-(U4-NR)*%
X137605000Y-114580000D03*
%TO.P,C20,2*%
%TO.N,GND*%
X136055000Y-114580000D03*
%TD*%
D20*
%TO.P,D2,1,K*%
%TO.N,Net-(D2-K)*%
X174600000Y-81550000D03*
%TO.P,D2,2,A*%
%TO.N,/LED2*%
X177400000Y-81550000D03*
%TD*%
D21*
%TO.P,R3,1*%
%TO.N,/CANH*%
X129540000Y-84460000D03*
%TO.P,R3,2*%
%TO.N,Net-(JP1-A)*%
X131190000Y-84460000D03*
%TD*%
D22*
%TO.P,U4,1,Vout*%
%TO.N,/3V3*%
X139625000Y-108645000D03*
%TO.P,U4,2,Vout*%
X138975000Y-108645000D03*
%TO.P,U4,3,Sense*%
X138325000Y-108645000D03*
%TO.P,U4,4,GND*%
%TO.N,GND*%
X137675000Y-108645000D03*
%TO.P,U4,5,NR*%
%TO.N,Net-(U4-NR)*%
X137675000Y-113095000D03*
%TO.P,U4,6,SD*%
%TO.N,/5V*%
X138325000Y-113095000D03*
%TO.P,U4,7,Vin*%
X138975000Y-113095000D03*
%TO.P,U4,8,Vin*%
X139625000Y-113095000D03*
%TD*%
D23*
%TO.P,JP1,1,A*%
%TO.N,Net-(JP1-A)*%
X130840000Y-82410000D03*
D24*
%TO.P,JP1,2,B*%
%TO.N,/CANL*%
X129540000Y-82410000D03*
%TD*%
D25*
%TO.P,J3,1,Pin_1*%
%TO.N,/5V*%
X172880000Y-103040000D03*
%TO.P,J3,2,Pin_2*%
%TO.N,unconnected-(J3-Pin_2-Pad2)*%
X176780000Y-103040000D03*
%TO.P,J3,3,Pin_3*%
%TO.N,/3V3*%
X172880000Y-104310000D03*
%TO.P,J3,4,Pin_4*%
%TO.N,unconnected-(J3-Pin_4-Pad4)*%
X176780000Y-104310000D03*
%TO.P,J3,5,Pin_5*%
%TO.N,/SWD_IO*%
X172880000Y-105580000D03*
%TO.P,J3,6,Pin_6*%
%TO.N,GND*%
X176780000Y-105580000D03*
%TO.P,J3,7,Pin_7*%
%TO.N,/SWD_CLK*%
X172880000Y-106850000D03*
%TO.P,J3,8,Pin_8*%
%TO.N,unconnected-(J3-Pin_8-Pad8)*%
X176780000Y-106850000D03*
%TO.P,J3,9,Pin_9*%
%TO.N,GND*%
X172880000Y-108120000D03*
%TO.P,J3,10,Pin_10*%
%TO.N,unconnected-(J3-Pin_10-Pad10)*%
X176780000Y-108120000D03*
%TD*%
D26*
%TO.P,R40,1*%
%TO.N,Net-(C40-Pad1)*%
X151360000Y-106170000D03*
%TO.P,R40,2*%
%TO.N,Net-(U17-VCC_RF)*%
X151360000Y-109095000D03*
%TD*%
D27*
%TO.P,Y1,1,1*%
%TO.N,Net-(U2-OSC1)*%
X143010000Y-94190000D03*
%TO.P,Y1,2,2*%
%TO.N,Net-(U2-OSC2)*%
X143010000Y-89310000D03*
%TD*%
D28*
%TO.P,U3,1,Boot*%
%TO.N,Net-(U3-Boot)*%
X132922500Y-100750000D03*
%TO.P,U3,2,PGOOD*%
%TO.N,unconnected-(U3-PGOOD-Pad2)*%
X134192500Y-100750000D03*
%TO.P,U3,3,EN1*%
%TO.N,GND*%
X135462500Y-100750000D03*
%TO.P,U3,4,FB*%
%TO.N,Net-(U3-FB)*%
X136732500Y-100750000D03*
%TO.P,U3,5,En2*%
%TO.N,Net-(D18-K)*%
X136732500Y-95475000D03*
%TO.P,U3,6,GND*%
%TO.N,GND*%
X135462500Y-95475000D03*
%TO.P,U3,7,Vin*%
%TO.N,Net-(D18-K)*%
X134192500Y-95475000D03*
%TO.P,U3,8,SW*%
%TO.N,Net-(D19-K)*%
X132922500Y-95475000D03*
D29*
%TO.P,U3,9,PGND*%
%TO.N,GND*%
X134827500Y-98112500D03*
%TD*%
D21*
%TO.P,R28,1*%
%TO.N,/5V*%
X137525000Y-104180000D03*
%TO.P,R28,2*%
%TO.N,Net-(U3-FB)*%
X139175000Y-104180000D03*
%TD*%
D30*
%TO.P,C14,1*%
%TO.N,Net-(U3-Boot)*%
X131250000Y-101030000D03*
%TO.P,C14,2*%
%TO.N,Net-(D19-K)*%
X129350000Y-101030000D03*
%TD*%
D31*
%TO.P,D4,1,K*%
%TO.N,/ublox/GPS_VBAT*%
X144850000Y-99655000D03*
%TO.P,D4,2,A*%
%TO.N,Net-(D4-A)*%
X142750000Y-99655000D03*
%TD*%
D13*
%TO.P,C4,1*%
%TO.N,Net-(U2-OSC2)*%
X139455000Y-90240000D03*
%TO.P,C4,2*%
%TO.N,GND*%
X137905000Y-90240000D03*
%TD*%
D12*
%TO.P,C6,1*%
%TO.N,/3V3*%
X144370000Y-81950000D03*
%TO.P,C6,2*%
%TO.N,GND*%
X144370000Y-83850000D03*
%TD*%
D32*
%TO.P,C16,1*%
%TO.N,/5V*%
X132690000Y-111090000D03*
%TO.P,C16,2*%
%TO.N,GND*%
X126290000Y-111090000D03*
%TD*%
D33*
%TO.P,C49,1*%
%TO.N,/3V3*%
X169450000Y-103950000D03*
%TO.P,C49,2*%
%TO.N,GND*%
X169450000Y-102050000D03*
%TD*%
D13*
%TO.P,C11,1*%
%TO.N,Net-(D18-A)*%
X128810000Y-91510000D03*
%TO.P,C11,2*%
%TO.N,GND*%
X127260000Y-91510000D03*
%TD*%
D34*
%TO.P,L2,1,1*%
%TO.N,/ublox/GPS_RF*%
X148390000Y-109090000D03*
%TO.P,L2,2,2*%
%TO.N,Net-(C40-Pad1)*%
X148390000Y-107040000D03*
%TD*%
D35*
%TO.P,C12,1*%
%TO.N,Net-(D18-K)*%
X133722500Y-91230000D03*
%TO.P,C12,2*%
%TO.N,GND*%
X135622500Y-91230000D03*
%TD*%
D36*
%TO.P,J1,1,Pin_1*%
%TO.N,/CANH*%
X122520000Y-96020000D03*
D37*
%TO.P,J1,2,Pin_2*%
%TO.N,/CANL*%
X122520000Y-98520000D03*
%TO.P,J1,3,Pin_3*%
%TO.N,/12VIN*%
X122520000Y-101020000D03*
%TO.P,J1,4,Pin_4*%
%TO.N,GND*%
X122520000Y-103520000D03*
%TD*%
D38*
%TO.P,U5,1,D*%
%TO.N,Net-(U2-TXCAN)*%
X142070000Y-84800000D03*
%TO.P,U5,2,GND*%
%TO.N,GND*%
X142070000Y-83530000D03*
%TO.P,U5,3,VCC*%
%TO.N,/3V3*%
X142070000Y-82260000D03*
%TO.P,U5,4,R*%
%TO.N,Net-(U2-RXCAN)*%
X142070000Y-80990000D03*
%TO.P,U5,5,Vref*%
%TO.N,unconnected-(U5-Vref-Pad5)*%
X137120000Y-80990000D03*
%TO.P,U5,6,CANL*%
%TO.N,/CANL*%
X137120000Y-82260000D03*
%TO.P,U5,7,CANH*%
%TO.N,/CANH*%
X137120000Y-83530000D03*
%TO.P,U5,8,Rs*%
%TO.N,GND*%
X137120000Y-84800000D03*
%TD*%
D10*
%TO.P,H2,1,1*%
%TO.N,GND*%
X172652944Y-114917056D03*
X173355888Y-113220000D03*
X173355888Y-116614112D03*
X175052944Y-112517056D03*
D11*
X175052944Y-114917056D03*
D10*
X175052944Y-117317056D03*
X176750000Y-113220000D03*
X176750000Y-116614112D03*
X177452944Y-114917056D03*
%TD*%
D39*
%TO.P,C40,1*%
%TO.N,Net-(C40-Pad1)*%
X146640000Y-106910000D03*
%TO.P,C40,2*%
%TO.N,GND*%
X146640000Y-108460000D03*
%TD*%
D12*
%TO.P,C1,1*%
%TO.N,/3V3*%
X159650000Y-91850000D03*
%TO.P,C1,2*%
%TO.N,GND*%
X159650000Y-93750000D03*
%TD*%
D40*
%TO.P,R4,1*%
%TO.N,/3V3*%
X144725000Y-101625000D03*
%TO.P,R4,2*%
%TO.N,Net-(D4-A)*%
X142900000Y-101625000D03*
%TD*%
D41*
%TO.P,L1,1*%
%TO.N,Net-(D19-K)*%
X128055000Y-105340000D03*
%TO.P,L1,2*%
%TO.N,/5V*%
X133890000Y-105340000D03*
%TD*%
D40*
%TO.P,R2,1*%
%TO.N,Net-(D2-K)*%
X172892500Y-81550000D03*
%TO.P,R2,2*%
%TO.N,GND*%
X171067500Y-81550000D03*
%TD*%
D42*
%TO.P,D3,1,K*%
%TO.N,/CANH*%
X134790000Y-83840000D03*
%TO.P,D3,2,K*%
%TO.N,/CANL*%
X134790000Y-81940000D03*
%TO.P,D3,3,A*%
%TO.N,GND*%
X132915000Y-82890000D03*
%TD*%
D21*
%TO.P,R29,1*%
%TO.N,Net-(U3-FB)*%
X137535000Y-102630000D03*
%TO.P,R29,2*%
%TO.N,GND*%
X139185000Y-102630000D03*
%TD*%
D40*
%TO.P,R1,1*%
%TO.N,Net-(D1-K)*%
X164782500Y-81440000D03*
%TO.P,R1,2*%
%TO.N,GND*%
X162957500Y-81440000D03*
%TD*%
D43*
%TO.P,D18,1,K*%
%TO.N,Net-(D18-K)*%
X131620000Y-87970000D03*
%TO.P,D18,2,A*%
%TO.N,Net-(D18-A)*%
X131620000Y-90070000D03*
%TD*%
D44*
%TO.P,C15,1*%
%TO.N,/5V*%
X136340000Y-103920000D03*
%TO.P,C15,2*%
%TO.N,Net-(U3-FB)*%
X136340000Y-102960000D03*
%TD*%
D32*
%TO.P,C17,1*%
%TO.N,/5V*%
X132790000Y-115950000D03*
%TO.P,C17,2*%
%TO.N,GND*%
X126390000Y-115950000D03*
%TD*%
D35*
%TO.P,C13,1*%
%TO.N,Net-(D18-K)*%
X133722500Y-93260000D03*
%TO.P,C13,2*%
%TO.N,GND*%
X135622500Y-93260000D03*
%TD*%
D45*
%TO.P,C7,1*%
%TO.N,/ublox/GPS_VBAT*%
X149830000Y-101222651D03*
D46*
%TO.P,C7,2*%
%TO.N,GND*%
X149830000Y-97722651D03*
%TD*%
D47*
%TO.P,D19,1,K*%
%TO.N,Net-(D19-K)*%
X129772500Y-94190000D03*
%TO.P,D19,2,A*%
%TO.N,GND*%
X129772500Y-98490000D03*
%TD*%
D21*
%TO.P,R27,1*%
%TO.N,Net-(D18-A)*%
X130210000Y-91470000D03*
%TO.P,R27,2*%
%TO.N,GND*%
X131860000Y-91470000D03*
%TD*%
D48*
%TO.P,U2,1,TXCAN*%
%TO.N,Net-(U2-TXCAN)*%
X147440000Y-83190000D03*
%TO.P,U2,2,RXCAN*%
%TO.N,Net-(U2-RXCAN)*%
X147440000Y-84460000D03*
%TO.P,U2,3,CLKOUT/SOF*%
%TO.N,unconnected-(U2-CLKOUT{slash}SOF-Pad3)*%
X147440000Y-85730000D03*
%TO.P,U2,4,~{TX0RTS}*%
%TO.N,unconnected-(U2-~{TX0RTS}-Pad4)*%
X147440000Y-87000000D03*
%TO.P,U2,5,~{TX1RTS}*%
%TO.N,unconnected-(U2-~{TX1RTS}-Pad5)*%
X147440000Y-88270000D03*
%TO.P,U2,6,~{TX2RTS}*%
%TO.N,unconnected-(U2-~{TX2RTS}-Pad6)*%
X147440000Y-89540000D03*
%TO.P,U2,7,OSC2*%
%TO.N,Net-(U2-OSC2)*%
X147440000Y-90810000D03*
%TO.P,U2,8,OSC1*%
%TO.N,Net-(U2-OSC1)*%
X147440000Y-92080000D03*
%TO.P,U2,9,VSS*%
%TO.N,GND*%
X147440000Y-93350000D03*
%TO.P,U2,10,~{RX1BF}*%
%TO.N,unconnected-(U2-~{RX1BF}-Pad10)*%
X156740000Y-93350000D03*
%TO.P,U2,11,~{RX0BF}*%
%TO.N,unconnected-(U2-~{RX0BF}-Pad11)*%
X156740000Y-92080000D03*
%TO.P,U2,12,~{INT}*%
%TO.N,/IRQ*%
X156740000Y-90810000D03*
%TO.P,U2,13,SCK*%
%TO.N,/SCK*%
X156740000Y-89540000D03*
%TO.P,U2,14,SI*%
%TO.N,/MOSI*%
X156740000Y-88270000D03*
%TO.P,U2,15,SO*%
%TO.N,/MISO*%
X156740000Y-87000000D03*
%TO.P,U2,16,~{CS}*%
%TO.N,/CS*%
X156740000Y-85730000D03*
%TO.P,U2,17,~{RESET}*%
%TO.N,/MCP_RST*%
X156740000Y-84460000D03*
%TO.P,U2,18,VDD*%
%TO.N,/3V3*%
X156740000Y-83190000D03*
%TD*%
D33*
%TO.P,C5,1*%
%TO.N,/3V3*%
X159300000Y-83410000D03*
%TO.P,C5,2*%
%TO.N,GND*%
X159300000Y-81510000D03*
%TD*%
D35*
%TO.P,C19,1*%
%TO.N,/5V*%
X139120000Y-114810000D03*
%TO.P,C19,2*%
%TO.N,GND*%
X141020000Y-114810000D03*
%TD*%
D42*
%TO.P,Q5,1,G*%
%TO.N,Net-(D18-A)*%
X129615000Y-89960000D03*
%TO.P,Q5,2,S*%
%TO.N,Net-(D18-K)*%
X129615000Y-88060000D03*
%TO.P,Q5,3,D*%
%TO.N,/12VIN*%
X127740000Y-89010000D03*
%TD*%
D30*
%TO.P,C18,1*%
%TO.N,/3V3*%
X139190000Y-106920000D03*
%TO.P,C18,2*%
%TO.N,GND*%
X137290000Y-106920000D03*
%TD*%
D49*
%TO.P,U17,1,SAFE_BOOT*%
%TO.N,unconnected-(U17-SAFE_BOOT-Pad1)*%
X155250000Y-102380000D03*
%TO.P,U17,2,D_SEL*%
%TO.N,unconnected-(U17-D_SEL-Pad2)*%
X155250000Y-103480000D03*
%TO.P,U17,3,TIMEPULSE*%
%TO.N,unconnected-(U17-TIMEPULSE-Pad3)*%
X155250000Y-104580000D03*
%TO.P,U17,4,EXTINT*%
%TO.N,unconnected-(U17-EXTINT-Pad4)*%
X155250000Y-105680000D03*
%TO.P,U17,5,USB_DM*%
%TO.N,unconnected-(U17-USB_DM-Pad5)*%
X155250000Y-106780000D03*
%TO.P,U17,6,USB_DP*%
%TO.N,unconnected-(U17-USB_DP-Pad6)*%
X155250000Y-107880000D03*
%TO.P,U17,7,VDD_USB*%
%TO.N,GND*%
X155250000Y-108980000D03*
%TO.P,U17,8,RESET_N*%
%TO.N,unconnected-(U17-RESET_N-Pad8)*%
X155250000Y-111980000D03*
%TO.P,U17,9,VCC_RF*%
%TO.N,Net-(U17-VCC_RF)*%
X155250000Y-113080000D03*
%TO.P,U17,10,GND@1*%
%TO.N,GND*%
X155250000Y-114180000D03*
%TO.P,U17,11,RF_IN*%
%TO.N,/ublox/GPS_RF*%
X155250000Y-115280000D03*
%TO.P,U17,12,GND@2*%
%TO.N,GND*%
X155250000Y-116380000D03*
%TO.P,U17,13,GND@3*%
X167250000Y-116380000D03*
%TO.P,U17,14,ANT_ON*%
%TO.N,unconnected-(U17-ANT_ON-Pad14)*%
X167250000Y-115280000D03*
%TO.P,U17,15,RES@2*%
%TO.N,unconnected-(U17-RES@2-Pad15)*%
X167250000Y-114180000D03*
%TO.P,U17,16,RES@3*%
%TO.N,unconnected-(U17-RES@3-Pad16)*%
X167250000Y-113080000D03*
%TO.P,U17,17,RES@4*%
%TO.N,unconnected-(U17-RES@4-Pad17)*%
X167250000Y-111980000D03*
%TO.P,U17,18,SDA/SPICS_N*%
%TO.N,unconnected-(U17-SDA{slash}SPICS_N-Pad18)*%
X167250000Y-108980000D03*
%TO.P,U17,19,SCL/SPICLK*%
%TO.N,unconnected-(U17-SCL{slash}SPICLK-Pad19)*%
X167250000Y-107880000D03*
%TO.P,U17,20,TXD/SPIMISO*%
%TO.N,/RX*%
X167250000Y-106780000D03*
%TO.P,U17,21,RXD/SPIMOSI*%
%TO.N,/TX*%
X167250000Y-105680000D03*
%TO.P,U17,22,V_BCKP*%
%TO.N,/ublox/GPS_VBAT*%
X167250000Y-104580000D03*
%TO.P,U17,23,VCC*%
%TO.N,/3V3*%
X167250000Y-103480000D03*
%TO.P,U17,24,GND@4*%
%TO.N,GND*%
X167250000Y-102380000D03*
%TD*%
D50*
%TO.N,/3V3*%
X145700000Y-81940000D03*
X165730000Y-103300000D03*
X153280000Y-99240000D03*
X153280000Y-91870000D03*
X162560000Y-92090000D03*
X160670000Y-91850000D03*
X162690000Y-94970000D03*
X153280000Y-84750000D03*
%TO.N,GND*%
X168000000Y-94000000D03*
X161000000Y-110000000D03*
X170000000Y-107000000D03*
X137660000Y-111390000D03*
X177000000Y-94000000D03*
X132240000Y-98260000D03*
X124000000Y-109000000D03*
X141000000Y-103000000D03*
X122000000Y-111000000D03*
X136090000Y-111770000D03*
X141000000Y-105000000D03*
X155000000Y-100000000D03*
X170000000Y-117000000D03*
X134990000Y-98090000D03*
X168000000Y-88000000D03*
X135450000Y-102200000D03*
X131350000Y-98380000D03*
X139670000Y-110090000D03*
X137150000Y-98670000D03*
X160710000Y-94770000D03*
X124000000Y-111000000D03*
X163000000Y-108000000D03*
X156870000Y-116340000D03*
X132240000Y-97300000D03*
X170000000Y-111000000D03*
X174000000Y-88000000D03*
X152830000Y-107630000D03*
X161000000Y-108000000D03*
X171000000Y-101000000D03*
X161000000Y-97000000D03*
X159000000Y-108000000D03*
X139000000Y-87000000D03*
X163000000Y-115000000D03*
X137300000Y-105660000D03*
X170000000Y-109000000D03*
X141000000Y-100000000D03*
X139000000Y-99000000D03*
X161000000Y-100000000D03*
X136630000Y-92970000D03*
X177000000Y-91000000D03*
X178720000Y-105520000D03*
X158000000Y-100000000D03*
X131350000Y-97380000D03*
X159000000Y-115000000D03*
X139750000Y-111580000D03*
X170840000Y-108200000D03*
X159000000Y-110000000D03*
X170000000Y-115000000D03*
X124000000Y-117000000D03*
X170000000Y-113000000D03*
X136630000Y-90930000D03*
X145180000Y-83810000D03*
X124000000Y-113000000D03*
X174000000Y-94000000D03*
X137180000Y-97250000D03*
X139000000Y-97000000D03*
X150000000Y-89000000D03*
X172590000Y-83590000D03*
X132270000Y-99140000D03*
X150000000Y-86000000D03*
X122000000Y-113000000D03*
X135970000Y-113420000D03*
X137840000Y-91490000D03*
X172610000Y-86510000D03*
X124000000Y-115000000D03*
X178000000Y-101000000D03*
X122000000Y-115000000D03*
X153250000Y-105400000D03*
X156830000Y-108960000D03*
X122000000Y-109000000D03*
X173000000Y-101000000D03*
X177000000Y-88000000D03*
X155000000Y-89000000D03*
X163000000Y-110000000D03*
X169360000Y-101130000D03*
X171000000Y-88000000D03*
X135000000Y-87000000D03*
X163000000Y-113000000D03*
X126570000Y-91440000D03*
X137000000Y-87000000D03*
X171000000Y-94000000D03*
X139000000Y-101000000D03*
X132650000Y-83670000D03*
X135790000Y-85130000D03*
X171000000Y-91000000D03*
X155000000Y-93000000D03*
X150000000Y-92000000D03*
X161000000Y-115000000D03*
X161000000Y-113000000D03*
X159000000Y-113000000D03*
X145420000Y-108580000D03*
X139000000Y-95000000D03*
X155000000Y-86000000D03*
X132260000Y-91920000D03*
X131410000Y-99350000D03*
X158000000Y-97000000D03*
X149480000Y-93380000D03*
X155000000Y-97000000D03*
X139000000Y-81000000D03*
X140000000Y-84000000D03*
X174000000Y-91000000D03*
X161040000Y-81710000D03*
X122000000Y-117000000D03*
X168000000Y-91000000D03*
X156850000Y-114150000D03*
%TO.N,/RX*%
X167200000Y-99590000D03*
%TO.N,/TX*%
X168290000Y-99570000D03*
%TO.N,/ublox/GPS_VBAT*%
X165610000Y-104600000D03*
%TO.N,Net-(D18-K)*%
X137000000Y-94400000D03*
X134192500Y-94270000D03*
%TO.N,/5V*%
X171270000Y-102640000D03*
X146070000Y-104300000D03*
%TD*%
D51*
%TO.N,/3V3*%
X139625000Y-107670000D02*
X139065000Y-107110000D01*
X139625000Y-108645000D02*
X139625000Y-107670000D01*
D52*
X144370000Y-81950000D02*
X145690000Y-81950000D01*
X139065000Y-107110000D02*
X141180000Y-107110000D01*
D53*
X167250000Y-103480000D02*
X169160000Y-103480000D01*
D52*
X141180000Y-107110000D02*
X143460000Y-104830000D01*
X153280000Y-84750000D02*
X153280000Y-91870000D01*
D53*
X144725000Y-102715000D02*
X145135000Y-103125000D01*
D52*
X145690000Y-81950000D02*
X145700000Y-81940000D01*
D53*
X165910000Y-103480000D02*
X165730000Y-103300000D01*
X163796000Y-92090000D02*
X162560000Y-92090000D01*
D51*
X163030000Y-94630000D02*
X162690000Y-94970000D01*
X138975000Y-108645000D02*
X138975000Y-107200000D01*
D53*
X162560000Y-92090000D02*
X161910000Y-92090000D01*
X144060000Y-82260000D02*
X144370000Y-81950000D01*
D51*
X169990000Y-104310000D02*
X169350000Y-103670000D01*
D52*
X154840000Y-83190000D02*
X153280000Y-84750000D01*
X153280000Y-91870000D02*
X153280000Y-99240000D01*
X152175000Y-103125000D02*
X153280000Y-102020000D01*
D51*
X163796000Y-94630000D02*
X163030000Y-94630000D01*
D52*
X153280000Y-102020000D02*
X153280000Y-99240000D01*
X143460000Y-104800000D02*
X145135000Y-103125000D01*
D53*
X167250000Y-103480000D02*
X165910000Y-103480000D01*
D52*
X143460000Y-104830000D02*
X143460000Y-104800000D01*
D53*
X144725000Y-101625000D02*
X144725000Y-102715000D01*
D51*
X138325000Y-107850000D02*
X139065000Y-107110000D01*
D52*
X145135000Y-103125000D02*
X152175000Y-103125000D01*
D51*
X138325000Y-108645000D02*
X138325000Y-107850000D01*
D52*
X161670000Y-91850000D02*
X159650000Y-91850000D01*
X156740000Y-83190000D02*
X154840000Y-83190000D01*
D51*
X172880000Y-104310000D02*
X169990000Y-104310000D01*
D53*
X156740000Y-83190000D02*
X159080000Y-83190000D01*
X142070000Y-82260000D02*
X144060000Y-82260000D01*
D54*
%TO.N,/SWD_CLK*%
X174270000Y-106850000D02*
X175155000Y-105965000D01*
X175155000Y-105965000D02*
X175155000Y-97849000D01*
X172880000Y-106850000D02*
X174270000Y-106850000D01*
%TO.N,/SWD_IO*%
X174220000Y-105580000D02*
X174530000Y-105270000D01*
X174530000Y-105270000D02*
X174530000Y-99895000D01*
X174530000Y-99895000D02*
X173885000Y-99250000D01*
X172880000Y-105580000D02*
X174220000Y-105580000D01*
X173885000Y-99250000D02*
X173885000Y-97849000D01*
D51*
%TO.N,GND*%
X136120000Y-84800000D02*
X135790000Y-85130000D01*
D53*
X155250000Y-116380000D02*
X156830000Y-116380000D01*
X136055000Y-114580000D02*
X136055000Y-113505000D01*
X167250000Y-102380000D02*
X169090000Y-102380000D01*
X156810000Y-108980000D02*
X156830000Y-108960000D01*
X142070000Y-83530000D02*
X144050000Y-83530000D01*
X135462500Y-100750000D02*
X135462500Y-98747500D01*
X135462500Y-100750000D02*
X135462500Y-102187500D01*
X169350000Y-101140000D02*
X169360000Y-101130000D01*
X160720000Y-93750000D02*
X160720000Y-94760000D01*
X172615000Y-85111000D02*
X172615000Y-86505000D01*
D51*
X146640000Y-108460000D02*
X145540000Y-108460000D01*
D53*
X149450000Y-93350000D02*
X149480000Y-93380000D01*
X155250000Y-108980000D02*
X156810000Y-108980000D01*
D54*
X137290000Y-105670000D02*
X137300000Y-105660000D01*
D53*
X159300000Y-81510000D02*
X160840000Y-81510000D01*
X135462500Y-95475000D02*
X135462500Y-97477500D01*
X160720000Y-94760000D02*
X160710000Y-94770000D01*
D51*
X137120000Y-84800000D02*
X136120000Y-84800000D01*
X132915000Y-82890000D02*
X132915000Y-83405000D01*
D53*
X160840000Y-81510000D02*
X161040000Y-81710000D01*
D51*
X127260000Y-91510000D02*
X126640000Y-91510000D01*
X178660000Y-105580000D02*
X178720000Y-105520000D01*
D53*
X163796000Y-93360000D02*
X162060000Y-93360000D01*
X169350000Y-102120000D02*
X169350000Y-101140000D01*
D51*
X176780000Y-105580000D02*
X178660000Y-105580000D01*
D53*
X172615000Y-86505000D02*
X172610000Y-86510000D01*
X156830000Y-116380000D02*
X156870000Y-116340000D01*
X147440000Y-93350000D02*
X149450000Y-93350000D01*
X162060000Y-93360000D02*
X161670000Y-93750000D01*
D51*
X145540000Y-108460000D02*
X145420000Y-108580000D01*
D53*
X155250000Y-114180000D02*
X156820000Y-114180000D01*
D51*
X172615000Y-83615000D02*
X172590000Y-83590000D01*
D53*
X135622500Y-93260000D02*
X135622500Y-91230000D01*
X169090000Y-102380000D02*
X169350000Y-102120000D01*
D54*
X137675000Y-108645000D02*
X137675000Y-107305000D01*
X137290000Y-106920000D02*
X137290000Y-105670000D01*
D53*
X144370000Y-83850000D02*
X145140000Y-83850000D01*
X131860000Y-91520000D02*
X132260000Y-91920000D01*
D51*
X126640000Y-91510000D02*
X126570000Y-91440000D01*
X170920000Y-108120000D02*
X170840000Y-108200000D01*
X172615000Y-85111000D02*
X172615000Y-83615000D01*
D53*
X135622500Y-91230000D02*
X136330000Y-91230000D01*
X137885000Y-91445000D02*
X137885000Y-90260000D01*
X135462500Y-102187500D02*
X135450000Y-102200000D01*
X159650000Y-93750000D02*
X160720000Y-93750000D01*
X156820000Y-114180000D02*
X156850000Y-114150000D01*
X160720000Y-93750000D02*
X161670000Y-93750000D01*
X136340000Y-93260000D02*
X136630000Y-92970000D01*
X135462500Y-95475000D02*
X135462500Y-93420000D01*
X136330000Y-91230000D02*
X136630000Y-90930000D01*
X137885000Y-92740000D02*
X137885000Y-91535000D01*
D51*
X132915000Y-83405000D02*
X132650000Y-83670000D01*
D54*
X137675000Y-107305000D02*
X137290000Y-106920000D01*
D51*
X172880000Y-108120000D02*
X170920000Y-108120000D01*
D53*
X136055000Y-113505000D02*
X135970000Y-113420000D01*
X145140000Y-83850000D02*
X145180000Y-83810000D01*
X137885000Y-91535000D02*
X137840000Y-91490000D01*
X144050000Y-83530000D02*
X144370000Y-83850000D01*
X137840000Y-91490000D02*
X137885000Y-91445000D01*
X135622500Y-93260000D02*
X136340000Y-93260000D01*
%TO.N,Net-(U2-OSC1)*%
X143010000Y-93030000D02*
X143010000Y-94190000D01*
X141560000Y-92740000D02*
X143010000Y-94190000D01*
X139435000Y-92740000D02*
X141560000Y-92740000D01*
X143960000Y-92080000D02*
X143010000Y-93030000D01*
X147440000Y-92080000D02*
X143960000Y-92080000D01*
D51*
%TO.N,/CS*%
X164500000Y-85730000D02*
X156740000Y-85730000D01*
X165757000Y-87647000D02*
X165757000Y-86987000D01*
X165757000Y-86987000D02*
X164500000Y-85730000D01*
%TO.N,/MISO*%
X156750000Y-87010000D02*
X163796000Y-87010000D01*
%TO.N,/MOSI*%
X156750000Y-88280000D02*
X163796000Y-88280000D01*
%TO.N,/SCK*%
X156750000Y-89550000D02*
X163796000Y-89550000D01*
%TO.N,/IRQ*%
X156750000Y-90820000D02*
X163796000Y-90820000D01*
D52*
%TO.N,/12VIN*%
X125280000Y-100360000D02*
X124620000Y-101020000D01*
X127740000Y-89010000D02*
X126680000Y-89010000D01*
X124620000Y-101020000D02*
X122520000Y-101020000D01*
X125280000Y-90410000D02*
X125280000Y-100360000D01*
X126680000Y-89010000D02*
X125280000Y-90410000D01*
D51*
%TO.N,/RX*%
X166530000Y-100260000D02*
X167200000Y-99590000D01*
X163320000Y-100790000D02*
X163850000Y-100260000D01*
X167250000Y-106780000D02*
X164460000Y-106780000D01*
X164460000Y-106780000D02*
X163320000Y-105640000D01*
X163320000Y-105640000D02*
X163320000Y-100790000D01*
X163850000Y-100260000D02*
X166530000Y-100260000D01*
%TO.N,/TX*%
X164940000Y-105680000D02*
X164360000Y-105100000D01*
X167450000Y-101090000D02*
X168290000Y-100250000D01*
X164360000Y-101350000D02*
X164620000Y-101090000D01*
X164620000Y-101090000D02*
X167450000Y-101090000D01*
X168290000Y-100250000D02*
X168290000Y-99570000D01*
X164360000Y-105100000D02*
X164360000Y-101350000D01*
X167250000Y-105680000D02*
X164940000Y-105680000D01*
%TO.N,Net-(D1-K)*%
X164782500Y-81440000D02*
X166460000Y-81440000D01*
%TO.N,/LED1*%
X168805000Y-85111000D02*
X168805000Y-82075000D01*
X168805000Y-82075000D02*
X169350000Y-81530000D01*
%TO.N,Net-(D2-K)*%
X174600000Y-81550000D02*
X172892500Y-81550000D01*
%TO.N,/LED2*%
X177695000Y-85111000D02*
X177695000Y-81845000D01*
D53*
%TO.N,Net-(U2-OSC2)*%
X147440000Y-90810000D02*
X144510000Y-90810000D01*
X139455000Y-90240000D02*
X142080000Y-90240000D01*
X144510000Y-90810000D02*
X143010000Y-89310000D01*
X142080000Y-90240000D02*
X143010000Y-89310000D01*
%TO.N,/ublox/GPS_VBAT*%
X144850000Y-99655000D02*
X147725000Y-99655000D01*
X165630000Y-104580000D02*
X165610000Y-104600000D01*
X147725000Y-99655000D02*
X149292651Y-101222651D01*
X167250000Y-104580000D02*
X165630000Y-104580000D01*
%TO.N,Net-(D18-A)*%
X129615000Y-89960000D02*
X130360000Y-89960000D01*
X130210000Y-91470000D02*
X130210000Y-90110000D01*
X131510000Y-89960000D02*
X131620000Y-90070000D01*
X130360000Y-89960000D02*
X131510000Y-89960000D01*
X130210000Y-90110000D02*
X130360000Y-89960000D01*
X128810000Y-91510000D02*
X130170000Y-91510000D01*
D52*
%TO.N,Net-(D18-K)*%
X132890000Y-87970000D02*
X133722500Y-88802500D01*
X129615000Y-88060000D02*
X131530000Y-88060000D01*
D53*
X136732500Y-95475000D02*
X136732500Y-94667500D01*
X134192500Y-94270000D02*
X134192500Y-93730000D01*
X134192500Y-95475000D02*
X134192500Y-94270000D01*
D52*
X133722500Y-88802500D02*
X133722500Y-91230000D01*
X131530000Y-88060000D02*
X131620000Y-87970000D01*
X131620000Y-87970000D02*
X132890000Y-87970000D01*
D53*
X136732500Y-94667500D02*
X137000000Y-94400000D01*
X134192500Y-93730000D02*
X133722500Y-93260000D01*
D52*
X133722500Y-91230000D02*
X133722500Y-93260000D01*
D51*
%TO.N,Net-(U3-Boot)*%
X132922500Y-100750000D02*
X131737500Y-100750000D01*
X131737500Y-100750000D02*
X131397500Y-101090000D01*
D53*
%TO.N,/5V*%
X141030000Y-109340000D02*
X146070000Y-104300000D01*
D51*
X132690000Y-111090000D02*
X135280000Y-111090000D01*
D54*
X138975000Y-113095000D02*
X138975000Y-114420000D01*
D53*
X171670000Y-103040000D02*
X171270000Y-102640000D01*
X172880000Y-103040000D02*
X171670000Y-103040000D01*
X140885000Y-113095000D02*
X139625000Y-113095000D01*
D51*
X135300000Y-111110000D02*
X136060000Y-110350000D01*
D54*
X138325000Y-113770000D02*
X139125000Y-114570000D01*
D51*
X136060000Y-110350000D02*
X136060000Y-104200000D01*
D53*
X141030000Y-109340000D02*
X141030000Y-112950000D01*
D51*
X136340000Y-103920000D02*
X137265000Y-103920000D01*
D54*
X139625000Y-113095000D02*
X139625000Y-114070000D01*
D53*
X141030000Y-112950000D02*
X140885000Y-113095000D01*
D51*
X135280000Y-111090000D02*
X135300000Y-111110000D01*
D54*
X138325000Y-113095000D02*
X138325000Y-113770000D01*
D51*
X136060000Y-104200000D02*
X136340000Y-103920000D01*
D54*
X139625000Y-114070000D02*
X139125000Y-114570000D01*
D51*
X137265000Y-103920000D02*
X137525000Y-104180000D01*
%TO.N,Net-(U3-FB)*%
X136732500Y-102082500D02*
X136732500Y-100750000D01*
X137205000Y-102960000D02*
X137535000Y-102630000D01*
X136340000Y-102960000D02*
X137205000Y-102960000D01*
X137625000Y-102630000D02*
X139175000Y-104180000D01*
X137535000Y-102630000D02*
X137280000Y-102630000D01*
X137280000Y-102630000D02*
X136732500Y-102082500D01*
D54*
%TO.N,Net-(U4-NR)*%
X137675000Y-113095000D02*
X137675000Y-114510000D01*
D51*
%TO.N,Net-(C40-Pad1)*%
X146640000Y-106910000D02*
X148260000Y-106910000D01*
X150490000Y-107040000D02*
X151360000Y-106170000D01*
X148390000Y-107040000D02*
X150490000Y-107040000D01*
%TO.N,/CANH*%
X137120000Y-83530000D02*
X135100000Y-83530000D01*
X129540000Y-84460000D02*
X130580000Y-85500000D01*
X132470000Y-85500000D02*
X134130000Y-83840000D01*
X121570000Y-92130000D02*
X129240000Y-84460000D01*
X121570000Y-92130000D02*
X121570000Y-95070000D01*
X130580000Y-85500000D02*
X132470000Y-85500000D01*
X134130000Y-83840000D02*
X134790000Y-83840000D01*
X135100000Y-83530000D02*
X134790000Y-83840000D01*
X129540000Y-84460000D02*
X129240000Y-84460000D01*
X121570000Y-95070000D02*
X122520000Y-96020000D01*
%TO.N,/CANL*%
X130000000Y-80940000D02*
X129540000Y-81400000D01*
X120760000Y-98070000D02*
X121210000Y-98520000D01*
X137120000Y-82260000D02*
X135110000Y-82260000D01*
X135110000Y-82260000D02*
X134790000Y-81940000D01*
X120760000Y-91720000D02*
X120760000Y-98070000D01*
X132360000Y-80940000D02*
X130000000Y-80940000D01*
X133360000Y-81940000D02*
X132360000Y-80940000D01*
X120760000Y-91720000D02*
X129540000Y-82940000D01*
X129540000Y-81400000D02*
X129540000Y-82410000D01*
X134790000Y-81940000D02*
X133360000Y-81940000D01*
X121210000Y-98520000D02*
X122520000Y-98520000D01*
D53*
%TO.N,Net-(D4-A)*%
X142900000Y-101625000D02*
X142900000Y-99805000D01*
X142900000Y-99805000D02*
X142750000Y-99655000D01*
D51*
%TO.N,/ublox/GPS_RF*%
X148380000Y-114170000D02*
X148380000Y-109100000D01*
X153370000Y-115280000D02*
X152260000Y-114170000D01*
X152260000Y-114170000D02*
X148380000Y-114170000D01*
X155250000Y-115280000D02*
X153370000Y-115280000D01*
%TO.N,Net-(JP1-A)*%
X131190000Y-84460000D02*
X131190000Y-82760000D01*
X131190000Y-82760000D02*
X130840000Y-82410000D01*
%TO.N,Net-(U17-VCC_RF)*%
X152565000Y-109095000D02*
X151360000Y-109095000D01*
X154090000Y-113080000D02*
X153180000Y-112170000D01*
X153180000Y-109710000D02*
X152565000Y-109095000D01*
X155250000Y-113080000D02*
X154090000Y-113080000D01*
X153180000Y-112170000D02*
X153180000Y-109710000D01*
%TO.N,/MCP_RST*%
X156740000Y-84460000D02*
X165614000Y-84460000D01*
X165614000Y-84460000D02*
X166265000Y-85111000D01*
%TO.N,Net-(U2-TXCAN)*%
X142380000Y-85110000D02*
X142070000Y-84800000D01*
X147440000Y-83190000D02*
X146350000Y-83190000D01*
X145990000Y-83550000D02*
X145990000Y-84590000D01*
X145990000Y-84590000D02*
X145470000Y-85110000D01*
X145470000Y-85110000D02*
X142380000Y-85110000D01*
X146350000Y-83190000D02*
X145990000Y-83550000D01*
%TO.N,Net-(U2-RXCAN)*%
X149390000Y-81610000D02*
X148770000Y-80990000D01*
X149390000Y-83910000D02*
X149390000Y-81610000D01*
X147440000Y-84460000D02*
X148840000Y-84460000D01*
X148770000Y-80990000D02*
X142070000Y-80990000D01*
X148840000Y-84460000D02*
X149390000Y-83910000D01*
%TD*%
%TA.AperFunction,Conductor*%
%TO.N,Net-(D19-K)*%
G36*
X131609335Y-92549685D02*
G01*
X131634442Y-92571024D01*
X131654129Y-92592888D01*
X131654133Y-92592892D01*
X131654135Y-92592893D01*
X131807265Y-92704148D01*
X131807267Y-92704149D01*
X131807270Y-92704151D01*
X131876438Y-92734947D01*
X131929672Y-92780194D01*
X131949994Y-92847043D01*
X131950000Y-92848224D01*
X131950000Y-94430000D01*
X133163895Y-94430000D01*
X133202895Y-94436292D01*
X133245004Y-94450246D01*
X133302446Y-94490016D01*
X133329271Y-94554531D01*
X133329999Y-94567951D01*
X133329999Y-96136238D01*
X133310314Y-96203277D01*
X133257510Y-96249032D01*
X133206238Y-96260238D01*
X128139999Y-96270000D01*
X128139999Y-97294562D01*
X128133708Y-97333557D01*
X128132501Y-97337199D01*
X128122000Y-97439983D01*
X128122000Y-99540001D01*
X128122001Y-99540018D01*
X128132500Y-99642793D01*
X128132500Y-99642795D01*
X128132501Y-99642797D01*
X128133706Y-99646435D01*
X128140000Y-99685436D01*
X128140000Y-100139999D01*
X128140000Y-100140000D01*
X128458865Y-100138660D01*
X128524479Y-100157120D01*
X128553157Y-100174809D01*
X128553160Y-100174810D01*
X128553166Y-100174814D01*
X128719703Y-100229999D01*
X128822491Y-100240500D01*
X130141863Y-100240499D01*
X130208902Y-100260184D01*
X130254657Y-100312987D01*
X130264601Y-100382146D01*
X130261231Y-100396451D01*
X130260001Y-100402196D01*
X130249500Y-100504983D01*
X130249500Y-101555001D01*
X130249501Y-101555019D01*
X130260000Y-101657796D01*
X130260001Y-101657799D01*
X130288073Y-101742513D01*
X130315186Y-101824334D01*
X130358530Y-101894607D01*
X130407289Y-101973657D01*
X130483681Y-102050049D01*
X130517166Y-102111372D01*
X130520000Y-102137730D01*
X130520000Y-102420000D01*
X130946000Y-102420000D01*
X131013039Y-102439685D01*
X131058794Y-102492489D01*
X131070000Y-102544000D01*
X131070000Y-108346000D01*
X131050315Y-108413039D01*
X130997511Y-108458794D01*
X130946000Y-108470000D01*
X126034000Y-108470000D01*
X125966961Y-108450315D01*
X125921206Y-108397511D01*
X125910000Y-108346000D01*
X125910000Y-101054860D01*
X125929685Y-100987821D01*
X125946322Y-100967175D01*
X125950119Y-100963380D01*
X125963982Y-100946260D01*
X125966049Y-100943841D01*
X126012533Y-100892216D01*
X126019538Y-100880080D01*
X126030570Y-100864031D01*
X126039381Y-100853151D01*
X126039383Y-100853149D01*
X126039382Y-100853149D01*
X126070934Y-100791222D01*
X126072425Y-100788476D01*
X126107179Y-100728284D01*
X126111509Y-100714956D01*
X126118960Y-100696969D01*
X126125319Y-100684489D01*
X126125320Y-100684488D01*
X126143296Y-100617397D01*
X126144214Y-100614301D01*
X126165674Y-100548256D01*
X126167138Y-100534317D01*
X126170687Y-100515175D01*
X126173416Y-100504991D01*
X126174313Y-100501645D01*
X126177947Y-100432284D01*
X126178201Y-100429064D01*
X126178323Y-100427899D01*
X126180500Y-100407192D01*
X126180499Y-100385202D01*
X126180584Y-100381957D01*
X126184219Y-100312612D01*
X126182027Y-100298772D01*
X126180500Y-100279373D01*
X126180500Y-92654000D01*
X126200185Y-92586961D01*
X126252989Y-92541206D01*
X126304500Y-92530000D01*
X131542296Y-92530000D01*
X131609335Y-92549685D01*
G37*
%TD.AperFunction*%
%TD*%
%TA.AperFunction,Conductor*%
%TO.N,/5V*%
G36*
X134709295Y-102729685D02*
G01*
X134734403Y-102751026D01*
X134748752Y-102766961D01*
X134808150Y-102832929D01*
X134838380Y-102895920D01*
X134840000Y-102915900D01*
X134840000Y-115440000D01*
X134400000Y-115440000D01*
X134280000Y-115560000D01*
X134280000Y-118130468D01*
X134826437Y-118129958D01*
X134794983Y-118147154D01*
X134768567Y-118150000D01*
X130124000Y-118150000D01*
X130056961Y-118130315D01*
X130011206Y-118077511D01*
X130000000Y-118026000D01*
X130000000Y-109254000D01*
X130019685Y-109186961D01*
X130072489Y-109141206D01*
X130124000Y-109130000D01*
X131840000Y-109130000D01*
X131840000Y-102834000D01*
X131859685Y-102766961D01*
X131912489Y-102721206D01*
X131964000Y-102710000D01*
X134642256Y-102710000D01*
X134709295Y-102729685D01*
G37*
%TD.AperFunction*%
%TD*%
%TA.AperFunction,Conductor*%
%TO.N,/5V*%
G36*
X139735677Y-113949685D02*
G01*
X139756319Y-113966319D01*
X139773620Y-113983620D01*
X139807105Y-114044943D01*
X139809939Y-114071447D01*
X139805297Y-118001578D01*
X139785533Y-118068595D01*
X139732675Y-118114287D01*
X139681413Y-118125432D01*
X134826439Y-118129957D01*
X134826437Y-118129957D01*
X134280000Y-118130468D01*
X134280000Y-115560000D01*
X134400000Y-115440000D01*
X134840000Y-115440000D01*
X135401828Y-115440000D01*
X135466924Y-115458461D01*
X135521303Y-115492003D01*
X135682292Y-115545349D01*
X135781655Y-115555500D01*
X136328344Y-115555499D01*
X136328352Y-115555498D01*
X136328355Y-115555498D01*
X136382760Y-115549940D01*
X136427708Y-115545349D01*
X136588697Y-115492003D01*
X136643075Y-115458461D01*
X136708172Y-115440000D01*
X136951828Y-115440000D01*
X137016924Y-115458461D01*
X137071303Y-115492003D01*
X137232292Y-115545349D01*
X137331655Y-115555500D01*
X137878344Y-115555499D01*
X137878352Y-115555498D01*
X137878355Y-115555498D01*
X137932760Y-115549940D01*
X137977708Y-115545349D01*
X138138697Y-115492003D01*
X138193075Y-115458461D01*
X138258172Y-115440000D01*
X138550000Y-115440000D01*
X138550000Y-114935342D01*
X138550321Y-114929037D01*
X138555499Y-114878352D01*
X138555500Y-114878345D01*
X138555499Y-114281656D01*
X138550320Y-114230964D01*
X138550000Y-114224662D01*
X138550000Y-114054000D01*
X138569685Y-113986961D01*
X138622489Y-113941206D01*
X138674000Y-113930000D01*
X139668638Y-113930000D01*
X139735677Y-113949685D01*
G37*
%TD.AperFunction*%
%TD*%
%TA.AperFunction,Conductor*%
%TO.N,GND*%
G36*
X120265073Y-98500970D02*
G01*
X120276456Y-98513374D01*
X120276696Y-98513150D01*
X120282036Y-98518836D01*
X120282037Y-98518837D01*
X120319476Y-98549809D01*
X120323776Y-98553722D01*
X120525457Y-98755403D01*
X120689564Y-98919510D01*
X120699635Y-98932080D01*
X120699822Y-98931926D01*
X120704796Y-98937937D01*
X120704798Y-98937940D01*
X120733345Y-98964748D01*
X120757243Y-98987190D01*
X120778967Y-99008913D01*
X120784757Y-99013405D01*
X120789197Y-99017197D01*
X120816455Y-99042793D01*
X120824607Y-99050448D01*
X120824610Y-99050450D01*
X120824612Y-99050451D01*
X120843207Y-99060674D01*
X120859468Y-99071356D01*
X120876232Y-99084359D01*
X120876236Y-99084362D01*
X120920811Y-99103651D01*
X120926050Y-99106217D01*
X120968632Y-99129627D01*
X120989204Y-99134908D01*
X121007594Y-99141205D01*
X121027074Y-99149635D01*
X121075050Y-99157233D01*
X121080747Y-99158413D01*
X121127823Y-99170500D01*
X121137279Y-99170500D01*
X121204318Y-99190185D01*
X121238853Y-99223376D01*
X121264367Y-99259814D01*
X121356506Y-99391403D01*
X121523597Y-99558494D01*
X121680595Y-99668425D01*
X121724220Y-99723002D01*
X121731414Y-99792500D01*
X121699891Y-99854855D01*
X121680595Y-99871575D01*
X121523597Y-99981505D01*
X121356506Y-100148597D01*
X121356501Y-100148604D01*
X121220967Y-100342165D01*
X121220965Y-100342169D01*
X121121098Y-100556335D01*
X121121094Y-100556344D01*
X121059938Y-100784586D01*
X121059936Y-100784596D01*
X121039341Y-101019999D01*
X121039341Y-101020000D01*
X121059936Y-101255403D01*
X121059938Y-101255413D01*
X121121094Y-101483655D01*
X121121096Y-101483659D01*
X121121097Y-101483663D01*
X121157254Y-101561202D01*
X121220964Y-101697828D01*
X121220965Y-101697830D01*
X121356505Y-101891402D01*
X121523597Y-102058494D01*
X121717169Y-102194034D01*
X121717171Y-102194035D01*
X121931337Y-102293903D01*
X121931343Y-102293904D01*
X121931344Y-102293905D01*
X121948068Y-102298386D01*
X122159592Y-102355063D01*
X122336034Y-102370500D01*
X122703966Y-102370500D01*
X122880408Y-102355063D01*
X123108663Y-102293903D01*
X123322829Y-102194035D01*
X123516401Y-102058495D01*
X123618078Y-101956817D01*
X123679399Y-101923334D01*
X123705758Y-101920500D01*
X124539373Y-101920500D01*
X124558772Y-101922027D01*
X124572612Y-101924219D01*
X124641959Y-101920584D01*
X124645203Y-101920500D01*
X124667191Y-101920500D01*
X124667192Y-101920500D01*
X124683988Y-101918734D01*
X124689064Y-101918201D01*
X124692284Y-101917947D01*
X124761646Y-101914313D01*
X124775187Y-101910683D01*
X124794313Y-101907138D01*
X124808256Y-101905674D01*
X124874306Y-101884212D01*
X124877368Y-101883304D01*
X124944488Y-101865320D01*
X124956976Y-101858956D01*
X124974950Y-101851510D01*
X124988284Y-101847179D01*
X125048476Y-101812425D01*
X125051222Y-101810934D01*
X125113149Y-101779383D01*
X125124031Y-101770569D01*
X125140083Y-101759537D01*
X125152216Y-101752533D01*
X125197527Y-101711734D01*
X125260519Y-101681504D01*
X125329855Y-101690129D01*
X125383520Y-101734871D01*
X125404478Y-101801523D01*
X125404500Y-101803883D01*
X125404500Y-108346000D01*
X125404501Y-108346009D01*
X125416052Y-108453450D01*
X125416054Y-108453462D01*
X125427260Y-108504972D01*
X125461383Y-108607497D01*
X125461386Y-108607503D01*
X125539171Y-108728537D01*
X125539179Y-108728548D01*
X125584923Y-108781340D01*
X125584926Y-108781343D01*
X125584930Y-108781347D01*
X125693664Y-108875567D01*
X125693667Y-108875568D01*
X125693668Y-108875569D01*
X125821166Y-108933797D01*
X125824541Y-108935338D01*
X125869357Y-108948497D01*
X125891575Y-108955022D01*
X125891580Y-108955023D01*
X125891584Y-108955024D01*
X126034000Y-108975500D01*
X129391438Y-108975500D01*
X129458477Y-108995185D01*
X129504232Y-109047989D01*
X129514176Y-109117146D01*
X129494500Y-109253999D01*
X129494499Y-109254003D01*
X129494500Y-113644360D01*
X129494500Y-118026000D01*
X129494501Y-118026009D01*
X129506052Y-118133450D01*
X129506054Y-118133462D01*
X129517260Y-118184972D01*
X129551383Y-118287497D01*
X129551387Y-118287504D01*
X129552408Y-118289093D01*
X129552822Y-118290503D01*
X129554733Y-118294497D01*
X129554085Y-118294806D01*
X129572091Y-118356133D01*
X129552405Y-118423172D01*
X129499600Y-118468926D01*
X129448091Y-118480130D01*
X123067651Y-118480130D01*
X123064407Y-118480045D01*
X123055346Y-118479570D01*
X122932733Y-118473145D01*
X122748284Y-118462788D01*
X122742057Y-118462122D01*
X122589461Y-118437954D01*
X122426424Y-118410254D01*
X122420760Y-118409016D01*
X122267633Y-118367988D01*
X122112160Y-118323196D01*
X122107104Y-118321501D01*
X121957451Y-118264056D01*
X121906751Y-118243056D01*
X121809202Y-118202650D01*
X121804806Y-118200624D01*
X121719296Y-118157055D01*
X121661029Y-118127366D01*
X121521108Y-118050035D01*
X121517329Y-118047768D01*
X121381441Y-117959521D01*
X121251223Y-117867126D01*
X121248083Y-117864744D01*
X121193883Y-117820855D01*
X121122948Y-117763412D01*
X121120703Y-117761502D01*
X121002724Y-117656069D01*
X121000214Y-117653697D01*
X120886300Y-117539783D01*
X120883929Y-117537274D01*
X120778491Y-117419289D01*
X120776592Y-117417058D01*
X120701923Y-117324849D01*
X120675254Y-117291915D01*
X120672872Y-117288775D01*
X120580478Y-117158558D01*
X120548934Y-117109985D01*
X120492222Y-117022655D01*
X120489963Y-117018890D01*
X120412633Y-116878970D01*
X120391584Y-116837659D01*
X120339374Y-116735191D01*
X120337354Y-116730811D01*
X120275943Y-116582548D01*
X120218492Y-116432880D01*
X120216802Y-116427837D01*
X120197350Y-116360319D01*
X120172011Y-116272366D01*
X120130979Y-116119227D01*
X120129750Y-116113603D01*
X120102046Y-115950538D01*
X120077872Y-115797909D01*
X120077212Y-115791732D01*
X120066854Y-115607266D01*
X120059954Y-115475591D01*
X120059870Y-115472350D01*
X120059870Y-98594683D01*
X120079555Y-98527644D01*
X120132359Y-98481889D01*
X120201517Y-98471945D01*
X120265073Y-98500970D01*
G37*
%TD.AperFunction*%
%TA.AperFunction,Conductor*%
G36*
X172023329Y-99061691D02*
G01*
X172107517Y-99093091D01*
X172167127Y-99099500D01*
X173062872Y-99099499D01*
X173120825Y-99093269D01*
X173189585Y-99105676D01*
X173240721Y-99153287D01*
X173258018Y-99212663D01*
X173259500Y-99259813D01*
X173259500Y-99289343D01*
X173259501Y-99289360D01*
X173260368Y-99296231D01*
X173260826Y-99302050D01*
X173262290Y-99348624D01*
X173262291Y-99348627D01*
X173267880Y-99367867D01*
X173271824Y-99386911D01*
X173274336Y-99406792D01*
X173287445Y-99439902D01*
X173291490Y-99450119D01*
X173293382Y-99455647D01*
X173305821Y-99498462D01*
X173306382Y-99500390D01*
X173316441Y-99517400D01*
X173316580Y-99517634D01*
X173325136Y-99535100D01*
X173332514Y-99553732D01*
X173335974Y-99558495D01*
X173359898Y-99591423D01*
X173363106Y-99596307D01*
X173386827Y-99636416D01*
X173386833Y-99636424D01*
X173400990Y-99650580D01*
X173413627Y-99665375D01*
X173425406Y-99681587D01*
X173450805Y-99702599D01*
X173461309Y-99711288D01*
X173465620Y-99715210D01*
X173868182Y-100117772D01*
X173901666Y-100179093D01*
X173904500Y-100205451D01*
X173904500Y-102045500D01*
X173884815Y-102112539D01*
X173832011Y-102158294D01*
X173780500Y-102169500D01*
X172109756Y-102169500D01*
X172042717Y-102149815D01*
X172007124Y-102112485D01*
X172006355Y-102113044D01*
X172002534Y-102107785D01*
X171875870Y-101967111D01*
X171722734Y-101855851D01*
X171722729Y-101855848D01*
X171549807Y-101778857D01*
X171549802Y-101778855D01*
X171379983Y-101742760D01*
X171364646Y-101739500D01*
X171175354Y-101739500D01*
X171160017Y-101742760D01*
X170990197Y-101778855D01*
X170990192Y-101778857D01*
X170817270Y-101855848D01*
X170817265Y-101855851D01*
X170664129Y-101967111D01*
X170537466Y-102107785D01*
X170442821Y-102271715D01*
X170442818Y-102271722D01*
X170384327Y-102451740D01*
X170384326Y-102451744D01*
X170364540Y-102640000D01*
X170384326Y-102828256D01*
X170384326Y-102828258D01*
X170384327Y-102828260D01*
X170393535Y-102856600D01*
X170395530Y-102926441D01*
X170359449Y-102986273D01*
X170296748Y-103017101D01*
X170236600Y-103012623D01*
X170176567Y-102992730D01*
X170077797Y-102960001D01*
X170077795Y-102960000D01*
X169975016Y-102949500D01*
X169975009Y-102949500D01*
X169740477Y-102949500D01*
X169673438Y-102929815D01*
X169660771Y-102920489D01*
X169575214Y-102848698D01*
X169575212Y-102848697D01*
X169418437Y-102769961D01*
X169418433Y-102769960D01*
X169247721Y-102729500D01*
X169247718Y-102729500D01*
X168524835Y-102729500D01*
X168457796Y-102709815D01*
X168450524Y-102704767D01*
X168392331Y-102661204D01*
X168392328Y-102661202D01*
X168257482Y-102610908D01*
X168257483Y-102610908D01*
X168197883Y-102604501D01*
X168197881Y-102604500D01*
X168197873Y-102604500D01*
X168197865Y-102604500D01*
X166345038Y-102604500D01*
X166277999Y-102584815D01*
X166272153Y-102580818D01*
X166182734Y-102515851D01*
X166182729Y-102515848D01*
X166009807Y-102438857D01*
X166009802Y-102438855D01*
X165864001Y-102407865D01*
X165824646Y-102399500D01*
X165635354Y-102399500D01*
X165602897Y-102406398D01*
X165450197Y-102438855D01*
X165450192Y-102438857D01*
X165277270Y-102515848D01*
X165277265Y-102515851D01*
X165207384Y-102566623D01*
X165141577Y-102590103D01*
X165073524Y-102574277D01*
X165024829Y-102524171D01*
X165010499Y-102466305D01*
X165010500Y-102244999D01*
X165010499Y-101864500D01*
X165030185Y-101797460D01*
X165082989Y-101751706D01*
X165134500Y-101740500D01*
X167364495Y-101740500D01*
X167380505Y-101742267D01*
X167380528Y-101742026D01*
X167388289Y-101742758D01*
X167388296Y-101742760D01*
X167460203Y-101740500D01*
X167490925Y-101740500D01*
X167498190Y-101739581D01*
X167504016Y-101739122D01*
X167552569Y-101737597D01*
X167572956Y-101731673D01*
X167591996Y-101727731D01*
X167613058Y-101725071D01*
X167658235Y-101707183D01*
X167663735Y-101705300D01*
X167710398Y-101691744D01*
X167728665Y-101680939D01*
X167746136Y-101672380D01*
X167765871Y-101664568D01*
X167805177Y-101636010D01*
X167810043Y-101632813D01*
X167851865Y-101608081D01*
X167866870Y-101593075D01*
X167881668Y-101580436D01*
X167898837Y-101567963D01*
X167929809Y-101530522D01*
X167933723Y-101526221D01*
X168689513Y-100770431D01*
X168702079Y-100760365D01*
X168701925Y-100760178D01*
X168707937Y-100755204D01*
X168707937Y-100755203D01*
X168707940Y-100755202D01*
X168757190Y-100702755D01*
X168778911Y-100681035D01*
X168783401Y-100675245D01*
X168787183Y-100670815D01*
X168820448Y-100635393D01*
X168830674Y-100616790D01*
X168841353Y-100600533D01*
X168854362Y-100583764D01*
X168873656Y-100539175D01*
X168876212Y-100533956D01*
X168899627Y-100491368D01*
X168904905Y-100470806D01*
X168911207Y-100452399D01*
X168919635Y-100432927D01*
X168927233Y-100384953D01*
X168928414Y-100379247D01*
X168940500Y-100332177D01*
X168940500Y-100310949D01*
X168942027Y-100291549D01*
X168943883Y-100279830D01*
X168945346Y-100270595D01*
X168943397Y-100249982D01*
X168956685Y-100181391D01*
X168974696Y-100155343D01*
X169022533Y-100102216D01*
X169117179Y-99938284D01*
X169175674Y-99758256D01*
X169195460Y-99570000D01*
X169175674Y-99381744D01*
X169136706Y-99261816D01*
X169134712Y-99191976D01*
X169170792Y-99132143D01*
X169233493Y-99101315D01*
X169249577Y-99099933D01*
X169249576Y-99099900D01*
X169249571Y-99099854D01*
X169249573Y-99099853D01*
X169249564Y-99099676D01*
X169252857Y-99099499D01*
X169252872Y-99099499D01*
X169312483Y-99093091D01*
X169396668Y-99061691D01*
X169466356Y-99056708D01*
X169483329Y-99061691D01*
X169567517Y-99093091D01*
X169627127Y-99099500D01*
X170522872Y-99099499D01*
X170582483Y-99093091D01*
X170666668Y-99061691D01*
X170736356Y-99056708D01*
X170753329Y-99061691D01*
X170837517Y-99093091D01*
X170897127Y-99099500D01*
X171792872Y-99099499D01*
X171852483Y-99093091D01*
X171936668Y-99061691D01*
X172006356Y-99056708D01*
X172023329Y-99061691D01*
G37*
%TD.AperFunction*%
%TA.AperFunction,Conductor*%
G36*
X176591619Y-79599364D02*
G01*
X176593342Y-79599870D01*
X176642351Y-79599870D01*
X176645590Y-79599954D01*
X176777440Y-79606863D01*
X176961732Y-79617212D01*
X176967909Y-79617872D01*
X177120543Y-79642046D01*
X177283603Y-79669750D01*
X177289227Y-79670979D01*
X177442366Y-79712011D01*
X177530319Y-79737350D01*
X177597837Y-79756802D01*
X177602880Y-79758492D01*
X177752565Y-79815949D01*
X177900811Y-79877354D01*
X177905191Y-79879374D01*
X177978889Y-79916925D01*
X178048970Y-79952633D01*
X178109913Y-79986314D01*
X178159066Y-80035971D01*
X178173569Y-80104318D01*
X178148819Y-80169657D01*
X178092673Y-80211243D01*
X178022957Y-80215872D01*
X178010928Y-80212548D01*
X177993799Y-80206872D01*
X177927797Y-80185001D01*
X177927795Y-80185000D01*
X177825010Y-80174500D01*
X176974998Y-80174500D01*
X176974980Y-80174501D01*
X176872203Y-80185000D01*
X176872200Y-80185001D01*
X176705668Y-80240185D01*
X176705663Y-80240187D01*
X176556342Y-80332289D01*
X176432289Y-80456342D01*
X176340187Y-80605663D01*
X176340185Y-80605668D01*
X176321194Y-80662979D01*
X176285001Y-80772203D01*
X176285001Y-80772204D01*
X176285000Y-80772204D01*
X176274500Y-80874983D01*
X176274500Y-82225001D01*
X176274501Y-82225018D01*
X176285000Y-82327796D01*
X176285001Y-82327799D01*
X176340185Y-82494331D01*
X176340187Y-82494336D01*
X176351432Y-82512567D01*
X176432288Y-82643656D01*
X176556344Y-82767712D01*
X176705666Y-82859814D01*
X176872203Y-82914999D01*
X176933102Y-82921220D01*
X176997793Y-82947615D01*
X177037945Y-83004796D01*
X177044500Y-83044578D01*
X177044500Y-83740906D01*
X177024815Y-83807945D01*
X176972011Y-83853700D01*
X176907247Y-83864195D01*
X176872873Y-83860500D01*
X176872865Y-83860500D01*
X175977129Y-83860500D01*
X175977123Y-83860501D01*
X175917516Y-83866908D01*
X175833332Y-83898307D01*
X175763641Y-83903291D01*
X175746667Y-83898307D01*
X175662482Y-83866908D01*
X175662483Y-83866908D01*
X175602883Y-83860501D01*
X175602881Y-83860500D01*
X175602873Y-83860500D01*
X175602864Y-83860500D01*
X174707129Y-83860500D01*
X174707123Y-83860501D01*
X174647516Y-83866908D01*
X174563332Y-83898307D01*
X174493641Y-83903291D01*
X174476667Y-83898307D01*
X174392482Y-83866908D01*
X174392483Y-83866908D01*
X174332883Y-83860501D01*
X174332881Y-83860500D01*
X174332873Y-83860500D01*
X174332864Y-83860500D01*
X173437129Y-83860500D01*
X173437123Y-83860501D01*
X173377516Y-83866908D01*
X173242671Y-83917202D01*
X173242664Y-83917206D01*
X173127455Y-84003452D01*
X173127452Y-84003455D01*
X173041206Y-84118664D01*
X173041202Y-84118671D01*
X172990908Y-84253517D01*
X172986069Y-84298530D01*
X172984501Y-84313123D01*
X172984500Y-84313135D01*
X172984500Y-85908870D01*
X172984501Y-85908876D01*
X172990908Y-85968483D01*
X173041202Y-86103328D01*
X173041206Y-86103335D01*
X173127452Y-86218544D01*
X173127455Y-86218547D01*
X173242664Y-86304793D01*
X173242671Y-86304797D01*
X173377517Y-86355091D01*
X173377516Y-86355091D01*
X173384444Y-86355835D01*
X173437127Y-86361500D01*
X174332872Y-86361499D01*
X174392483Y-86355091D01*
X174476668Y-86323691D01*
X174546356Y-86318708D01*
X174563329Y-86323691D01*
X174647517Y-86355091D01*
X174707127Y-86361500D01*
X175602872Y-86361499D01*
X175662483Y-86355091D01*
X175746668Y-86323691D01*
X175816356Y-86318708D01*
X175833329Y-86323691D01*
X175917517Y-86355091D01*
X175977127Y-86361500D01*
X176872872Y-86361499D01*
X176932483Y-86355091D01*
X177016668Y-86323691D01*
X177086356Y-86318708D01*
X177103329Y-86323691D01*
X177187517Y-86355091D01*
X177247127Y-86361500D01*
X178142872Y-86361499D01*
X178202483Y-86355091D01*
X178337331Y-86304796D01*
X178452546Y-86218546D01*
X178538796Y-86103331D01*
X178589091Y-85968483D01*
X178595500Y-85908873D01*
X178595499Y-84313128D01*
X178589091Y-84253517D01*
X178587484Y-84249209D01*
X178538797Y-84118671D01*
X178538793Y-84118664D01*
X178452548Y-84003457D01*
X178452546Y-84003454D01*
X178437478Y-83992174D01*
X178395188Y-83960515D01*
X178353318Y-83904581D01*
X178345500Y-83861249D01*
X178345500Y-82714833D01*
X178363961Y-82649736D01*
X178367711Y-82643657D01*
X178367712Y-82643656D01*
X178459814Y-82494334D01*
X178514999Y-82327797D01*
X178525500Y-82225009D01*
X178525499Y-80874992D01*
X178514999Y-80772203D01*
X178459814Y-80605666D01*
X178367712Y-80456344D01*
X178367709Y-80456341D01*
X178363234Y-80450681D01*
X178365645Y-80448773D01*
X178338781Y-80399575D01*
X178343765Y-80329883D01*
X178385637Y-80273950D01*
X178451101Y-80249533D01*
X178519374Y-80264385D01*
X178537980Y-80276849D01*
X178587058Y-80316592D01*
X178589289Y-80318491D01*
X178705025Y-80421919D01*
X178707274Y-80423929D01*
X178709783Y-80426300D01*
X178823697Y-80540214D01*
X178826069Y-80542724D01*
X178931502Y-80660703D01*
X178933412Y-80662948D01*
X178990855Y-80733883D01*
X179034744Y-80788083D01*
X179037126Y-80791223D01*
X179129521Y-80921441D01*
X179217768Y-81057329D01*
X179220035Y-81061108D01*
X179297366Y-81201029D01*
X179332901Y-81270770D01*
X179370624Y-81344806D01*
X179372650Y-81349202D01*
X179394430Y-81401782D01*
X179434056Y-81497451D01*
X179491501Y-81647104D01*
X179493196Y-81652161D01*
X179537987Y-81807630D01*
X179579016Y-81960762D01*
X179580254Y-81966426D01*
X179607954Y-82129460D01*
X179632122Y-82282057D01*
X179632788Y-82288284D01*
X179643145Y-82472733D01*
X179650045Y-82604405D01*
X179650130Y-82607650D01*
X179650130Y-115472349D01*
X179650045Y-115475594D01*
X179643145Y-115607266D01*
X179632788Y-115791714D01*
X179632122Y-115797941D01*
X179607954Y-115950538D01*
X179580254Y-116113574D01*
X179579016Y-116119238D01*
X179537988Y-116272366D01*
X179493196Y-116427838D01*
X179491501Y-116432894D01*
X179434056Y-116582548D01*
X179372657Y-116730782D01*
X179370618Y-116735204D01*
X179297366Y-116878970D01*
X179220035Y-117018890D01*
X179217768Y-117022669D01*
X179129521Y-117158558D01*
X179037126Y-117288775D01*
X179034744Y-117291915D01*
X178933439Y-117417019D01*
X178931485Y-117419315D01*
X178826069Y-117537274D01*
X178823680Y-117539802D01*
X178709802Y-117653680D01*
X178707274Y-117656069D01*
X178589315Y-117761485D01*
X178587019Y-117763439D01*
X178461915Y-117864744D01*
X178458775Y-117867126D01*
X178328558Y-117959521D01*
X178192669Y-118047768D01*
X178188890Y-118050035D01*
X178048970Y-118127366D01*
X177905204Y-118200618D01*
X177900782Y-118202657D01*
X177752548Y-118264056D01*
X177602894Y-118321501D01*
X177597838Y-118323196D01*
X177442366Y-118367988D01*
X177289238Y-118409016D01*
X177283574Y-118410254D01*
X177120538Y-118437954D01*
X176967941Y-118462122D01*
X176961714Y-118462788D01*
X176777266Y-118473145D01*
X176653934Y-118479607D01*
X176645592Y-118480045D01*
X176642349Y-118480130D01*
X140340562Y-118480130D01*
X140273523Y-118460445D01*
X140227768Y-118407641D01*
X140217824Y-118338483D01*
X140227829Y-118304485D01*
X140270386Y-118211589D01*
X140270386Y-118211587D01*
X140270388Y-118211584D01*
X140290152Y-118144567D01*
X140310797Y-118002175D01*
X140315455Y-114058430D01*
X140314021Y-114031239D01*
X140314021Y-114031234D01*
X140309740Y-113991198D01*
X140309434Y-113989307D01*
X140318157Y-113919986D01*
X140362973Y-113866383D01*
X140429655Y-113845519D01*
X140431842Y-113845500D01*
X140821295Y-113845500D01*
X140839265Y-113846809D01*
X140863023Y-113850289D01*
X140915068Y-113845735D01*
X140920470Y-113845500D01*
X140928704Y-113845500D01*
X140928709Y-113845500D01*
X140940327Y-113844141D01*
X140961276Y-113841693D01*
X140974028Y-113840577D01*
X141037797Y-113834999D01*
X141037805Y-113834996D01*
X141044866Y-113833539D01*
X141044878Y-113833598D01*
X141052243Y-113831965D01*
X141052229Y-113831906D01*
X141059246Y-113830241D01*
X141059255Y-113830241D01*
X141131423Y-113803974D01*
X141204334Y-113779814D01*
X141204343Y-113779807D01*
X141210882Y-113776760D01*
X141210908Y-113776816D01*
X141217690Y-113773532D01*
X141217663Y-113773478D01*
X141224106Y-113770240D01*
X141224117Y-113770237D01*
X141288283Y-113728034D01*
X141353656Y-113687712D01*
X141353662Y-113687705D01*
X141359325Y-113683229D01*
X141359363Y-113683277D01*
X141365200Y-113678522D01*
X141365161Y-113678475D01*
X141370696Y-113673830D01*
X141423385Y-113617983D01*
X141488701Y-113552666D01*
X141515641Y-113525725D01*
X141529271Y-113513947D01*
X141548530Y-113499610D01*
X141562200Y-113483317D01*
X141582101Y-113459601D01*
X141585761Y-113455606D01*
X141591590Y-113449778D01*
X141611941Y-113424039D01*
X141617948Y-113416879D01*
X141661302Y-113365214D01*
X141661306Y-113365205D01*
X141665274Y-113359175D01*
X141665325Y-113359208D01*
X141669372Y-113352856D01*
X141669320Y-113352824D01*
X141673112Y-113346675D01*
X141705575Y-113277058D01*
X141740036Y-113208440D01*
X141740040Y-113208433D01*
X141740042Y-113208421D01*
X141742509Y-113201646D01*
X141742567Y-113201667D01*
X141745043Y-113194546D01*
X141744986Y-113194528D01*
X141747257Y-113187673D01*
X141762792Y-113112434D01*
X141762792Y-113112433D01*
X141780500Y-113037721D01*
X141780500Y-113037710D01*
X141781338Y-113030548D01*
X141781398Y-113030555D01*
X141782164Y-113023055D01*
X141782105Y-113023050D01*
X141782734Y-113015860D01*
X141780500Y-112939083D01*
X141780500Y-109702228D01*
X141800185Y-109635189D01*
X141816814Y-109614552D01*
X144248028Y-107183337D01*
X145664500Y-107183337D01*
X145664501Y-107183355D01*
X145674650Y-107282707D01*
X145674651Y-107282710D01*
X145727996Y-107443694D01*
X145728001Y-107443705D01*
X145817029Y-107588040D01*
X145817032Y-107588044D01*
X145936955Y-107707967D01*
X145936959Y-107707970D01*
X146081294Y-107796998D01*
X146081297Y-107796999D01*
X146081303Y-107797003D01*
X146242292Y-107850349D01*
X146341655Y-107860500D01*
X146938344Y-107860499D01*
X146938352Y-107860498D01*
X146938355Y-107860498D01*
X146992760Y-107854940D01*
X147037708Y-107850349D01*
X147198697Y-107797003D01*
X147198698Y-107797001D01*
X147205552Y-107794731D01*
X147206085Y-107796342D01*
X147266304Y-107787197D01*
X147330087Y-107815717D01*
X147346897Y-107833161D01*
X147347289Y-107833657D01*
X147471346Y-107957714D01*
X147474182Y-107959463D01*
X147475717Y-107961170D01*
X147477011Y-107962193D01*
X147476836Y-107962414D01*
X147520905Y-108011411D01*
X147532126Y-108080374D01*
X147504282Y-108144456D01*
X147474182Y-108170537D01*
X147471346Y-108172285D01*
X147347289Y-108296342D01*
X147255187Y-108445663D01*
X147255185Y-108445668D01*
X147235534Y-108504972D01*
X147200001Y-108612203D01*
X147200001Y-108612204D01*
X147200000Y-108612204D01*
X147189500Y-108714983D01*
X147189500Y-109465001D01*
X147189501Y-109465019D01*
X147200000Y-109567796D01*
X147200001Y-109567799D01*
X147231155Y-109661813D01*
X147255186Y-109734334D01*
X147347288Y-109883656D01*
X147471344Y-110007712D01*
X147620666Y-110099814D01*
X147644506Y-110107713D01*
X147701947Y-110147483D01*
X147728772Y-110211998D01*
X147729500Y-110225418D01*
X147729500Y-112710035D01*
X147709815Y-112777074D01*
X147670291Y-112815762D01*
X147599130Y-112859368D01*
X147480560Y-112932028D01*
X147297973Y-113087973D01*
X147142026Y-113270563D01*
X147016565Y-113475297D01*
X146924678Y-113697134D01*
X146924674Y-113697146D01*
X146868623Y-113930617D01*
X146849783Y-114169999D01*
X146868623Y-114409382D01*
X146924674Y-114642853D01*
X146924678Y-114642865D01*
X147016565Y-114864702D01*
X147130115Y-115049999D01*
X147142028Y-115069439D01*
X147297973Y-115252027D01*
X147480561Y-115407972D01*
X147480563Y-115407973D01*
X147685297Y-115533434D01*
X147782047Y-115573508D01*
X147907137Y-115625323D01*
X148140621Y-115681377D01*
X148380000Y-115700217D01*
X148619379Y-115681377D01*
X148852863Y-115625323D01*
X149074704Y-115533433D01*
X149279439Y-115407972D01*
X149462027Y-115252027D01*
X149617972Y-115069439D01*
X149734237Y-114879709D01*
X149786049Y-114832835D01*
X149839965Y-114820500D01*
X151939192Y-114820500D01*
X152006231Y-114840185D01*
X152026873Y-114856819D01*
X152849564Y-115679510D01*
X152859635Y-115692080D01*
X152859822Y-115691926D01*
X152864796Y-115697937D01*
X152864798Y-115697940D01*
X152893345Y-115724748D01*
X152917243Y-115747190D01*
X152938967Y-115768913D01*
X152944757Y-115773405D01*
X152949197Y-115777197D01*
X152960916Y-115788201D01*
X152984607Y-115810448D01*
X152984610Y-115810450D01*
X152984612Y-115810451D01*
X153003207Y-115820674D01*
X153019468Y-115831356D01*
X153036232Y-115844359D01*
X153036236Y-115844362D01*
X153080811Y-115863651D01*
X153086050Y-115866217D01*
X153128632Y-115889627D01*
X153149204Y-115894908D01*
X153167594Y-115901205D01*
X153187074Y-115909635D01*
X153231221Y-115916626D01*
X153235048Y-115917233D01*
X153240757Y-115918415D01*
X153287823Y-115930500D01*
X153309045Y-115930500D01*
X153328444Y-115932026D01*
X153349405Y-115935347D01*
X153394104Y-115931121D01*
X153397770Y-115930775D01*
X153403608Y-115930500D01*
X153868965Y-115930500D01*
X153936004Y-115950185D01*
X153968232Y-115980190D01*
X153992449Y-116012541D01*
X153992452Y-116012544D01*
X153992454Y-116012546D01*
X153992457Y-116012548D01*
X154107664Y-116098793D01*
X154107671Y-116098797D01*
X154242517Y-116149091D01*
X154242516Y-116149091D01*
X154249444Y-116149835D01*
X154302127Y-116155500D01*
X156197872Y-116155499D01*
X156257483Y-116149091D01*
X156392331Y-116098796D01*
X156507546Y-116012546D01*
X156593796Y-115897331D01*
X156644091Y-115762483D01*
X156650500Y-115702873D01*
X156650500Y-115702870D01*
X165849500Y-115702870D01*
X165849501Y-115702876D01*
X165855908Y-115762483D01*
X165906202Y-115897328D01*
X165906206Y-115897335D01*
X165992452Y-116012544D01*
X165992455Y-116012547D01*
X166107664Y-116098793D01*
X166107671Y-116098797D01*
X166242517Y-116149091D01*
X166242516Y-116149091D01*
X166249444Y-116149835D01*
X166302127Y-116155500D01*
X168197872Y-116155499D01*
X168257483Y-116149091D01*
X168392331Y-116098796D01*
X168507546Y-116012546D01*
X168593796Y-115897331D01*
X168644091Y-115762483D01*
X168650500Y-115702873D01*
X168650499Y-114857128D01*
X168644091Y-114797517D01*
X168635070Y-114773333D01*
X168630085Y-114703644D01*
X168635066Y-114686677D01*
X168644091Y-114662483D01*
X168650500Y-114602873D01*
X168650499Y-113757128D01*
X168644091Y-113697517D01*
X168635070Y-113673333D01*
X168630085Y-113603644D01*
X168635066Y-113586677D01*
X168644091Y-113562483D01*
X168650500Y-113502873D01*
X168650499Y-112657128D01*
X168644091Y-112597517D01*
X168635070Y-112573333D01*
X168630085Y-112503644D01*
X168635066Y-112486677D01*
X168644091Y-112462483D01*
X168650500Y-112402873D01*
X168650499Y-111557128D01*
X168644091Y-111497517D01*
X168593796Y-111362669D01*
X168593795Y-111362668D01*
X168593793Y-111362664D01*
X168507547Y-111247455D01*
X168507544Y-111247452D01*
X168392335Y-111161206D01*
X168392328Y-111161202D01*
X168257482Y-111110908D01*
X168257483Y-111110908D01*
X168197883Y-111104501D01*
X168197881Y-111104500D01*
X168197873Y-111104500D01*
X168197864Y-111104500D01*
X166302129Y-111104500D01*
X166302123Y-111104501D01*
X166242516Y-111110908D01*
X166107671Y-111161202D01*
X166107664Y-111161206D01*
X165992455Y-111247452D01*
X165992452Y-111247455D01*
X165906206Y-111362664D01*
X165906202Y-111362671D01*
X165855908Y-111497517D01*
X165849672Y-111555526D01*
X165849501Y-111557123D01*
X165849500Y-111557135D01*
X165849500Y-112402870D01*
X165849501Y-112402876D01*
X165855909Y-112462484D01*
X165864929Y-112486670D01*
X165869911Y-112556361D01*
X165864929Y-112573330D01*
X165855909Y-112597515D01*
X165855908Y-112597516D01*
X165850288Y-112649799D01*
X165849501Y-112657123D01*
X165849500Y-112657135D01*
X165849500Y-113502870D01*
X165849501Y-113502876D01*
X165855908Y-113562481D01*
X165860650Y-113575195D01*
X165864927Y-113586663D01*
X165864929Y-113586667D01*
X165869912Y-113656359D01*
X165864929Y-113673328D01*
X165855909Y-113697512D01*
X165855908Y-113697516D01*
X165851194Y-113741369D01*
X165849501Y-113757123D01*
X165849500Y-113757135D01*
X165849500Y-114602870D01*
X165849501Y-114602876D01*
X165855909Y-114662484D01*
X165864929Y-114686670D01*
X165869911Y-114756361D01*
X165864929Y-114773330D01*
X165855909Y-114797515D01*
X165855908Y-114797516D01*
X165849533Y-114856819D01*
X165849501Y-114857123D01*
X165849500Y-114857135D01*
X165849500Y-115702870D01*
X156650500Y-115702870D01*
X156650499Y-114857128D01*
X156644091Y-114797517D01*
X156644090Y-114797515D01*
X156593797Y-114662671D01*
X156593793Y-114662664D01*
X156507547Y-114547455D01*
X156507544Y-114547452D01*
X156392335Y-114461206D01*
X156392328Y-114461202D01*
X156257482Y-114410908D01*
X156257483Y-114410908D01*
X156197883Y-114404501D01*
X156197881Y-114404500D01*
X156197873Y-114404500D01*
X156197864Y-114404500D01*
X154302129Y-114404500D01*
X154302123Y-114404501D01*
X154242516Y-114410908D01*
X154107671Y-114461202D01*
X154107664Y-114461206D01*
X153992457Y-114547451D01*
X153992449Y-114547458D01*
X153968232Y-114579810D01*
X153912299Y-114621682D01*
X153868965Y-114629500D01*
X153690808Y-114629500D01*
X153623769Y-114609815D01*
X153603127Y-114593181D01*
X152780434Y-113770488D01*
X152770361Y-113757914D01*
X152770174Y-113758070D01*
X152765201Y-113752059D01*
X152712756Y-113702810D01*
X152691035Y-113681089D01*
X152685240Y-113676594D01*
X152680798Y-113672799D01*
X152645396Y-113639554D01*
X152645388Y-113639548D01*
X152626792Y-113629325D01*
X152610531Y-113618644D01*
X152593763Y-113605637D01*
X152570295Y-113595482D01*
X152549178Y-113586343D01*
X152543956Y-113583786D01*
X152501368Y-113560373D01*
X152501365Y-113560372D01*
X152480801Y-113555092D01*
X152462396Y-113548790D01*
X152442927Y-113540365D01*
X152442921Y-113540363D01*
X152394951Y-113532766D01*
X152389236Y-113531582D01*
X152372772Y-113527355D01*
X152342180Y-113519500D01*
X152342177Y-113519500D01*
X152320955Y-113519500D01*
X152301555Y-113517973D01*
X152280596Y-113514653D01*
X152280595Y-113514653D01*
X152256786Y-113516903D01*
X152232230Y-113519225D01*
X152226392Y-113519500D01*
X149839965Y-113519500D01*
X149772926Y-113499815D01*
X149734237Y-113460290D01*
X149733815Y-113459601D01*
X149617972Y-113270561D01*
X149462027Y-113087973D01*
X149279439Y-112932028D01*
X149089709Y-112815762D01*
X149042835Y-112763951D01*
X149030500Y-112710035D01*
X149030500Y-110232046D01*
X149050185Y-110165007D01*
X149102989Y-110119252D01*
X149115490Y-110114342D01*
X149159334Y-110099814D01*
X149308656Y-110007712D01*
X149432712Y-109883656D01*
X149524814Y-109734334D01*
X149579999Y-109567797D01*
X149590500Y-109465009D01*
X149590500Y-109457501D01*
X149984500Y-109457501D01*
X149984501Y-109457519D01*
X149995000Y-109560296D01*
X149995001Y-109560299D01*
X150031047Y-109669077D01*
X150050186Y-109726834D01*
X150142288Y-109876156D01*
X150266344Y-110000212D01*
X150415666Y-110092314D01*
X150582203Y-110147499D01*
X150684991Y-110158000D01*
X152035008Y-110157999D01*
X152137797Y-110147499D01*
X152304334Y-110092314D01*
X152340404Y-110070065D01*
X152407796Y-110051626D01*
X152474459Y-110072549D01*
X152519229Y-110126191D01*
X152529500Y-110175605D01*
X152529500Y-112084494D01*
X152527732Y-112100505D01*
X152527974Y-112100528D01*
X152527240Y-112108294D01*
X152529500Y-112180203D01*
X152529500Y-112210920D01*
X152529501Y-112210940D01*
X152530418Y-112218206D01*
X152530876Y-112224024D01*
X152532402Y-112272567D01*
X152532403Y-112272570D01*
X152538323Y-112292948D01*
X152542268Y-112311996D01*
X152544928Y-112333054D01*
X152544931Y-112333064D01*
X152562813Y-112378230D01*
X152564705Y-112383758D01*
X152578254Y-112430395D01*
X152578255Y-112430397D01*
X152589060Y-112448666D01*
X152597617Y-112466134D01*
X152603226Y-112480300D01*
X152605432Y-112485872D01*
X152633983Y-112525170D01*
X152637188Y-112530049D01*
X152661919Y-112571865D01*
X152661923Y-112571869D01*
X152676925Y-112586871D01*
X152689563Y-112601669D01*
X152702033Y-112618833D01*
X152702036Y-112618836D01*
X152702037Y-112618837D01*
X152739476Y-112649809D01*
X152743776Y-112653722D01*
X153178027Y-113087973D01*
X153569564Y-113479510D01*
X153579635Y-113492080D01*
X153579822Y-113491926D01*
X153584796Y-113497937D01*
X153584798Y-113497940D01*
X153607587Y-113519340D01*
X153637243Y-113547190D01*
X153658967Y-113568913D01*
X153664757Y-113573405D01*
X153669197Y-113577197D01*
X153697361Y-113603644D01*
X153704607Y-113610448D01*
X153718313Y-113617983D01*
X153723205Y-113620672D01*
X153739470Y-113631357D01*
X153756232Y-113644360D01*
X153756235Y-113644361D01*
X153756236Y-113644362D01*
X153800823Y-113663656D01*
X153806059Y-113666221D01*
X153848632Y-113689627D01*
X153864340Y-113693659D01*
X153869186Y-113694904D01*
X153887561Y-113701191D01*
X153889114Y-113701863D01*
X153939170Y-113741368D01*
X153992454Y-113812546D01*
X153992457Y-113812548D01*
X154107664Y-113898793D01*
X154107671Y-113898797D01*
X154242517Y-113949091D01*
X154242516Y-113949091D01*
X154249444Y-113949835D01*
X154302127Y-113955500D01*
X156197872Y-113955499D01*
X156257483Y-113949091D01*
X156392331Y-113898796D01*
X156507546Y-113812546D01*
X156593796Y-113697331D01*
X156644091Y-113562483D01*
X156650500Y-113502873D01*
X156650499Y-112657128D01*
X156644091Y-112597517D01*
X156635070Y-112573333D01*
X156630085Y-112503644D01*
X156635066Y-112486677D01*
X156644091Y-112462483D01*
X156650500Y-112402873D01*
X156650499Y-111557128D01*
X156644091Y-111497517D01*
X156593796Y-111362669D01*
X156593795Y-111362668D01*
X156593793Y-111362664D01*
X156507547Y-111247455D01*
X156507544Y-111247452D01*
X156392335Y-111161206D01*
X156392328Y-111161202D01*
X156257482Y-111110908D01*
X156257483Y-111110908D01*
X156197883Y-111104501D01*
X156197881Y-111104500D01*
X156197873Y-111104500D01*
X156197864Y-111104500D01*
X154302129Y-111104500D01*
X154302123Y-111104501D01*
X154242516Y-111110908D01*
X154107671Y-111161202D01*
X154107669Y-111161204D01*
X154028811Y-111220237D01*
X153963347Y-111244654D01*
X153895074Y-111229802D01*
X153845668Y-111180397D01*
X153830500Y-111120970D01*
X153830500Y-109795501D01*
X153832268Y-109779488D01*
X153832026Y-109779466D01*
X153832758Y-109771710D01*
X153832760Y-109771703D01*
X153830500Y-109699795D01*
X153830500Y-109669075D01*
X153829579Y-109661788D01*
X153829122Y-109655979D01*
X153827597Y-109607430D01*
X153821676Y-109587052D01*
X153817731Y-109568003D01*
X153815071Y-109546942D01*
X153797186Y-109501772D01*
X153795297Y-109496252D01*
X153781743Y-109449599D01*
X153770941Y-109431335D01*
X153762379Y-109413858D01*
X153758029Y-109402872D01*
X153754568Y-109394129D01*
X153726014Y-109354828D01*
X153722810Y-109349950D01*
X153698082Y-109308137D01*
X153698081Y-109308135D01*
X153683074Y-109293128D01*
X153670435Y-109278330D01*
X153657961Y-109261160D01*
X153620528Y-109230194D01*
X153616206Y-109226260D01*
X153085434Y-108695488D01*
X153075361Y-108682914D01*
X153075174Y-108683070D01*
X153070201Y-108677059D01*
X153017756Y-108627810D01*
X152996035Y-108606089D01*
X152990240Y-108601594D01*
X152985798Y-108597799D01*
X152950396Y-108564554D01*
X152950388Y-108564548D01*
X152931792Y-108554325D01*
X152915531Y-108543644D01*
X152898763Y-108530637D01*
X152875295Y-108520482D01*
X152854178Y-108511343D01*
X152848956Y-108508786D01*
X152806368Y-108485373D01*
X152806365Y-108485372D01*
X152785801Y-108480092D01*
X152767396Y-108473790D01*
X152747927Y-108465365D01*
X152747923Y-108465364D01*
X152719102Y-108460799D01*
X152655968Y-108430869D01*
X152632963Y-108403422D01*
X152577712Y-108313844D01*
X152453656Y-108189788D01*
X152360888Y-108132569D01*
X152304336Y-108097687D01*
X152304331Y-108097685D01*
X152259981Y-108082989D01*
X152137797Y-108042501D01*
X152137795Y-108042500D01*
X152035010Y-108032000D01*
X150684998Y-108032000D01*
X150684981Y-108032001D01*
X150582203Y-108042500D01*
X150582200Y-108042501D01*
X150415668Y-108097685D01*
X150415663Y-108097687D01*
X150266342Y-108189789D01*
X150142289Y-108313842D01*
X150050187Y-108463163D01*
X150050185Y-108463168D01*
X150025427Y-108537883D01*
X149995001Y-108629703D01*
X149995001Y-108629704D01*
X149995000Y-108629704D01*
X149984500Y-108732483D01*
X149984500Y-109457501D01*
X149590500Y-109457501D01*
X149590499Y-108714992D01*
X149579999Y-108612203D01*
X149524814Y-108445666D01*
X149432712Y-108296344D01*
X149308656Y-108172288D01*
X149305819Y-108170538D01*
X149304283Y-108168830D01*
X149302989Y-108167807D01*
X149303163Y-108167585D01*
X149259096Y-108118594D01*
X149247872Y-108049632D01*
X149275713Y-107985549D01*
X149305817Y-107959462D01*
X149308656Y-107957712D01*
X149432712Y-107833656D01*
X149484680Y-107749402D01*
X149536627Y-107702679D01*
X149590218Y-107690500D01*
X150404495Y-107690500D01*
X150420505Y-107692267D01*
X150420528Y-107692026D01*
X150428289Y-107692758D01*
X150428296Y-107692760D01*
X150500203Y-107690500D01*
X150530925Y-107690500D01*
X150538190Y-107689581D01*
X150544016Y-107689122D01*
X150592569Y-107687597D01*
X150612956Y-107681673D01*
X150631996Y-107677731D01*
X150653058Y-107675071D01*
X150698235Y-107657183D01*
X150703735Y-107655300D01*
X150750398Y-107641744D01*
X150768665Y-107630939D01*
X150786136Y-107622380D01*
X150805871Y-107614568D01*
X150845177Y-107586010D01*
X150850043Y-107582813D01*
X150891865Y-107558081D01*
X150906870Y-107543075D01*
X150921668Y-107530436D01*
X150924564Y-107528332D01*
X150938837Y-107517963D01*
X150969809Y-107480522D01*
X150973713Y-107476231D01*
X151180627Y-107269317D01*
X151241950Y-107235833D01*
X151268308Y-107232999D01*
X152035002Y-107232999D01*
X152035008Y-107232999D01*
X152137797Y-107222499D01*
X152304334Y-107167314D01*
X152453656Y-107075212D01*
X152577712Y-106951156D01*
X152669814Y-106801834D01*
X152724999Y-106635297D01*
X152735500Y-106532509D01*
X152735499Y-105807492D01*
X152724999Y-105704703D01*
X152669814Y-105538166D01*
X152577712Y-105388844D01*
X152453656Y-105264788D01*
X152317001Y-105180499D01*
X152304336Y-105172687D01*
X152304331Y-105172685D01*
X152272442Y-105162118D01*
X152137797Y-105117501D01*
X152137795Y-105117500D01*
X152035010Y-105107000D01*
X150684998Y-105107000D01*
X150684981Y-105107001D01*
X150582203Y-105117500D01*
X150582200Y-105117501D01*
X150415668Y-105172685D01*
X150415663Y-105172687D01*
X150266342Y-105264789D01*
X150142289Y-105388842D01*
X150050187Y-105538163D01*
X150050185Y-105538168D01*
X150039470Y-105570505D01*
X149995001Y-105704703D01*
X149995001Y-105704704D01*
X149995000Y-105704704D01*
X149984500Y-105807483D01*
X149984500Y-105807491D01*
X149984500Y-106088837D01*
X149984501Y-106265500D01*
X149964817Y-106332539D01*
X149912013Y-106378294D01*
X149860501Y-106389500D01*
X149590218Y-106389500D01*
X149523179Y-106369815D01*
X149484679Y-106330597D01*
X149464276Y-106297518D01*
X149432712Y-106246344D01*
X149308656Y-106122288D01*
X149202598Y-106056871D01*
X149159336Y-106030187D01*
X149159331Y-106030185D01*
X149137636Y-106022996D01*
X148992797Y-105975001D01*
X148992795Y-105975000D01*
X148890010Y-105964500D01*
X147889998Y-105964500D01*
X147889980Y-105964501D01*
X147787203Y-105975000D01*
X147787200Y-105975001D01*
X147620668Y-106030185D01*
X147620659Y-106030189D01*
X147480453Y-106116669D01*
X147413061Y-106135109D01*
X147349583Y-106115186D01*
X147349191Y-106115823D01*
X147346682Y-106114275D01*
X147346397Y-106114186D01*
X147345620Y-106113620D01*
X147198705Y-106023001D01*
X147198699Y-106022998D01*
X147198697Y-106022997D01*
X147129456Y-106000053D01*
X147037709Y-105969651D01*
X146938346Y-105959500D01*
X146341662Y-105959500D01*
X146341644Y-105959501D01*
X146242292Y-105969650D01*
X146242289Y-105969651D01*
X146081305Y-106022996D01*
X146081294Y-106023001D01*
X145936959Y-106112029D01*
X145936955Y-106112032D01*
X145817032Y-106231955D01*
X145817029Y-106231959D01*
X145728001Y-106376294D01*
X145727996Y-106376305D01*
X145674651Y-106537290D01*
X145664500Y-106636647D01*
X145664500Y-107183337D01*
X144248028Y-107183337D01*
X146222770Y-105208595D01*
X146284091Y-105175112D01*
X146284427Y-105175039D01*
X146349803Y-105161144D01*
X146522730Y-105084151D01*
X146675871Y-104972888D01*
X146802533Y-104832216D01*
X146897179Y-104668284D01*
X146955674Y-104488256D01*
X146975460Y-104300000D01*
X146961004Y-104162459D01*
X146973574Y-104093732D01*
X147021306Y-104042708D01*
X147084325Y-104025500D01*
X152094373Y-104025500D01*
X152113772Y-104027027D01*
X152127612Y-104029219D01*
X152196959Y-104025584D01*
X152200203Y-104025500D01*
X152222191Y-104025500D01*
X152222192Y-104025500D01*
X152238988Y-104023734D01*
X152244064Y-104023201D01*
X152247284Y-104022947D01*
X152316646Y-104019313D01*
X152330187Y-104015683D01*
X152349313Y-104012138D01*
X152363256Y-104010674D01*
X152429306Y-103989212D01*
X152432368Y-103988304D01*
X152499488Y-103970320D01*
X152511976Y-103963956D01*
X152529950Y-103956510D01*
X152543284Y-103952179D01*
X152603476Y-103917425D01*
X152606222Y-103915934D01*
X152668149Y-103884383D01*
X152679031Y-103875569D01*
X152695083Y-103864537D01*
X152707216Y-103857533D01*
X152758847Y-103811043D01*
X152761260Y-103808982D01*
X152778380Y-103795119D01*
X152793929Y-103779568D01*
X152796270Y-103777347D01*
X152847888Y-103730871D01*
X152856130Y-103719525D01*
X152868760Y-103704737D01*
X153641088Y-102932409D01*
X153702409Y-102898926D01*
X153772101Y-102903910D01*
X153828034Y-102945782D01*
X153852451Y-103011246D01*
X153852057Y-103033344D01*
X153849501Y-103057123D01*
X153849500Y-103057129D01*
X153849500Y-103902870D01*
X153849501Y-103902876D01*
X153855908Y-103962481D01*
X153855909Y-103962483D01*
X153864927Y-103986663D01*
X153864929Y-103986667D01*
X153869912Y-104056359D01*
X153864929Y-104073328D01*
X153855909Y-104097512D01*
X153855908Y-104097516D01*
X153849501Y-104157116D01*
X153849501Y-104157123D01*
X153849500Y-104157135D01*
X153849500Y-105002870D01*
X153849501Y-105002876D01*
X153855908Y-105062481D01*
X153855909Y-105062483D01*
X153864927Y-105086663D01*
X153864929Y-105086667D01*
X153869912Y-105156359D01*
X153864929Y-105173328D01*
X153855909Y-105197512D01*
X153855908Y-105197516D01*
X153849501Y-105257116D01*
X153849501Y-105257123D01*
X153849500Y-105257135D01*
X153849500Y-106102870D01*
X153849501Y-106102876D01*
X153855909Y-106162484D01*
X153864929Y-106186670D01*
X153869911Y-106256361D01*
X153864929Y-106273330D01*
X153855909Y-106297515D01*
X153855908Y-106297516D01*
X153849501Y-106357116D01*
X153849501Y-106357123D01*
X153849500Y-106357135D01*
X153849500Y-107202870D01*
X153849501Y-107202876D01*
X153855909Y-107262484D01*
X153864929Y-107286670D01*
X153869911Y-107356361D01*
X153864929Y-107373330D01*
X153855909Y-107397515D01*
X153855908Y-107397516D01*
X153850246Y-107450185D01*
X153849501Y-107457123D01*
X153849500Y-107457135D01*
X153849500Y-108302870D01*
X153849501Y-108302876D01*
X153855908Y-108362483D01*
X153906202Y-108497328D01*
X153906206Y-108497335D01*
X153992452Y-108612544D01*
X153992455Y-108612547D01*
X154107664Y-108698793D01*
X154107671Y-108698797D01*
X154242517Y-108749091D01*
X154242516Y-108749091D01*
X154249444Y-108749835D01*
X154302127Y-108755500D01*
X156197872Y-108755499D01*
X156257483Y-108749091D01*
X156392331Y-108698796D01*
X156507546Y-108612546D01*
X156593796Y-108497331D01*
X156644091Y-108362483D01*
X156650500Y-108302873D01*
X156650499Y-107457128D01*
X156644091Y-107397517D01*
X156635070Y-107373333D01*
X156630085Y-107303644D01*
X156635066Y-107286677D01*
X156644091Y-107262483D01*
X156650500Y-107202873D01*
X156650499Y-106357128D01*
X156644091Y-106297517D01*
X156635070Y-106273333D01*
X156630085Y-106203644D01*
X156635066Y-106186677D01*
X156644091Y-106162483D01*
X156650500Y-106102873D01*
X156650499Y-105257128D01*
X156644091Y-105197517D01*
X156635070Y-105173333D01*
X156630085Y-105103644D01*
X156635066Y-105086677D01*
X156644091Y-105062483D01*
X156650500Y-105002873D01*
X156650499Y-104157128D01*
X156644091Y-104097517D01*
X156635070Y-104073333D01*
X156630085Y-104003644D01*
X156635066Y-103986677D01*
X156644091Y-103962483D01*
X156650500Y-103902873D01*
X156650499Y-103057128D01*
X156644091Y-102997517D01*
X156635070Y-102973333D01*
X156630085Y-102903644D01*
X156635066Y-102886677D01*
X156644091Y-102862483D01*
X156650500Y-102802873D01*
X156650499Y-101957128D01*
X156644091Y-101897517D01*
X156641810Y-101891402D01*
X156593797Y-101762671D01*
X156593793Y-101762664D01*
X156507547Y-101647455D01*
X156507544Y-101647452D01*
X156392335Y-101561206D01*
X156392328Y-101561202D01*
X156257482Y-101510908D01*
X156257483Y-101510908D01*
X156197883Y-101504501D01*
X156197881Y-101504500D01*
X156197873Y-101504500D01*
X156197865Y-101504500D01*
X154304500Y-101504500D01*
X154237461Y-101484815D01*
X154191706Y-101432011D01*
X154180500Y-101380500D01*
X154180500Y-100769405D01*
X162664653Y-100769405D01*
X162664750Y-100770436D01*
X162669225Y-100817767D01*
X162669500Y-100823606D01*
X162669500Y-105554494D01*
X162667732Y-105570505D01*
X162667974Y-105570528D01*
X162667240Y-105578294D01*
X162669500Y-105650203D01*
X162669500Y-105680920D01*
X162669501Y-105680940D01*
X162670418Y-105688206D01*
X162670876Y-105694024D01*
X162672402Y-105742567D01*
X162672403Y-105742570D01*
X162678323Y-105762948D01*
X162682268Y-105781996D01*
X162684928Y-105803054D01*
X162684931Y-105803064D01*
X162702813Y-105848230D01*
X162704705Y-105853758D01*
X162718254Y-105900395D01*
X162718255Y-105900397D01*
X162729060Y-105918666D01*
X162737617Y-105936134D01*
X162743226Y-105950300D01*
X162745432Y-105955872D01*
X162773983Y-105995170D01*
X162777188Y-106000049D01*
X162801919Y-106041865D01*
X162801923Y-106041869D01*
X162816925Y-106056871D01*
X162829563Y-106071669D01*
X162842033Y-106088833D01*
X162842036Y-106088836D01*
X162842037Y-106088837D01*
X162879476Y-106119809D01*
X162883776Y-106123722D01*
X163561885Y-106801831D01*
X163939564Y-107179510D01*
X163949635Y-107192080D01*
X163949822Y-107191926D01*
X163954796Y-107197937D01*
X163954798Y-107197940D01*
X163980950Y-107222498D01*
X164007243Y-107247190D01*
X164028967Y-107268913D01*
X164034757Y-107273405D01*
X164039197Y-107277197D01*
X164067361Y-107303644D01*
X164074607Y-107310448D01*
X164074609Y-107310449D01*
X164093205Y-107320672D01*
X164109470Y-107331357D01*
X164126232Y-107344360D01*
X164126235Y-107344361D01*
X164126236Y-107344362D01*
X164170823Y-107363656D01*
X164176059Y-107366221D01*
X164218632Y-107389627D01*
X164234340Y-107393659D01*
X164239186Y-107394904D01*
X164257598Y-107401207D01*
X164277073Y-107409635D01*
X164316033Y-107415805D01*
X164325046Y-107417233D01*
X164330756Y-107418415D01*
X164377823Y-107430500D01*
X164399050Y-107430500D01*
X164418447Y-107432026D01*
X164439404Y-107435346D01*
X164487761Y-107430774D01*
X164493598Y-107430500D01*
X165725500Y-107430500D01*
X165792539Y-107450185D01*
X165838294Y-107502989D01*
X165849500Y-107554500D01*
X165849500Y-108302870D01*
X165849501Y-108302876D01*
X165855909Y-108362484D01*
X165864929Y-108386670D01*
X165869911Y-108456361D01*
X165864929Y-108473330D01*
X165855909Y-108497515D01*
X165855908Y-108497516D01*
X165850306Y-108549626D01*
X165849501Y-108557123D01*
X165849500Y-108557135D01*
X165849500Y-109402870D01*
X165849501Y-109402876D01*
X165855908Y-109462483D01*
X165906202Y-109597328D01*
X165906206Y-109597335D01*
X165992452Y-109712544D01*
X165992455Y-109712547D01*
X166107664Y-109798793D01*
X166107671Y-109798797D01*
X166242517Y-109849091D01*
X166242516Y-109849091D01*
X166249444Y-109849835D01*
X166302127Y-109855500D01*
X168197872Y-109855499D01*
X168257483Y-109849091D01*
X168392331Y-109798796D01*
X168507546Y-109712546D01*
X168593796Y-109597331D01*
X168644091Y-109462483D01*
X168650500Y-109402873D01*
X168650499Y-108557128D01*
X168644091Y-108497517D01*
X168635070Y-108473333D01*
X168630085Y-108403644D01*
X168635066Y-108386677D01*
X168644091Y-108362483D01*
X168650500Y-108302873D01*
X168650499Y-107457128D01*
X168644091Y-107397517D01*
X168635070Y-107373333D01*
X168630085Y-107303644D01*
X168635066Y-107286677D01*
X168644091Y-107262483D01*
X168650500Y-107202873D01*
X168650499Y-106357128D01*
X168644091Y-106297517D01*
X168635070Y-106273333D01*
X168630085Y-106203644D01*
X168635066Y-106186677D01*
X168644091Y-106162483D01*
X168650500Y-106102873D01*
X168650499Y-105257128D01*
X168644091Y-105197517D01*
X168635070Y-105173333D01*
X168630085Y-105103644D01*
X168635066Y-105086677D01*
X168644091Y-105062483D01*
X168646507Y-105040006D01*
X168673243Y-104975459D01*
X168730635Y-104935609D01*
X168800460Y-104933114D01*
X168808793Y-104935555D01*
X168822203Y-104939999D01*
X168924991Y-104950500D01*
X169853206Y-104950499D01*
X169884045Y-104954395D01*
X169907823Y-104960500D01*
X169929045Y-104960500D01*
X169948442Y-104962026D01*
X169969405Y-104965347D01*
X170017772Y-104960774D01*
X170023609Y-104960500D01*
X171063132Y-104960500D01*
X171130171Y-104980185D01*
X171175926Y-105032989D01*
X171186421Y-105097756D01*
X171179500Y-105162118D01*
X171179500Y-105997870D01*
X171179501Y-105997876D01*
X171185908Y-106057483D01*
X171228496Y-106171666D01*
X171233480Y-106241358D01*
X171228496Y-106258331D01*
X171185909Y-106372514D01*
X171185908Y-106372516D01*
X171179501Y-106432116D01*
X171179501Y-106432123D01*
X171179500Y-106432135D01*
X171179500Y-107267870D01*
X171179501Y-107267876D01*
X171185908Y-107327483D01*
X171236202Y-107462328D01*
X171236206Y-107462335D01*
X171322452Y-107577544D01*
X171322455Y-107577547D01*
X171437664Y-107663793D01*
X171437671Y-107663797D01*
X171572517Y-107714091D01*
X171572516Y-107714091D01*
X171579444Y-107714835D01*
X171632127Y-107720500D01*
X174127872Y-107720499D01*
X174187483Y-107714091D01*
X174322331Y-107663796D01*
X174437546Y-107577546D01*
X174523796Y-107462331D01*
X174523797Y-107462325D01*
X174528046Y-107454548D01*
X174529806Y-107455509D01*
X174564757Y-107408806D01*
X174567426Y-107407085D01*
X174567418Y-107407073D01*
X174573729Y-107402486D01*
X174573732Y-107402486D01*
X174611449Y-107375082D01*
X174616305Y-107371892D01*
X174656420Y-107348170D01*
X174670589Y-107333999D01*
X174685379Y-107321368D01*
X174701587Y-107309594D01*
X174731299Y-107273676D01*
X174735212Y-107269376D01*
X174867821Y-107136767D01*
X174929142Y-107103284D01*
X174998834Y-107108268D01*
X175054767Y-107150140D01*
X175079184Y-107215604D01*
X175079500Y-107224447D01*
X175079500Y-107267868D01*
X175079501Y-107267876D01*
X175085908Y-107327483D01*
X175128496Y-107441667D01*
X175133480Y-107511359D01*
X175128496Y-107528333D01*
X175085908Y-107642516D01*
X175080750Y-107690499D01*
X175079501Y-107702123D01*
X175079500Y-107702135D01*
X175079500Y-108537870D01*
X175079501Y-108537876D01*
X175085908Y-108597483D01*
X175136202Y-108732328D01*
X175136206Y-108732335D01*
X175222452Y-108847544D01*
X175222455Y-108847547D01*
X175337664Y-108933793D01*
X175337671Y-108933797D01*
X175472517Y-108984091D01*
X175472516Y-108984091D01*
X175479444Y-108984835D01*
X175532127Y-108990500D01*
X178027872Y-108990499D01*
X178087483Y-108984091D01*
X178222331Y-108933796D01*
X178337546Y-108847546D01*
X178423796Y-108732331D01*
X178474091Y-108597483D01*
X178480500Y-108537873D01*
X178480499Y-107702128D01*
X178474091Y-107642517D01*
X178473802Y-107641743D01*
X178431503Y-107528332D01*
X178426519Y-107458640D01*
X178431499Y-107441676D01*
X178474091Y-107327483D01*
X178480500Y-107267873D01*
X178480499Y-106432128D01*
X178474091Y-106372517D01*
X178473083Y-106369815D01*
X178423797Y-106237671D01*
X178423793Y-106237664D01*
X178337547Y-106122455D01*
X178337544Y-106122452D01*
X178222335Y-106036206D01*
X178222328Y-106036202D01*
X178087482Y-105985908D01*
X178087483Y-105985908D01*
X178027883Y-105979501D01*
X178027881Y-105979500D01*
X178027873Y-105979500D01*
X178027865Y-105979500D01*
X175904500Y-105979500D01*
X175837461Y-105959815D01*
X175791706Y-105907011D01*
X175780500Y-105855500D01*
X175780500Y-105304499D01*
X175800185Y-105237460D01*
X175852989Y-105191705D01*
X175904500Y-105180499D01*
X178027871Y-105180499D01*
X178027872Y-105180499D01*
X178087483Y-105174091D01*
X178222331Y-105123796D01*
X178337546Y-105037546D01*
X178423796Y-104922331D01*
X178474091Y-104787483D01*
X178480500Y-104727873D01*
X178480499Y-103892128D01*
X178474091Y-103832517D01*
X178460143Y-103795121D01*
X178431503Y-103718332D01*
X178426519Y-103648640D01*
X178431499Y-103631676D01*
X178474091Y-103517483D01*
X178480500Y-103457873D01*
X178480499Y-102622128D01*
X178474091Y-102562517D01*
X178467056Y-102543656D01*
X178423797Y-102427671D01*
X178423793Y-102427664D01*
X178337547Y-102312455D01*
X178337544Y-102312452D01*
X178222335Y-102226206D01*
X178222328Y-102226202D01*
X178087482Y-102175908D01*
X178087483Y-102175908D01*
X178027883Y-102169501D01*
X178027881Y-102169500D01*
X178027873Y-102169500D01*
X178027865Y-102169500D01*
X175904500Y-102169500D01*
X175837461Y-102149815D01*
X175791706Y-102097011D01*
X175780500Y-102045500D01*
X175780500Y-99216405D01*
X175800185Y-99149366D01*
X175852989Y-99103611D01*
X175917754Y-99093116D01*
X175977127Y-99099500D01*
X176872872Y-99099499D01*
X176932483Y-99093091D01*
X177016668Y-99061691D01*
X177086356Y-99056708D01*
X177103329Y-99061691D01*
X177187517Y-99093091D01*
X177247127Y-99099500D01*
X178142872Y-99099499D01*
X178202483Y-99093091D01*
X178337331Y-99042796D01*
X178452546Y-98956546D01*
X178538796Y-98841331D01*
X178589091Y-98706483D01*
X178595500Y-98646873D01*
X178595499Y-97051128D01*
X178589091Y-96991517D01*
X178554318Y-96898287D01*
X178538797Y-96856671D01*
X178538793Y-96856664D01*
X178452547Y-96741455D01*
X178452544Y-96741452D01*
X178337335Y-96655206D01*
X178337328Y-96655202D01*
X178202482Y-96604908D01*
X178202483Y-96604908D01*
X178142883Y-96598501D01*
X178142881Y-96598500D01*
X178142873Y-96598500D01*
X178142865Y-96598500D01*
X177948281Y-96598500D01*
X177881242Y-96578815D01*
X177835487Y-96526011D01*
X177825543Y-96456853D01*
X177854568Y-96393297D01*
X177863468Y-96385010D01*
X177863275Y-96384817D01*
X177869542Y-96378548D01*
X177869546Y-96378546D01*
X177955796Y-96263331D01*
X178006091Y-96128483D01*
X178012500Y-96068873D01*
X178012499Y-94973128D01*
X178006091Y-94913517D01*
X177992106Y-94876022D01*
X177955797Y-94778671D01*
X177955793Y-94778664D01*
X177869547Y-94663455D01*
X177869544Y-94663452D01*
X177754335Y-94577206D01*
X177754328Y-94577202D01*
X177619486Y-94526910D01*
X177619485Y-94526909D01*
X177619483Y-94526909D01*
X177559873Y-94520500D01*
X177559863Y-94520500D01*
X176814129Y-94520500D01*
X176814123Y-94520501D01*
X176754516Y-94526908D01*
X176619671Y-94577202D01*
X176611886Y-94581454D01*
X176610153Y-94578280D01*
X176560698Y-94596659D01*
X176492443Y-94581725D01*
X176491497Y-94581117D01*
X176484328Y-94577202D01*
X176349486Y-94526910D01*
X176349485Y-94526909D01*
X176349483Y-94526909D01*
X176289873Y-94520500D01*
X176289863Y-94520500D01*
X175544129Y-94520500D01*
X175544123Y-94520501D01*
X175484516Y-94526908D01*
X175349671Y-94577202D01*
X175341886Y-94581454D01*
X175340153Y-94578280D01*
X175290698Y-94596659D01*
X175222443Y-94581725D01*
X175221497Y-94581117D01*
X175214328Y-94577202D01*
X175079486Y-94526910D01*
X175079485Y-94526909D01*
X175079483Y-94526909D01*
X175019873Y-94520500D01*
X175019863Y-94520500D01*
X174274129Y-94520500D01*
X174274123Y-94520501D01*
X174214516Y-94526908D01*
X174079671Y-94577202D01*
X174071886Y-94581454D01*
X174070153Y-94578280D01*
X174020698Y-94596659D01*
X173952443Y-94581725D01*
X173951497Y-94581117D01*
X173944328Y-94577202D01*
X173809486Y-94526910D01*
X173809485Y-94526909D01*
X173809483Y-94526909D01*
X173749873Y-94520500D01*
X173749863Y-94520500D01*
X173004129Y-94520500D01*
X173004123Y-94520501D01*
X172944516Y-94526908D01*
X172809671Y-94577202D01*
X172801890Y-94581452D01*
X172800154Y-94578274D01*
X172750742Y-94596656D01*
X172682481Y-94581747D01*
X172681528Y-94581134D01*
X172674329Y-94577202D01*
X172539486Y-94526910D01*
X172539485Y-94526909D01*
X172539483Y-94526909D01*
X172479873Y-94520500D01*
X172479863Y-94520500D01*
X171734129Y-94520500D01*
X171734123Y-94520501D01*
X171674516Y-94526908D01*
X171539671Y-94577202D01*
X171531886Y-94581454D01*
X171530153Y-94578280D01*
X171480698Y-94596659D01*
X171412443Y-94581725D01*
X171411497Y-94581117D01*
X171404328Y-94577202D01*
X171269486Y-94526910D01*
X171269485Y-94526909D01*
X171269483Y-94526909D01*
X171209873Y-94520500D01*
X171209863Y-94520500D01*
X170464129Y-94520500D01*
X170464123Y-94520501D01*
X170404516Y-94526908D01*
X170269671Y-94577202D01*
X170261886Y-94581454D01*
X170260153Y-94578280D01*
X170210698Y-94596659D01*
X170142443Y-94581725D01*
X170141497Y-94581117D01*
X170134328Y-94577202D01*
X169999486Y-94526910D01*
X169999485Y-94526909D01*
X169999483Y-94526909D01*
X169939873Y-94520500D01*
X169939863Y-94520500D01*
X169194129Y-94520500D01*
X169194123Y-94520501D01*
X169134516Y-94526908D01*
X168999671Y-94577202D01*
X168991890Y-94581452D01*
X168990154Y-94578274D01*
X168940742Y-94596656D01*
X168872481Y-94581747D01*
X168871528Y-94581134D01*
X168864329Y-94577202D01*
X168729486Y-94526910D01*
X168729485Y-94526909D01*
X168729483Y-94526909D01*
X168669873Y-94520500D01*
X168669863Y-94520500D01*
X167924129Y-94520500D01*
X167924123Y-94520501D01*
X167864516Y-94526908D01*
X167729671Y-94577202D01*
X167729664Y-94577206D01*
X167614455Y-94663452D01*
X167614452Y-94663455D01*
X167528206Y-94778664D01*
X167528202Y-94778671D01*
X167477908Y-94913517D01*
X167474732Y-94943062D01*
X167471501Y-94973123D01*
X167471500Y-94973135D01*
X167471500Y-96068870D01*
X167471501Y-96068876D01*
X167477908Y-96128483D01*
X167528202Y-96263328D01*
X167528206Y-96263335D01*
X167614452Y-96378544D01*
X167620725Y-96384817D01*
X167618711Y-96386830D01*
X167651903Y-96431174D01*
X167656883Y-96500866D01*
X167623394Y-96562187D01*
X167562068Y-96595668D01*
X167535718Y-96598500D01*
X167087129Y-96598500D01*
X167087123Y-96598501D01*
X167027516Y-96604908D01*
X166943332Y-96636307D01*
X166873641Y-96641291D01*
X166856667Y-96636307D01*
X166772482Y-96604908D01*
X166772483Y-96604908D01*
X166712883Y-96598501D01*
X166712881Y-96598500D01*
X166712873Y-96598500D01*
X166712864Y-96598500D01*
X165817129Y-96598500D01*
X165817123Y-96598501D01*
X165757516Y-96604908D01*
X165622671Y-96655202D01*
X165622664Y-96655206D01*
X165507455Y-96741452D01*
X165507452Y-96741455D01*
X165421206Y-96856664D01*
X165421202Y-96856671D01*
X165370908Y-96991517D01*
X165364501Y-97051116D01*
X165364501Y-97051123D01*
X165364500Y-97051135D01*
X165364500Y-98646870D01*
X165364501Y-98646876D01*
X165370908Y-98706483D01*
X165421202Y-98841328D01*
X165421206Y-98841335D01*
X165507452Y-98956544D01*
X165507455Y-98956547D01*
X165622664Y-99042793D01*
X165622671Y-99042797D01*
X165653483Y-99054289D01*
X165757517Y-99093091D01*
X165817127Y-99099500D01*
X166241860Y-99099499D01*
X166308898Y-99119183D01*
X166354653Y-99171987D01*
X166364597Y-99241146D01*
X166359790Y-99261816D01*
X166314328Y-99401736D01*
X166314326Y-99401741D01*
X166313795Y-99406792D01*
X166305497Y-99485754D01*
X166304161Y-99498462D01*
X166277576Y-99563076D01*
X166220279Y-99603061D01*
X166180840Y-99609500D01*
X163935504Y-99609500D01*
X163919493Y-99607732D01*
X163919471Y-99607974D01*
X163911704Y-99607240D01*
X163911703Y-99607240D01*
X163839796Y-99609500D01*
X163809075Y-99609500D01*
X163809071Y-99609500D01*
X163809061Y-99609501D01*
X163801793Y-99610419D01*
X163795976Y-99610876D01*
X163747435Y-99612402D01*
X163747424Y-99612404D01*
X163727048Y-99618323D01*
X163708008Y-99622266D01*
X163686947Y-99624927D01*
X163686939Y-99624929D01*
X163641775Y-99642811D01*
X163636247Y-99644703D01*
X163589602Y-99658255D01*
X163571332Y-99669060D01*
X163553863Y-99677618D01*
X163534128Y-99685432D01*
X163534126Y-99685433D01*
X163502585Y-99708348D01*
X163495975Y-99713152D01*
X163494839Y-99713977D01*
X163489956Y-99717184D01*
X163448132Y-99741919D01*
X163433126Y-99756926D01*
X163418336Y-99769558D01*
X163401167Y-99782032D01*
X163401165Y-99782034D01*
X163370194Y-99819470D01*
X163366262Y-99823791D01*
X162920483Y-100269569D01*
X162907910Y-100279643D01*
X162908065Y-100279830D01*
X162902059Y-100284798D01*
X162877502Y-100310949D01*
X162852809Y-100337244D01*
X162841949Y-100348104D01*
X162831088Y-100358965D01*
X162831078Y-100358977D01*
X162826587Y-100364765D01*
X162822801Y-100369197D01*
X162789552Y-100404606D01*
X162779322Y-100423213D01*
X162768646Y-100439464D01*
X162755640Y-100456232D01*
X162755636Y-100456238D01*
X162736348Y-100500811D01*
X162733777Y-100506058D01*
X162710372Y-100548630D01*
X162710372Y-100548631D01*
X162705091Y-100569199D01*
X162698791Y-100587601D01*
X162690364Y-100607073D01*
X162682766Y-100655047D01*
X162681581Y-100660769D01*
X162669500Y-100707822D01*
X162669499Y-100707829D01*
X162669499Y-100729047D01*
X162667973Y-100748436D01*
X162666023Y-100760753D01*
X162664653Y-100769405D01*
X154180500Y-100769405D01*
X154180500Y-99290445D01*
X154180840Y-99283960D01*
X154183377Y-99259814D01*
X154185460Y-99240000D01*
X154182549Y-99212309D01*
X154180840Y-99196037D01*
X154180500Y-99189553D01*
X154180500Y-91920445D01*
X154180840Y-91913960D01*
X154182254Y-91900500D01*
X154185460Y-91870000D01*
X154181046Y-91828001D01*
X154180840Y-91826037D01*
X154180500Y-91819553D01*
X154180500Y-85174360D01*
X154200185Y-85107321D01*
X154216814Y-85086684D01*
X155002819Y-84300680D01*
X155064142Y-84267195D01*
X155133834Y-84272179D01*
X155189767Y-84314051D01*
X155214184Y-84379515D01*
X155214500Y-84388361D01*
X155214500Y-84675696D01*
X155217401Y-84712567D01*
X155217402Y-84712573D01*
X155263254Y-84870393D01*
X155263255Y-84870396D01*
X155263256Y-84870398D01*
X155281078Y-84900533D01*
X155346917Y-85011862D01*
X155351702Y-85018031D01*
X155349256Y-85019927D01*
X155375857Y-85068642D01*
X155370873Y-85138334D01*
X155350069Y-85170703D01*
X155351702Y-85171969D01*
X155346917Y-85178137D01*
X155263255Y-85319603D01*
X155263254Y-85319606D01*
X155217402Y-85477426D01*
X155217401Y-85477432D01*
X155214500Y-85514304D01*
X155214500Y-85945696D01*
X155217401Y-85982567D01*
X155217402Y-85982573D01*
X155263254Y-86140393D01*
X155263255Y-86140396D01*
X155263256Y-86140398D01*
X155269230Y-86150499D01*
X155346917Y-86281862D01*
X155351702Y-86288031D01*
X155349256Y-86289927D01*
X155375857Y-86338642D01*
X155370873Y-86408334D01*
X155350069Y-86440703D01*
X155351702Y-86441969D01*
X155346917Y-86448137D01*
X155263255Y-86589603D01*
X155263254Y-86589606D01*
X155217402Y-86747426D01*
X155217401Y-86747432D01*
X155214500Y-86784304D01*
X155214500Y-87215696D01*
X155217401Y-87252567D01*
X155217402Y-87252573D01*
X155263254Y-87410393D01*
X155263255Y-87410396D01*
X155346917Y-87551862D01*
X155351702Y-87558031D01*
X155349256Y-87559927D01*
X155375857Y-87608642D01*
X155370873Y-87678334D01*
X155350069Y-87710703D01*
X155351702Y-87711969D01*
X155346917Y-87718137D01*
X155263255Y-87859603D01*
X155263254Y-87859606D01*
X155217402Y-88017426D01*
X155217401Y-88017432D01*
X155214500Y-88054304D01*
X155214500Y-88485696D01*
X155217401Y-88522567D01*
X155217402Y-88522573D01*
X155263254Y-88680393D01*
X155263255Y-88680396D01*
X155263256Y-88680398D01*
X155294622Y-88733436D01*
X155346917Y-88821862D01*
X155351702Y-88828031D01*
X155349256Y-88829927D01*
X155375857Y-88878642D01*
X155370873Y-88948334D01*
X155350069Y-88980703D01*
X155351702Y-88981969D01*
X155346917Y-88988137D01*
X155263255Y-89129603D01*
X155263254Y-89129606D01*
X155217402Y-89287426D01*
X155217401Y-89287432D01*
X155214500Y-89324304D01*
X155214500Y-89755696D01*
X155217401Y-89792567D01*
X155217402Y-89792573D01*
X155263254Y-89950393D01*
X155263255Y-89950396D01*
X155346917Y-90091862D01*
X155351702Y-90098031D01*
X155349256Y-90099927D01*
X155375857Y-90148642D01*
X155370873Y-90218334D01*
X155350069Y-90250703D01*
X155351702Y-90251969D01*
X155346917Y-90258137D01*
X155263255Y-90399603D01*
X155263254Y-90399606D01*
X155217402Y-90557426D01*
X155217401Y-90557432D01*
X155214500Y-90594304D01*
X155214500Y-91025696D01*
X155217401Y-91062567D01*
X155217402Y-91062573D01*
X155263254Y-91220393D01*
X155263255Y-91220396D01*
X155346917Y-91361862D01*
X155351702Y-91368031D01*
X155349256Y-91369927D01*
X155375857Y-91418642D01*
X155370873Y-91488334D01*
X155350069Y-91520703D01*
X155351702Y-91521969D01*
X155346917Y-91528137D01*
X155263255Y-91669603D01*
X155263254Y-91669606D01*
X155217402Y-91827426D01*
X155217401Y-91827432D01*
X155214500Y-91864304D01*
X155214500Y-92295696D01*
X155217401Y-92332567D01*
X155217402Y-92332573D01*
X155263254Y-92490393D01*
X155263255Y-92490396D01*
X155346917Y-92631862D01*
X155351702Y-92638031D01*
X155349256Y-92639927D01*
X155375857Y-92688642D01*
X155370873Y-92758334D01*
X155350069Y-92790703D01*
X155351702Y-92791969D01*
X155346917Y-92798137D01*
X155263255Y-92939603D01*
X155263254Y-92939606D01*
X155217402Y-93097426D01*
X155217401Y-93097432D01*
X155214500Y-93134304D01*
X155214500Y-93565696D01*
X155217401Y-93602567D01*
X155217402Y-93602573D01*
X155263254Y-93760393D01*
X155263255Y-93760396D01*
X155346917Y-93901862D01*
X155346923Y-93901870D01*
X155463129Y-94018076D01*
X155463133Y-94018079D01*
X155463135Y-94018081D01*
X155604602Y-94101744D01*
X155629085Y-94108857D01*
X155762426Y-94147597D01*
X155762429Y-94147597D01*
X155762431Y-94147598D01*
X155774722Y-94148565D01*
X155799304Y-94150500D01*
X155799306Y-94150500D01*
X157680696Y-94150500D01*
X157699131Y-94149049D01*
X157717569Y-94147598D01*
X157717571Y-94147597D01*
X157717573Y-94147597D01*
X157759191Y-94135505D01*
X157875398Y-94101744D01*
X158016865Y-94018081D01*
X158133081Y-93901865D01*
X158216744Y-93760398D01*
X158256334Y-93624129D01*
X158262597Y-93602573D01*
X158262598Y-93602567D01*
X158265500Y-93565696D01*
X158265500Y-93134304D01*
X158262598Y-93097432D01*
X158262597Y-93097426D01*
X158216745Y-92939606D01*
X158216744Y-92939603D01*
X158216744Y-92939602D01*
X158133081Y-92798135D01*
X158133078Y-92798132D01*
X158128298Y-92791969D01*
X158130742Y-92790072D01*
X158104142Y-92741357D01*
X158109126Y-92671665D01*
X158129944Y-92639307D01*
X158128298Y-92638031D01*
X158133075Y-92631870D01*
X158133081Y-92631865D01*
X158216744Y-92490398D01*
X158244188Y-92395933D01*
X158281795Y-92337048D01*
X158345267Y-92307841D01*
X158414454Y-92317587D01*
X158467388Y-92363191D01*
X158480969Y-92391521D01*
X158487104Y-92410033D01*
X158490185Y-92419331D01*
X158490187Y-92419336D01*
X158511736Y-92454272D01*
X158582288Y-92568656D01*
X158706344Y-92692712D01*
X158855666Y-92784814D01*
X159022203Y-92839999D01*
X159124991Y-92850500D01*
X160175008Y-92850499D01*
X160175016Y-92850498D01*
X160175019Y-92850498D01*
X160231302Y-92844748D01*
X160277797Y-92839999D01*
X160444334Y-92784814D01*
X160470036Y-92768960D01*
X160535132Y-92750500D01*
X160575354Y-92750500D01*
X160764646Y-92750500D01*
X160784868Y-92750500D01*
X160849963Y-92768960D01*
X160875666Y-92784814D01*
X161042203Y-92839999D01*
X161144991Y-92850500D01*
X162034426Y-92850499D01*
X162101465Y-92870183D01*
X162107266Y-92874149D01*
X162280192Y-92951142D01*
X162280197Y-92951144D01*
X162465354Y-92990500D01*
X162465355Y-92990500D01*
X162654644Y-92990500D01*
X162654646Y-92990500D01*
X162811113Y-92957242D01*
X162880228Y-92962351D01*
X162938508Y-92984088D01*
X162938511Y-92984088D01*
X162938517Y-92984091D01*
X162998127Y-92990500D01*
X164593872Y-92990499D01*
X164597212Y-92990139D01*
X164619728Y-92987720D01*
X164688487Y-93000125D01*
X164739625Y-93047735D01*
X164756273Y-93097755D01*
X164762909Y-93159483D01*
X164813202Y-93294328D01*
X164817454Y-93302114D01*
X164814280Y-93303846D01*
X164832659Y-93353302D01*
X164817725Y-93421557D01*
X164817117Y-93422502D01*
X164813202Y-93429671D01*
X164762908Y-93564516D01*
X164756697Y-93622292D01*
X164729959Y-93686843D01*
X164672566Y-93726691D01*
X164620155Y-93732325D01*
X164593873Y-93729500D01*
X164593865Y-93729500D01*
X162998129Y-93729500D01*
X162998123Y-93729501D01*
X162938516Y-93735908D01*
X162803671Y-93786202D01*
X162803664Y-93786206D01*
X162688456Y-93872452D01*
X162688455Y-93872453D01*
X162688454Y-93872454D01*
X162630953Y-93949264D01*
X162602203Y-93987670D01*
X162593439Y-94011168D01*
X162551566Y-94067100D01*
X162503040Y-94089121D01*
X162410196Y-94108856D01*
X162410192Y-94108857D01*
X162237270Y-94185848D01*
X162237265Y-94185851D01*
X162084129Y-94297111D01*
X161957466Y-94437785D01*
X161862821Y-94601715D01*
X161862818Y-94601722D01*
X161805325Y-94778669D01*
X161804326Y-94781744D01*
X161784540Y-94970000D01*
X161804326Y-95158256D01*
X161804327Y-95158259D01*
X161862818Y-95338277D01*
X161862821Y-95338284D01*
X161957467Y-95502216D01*
X162084129Y-95642887D01*
X162084129Y-95642888D01*
X162237265Y-95754148D01*
X162237270Y-95754151D01*
X162410197Y-95831144D01*
X162447283Y-95839026D01*
X162508762Y-95872218D01*
X162542539Y-95933380D01*
X162545500Y-95960316D01*
X162545500Y-96347870D01*
X162545501Y-96347876D01*
X162551908Y-96407483D01*
X162602202Y-96542328D01*
X162602206Y-96542335D01*
X162688452Y-96657544D01*
X162688455Y-96657547D01*
X162803664Y-96743793D01*
X162803671Y-96743797D01*
X162938517Y-96794091D01*
X162938516Y-96794091D01*
X162945444Y-96794835D01*
X162998127Y-96800500D01*
X164593872Y-96800499D01*
X164653483Y-96794091D01*
X164788331Y-96743796D01*
X164903546Y-96657546D01*
X164989796Y-96542331D01*
X165040091Y-96407483D01*
X165046500Y-96347873D01*
X165046499Y-95452128D01*
X165040091Y-95392517D01*
X165008691Y-95308331D01*
X165003708Y-95238642D01*
X165008689Y-95221673D01*
X165040091Y-95137483D01*
X165046500Y-95077873D01*
X165046499Y-94943060D01*
X165066183Y-94876022D01*
X165118987Y-94830267D01*
X165183754Y-94819772D01*
X165209127Y-94822500D01*
X166304872Y-94822499D01*
X166364483Y-94816091D01*
X166499331Y-94765796D01*
X166614546Y-94679546D01*
X166700796Y-94564331D01*
X166751091Y-94429483D01*
X166757500Y-94369873D01*
X166757499Y-93624128D01*
X166751091Y-93564517D01*
X166750513Y-93562968D01*
X166700797Y-93429671D01*
X166696546Y-93421886D01*
X166699724Y-93420150D01*
X166681344Y-93370741D01*
X166696253Y-93302480D01*
X166696866Y-93301526D01*
X166700793Y-93294335D01*
X166700792Y-93294335D01*
X166700796Y-93294331D01*
X166751091Y-93159483D01*
X166757500Y-93099873D01*
X166757499Y-92354128D01*
X166751091Y-92294517D01*
X166743122Y-92273151D01*
X166700797Y-92159670D01*
X166696547Y-92151888D01*
X166699741Y-92150143D01*
X166681352Y-92100870D01*
X166696190Y-92032594D01*
X166696806Y-92031637D01*
X166700797Y-92024329D01*
X166727333Y-91953181D01*
X166751091Y-91889483D01*
X166757500Y-91829873D01*
X166757499Y-91084128D01*
X166752299Y-91035757D01*
X166751091Y-91024516D01*
X166700797Y-90889670D01*
X166696547Y-90881888D01*
X166699741Y-90880143D01*
X166681352Y-90830870D01*
X166696190Y-90762594D01*
X166696806Y-90761637D01*
X166700797Y-90754329D01*
X166719198Y-90704992D01*
X166751091Y-90619483D01*
X166757500Y-90559873D01*
X166757499Y-89814128D01*
X166751091Y-89754517D01*
X166723781Y-89681294D01*
X166700797Y-89619670D01*
X166696547Y-89611888D01*
X166699757Y-89610134D01*
X166681361Y-89561001D01*
X166696127Y-89492709D01*
X166696752Y-89491736D01*
X166700797Y-89484329D01*
X166734379Y-89394289D01*
X166751091Y-89349483D01*
X166757500Y-89289873D01*
X166757499Y-88544128D01*
X166751091Y-88484517D01*
X166748664Y-88478011D01*
X166700797Y-88349671D01*
X166696546Y-88341886D01*
X166699724Y-88340150D01*
X166681344Y-88290741D01*
X166696253Y-88222480D01*
X166696866Y-88221526D01*
X166700793Y-88214335D01*
X166700792Y-88214335D01*
X166700796Y-88214331D01*
X166751091Y-88079483D01*
X166757500Y-88019873D01*
X166757499Y-87274128D01*
X166751091Y-87214517D01*
X166749636Y-87210617D01*
X166700797Y-87079671D01*
X166700793Y-87079664D01*
X166614547Y-86964455D01*
X166614544Y-86964452D01*
X166499334Y-86878205D01*
X166499332Y-86878204D01*
X166450352Y-86859935D01*
X166394419Y-86818063D01*
X166378395Y-86789401D01*
X166374190Y-86778781D01*
X166372297Y-86773251D01*
X166358743Y-86726599D01*
X166347941Y-86708335D01*
X166339379Y-86690858D01*
X166338351Y-86688262D01*
X166331568Y-86671129D01*
X166303014Y-86631828D01*
X166299810Y-86626950D01*
X166275082Y-86585137D01*
X166275080Y-86585134D01*
X166263126Y-86573180D01*
X166229642Y-86511861D01*
X166234624Y-86442169D01*
X166276494Y-86386234D01*
X166341957Y-86361815D01*
X166350807Y-86361499D01*
X166712871Y-86361499D01*
X166712872Y-86361499D01*
X166772483Y-86355091D01*
X166856668Y-86323691D01*
X166926356Y-86318708D01*
X166943329Y-86323691D01*
X167027517Y-86355091D01*
X167087127Y-86361500D01*
X167982872Y-86361499D01*
X168042483Y-86355091D01*
X168126668Y-86323691D01*
X168196356Y-86318708D01*
X168213329Y-86323691D01*
X168297517Y-86355091D01*
X168357127Y-86361500D01*
X169252872Y-86361499D01*
X169312483Y-86355091D01*
X169396668Y-86323691D01*
X169466356Y-86318708D01*
X169483329Y-86323691D01*
X169567517Y-86355091D01*
X169627127Y-86361500D01*
X170522872Y-86361499D01*
X170582483Y-86355091D01*
X170666668Y-86323691D01*
X170736356Y-86318708D01*
X170753329Y-86323691D01*
X170837517Y-86355091D01*
X170897127Y-86361500D01*
X171792872Y-86361499D01*
X171852483Y-86355091D01*
X171987331Y-86304796D01*
X172102546Y-86218546D01*
X172188796Y-86103331D01*
X172239091Y-85968483D01*
X172245500Y-85908873D01*
X172245499Y-84313128D01*
X172239091Y-84253517D01*
X172237484Y-84249209D01*
X172188797Y-84118671D01*
X172188793Y-84118664D01*
X172102547Y-84003455D01*
X172102544Y-84003452D01*
X171987335Y-83917206D01*
X171987328Y-83917202D01*
X171852482Y-83866908D01*
X171852483Y-83866908D01*
X171792883Y-83860501D01*
X171792881Y-83860500D01*
X171792873Y-83860500D01*
X171792864Y-83860500D01*
X170897129Y-83860500D01*
X170897123Y-83860501D01*
X170837516Y-83866908D01*
X170753332Y-83898307D01*
X170683641Y-83903291D01*
X170666667Y-83898307D01*
X170582482Y-83866908D01*
X170582483Y-83866908D01*
X170522883Y-83860501D01*
X170522881Y-83860500D01*
X170522873Y-83860500D01*
X170522864Y-83860500D01*
X169627129Y-83860500D01*
X169627123Y-83860501D01*
X169592753Y-83864196D01*
X169523994Y-83851789D01*
X169472857Y-83804178D01*
X169455500Y-83740906D01*
X169455500Y-83029499D01*
X169475185Y-82962460D01*
X169527989Y-82916705D01*
X169579500Y-82905499D01*
X169775002Y-82905499D01*
X169775008Y-82905499D01*
X169877797Y-82894999D01*
X170044334Y-82839814D01*
X170193656Y-82747712D01*
X170317712Y-82623656D01*
X170409814Y-82474334D01*
X170464999Y-82307797D01*
X170475500Y-82205009D01*
X170475500Y-82050001D01*
X171879500Y-82050001D01*
X171879501Y-82050019D01*
X171890000Y-82152796D01*
X171890001Y-82152799D01*
X171945185Y-82319331D01*
X171945187Y-82319336D01*
X171960819Y-82344680D01*
X172037288Y-82468656D01*
X172161344Y-82592712D01*
X172310666Y-82684814D01*
X172477203Y-82739999D01*
X172579991Y-82750500D01*
X173205008Y-82750499D01*
X173205016Y-82750498D01*
X173205019Y-82750498D01*
X173302892Y-82740500D01*
X173307797Y-82739999D01*
X173474334Y-82684814D01*
X173514039Y-82660323D01*
X173581426Y-82641884D01*
X173648090Y-82662805D01*
X173666814Y-82678182D01*
X173756344Y-82767712D01*
X173905666Y-82859814D01*
X174072203Y-82914999D01*
X174174991Y-82925500D01*
X175025008Y-82925499D01*
X175025016Y-82925498D01*
X175025019Y-82925498D01*
X175081302Y-82919748D01*
X175127797Y-82914999D01*
X175294334Y-82859814D01*
X175443656Y-82767712D01*
X175567712Y-82643656D01*
X175659814Y-82494334D01*
X175714999Y-82327797D01*
X175725500Y-82225009D01*
X175725499Y-80874992D01*
X175714999Y-80772203D01*
X175659814Y-80605666D01*
X175567712Y-80456344D01*
X175443656Y-80332288D01*
X175294334Y-80240186D01*
X175127797Y-80185001D01*
X175127795Y-80185000D01*
X175025010Y-80174500D01*
X174174998Y-80174500D01*
X174174980Y-80174501D01*
X174072203Y-80185000D01*
X174072200Y-80185001D01*
X173905668Y-80240185D01*
X173905663Y-80240187D01*
X173756342Y-80332289D01*
X173666813Y-80421817D01*
X173605490Y-80455301D01*
X173535798Y-80450316D01*
X173514038Y-80439675D01*
X173474338Y-80415188D01*
X173474335Y-80415186D01*
X173474334Y-80415186D01*
X173307797Y-80360001D01*
X173307795Y-80360000D01*
X173205010Y-80349500D01*
X172579998Y-80349500D01*
X172579980Y-80349501D01*
X172477203Y-80360000D01*
X172477200Y-80360001D01*
X172310668Y-80415185D01*
X172310663Y-80415187D01*
X172161342Y-80507289D01*
X172037289Y-80631342D01*
X171945187Y-80780663D01*
X171945185Y-80780668D01*
X171927836Y-80833024D01*
X171890001Y-80947203D01*
X171890001Y-80947204D01*
X171890000Y-80947204D01*
X171879500Y-81049983D01*
X171879500Y-82050001D01*
X170475500Y-82050001D01*
X170475499Y-80854992D01*
X170464999Y-80752203D01*
X170409814Y-80585666D01*
X170317712Y-80436344D01*
X170193656Y-80312288D01*
X170092672Y-80250001D01*
X170044336Y-80220187D01*
X170044331Y-80220185D01*
X170004155Y-80206872D01*
X169877797Y-80165001D01*
X169877795Y-80165000D01*
X169775010Y-80154500D01*
X168924998Y-80154500D01*
X168924980Y-80154501D01*
X168822203Y-80165000D01*
X168822200Y-80165001D01*
X168655668Y-80220185D01*
X168655663Y-80220187D01*
X168506342Y-80312289D01*
X168382289Y-80436342D01*
X168290187Y-80585663D01*
X168290185Y-80585668D01*
X168283558Y-80605668D01*
X168235001Y-80752203D01*
X168235001Y-80752204D01*
X168235000Y-80752204D01*
X168224500Y-80854983D01*
X168224500Y-81748810D01*
X168209163Y-81808546D01*
X168195372Y-81833631D01*
X168190091Y-81854199D01*
X168183791Y-81872601D01*
X168175364Y-81892073D01*
X168167766Y-81940047D01*
X168166581Y-81945770D01*
X168154500Y-81992818D01*
X168154500Y-82014044D01*
X168152973Y-82033444D01*
X168150348Y-82050019D01*
X168149653Y-82054405D01*
X168152833Y-82088039D01*
X168154225Y-82102767D01*
X168154500Y-82108606D01*
X168154500Y-83740906D01*
X168134815Y-83807945D01*
X168082011Y-83853700D01*
X168017247Y-83864195D01*
X167982873Y-83860500D01*
X167982865Y-83860500D01*
X167087129Y-83860500D01*
X167087123Y-83860501D01*
X167027516Y-83866908D01*
X166943332Y-83898307D01*
X166873641Y-83903291D01*
X166856667Y-83898307D01*
X166772482Y-83866908D01*
X166772483Y-83866908D01*
X166712883Y-83860501D01*
X166712881Y-83860500D01*
X166712873Y-83860500D01*
X166712865Y-83860500D01*
X165904600Y-83860500D01*
X165858953Y-83851793D01*
X165855373Y-83850375D01*
X165855368Y-83850373D01*
X165855362Y-83850371D01*
X165855361Y-83850371D01*
X165834800Y-83845091D01*
X165816399Y-83838791D01*
X165796927Y-83830365D01*
X165796921Y-83830363D01*
X165748951Y-83822766D01*
X165743236Y-83821582D01*
X165726772Y-83817355D01*
X165696180Y-83809500D01*
X165696177Y-83809500D01*
X165674955Y-83809500D01*
X165655555Y-83807973D01*
X165655378Y-83807945D01*
X165649011Y-83806936D01*
X165634596Y-83804653D01*
X165634595Y-83804653D01*
X165610786Y-83806903D01*
X165586230Y-83809225D01*
X165580392Y-83809500D01*
X160649500Y-83809500D01*
X160582461Y-83789815D01*
X160536706Y-83737011D01*
X160525500Y-83685500D01*
X160525499Y-83109998D01*
X160525498Y-83109980D01*
X160514999Y-83007203D01*
X160514998Y-83007200D01*
X160505367Y-82978135D01*
X160459814Y-82840666D01*
X160367712Y-82691344D01*
X160243656Y-82567288D01*
X160141638Y-82504363D01*
X160094336Y-82475187D01*
X160094331Y-82475185D01*
X160080036Y-82470448D01*
X159927797Y-82420001D01*
X159927795Y-82420000D01*
X159825010Y-82409500D01*
X158774998Y-82409500D01*
X158774980Y-82409501D01*
X158672203Y-82420000D01*
X158645311Y-82428912D01*
X158632352Y-82433206D01*
X158593349Y-82439500D01*
X157897328Y-82439500D01*
X157862733Y-82434576D01*
X157717573Y-82392402D01*
X157717567Y-82392401D01*
X157680696Y-82389500D01*
X157680694Y-82389500D01*
X157187718Y-82389500D01*
X157125720Y-82372887D01*
X157108284Y-82362821D01*
X157108280Y-82362819D01*
X157108279Y-82362819D01*
X157108277Y-82362818D01*
X156928259Y-82304327D01*
X156928256Y-82304326D01*
X156787192Y-82289500D01*
X156787188Y-82289500D01*
X154920627Y-82289500D01*
X154901228Y-82287973D01*
X154887389Y-82285781D01*
X154887388Y-82285781D01*
X154818046Y-82289415D01*
X154814803Y-82289500D01*
X154792808Y-82289500D01*
X154777403Y-82291118D01*
X154770933Y-82291798D01*
X154767702Y-82292052D01*
X154698356Y-82295687D01*
X154684809Y-82299317D01*
X154665686Y-82302860D01*
X154651745Y-82304325D01*
X154651743Y-82304325D01*
X154585702Y-82325784D01*
X154582590Y-82326705D01*
X154515517Y-82344677D01*
X154515503Y-82344683D01*
X154503022Y-82351043D01*
X154485049Y-82358488D01*
X154471715Y-82362820D01*
X154411592Y-82397533D01*
X154408740Y-82399082D01*
X154346853Y-82430616D01*
X154346837Y-82430626D01*
X154335948Y-82439444D01*
X154319923Y-82450458D01*
X154307785Y-82457466D01*
X154307781Y-82457469D01*
X154256172Y-82503936D01*
X154253710Y-82506039D01*
X154236627Y-82519875D01*
X154236610Y-82519890D01*
X154221065Y-82535435D01*
X154218713Y-82537666D01*
X154167114Y-82584126D01*
X154158869Y-82595474D01*
X154146236Y-82610263D01*
X152700263Y-84056236D01*
X152685474Y-84068869D01*
X152674126Y-84077114D01*
X152627666Y-84128713D01*
X152625435Y-84131065D01*
X152609890Y-84146610D01*
X152609875Y-84146627D01*
X152596039Y-84163710D01*
X152593936Y-84166172D01*
X152547469Y-84217781D01*
X152547466Y-84217785D01*
X152540458Y-84229923D01*
X152529444Y-84245948D01*
X152520626Y-84256837D01*
X152520616Y-84256853D01*
X152489082Y-84318740D01*
X152487533Y-84321592D01*
X152452821Y-84381713D01*
X152448487Y-84395053D01*
X152441045Y-84413018D01*
X152437105Y-84420753D01*
X152434680Y-84425512D01*
X152416706Y-84492584D01*
X152415785Y-84495692D01*
X152394326Y-84561742D01*
X152394325Y-84561745D01*
X152392860Y-84575686D01*
X152389315Y-84594812D01*
X152385686Y-84608352D01*
X152382052Y-84677704D01*
X152381798Y-84680939D01*
X152374540Y-84750001D01*
X152374540Y-84750002D01*
X152376005Y-84763945D01*
X152376514Y-84783389D01*
X152375780Y-84797387D01*
X152375780Y-84797388D01*
X152377973Y-84811231D01*
X152379499Y-84830626D01*
X152379500Y-91819553D01*
X152379160Y-91826037D01*
X152374540Y-91869999D01*
X152379160Y-91913960D01*
X152379500Y-91920445D01*
X152379500Y-99189553D01*
X152379160Y-99196037D01*
X152376287Y-99223377D01*
X152374540Y-99240000D01*
X152375713Y-99251169D01*
X152379160Y-99283960D01*
X152379500Y-99290445D01*
X152379500Y-101595639D01*
X152359815Y-101662678D01*
X152343181Y-101683320D01*
X151838320Y-102188181D01*
X151776997Y-102221666D01*
X151750639Y-102224500D01*
X151251991Y-102224500D01*
X151184952Y-102204815D01*
X151139197Y-102152011D01*
X151128702Y-102087244D01*
X151130500Y-102070524D01*
X151130499Y-100374779D01*
X151124091Y-100315168D01*
X151122517Y-100310949D01*
X151073797Y-100180322D01*
X151073793Y-100180315D01*
X150987547Y-100065106D01*
X150987544Y-100065103D01*
X150872335Y-99978857D01*
X150872328Y-99978853D01*
X150737482Y-99928559D01*
X150737483Y-99928559D01*
X150677883Y-99922152D01*
X150677881Y-99922151D01*
X150677873Y-99922151D01*
X150677865Y-99922151D01*
X149104881Y-99922151D01*
X149037842Y-99902466D01*
X149017200Y-99885832D01*
X148300729Y-99169361D01*
X148288949Y-99155730D01*
X148278139Y-99141210D01*
X148274612Y-99136472D01*
X148269453Y-99132143D01*
X148234587Y-99102886D01*
X148230612Y-99099244D01*
X148227690Y-99096322D01*
X148224780Y-99093411D01*
X148199040Y-99073059D01*
X148140209Y-99023694D01*
X148134180Y-99019729D01*
X148134212Y-99019680D01*
X148127853Y-99015628D01*
X148127822Y-99015679D01*
X148121680Y-99011891D01*
X148121678Y-99011890D01*
X148121677Y-99011889D01*
X148061150Y-98983664D01*
X148052058Y-98979424D01*
X148017894Y-98962267D01*
X147983433Y-98944960D01*
X147983431Y-98944959D01*
X147983430Y-98944959D01*
X147976645Y-98942489D01*
X147976665Y-98942433D01*
X147969549Y-98939959D01*
X147969531Y-98940015D01*
X147962671Y-98937742D01*
X147934502Y-98931926D01*
X147887434Y-98922207D01*
X147838472Y-98910603D01*
X147812719Y-98904499D01*
X147805547Y-98903661D01*
X147805553Y-98903601D01*
X147798055Y-98902835D01*
X147798050Y-98902895D01*
X147790860Y-98902265D01*
X147714083Y-98904500D01*
X144806291Y-98904500D01*
X144675745Y-98919759D01*
X144675743Y-98919759D01*
X144675739Y-98919760D01*
X144669516Y-98922025D01*
X144627119Y-98929500D01*
X144600596Y-98929501D01*
X144565847Y-98932234D01*
X144539065Y-98940015D01*
X144417113Y-98975445D01*
X144417111Y-98975445D01*
X144417111Y-98975446D01*
X144283805Y-99054282D01*
X144283796Y-99054289D01*
X144174289Y-99163796D01*
X144174282Y-99163805D01*
X144095446Y-99297111D01*
X144095445Y-99297113D01*
X144065049Y-99401736D01*
X144052234Y-99445847D01*
X144052234Y-99445849D01*
X144049500Y-99480593D01*
X144049501Y-99829405D01*
X144052234Y-99864152D01*
X144052234Y-99864155D01*
X144052235Y-99864156D01*
X144095445Y-100012887D01*
X144095446Y-100012888D01*
X144174282Y-100146194D01*
X144174289Y-100146203D01*
X144282758Y-100254672D01*
X144316243Y-100315995D01*
X144311259Y-100385687D01*
X144269387Y-100441620D01*
X144234082Y-100460059D01*
X144143166Y-100490186D01*
X144143163Y-100490187D01*
X143993842Y-100582289D01*
X143900181Y-100675951D01*
X143838858Y-100709436D01*
X143769166Y-100704452D01*
X143724819Y-100675951D01*
X143686819Y-100637951D01*
X143653334Y-100576628D01*
X143650500Y-100550270D01*
X143650500Y-99868705D01*
X143651809Y-99850735D01*
X143652508Y-99845965D01*
X143655289Y-99826977D01*
X143655010Y-99823791D01*
X143651876Y-99787964D01*
X143650735Y-99774931D01*
X143650500Y-99769528D01*
X143650500Y-99761297D01*
X143650500Y-99761291D01*
X143646693Y-99728724D01*
X143646192Y-99723002D01*
X143639999Y-99652201D01*
X143638539Y-99645129D01*
X143638597Y-99645116D01*
X143636965Y-99637757D01*
X143636906Y-99637772D01*
X143635241Y-99630751D01*
X143635241Y-99630745D01*
X143620929Y-99591423D01*
X143608974Y-99558575D01*
X143584813Y-99485663D01*
X143581764Y-99479124D01*
X143581817Y-99479099D01*
X143578531Y-99472311D01*
X143578479Y-99472338D01*
X143575239Y-99465887D01*
X143575237Y-99465885D01*
X143575237Y-99465883D01*
X143546719Y-99422524D01*
X143531244Y-99388982D01*
X143504555Y-99297113D01*
X143448137Y-99201716D01*
X143425717Y-99163805D01*
X143425710Y-99163796D01*
X143316203Y-99054289D01*
X143316194Y-99054282D01*
X143235111Y-99006330D01*
X143182887Y-98975445D01*
X143034156Y-98932235D01*
X143034153Y-98932234D01*
X143034151Y-98932234D01*
X142999407Y-98929500D01*
X142999405Y-98929500D01*
X142960419Y-98929500D01*
X142935344Y-98926938D01*
X142815858Y-98902266D01*
X142815856Y-98902266D01*
X142640488Y-98907369D01*
X142640484Y-98907369D01*
X142640483Y-98907370D01*
X142573658Y-98925275D01*
X142541569Y-98929500D01*
X142500596Y-98929501D01*
X142465847Y-98932234D01*
X142439065Y-98940015D01*
X142317113Y-98975445D01*
X142317111Y-98975445D01*
X142317111Y-98975446D01*
X142183805Y-99054282D01*
X142183796Y-99054289D01*
X142074289Y-99163796D01*
X142074282Y-99163805D01*
X141995446Y-99297111D01*
X141995445Y-99297113D01*
X141965049Y-99401736D01*
X141952234Y-99445847D01*
X141952234Y-99445849D01*
X141949500Y-99480593D01*
X141949501Y-99829405D01*
X141952234Y-99864152D01*
X141952234Y-99864155D01*
X141952235Y-99864156D01*
X141995445Y-100012887D01*
X141995446Y-100012888D01*
X142074282Y-100146194D01*
X142074289Y-100146203D01*
X142113180Y-100185093D01*
X142146666Y-100246416D01*
X142149500Y-100272775D01*
X142149500Y-100550269D01*
X142129815Y-100617308D01*
X142113182Y-100637950D01*
X142044787Y-100706345D01*
X141952687Y-100855663D01*
X141952685Y-100855666D01*
X141952686Y-100855666D01*
X141897501Y-101022203D01*
X141897501Y-101022204D01*
X141897500Y-101022204D01*
X141887000Y-101124983D01*
X141887000Y-102125001D01*
X141887001Y-102125019D01*
X141897500Y-102227796D01*
X141897501Y-102227799D01*
X141952685Y-102394331D01*
X141952687Y-102394336D01*
X141956339Y-102400257D01*
X142044788Y-102543656D01*
X142168844Y-102667712D01*
X142318166Y-102759814D01*
X142484703Y-102814999D01*
X142587491Y-102825500D01*
X143212508Y-102825499D01*
X143212516Y-102825498D01*
X143212519Y-102825498D01*
X143268802Y-102819748D01*
X143315297Y-102814999D01*
X143481834Y-102759814D01*
X143631156Y-102667712D01*
X143724822Y-102574045D01*
X143786141Y-102540563D01*
X143855833Y-102545547D01*
X143900177Y-102574045D01*
X143933289Y-102607157D01*
X143966772Y-102668479D01*
X143968389Y-102685887D01*
X143969081Y-102685827D01*
X143974264Y-102745064D01*
X143974500Y-102750470D01*
X143974500Y-102758709D01*
X143978306Y-102791274D01*
X143985000Y-102867791D01*
X143986461Y-102874867D01*
X143986403Y-102874878D01*
X143988034Y-102882237D01*
X143988092Y-102882224D01*
X143989757Y-102889250D01*
X143989759Y-102889255D01*
X143991424Y-102893830D01*
X143995854Y-102963557D01*
X143962582Y-103023917D01*
X142880263Y-104106236D01*
X142865474Y-104118869D01*
X142854126Y-104127114D01*
X142807666Y-104178713D01*
X142805435Y-104181065D01*
X142789890Y-104196610D01*
X142789875Y-104196627D01*
X142776039Y-104213710D01*
X142773936Y-104216172D01*
X142727469Y-104267781D01*
X142727466Y-104267785D01*
X142720458Y-104279923D01*
X142709444Y-104295948D01*
X142700622Y-104306842D01*
X142700611Y-104306859D01*
X142700142Y-104307781D01*
X142698931Y-104309447D01*
X142697080Y-104312298D01*
X142696930Y-104312200D01*
X142677346Y-104339153D01*
X140843320Y-106173181D01*
X140781997Y-106206666D01*
X140755639Y-106209500D01*
X140242135Y-106209500D01*
X140175096Y-106189815D01*
X140129341Y-106137011D01*
X140125266Y-106126637D01*
X140124815Y-106125670D01*
X140124814Y-106125666D01*
X140032712Y-105976344D01*
X139908656Y-105852288D01*
X139759334Y-105760186D01*
X139592797Y-105705001D01*
X139592795Y-105705000D01*
X139490010Y-105694500D01*
X138889998Y-105694500D01*
X138889980Y-105694501D01*
X138787203Y-105705000D01*
X138787200Y-105705001D01*
X138620668Y-105760185D01*
X138620663Y-105760187D01*
X138471342Y-105852289D01*
X138347289Y-105976342D01*
X138255187Y-106125663D01*
X138255185Y-106125668D01*
X138234971Y-106186670D01*
X138200001Y-106292203D01*
X138200001Y-106292204D01*
X138200000Y-106292204D01*
X138189500Y-106394983D01*
X138189500Y-106884703D01*
X138186790Y-106910484D01*
X138164500Y-107015350D01*
X138164500Y-107039191D01*
X138144815Y-107106230D01*
X138128181Y-107126872D01*
X137925484Y-107329568D01*
X137912910Y-107339643D01*
X137913065Y-107339830D01*
X137907059Y-107344798D01*
X137903893Y-107348170D01*
X137857809Y-107397244D01*
X137846949Y-107408104D01*
X137836088Y-107418965D01*
X137836078Y-107418977D01*
X137831587Y-107424765D01*
X137827801Y-107429197D01*
X137794552Y-107464606D01*
X137784322Y-107483213D01*
X137773646Y-107499464D01*
X137760640Y-107516232D01*
X137760636Y-107516238D01*
X137741348Y-107560811D01*
X137738777Y-107566058D01*
X137715372Y-107608630D01*
X137715372Y-107608631D01*
X137710091Y-107629199D01*
X137703791Y-107647601D01*
X137695364Y-107667073D01*
X137687766Y-107715047D01*
X137686581Y-107720770D01*
X137674500Y-107767818D01*
X137674500Y-107789044D01*
X137672973Y-107808443D01*
X137669653Y-107829405D01*
X137672593Y-107860500D01*
X137674225Y-107877767D01*
X137674500Y-107883606D01*
X137674500Y-108685934D01*
X137689929Y-108808057D01*
X137689929Y-108808060D01*
X137750431Y-108960869D01*
X137750436Y-108960878D01*
X137847034Y-109093835D01*
X137847037Y-109093837D01*
X137973674Y-109198600D01*
X138122387Y-109268579D01*
X138283830Y-109299376D01*
X138447860Y-109289056D01*
X138604171Y-109238268D01*
X138604171Y-109238267D01*
X138611591Y-109235857D01*
X138612067Y-109237324D01*
X138672301Y-109227954D01*
X138708865Y-109238687D01*
X138772387Y-109268579D01*
X138933830Y-109299376D01*
X139097860Y-109289056D01*
X139254171Y-109238268D01*
X139254171Y-109238267D01*
X139261591Y-109235857D01*
X139262067Y-109237324D01*
X139322301Y-109227954D01*
X139358865Y-109238687D01*
X139422387Y-109268579D01*
X139583830Y-109299376D01*
X139747860Y-109289056D01*
X139904171Y-109238268D01*
X140042940Y-109150202D01*
X140073446Y-109117715D01*
X140133687Y-109082321D01*
X140203501Y-109085113D01*
X140260722Y-109125206D01*
X140287184Y-109189871D01*
X140284497Y-109231193D01*
X140279499Y-109252281D01*
X140278661Y-109259454D01*
X140278601Y-109259447D01*
X140277835Y-109266945D01*
X140277895Y-109266951D01*
X140277265Y-109274140D01*
X140279500Y-109350916D01*
X140279500Y-112220500D01*
X140259815Y-112287539D01*
X140207011Y-112333294D01*
X140155500Y-112344500D01*
X139581291Y-112344500D01*
X139476854Y-112356707D01*
X139450743Y-112359759D01*
X139450740Y-112359760D01*
X139285884Y-112419762D01*
X139285882Y-112419763D01*
X139212657Y-112467923D01*
X139145829Y-112488315D01*
X139121285Y-112486126D01*
X139078595Y-112477983D01*
X139014588Y-112465773D01*
X139014585Y-112465773D01*
X138856862Y-112475696D01*
X138856859Y-112475696D01*
X138706554Y-112524534D01*
X138699501Y-112527854D01*
X138698331Y-112525368D01*
X138643792Y-112541027D01*
X138591742Y-112529227D01*
X138519830Y-112495387D01*
X138519826Y-112495386D01*
X138364588Y-112465773D01*
X138364584Y-112465773D01*
X138206862Y-112475696D01*
X138206859Y-112475696D01*
X138056554Y-112524534D01*
X138049501Y-112527854D01*
X138048331Y-112525368D01*
X137993792Y-112541027D01*
X137941742Y-112529227D01*
X137869830Y-112495387D01*
X137869826Y-112495386D01*
X137714588Y-112465773D01*
X137714584Y-112465773D01*
X137556862Y-112475696D01*
X137556859Y-112475696D01*
X137406558Y-112524533D01*
X137273123Y-112609214D01*
X137164937Y-112724419D01*
X137164934Y-112724422D01*
X137088804Y-112862904D01*
X137088801Y-112862912D01*
X137049500Y-113015978D01*
X137049500Y-113612238D01*
X137029815Y-113679277D01*
X136990598Y-113717776D01*
X136926956Y-113757031D01*
X136807032Y-113876955D01*
X136807029Y-113876959D01*
X136718001Y-114021294D01*
X136717996Y-114021305D01*
X136664651Y-114182290D01*
X136654500Y-114281647D01*
X136654500Y-114836061D01*
X136634815Y-114903100D01*
X136582011Y-114948855D01*
X136564334Y-114955356D01*
X136505153Y-114972140D01*
X136373772Y-115029951D01*
X136373641Y-115029653D01*
X136362028Y-115034582D01*
X136334504Y-115043703D01*
X136295498Y-115049998D01*
X135814505Y-115049998D01*
X135775502Y-115043704D01*
X135747976Y-115034583D01*
X135736354Y-115029648D01*
X135736223Y-115029948D01*
X135604846Y-114972141D01*
X135604843Y-114972140D01*
X135582403Y-114965776D01*
X135539748Y-114953679D01*
X135452421Y-114941535D01*
X135388731Y-114912804D01*
X135350686Y-114854201D01*
X135345500Y-114818717D01*
X135345500Y-111871021D01*
X135365185Y-111803982D01*
X135417989Y-111758227D01*
X135442466Y-111750004D01*
X135443017Y-111749880D01*
X135443029Y-111749879D01*
X135499287Y-111729623D01*
X135502988Y-111728422D01*
X135560398Y-111711744D01*
X135568114Y-111707180D01*
X135589230Y-111697243D01*
X135597668Y-111694206D01*
X135647107Y-111660606D01*
X135650376Y-111658530D01*
X135701865Y-111628081D01*
X135708206Y-111621739D01*
X135726193Y-111606860D01*
X135729166Y-111604839D01*
X135733602Y-111601825D01*
X135773160Y-111556953D01*
X135775783Y-111554161D01*
X136459513Y-110870431D01*
X136472079Y-110860365D01*
X136471925Y-110860178D01*
X136477937Y-110855204D01*
X136477937Y-110855203D01*
X136477940Y-110855202D01*
X136527190Y-110802755D01*
X136548911Y-110781035D01*
X136553401Y-110775245D01*
X136557183Y-110770815D01*
X136590448Y-110735393D01*
X136600674Y-110716790D01*
X136611353Y-110700533D01*
X136624362Y-110683764D01*
X136643656Y-110639175D01*
X136646212Y-110633956D01*
X136669627Y-110591368D01*
X136674905Y-110570806D01*
X136681207Y-110552399D01*
X136689635Y-110532927D01*
X136697233Y-110484953D01*
X136698414Y-110479247D01*
X136710500Y-110432177D01*
X136710500Y-110410949D01*
X136712027Y-110391549D01*
X136715346Y-110370595D01*
X136710775Y-110322238D01*
X136710500Y-110316400D01*
X136710500Y-105121929D01*
X136730185Y-105054890D01*
X136782989Y-105009135D01*
X136852147Y-104999191D01*
X136898646Y-105015810D01*
X137035394Y-105098478D01*
X137197804Y-105149086D01*
X137268384Y-105155500D01*
X137268387Y-105155500D01*
X137781613Y-105155500D01*
X137781616Y-105155500D01*
X137852196Y-105149086D01*
X138014606Y-105098478D01*
X138160185Y-105010472D01*
X138210158Y-104960499D01*
X138262319Y-104908339D01*
X138323642Y-104874854D01*
X138393334Y-104879838D01*
X138437681Y-104908339D01*
X138539811Y-105010469D01*
X138539813Y-105010470D01*
X138539815Y-105010472D01*
X138685394Y-105098478D01*
X138847804Y-105149086D01*
X138918384Y-105155500D01*
X138918387Y-105155500D01*
X139431613Y-105155500D01*
X139431616Y-105155500D01*
X139502196Y-105149086D01*
X139664606Y-105098478D01*
X139810185Y-105010472D01*
X139930472Y-104890185D01*
X140018478Y-104744606D01*
X140069086Y-104582196D01*
X140075500Y-104511616D01*
X140075500Y-103848384D01*
X140069086Y-103777804D01*
X140018478Y-103615394D01*
X139930472Y-103469815D01*
X139930470Y-103469813D01*
X139930469Y-103469811D01*
X139810188Y-103349530D01*
X139664606Y-103261522D01*
X139567759Y-103231344D01*
X139502196Y-103210914D01*
X139502194Y-103210913D01*
X139502192Y-103210913D01*
X139452778Y-103206423D01*
X139431616Y-103204500D01*
X139431613Y-103204500D01*
X139170808Y-103204500D01*
X139103769Y-103184815D01*
X139083127Y-103168181D01*
X138471819Y-102556873D01*
X138438334Y-102495550D01*
X138435500Y-102469192D01*
X138435500Y-102298386D01*
X138435093Y-102293903D01*
X138429086Y-102227804D01*
X138378478Y-102065394D01*
X138290472Y-101919815D01*
X138290470Y-101919813D01*
X138290469Y-101919811D01*
X138170188Y-101799530D01*
X138135989Y-101778856D01*
X138024606Y-101711522D01*
X137862196Y-101660914D01*
X137862194Y-101660913D01*
X137862192Y-101660913D01*
X137812778Y-101656423D01*
X137791616Y-101654500D01*
X137791613Y-101654500D01*
X137653267Y-101654500D01*
X137586228Y-101634815D01*
X137540473Y-101582011D01*
X137529649Y-101520771D01*
X137533000Y-101478196D01*
X137533000Y-100021804D01*
X137530098Y-99984932D01*
X137530097Y-99984926D01*
X137484245Y-99827106D01*
X137484244Y-99827102D01*
X137400581Y-99685635D01*
X137400579Y-99685633D01*
X137400576Y-99685629D01*
X137284370Y-99569423D01*
X137284362Y-99569417D01*
X137142896Y-99485755D01*
X137142893Y-99485754D01*
X136985073Y-99439902D01*
X136985067Y-99439901D01*
X136948196Y-99437000D01*
X136948194Y-99437000D01*
X136516806Y-99437000D01*
X136516804Y-99437000D01*
X136479932Y-99439901D01*
X136479926Y-99439902D01*
X136322106Y-99485754D01*
X136322103Y-99485755D01*
X136180637Y-99569417D01*
X136180629Y-99569423D01*
X136064423Y-99685629D01*
X136064417Y-99685637D01*
X135980755Y-99827103D01*
X135980754Y-99827106D01*
X135934902Y-99984926D01*
X135934901Y-99984932D01*
X135932000Y-100021804D01*
X135932000Y-101478196D01*
X135934901Y-101515067D01*
X135934902Y-101515073D01*
X135980754Y-101672893D01*
X135980755Y-101672896D01*
X135980756Y-101672898D01*
X136055646Y-101799530D01*
X136064732Y-101814894D01*
X136082000Y-101878015D01*
X136082000Y-101996994D01*
X136080232Y-102013005D01*
X136080474Y-102013028D01*
X136079739Y-102020794D01*
X136081653Y-102081668D01*
X136064084Y-102149293D01*
X136012743Y-102196684D01*
X135992310Y-102204639D01*
X135913607Y-102227504D01*
X135913606Y-102227505D01*
X135774315Y-102309881D01*
X135774307Y-102309887D01*
X135659887Y-102424307D01*
X135659881Y-102424315D01*
X135577505Y-102563606D01*
X135577503Y-102563609D01*
X135538641Y-102697375D01*
X135501035Y-102756261D01*
X135437562Y-102785467D01*
X135368375Y-102775721D01*
X135315441Y-102730117D01*
X135301275Y-102699975D01*
X135294118Y-102677214D01*
X135294113Y-102677202D01*
X135263886Y-102614216D01*
X135263879Y-102614205D01*
X135183809Y-102494683D01*
X135183804Y-102494676D01*
X135098788Y-102400258D01*
X135098787Y-102400257D01*
X135074619Y-102376770D01*
X135055647Y-102360645D01*
X135036674Y-102344519D01*
X134993411Y-102312452D01*
X134982594Y-102304434D01*
X134982595Y-102304434D01*
X134851718Y-102244663D01*
X134784681Y-102224978D01*
X134784675Y-102224976D01*
X134700515Y-102212876D01*
X134636959Y-102183851D01*
X134599185Y-102125073D01*
X134599185Y-102055203D01*
X134636959Y-101996425D01*
X134655032Y-101983412D01*
X134744365Y-101930581D01*
X134860581Y-101814365D01*
X134944244Y-101672898D01*
X134988414Y-101520867D01*
X134990097Y-101515073D01*
X134990098Y-101515067D01*
X134993000Y-101478196D01*
X134993000Y-100021804D01*
X134990098Y-99984932D01*
X134990097Y-99984926D01*
X134944245Y-99827106D01*
X134944244Y-99827102D01*
X134860581Y-99685635D01*
X134860579Y-99685633D01*
X134860576Y-99685629D01*
X134744370Y-99569423D01*
X134744362Y-99569417D01*
X134602896Y-99485755D01*
X134602893Y-99485754D01*
X134445073Y-99439902D01*
X134445067Y-99439901D01*
X134408196Y-99437000D01*
X134408194Y-99437000D01*
X133976806Y-99437000D01*
X133976804Y-99437000D01*
X133939932Y-99439901D01*
X133939926Y-99439902D01*
X133782106Y-99485754D01*
X133782103Y-99485755D01*
X133640637Y-99569417D01*
X133634469Y-99574202D01*
X133632572Y-99571756D01*
X133583858Y-99598357D01*
X133514166Y-99593373D01*
X133481796Y-99572569D01*
X133480531Y-99574202D01*
X133474362Y-99569417D01*
X133332896Y-99485755D01*
X133332893Y-99485754D01*
X133175073Y-99439902D01*
X133175067Y-99439901D01*
X133138196Y-99437000D01*
X133138194Y-99437000D01*
X132706806Y-99437000D01*
X132706804Y-99437000D01*
X132669932Y-99439901D01*
X132669926Y-99439902D01*
X132512106Y-99485754D01*
X132512103Y-99485755D01*
X132370637Y-99569417D01*
X132370629Y-99569423D01*
X132254423Y-99685629D01*
X132254417Y-99685637D01*
X132170755Y-99827103D01*
X132170754Y-99827104D01*
X132152203Y-99890959D01*
X132114596Y-99949844D01*
X132051124Y-99979050D01*
X131981937Y-99969304D01*
X131968031Y-99961902D01*
X131819340Y-99870189D01*
X131819335Y-99870187D01*
X131819334Y-99870186D01*
X131652797Y-99815001D01*
X131652795Y-99815000D01*
X131550010Y-99804500D01*
X130949998Y-99804500D01*
X130949980Y-99804501D01*
X130847203Y-99815000D01*
X130847200Y-99815001D01*
X130680668Y-99870185D01*
X130680666Y-99870185D01*
X130680666Y-99870186D01*
X130665981Y-99879243D01*
X130598590Y-99897681D01*
X130531927Y-99876757D01*
X130519686Y-99867415D01*
X130515925Y-99864156D01*
X130482199Y-99834932D01*
X130351324Y-99775161D01*
X130322137Y-99766591D01*
X130284283Y-99755476D01*
X130284278Y-99755475D01*
X130284279Y-99755475D01*
X130284284Y-99755476D01*
X130284281Y-99755475D01*
X130189993Y-99741919D01*
X130141863Y-99734999D01*
X130141861Y-99734999D01*
X128851407Y-99734999D01*
X128845098Y-99734677D01*
X128839657Y-99734121D01*
X128813262Y-99728470D01*
X128735191Y-99702599D01*
X128729782Y-99700522D01*
X128714996Y-99694035D01*
X128710574Y-99692095D01*
X128657093Y-99647137D01*
X128637978Y-99598302D01*
X128633104Y-99568104D01*
X128632644Y-99564606D01*
X128627821Y-99517400D01*
X128627500Y-99511095D01*
X128627500Y-97468894D01*
X128627821Y-97462590D01*
X128630121Y-97440075D01*
X128632637Y-97415447D01*
X128633106Y-97411889D01*
X128639045Y-97375078D01*
X128639046Y-97375073D01*
X128645499Y-97294562D01*
X128645499Y-96898286D01*
X128665184Y-96831248D01*
X128717988Y-96785493D01*
X128769257Y-96774287D01*
X132589499Y-96766926D01*
X132624333Y-96771849D01*
X132633544Y-96774526D01*
X132669931Y-96785098D01*
X132706804Y-96788000D01*
X132706806Y-96788000D01*
X133138196Y-96788000D01*
X133156631Y-96786549D01*
X133175069Y-96785098D01*
X133252029Y-96762738D01*
X133273165Y-96758549D01*
X133314172Y-96754081D01*
X133365444Y-96742875D01*
X133467503Y-96708851D01*
X133529304Y-96669132D01*
X133596341Y-96649448D01*
X133659462Y-96666715D01*
X133782102Y-96739244D01*
X133823724Y-96751336D01*
X133939926Y-96785097D01*
X133939929Y-96785097D01*
X133939931Y-96785098D01*
X133952222Y-96786065D01*
X133976804Y-96788000D01*
X133976806Y-96788000D01*
X134408196Y-96788000D01*
X134426631Y-96786549D01*
X134445069Y-96785098D01*
X134445071Y-96785097D01*
X134445073Y-96785097D01*
X134507734Y-96766892D01*
X134602898Y-96739244D01*
X134744365Y-96655581D01*
X134860581Y-96539365D01*
X134944244Y-96397898D01*
X134990098Y-96240069D01*
X134993000Y-96203196D01*
X135932000Y-96203196D01*
X135934901Y-96240067D01*
X135934902Y-96240073D01*
X135980754Y-96397893D01*
X135980755Y-96397896D01*
X136064417Y-96539362D01*
X136064423Y-96539370D01*
X136180629Y-96655576D01*
X136180633Y-96655579D01*
X136180635Y-96655581D01*
X136322102Y-96739244D01*
X136363724Y-96751336D01*
X136479926Y-96785097D01*
X136479929Y-96785097D01*
X136479931Y-96785098D01*
X136492222Y-96786065D01*
X136516804Y-96788000D01*
X136516806Y-96788000D01*
X136948196Y-96788000D01*
X136966631Y-96786549D01*
X136985069Y-96785098D01*
X136985071Y-96785097D01*
X136985073Y-96785097D01*
X137047734Y-96766892D01*
X137142898Y-96739244D01*
X137284365Y-96655581D01*
X137400581Y-96539365D01*
X137484244Y-96397898D01*
X137530098Y-96240069D01*
X137533000Y-96203194D01*
X137533000Y-95189012D01*
X137552685Y-95121973D01*
X137584114Y-95088695D01*
X137605871Y-95072888D01*
X137732533Y-94932216D01*
X137827179Y-94768284D01*
X137885674Y-94588256D01*
X137905460Y-94400000D01*
X137885674Y-94211744D01*
X137827179Y-94031716D01*
X137732533Y-93867784D01*
X137605871Y-93727112D01*
X137605292Y-93726691D01*
X137452734Y-93615851D01*
X137452729Y-93615848D01*
X137279807Y-93538857D01*
X137279802Y-93538855D01*
X137134001Y-93507865D01*
X137094646Y-93499500D01*
X136905354Y-93499500D01*
X136872897Y-93506398D01*
X136720197Y-93538855D01*
X136720192Y-93538857D01*
X136547270Y-93615848D01*
X136547265Y-93615851D01*
X136394129Y-93727111D01*
X136267466Y-93867785D01*
X136172821Y-94031715D01*
X136172818Y-94031722D01*
X136114326Y-94211743D01*
X136112975Y-94218100D01*
X136111741Y-94217837D01*
X136102265Y-94250159D01*
X136101924Y-94250838D01*
X136093129Y-94264646D01*
X136093179Y-94264677D01*
X136089389Y-94270821D01*
X136056924Y-94340441D01*
X136022460Y-94409066D01*
X136019988Y-94415857D01*
X136019932Y-94415836D01*
X136017460Y-94422950D01*
X136017515Y-94422969D01*
X136015242Y-94429827D01*
X136009372Y-94458259D01*
X135999707Y-94505065D01*
X135998116Y-94511778D01*
X135984200Y-94546276D01*
X135980757Y-94552098D01*
X135980755Y-94552103D01*
X135934902Y-94709926D01*
X135934901Y-94709932D01*
X135932000Y-94746804D01*
X135932000Y-96203196D01*
X134993000Y-96203196D01*
X134993000Y-96203194D01*
X134993000Y-94746806D01*
X134991705Y-94730351D01*
X135006069Y-94661974D01*
X135007937Y-94658621D01*
X135013021Y-94649815D01*
X135019679Y-94638284D01*
X135078174Y-94458256D01*
X135097960Y-94270000D01*
X135078174Y-94081744D01*
X135019679Y-93901716D01*
X134964134Y-93805510D01*
X134947994Y-93754319D01*
X134944598Y-93715500D01*
X134943235Y-93699934D01*
X134943000Y-93694532D01*
X134943000Y-93686297D01*
X134943000Y-93686296D01*
X134943000Y-93686291D01*
X134939191Y-93653707D01*
X134939041Y-93651998D01*
X134935879Y-93615848D01*
X134932498Y-93577202D01*
X134932496Y-93577197D01*
X134931038Y-93570133D01*
X134931097Y-93570120D01*
X134929467Y-93562764D01*
X134929408Y-93562779D01*
X134927742Y-93555753D01*
X134927741Y-93555745D01*
X134901473Y-93483573D01*
X134901472Y-93483572D01*
X134877315Y-93410666D01*
X134874263Y-93404121D01*
X134874317Y-93404095D01*
X134871033Y-93397312D01*
X134870980Y-93397340D01*
X134867738Y-93390885D01*
X134862633Y-93383123D01*
X134825529Y-93326709D01*
X134785211Y-93261344D01*
X134785210Y-93261343D01*
X134785209Y-93261341D01*
X134780733Y-93255681D01*
X134780780Y-93255643D01*
X134776019Y-93249799D01*
X134775974Y-93249838D01*
X134771329Y-93244302D01*
X134761902Y-93235408D01*
X134726650Y-93175084D01*
X134722999Y-93145217D01*
X134722999Y-93038337D01*
X138484500Y-93038337D01*
X138484501Y-93038355D01*
X138494650Y-93137707D01*
X138494651Y-93137710D01*
X138547996Y-93298694D01*
X138548001Y-93298705D01*
X138637029Y-93443040D01*
X138637032Y-93443044D01*
X138756955Y-93562967D01*
X138756959Y-93562970D01*
X138901294Y-93651998D01*
X138901297Y-93651999D01*
X138901303Y-93652003D01*
X139062292Y-93705349D01*
X139161655Y-93715500D01*
X139708344Y-93715499D01*
X139708352Y-93715498D01*
X139708355Y-93715498D01*
X139762760Y-93709940D01*
X139807708Y-93705349D01*
X139968697Y-93652003D01*
X140113044Y-93562968D01*
X140149193Y-93526818D01*
X140210516Y-93493334D01*
X140236874Y-93490500D01*
X141197770Y-93490500D01*
X141264809Y-93510185D01*
X141285451Y-93526819D01*
X141729435Y-93970803D01*
X141762920Y-94032126D01*
X141765282Y-94069290D01*
X141754723Y-94189997D01*
X141754723Y-94190002D01*
X141761256Y-94264677D01*
X141770459Y-94369873D01*
X141773793Y-94407975D01*
X141773793Y-94407979D01*
X141830422Y-94619322D01*
X141830424Y-94619326D01*
X141830425Y-94619330D01*
X141866341Y-94696352D01*
X141922897Y-94817638D01*
X141929654Y-94827288D01*
X142048402Y-94996877D01*
X142203123Y-95151598D01*
X142382361Y-95277102D01*
X142580670Y-95369575D01*
X142580676Y-95369576D01*
X142580677Y-95369577D01*
X142611364Y-95377799D01*
X142792023Y-95426207D01*
X142974926Y-95442208D01*
X143009998Y-95445277D01*
X143010000Y-95445277D01*
X143010002Y-95445277D01*
X143038254Y-95442805D01*
X143227977Y-95426207D01*
X143439330Y-95369575D01*
X143637639Y-95277102D01*
X143816877Y-95151598D01*
X143971598Y-94996877D01*
X144097102Y-94817639D01*
X144189575Y-94619330D01*
X144246207Y-94407977D01*
X144265277Y-94190000D01*
X144246207Y-93972023D01*
X144201590Y-93805511D01*
X144189577Y-93760677D01*
X144189576Y-93760676D01*
X144189575Y-93760670D01*
X144097102Y-93562362D01*
X144097100Y-93562359D01*
X144097099Y-93562357D01*
X143971597Y-93383121D01*
X143932602Y-93344126D01*
X143899117Y-93282803D01*
X143904101Y-93213111D01*
X143932598Y-93168769D01*
X144234551Y-92866816D01*
X144295872Y-92833334D01*
X144322230Y-92830500D01*
X146282672Y-92830500D01*
X146317267Y-92835424D01*
X146462426Y-92877597D01*
X146462429Y-92877597D01*
X146462431Y-92877598D01*
X146474722Y-92878565D01*
X146499304Y-92880500D01*
X146499306Y-92880500D01*
X148380696Y-92880500D01*
X148399131Y-92879049D01*
X148417569Y-92877598D01*
X148417571Y-92877597D01*
X148417573Y-92877597D01*
X148459191Y-92865505D01*
X148575398Y-92831744D01*
X148716865Y-92748081D01*
X148833081Y-92631865D01*
X148916744Y-92490398D01*
X148956334Y-92354129D01*
X148962597Y-92332573D01*
X148962598Y-92332567D01*
X148965500Y-92295696D01*
X148965500Y-91864304D01*
X148962643Y-91828001D01*
X148962598Y-91827431D01*
X148960309Y-91819553D01*
X148916745Y-91669606D01*
X148916744Y-91669603D01*
X148916744Y-91669602D01*
X148833081Y-91528135D01*
X148833078Y-91528132D01*
X148828298Y-91521969D01*
X148830750Y-91520066D01*
X148804155Y-91471421D01*
X148809104Y-91401726D01*
X148829940Y-91369304D01*
X148828298Y-91368031D01*
X148833075Y-91361870D01*
X148833081Y-91361865D01*
X148916744Y-91220398D01*
X148956334Y-91084129D01*
X148962597Y-91062573D01*
X148962598Y-91062567D01*
X148965500Y-91025696D01*
X148965500Y-90594304D01*
X148962598Y-90557432D01*
X148962597Y-90557426D01*
X148922275Y-90418641D01*
X148916744Y-90399602D01*
X148833081Y-90258135D01*
X148833078Y-90258132D01*
X148828298Y-90251969D01*
X148830750Y-90250066D01*
X148804155Y-90201421D01*
X148809104Y-90131726D01*
X148829940Y-90099304D01*
X148828298Y-90098031D01*
X148833075Y-90091870D01*
X148833081Y-90091865D01*
X148916744Y-89950398D01*
X148956334Y-89814129D01*
X148962597Y-89792573D01*
X148962598Y-89792567D01*
X148965500Y-89755696D01*
X148965500Y-89324304D01*
X148962598Y-89287432D01*
X148962597Y-89287426D01*
X148916745Y-89129606D01*
X148916744Y-89129603D01*
X148916744Y-89129602D01*
X148833081Y-88988135D01*
X148833078Y-88988132D01*
X148828298Y-88981969D01*
X148830750Y-88980066D01*
X148804155Y-88931421D01*
X148809104Y-88861726D01*
X148829940Y-88829304D01*
X148828298Y-88828031D01*
X148833075Y-88821870D01*
X148833081Y-88821865D01*
X148916744Y-88680398D01*
X148956334Y-88544129D01*
X148962597Y-88522573D01*
X148962598Y-88522567D01*
X148965500Y-88485696D01*
X148965500Y-88054304D01*
X148962598Y-88017432D01*
X148962597Y-88017426D01*
X148916745Y-87859606D01*
X148916744Y-87859603D01*
X148916744Y-87859602D01*
X148833081Y-87718135D01*
X148833078Y-87718132D01*
X148828298Y-87711969D01*
X148830750Y-87710066D01*
X148804155Y-87661421D01*
X148809104Y-87591726D01*
X148829940Y-87559304D01*
X148828298Y-87558031D01*
X148833075Y-87551870D01*
X148833081Y-87551865D01*
X148916744Y-87410398D01*
X148956334Y-87274129D01*
X148962597Y-87252573D01*
X148962598Y-87252567D01*
X148963787Y-87237467D01*
X148965500Y-87215694D01*
X148965500Y-86784306D01*
X148962598Y-86747431D01*
X148956546Y-86726601D01*
X148916745Y-86589606D01*
X148916744Y-86589603D01*
X148916744Y-86589602D01*
X148833081Y-86448135D01*
X148833078Y-86448132D01*
X148828298Y-86441969D01*
X148830750Y-86440066D01*
X148804155Y-86391421D01*
X148809104Y-86321726D01*
X148829940Y-86289304D01*
X148828298Y-86288031D01*
X148833075Y-86281870D01*
X148833081Y-86281865D01*
X148916744Y-86140398D01*
X148959450Y-85993405D01*
X148962597Y-85982573D01*
X148962598Y-85982567D01*
X148965500Y-85945696D01*
X148965500Y-85514304D01*
X148962598Y-85477432D01*
X148962597Y-85477426D01*
X148916745Y-85319606D01*
X148916744Y-85319603D01*
X148916744Y-85319602D01*
X148895279Y-85283307D01*
X148878097Y-85215585D01*
X148900257Y-85149323D01*
X148954723Y-85105559D01*
X148986472Y-85097166D01*
X149003058Y-85095071D01*
X149048235Y-85077183D01*
X149053735Y-85075300D01*
X149100398Y-85061744D01*
X149118665Y-85050939D01*
X149136136Y-85042380D01*
X149155871Y-85034568D01*
X149195177Y-85006010D01*
X149200043Y-85002813D01*
X149241865Y-84978081D01*
X149256870Y-84963075D01*
X149271668Y-84950436D01*
X149288837Y-84937963D01*
X149319809Y-84900522D01*
X149323723Y-84896221D01*
X149789513Y-84430431D01*
X149802079Y-84420365D01*
X149801925Y-84420178D01*
X149807937Y-84415204D01*
X149807937Y-84415203D01*
X149807940Y-84415202D01*
X149857190Y-84362755D01*
X149878911Y-84341035D01*
X149883401Y-84335245D01*
X149887183Y-84330815D01*
X149920448Y-84295393D01*
X149930674Y-84276790D01*
X149941353Y-84260533D01*
X149954362Y-84243764D01*
X149973656Y-84199175D01*
X149976212Y-84193956D01*
X149999627Y-84151368D01*
X150004905Y-84130806D01*
X150011210Y-84112394D01*
X150019635Y-84092927D01*
X150027235Y-84044940D01*
X150028415Y-84039243D01*
X150040500Y-83992177D01*
X150040500Y-83970950D01*
X150042027Y-83951550D01*
X150043793Y-83940398D01*
X150045346Y-83930596D01*
X150040775Y-83882239D01*
X150040500Y-83876401D01*
X150040500Y-81940001D01*
X163769500Y-81940001D01*
X163769501Y-81940019D01*
X163780000Y-82042796D01*
X163780001Y-82042799D01*
X163835185Y-82209331D01*
X163835187Y-82209336D01*
X163869205Y-82264488D01*
X163927288Y-82358656D01*
X164051344Y-82482712D01*
X164200666Y-82574814D01*
X164367203Y-82629999D01*
X164469991Y-82640500D01*
X165095008Y-82640499D01*
X165095016Y-82640498D01*
X165095019Y-82640498D01*
X165151302Y-82634748D01*
X165197797Y-82629999D01*
X165364334Y-82574814D01*
X165394858Y-82555986D01*
X165462248Y-82537545D01*
X165528912Y-82558466D01*
X165565493Y-82596427D01*
X165582288Y-82623656D01*
X165706344Y-82747712D01*
X165855666Y-82839814D01*
X166022203Y-82894999D01*
X166124991Y-82905500D01*
X166975008Y-82905499D01*
X166975016Y-82905498D01*
X166975019Y-82905498D01*
X167031302Y-82899748D01*
X167077797Y-82894999D01*
X167244334Y-82839814D01*
X167393656Y-82747712D01*
X167517712Y-82623656D01*
X167609814Y-82474334D01*
X167664999Y-82307797D01*
X167675500Y-82205009D01*
X167675499Y-80854992D01*
X167664999Y-80752203D01*
X167609814Y-80585666D01*
X167517712Y-80436344D01*
X167393656Y-80312288D01*
X167292672Y-80250001D01*
X167244336Y-80220187D01*
X167244331Y-80220185D01*
X167204155Y-80206872D01*
X167077797Y-80165001D01*
X167077795Y-80165000D01*
X166975010Y-80154500D01*
X166124998Y-80154500D01*
X166124980Y-80154501D01*
X166022203Y-80165000D01*
X166022200Y-80165001D01*
X165855668Y-80220185D01*
X165855663Y-80220187D01*
X165706345Y-80312287D01*
X165649590Y-80369042D01*
X165588266Y-80402526D01*
X165518575Y-80397541D01*
X165496813Y-80386899D01*
X165364340Y-80305189D01*
X165364335Y-80305187D01*
X165364334Y-80305186D01*
X165197797Y-80250001D01*
X165197795Y-80250000D01*
X165095010Y-80239500D01*
X164469998Y-80239500D01*
X164469980Y-80239501D01*
X164367203Y-80250000D01*
X164367200Y-80250001D01*
X164200668Y-80305185D01*
X164200663Y-80305187D01*
X164051342Y-80397289D01*
X163927289Y-80521342D01*
X163835187Y-80670663D01*
X163835185Y-80670668D01*
X163813064Y-80737426D01*
X163780001Y-80837203D01*
X163780001Y-80837204D01*
X163780000Y-80837204D01*
X163769500Y-80939983D01*
X163769500Y-81940001D01*
X150040500Y-81940001D01*
X150040500Y-81695501D01*
X150042268Y-81679488D01*
X150042026Y-81679466D01*
X150042758Y-81671710D01*
X150042760Y-81671703D01*
X150040500Y-81599795D01*
X150040500Y-81569075D01*
X150039579Y-81561788D01*
X150039122Y-81555979D01*
X150038932Y-81549927D01*
X150037597Y-81507430D01*
X150031676Y-81487052D01*
X150027731Y-81468003D01*
X150025071Y-81446942D01*
X150007186Y-81401772D01*
X150005297Y-81396252D01*
X150001144Y-81381958D01*
X149991744Y-81349601D01*
X149988900Y-81344793D01*
X149985340Y-81338773D01*
X149980939Y-81331332D01*
X149972379Y-81313858D01*
X149971351Y-81311262D01*
X149964568Y-81294129D01*
X149936014Y-81254828D01*
X149932810Y-81249950D01*
X149928447Y-81242573D01*
X149908081Y-81208135D01*
X149893074Y-81193128D01*
X149880435Y-81178330D01*
X149867961Y-81161160D01*
X149830528Y-81130194D01*
X149826206Y-81126260D01*
X149290434Y-80590488D01*
X149280361Y-80577914D01*
X149280174Y-80578070D01*
X149275201Y-80572059D01*
X149222756Y-80522810D01*
X149201035Y-80501089D01*
X149198948Y-80499470D01*
X149195235Y-80496589D01*
X149190798Y-80492799D01*
X149155396Y-80459554D01*
X149155388Y-80459548D01*
X149136792Y-80449325D01*
X149120531Y-80438644D01*
X149103763Y-80425637D01*
X149079609Y-80415185D01*
X149059178Y-80406343D01*
X149053956Y-80403786D01*
X149011368Y-80380373D01*
X149011365Y-80380372D01*
X148990801Y-80375092D01*
X148972396Y-80368790D01*
X148952927Y-80360365D01*
X148952921Y-80360363D01*
X148904951Y-80352766D01*
X148899236Y-80351582D01*
X148882772Y-80347355D01*
X148852180Y-80339500D01*
X148852177Y-80339500D01*
X148830955Y-80339500D01*
X148811555Y-80337973D01*
X148790596Y-80334653D01*
X148790595Y-80334653D01*
X148766786Y-80336903D01*
X148742230Y-80339225D01*
X148736392Y-80339500D01*
X143360516Y-80339500D01*
X143297395Y-80322232D01*
X143158661Y-80240186D01*
X143155398Y-80238256D01*
X143155397Y-80238255D01*
X143155396Y-80238255D01*
X143155393Y-80238254D01*
X142997573Y-80192402D01*
X142997567Y-80192401D01*
X142960696Y-80189500D01*
X142960694Y-80189500D01*
X141179306Y-80189500D01*
X141179304Y-80189500D01*
X141142432Y-80192401D01*
X141142426Y-80192402D01*
X140984606Y-80238254D01*
X140984603Y-80238255D01*
X140843137Y-80321917D01*
X140843129Y-80321923D01*
X140726923Y-80438129D01*
X140726917Y-80438137D01*
X140643255Y-80579603D01*
X140643254Y-80579606D01*
X140597402Y-80737426D01*
X140597401Y-80737432D01*
X140594500Y-80774304D01*
X140594500Y-81205696D01*
X140597401Y-81242567D01*
X140597402Y-81242573D01*
X140643254Y-81400393D01*
X140643255Y-81400396D01*
X140643256Y-81400398D01*
X140645043Y-81403419D01*
X140726917Y-81541862D01*
X140731702Y-81548031D01*
X140729256Y-81549927D01*
X140755857Y-81598642D01*
X140750873Y-81668334D01*
X140730069Y-81700703D01*
X140731702Y-81701969D01*
X140726917Y-81708137D01*
X140643255Y-81849603D01*
X140643254Y-81849606D01*
X140597402Y-82007426D01*
X140597401Y-82007432D01*
X140594500Y-82044304D01*
X140594500Y-82475696D01*
X140597401Y-82512567D01*
X140597402Y-82512573D01*
X140643254Y-82670393D01*
X140643255Y-82670396D01*
X140643256Y-82670398D01*
X140655880Y-82691744D01*
X140726917Y-82811862D01*
X140726923Y-82811870D01*
X140843129Y-82928076D01*
X140843133Y-82928079D01*
X140843135Y-82928081D01*
X140984602Y-83011744D01*
X140996804Y-83015289D01*
X141142426Y-83057597D01*
X141142429Y-83057597D01*
X141142431Y-83057598D01*
X141154722Y-83058565D01*
X141179304Y-83060500D01*
X141179306Y-83060500D01*
X142960696Y-83060500D01*
X142979131Y-83059049D01*
X142997569Y-83057598D01*
X142997571Y-83057597D01*
X142997573Y-83057597D01*
X143142733Y-83015424D01*
X143177328Y-83010500D01*
X143996295Y-83010500D01*
X144014265Y-83011809D01*
X144038023Y-83015289D01*
X144090068Y-83010735D01*
X144095470Y-83010500D01*
X144103704Y-83010500D01*
X144103709Y-83010500D01*
X144115327Y-83009141D01*
X144136276Y-83006693D01*
X144157960Y-83004796D01*
X144212797Y-82999999D01*
X144212805Y-82999996D01*
X144219866Y-82998539D01*
X144219878Y-82998598D01*
X144227243Y-82996965D01*
X144227229Y-82996906D01*
X144234246Y-82995241D01*
X144234255Y-82995241D01*
X144306423Y-82968974D01*
X144343182Y-82956792D01*
X144382187Y-82950499D01*
X144895002Y-82950499D01*
X144895008Y-82950499D01*
X144997797Y-82939999D01*
X145164334Y-82884814D01*
X145190036Y-82868960D01*
X145255132Y-82850500D01*
X145467970Y-82850500D01*
X145535009Y-82870185D01*
X145580764Y-82922989D01*
X145590708Y-82992147D01*
X145561683Y-83055703D01*
X145558363Y-83059383D01*
X145546272Y-83072258D01*
X145522809Y-83097244D01*
X145511949Y-83108104D01*
X145501088Y-83118965D01*
X145501078Y-83118977D01*
X145496587Y-83124765D01*
X145492801Y-83129197D01*
X145459552Y-83164606D01*
X145449322Y-83183213D01*
X145438646Y-83199464D01*
X145425640Y-83216232D01*
X145425636Y-83216238D01*
X145406348Y-83260811D01*
X145403777Y-83266058D01*
X145380372Y-83308630D01*
X145380372Y-83308631D01*
X145375091Y-83329199D01*
X145368791Y-83347601D01*
X145360364Y-83367073D01*
X145352766Y-83415047D01*
X145351581Y-83420770D01*
X145339500Y-83467818D01*
X145339500Y-83489044D01*
X145337973Y-83508444D01*
X145334653Y-83529403D01*
X145339225Y-83577767D01*
X145339500Y-83583606D01*
X145339500Y-84269192D01*
X145319815Y-84336231D01*
X145303181Y-84356873D01*
X145236873Y-84423181D01*
X145175550Y-84456666D01*
X145149192Y-84459500D01*
X143608444Y-84459500D01*
X143541405Y-84439815D01*
X143502697Y-84395144D01*
X143500715Y-84396317D01*
X143490778Y-84379515D01*
X143413081Y-84248135D01*
X143413079Y-84248133D01*
X143413076Y-84248129D01*
X143296870Y-84131923D01*
X143296862Y-84131917D01*
X143190253Y-84068869D01*
X143155398Y-84048256D01*
X143155397Y-84048255D01*
X143155396Y-84048255D01*
X143155393Y-84048254D01*
X142997573Y-84002402D01*
X142997567Y-84002401D01*
X142960696Y-83999500D01*
X142960694Y-83999500D01*
X141179306Y-83999500D01*
X141179304Y-83999500D01*
X141142432Y-84002401D01*
X141142426Y-84002402D01*
X140984606Y-84048254D01*
X140984603Y-84048255D01*
X140843137Y-84131917D01*
X140843129Y-84131923D01*
X140726923Y-84248129D01*
X140726917Y-84248137D01*
X140643255Y-84389603D01*
X140643254Y-84389606D01*
X140597402Y-84547426D01*
X140597401Y-84547432D01*
X140594500Y-84584304D01*
X140594500Y-85015696D01*
X140597401Y-85052567D01*
X140597402Y-85052573D01*
X140643254Y-85210393D01*
X140643255Y-85210396D01*
X140726917Y-85351862D01*
X140726923Y-85351870D01*
X140843129Y-85468076D01*
X140843133Y-85468079D01*
X140843135Y-85468081D01*
X140984602Y-85551744D01*
X141026224Y-85563836D01*
X141142426Y-85597597D01*
X141142429Y-85597597D01*
X141142431Y-85597598D01*
X141154722Y-85598565D01*
X141179304Y-85600500D01*
X141179306Y-85600500D01*
X141902972Y-85600500D01*
X141970011Y-85620185D01*
X141987853Y-85634105D01*
X141994607Y-85640448D01*
X141994609Y-85640449D01*
X142013205Y-85650672D01*
X142029470Y-85661357D01*
X142046232Y-85674360D01*
X142046235Y-85674361D01*
X142046236Y-85674362D01*
X142090823Y-85693656D01*
X142096059Y-85696221D01*
X142138632Y-85719627D01*
X142154340Y-85723659D01*
X142159186Y-85724904D01*
X142177598Y-85731207D01*
X142197073Y-85739635D01*
X142245071Y-85747237D01*
X142250740Y-85748411D01*
X142297823Y-85760500D01*
X142319051Y-85760500D01*
X142338448Y-85762026D01*
X142359403Y-85765345D01*
X142359404Y-85765346D01*
X142359404Y-85765345D01*
X142359405Y-85765346D01*
X142407760Y-85760775D01*
X142413599Y-85760500D01*
X145384495Y-85760500D01*
X145400505Y-85762267D01*
X145400528Y-85762026D01*
X145408289Y-85762758D01*
X145408296Y-85762760D01*
X145480203Y-85760500D01*
X145510925Y-85760500D01*
X145518190Y-85759581D01*
X145524016Y-85759122D01*
X145572569Y-85757597D01*
X145592956Y-85751673D01*
X145611996Y-85747731D01*
X145633058Y-85745071D01*
X145678235Y-85727183D01*
X145683735Y-85725300D01*
X145730398Y-85711744D01*
X145730406Y-85711739D01*
X145737561Y-85708644D01*
X145738460Y-85710722D01*
X145795079Y-85696346D01*
X145861346Y-85718492D01*
X145905120Y-85772950D01*
X145914500Y-85820261D01*
X145914500Y-85945696D01*
X145917401Y-85982567D01*
X145917402Y-85982573D01*
X145963254Y-86140393D01*
X145963255Y-86140396D01*
X145963256Y-86140398D01*
X145969230Y-86150499D01*
X146046917Y-86281862D01*
X146051702Y-86288031D01*
X146049256Y-86289927D01*
X146075857Y-86338642D01*
X146070873Y-86408334D01*
X146050069Y-86440703D01*
X146051702Y-86441969D01*
X146046917Y-86448137D01*
X145963255Y-86589603D01*
X145963254Y-86589606D01*
X145917402Y-86747426D01*
X145917401Y-86747432D01*
X145914500Y-86784304D01*
X145914500Y-87215696D01*
X145917401Y-87252567D01*
X145917402Y-87252573D01*
X145963254Y-87410393D01*
X145963255Y-87410396D01*
X146046917Y-87551862D01*
X146051702Y-87558031D01*
X146049248Y-87559933D01*
X146075844Y-87608578D01*
X146070895Y-87678273D01*
X146050074Y-87710706D01*
X146051702Y-87711969D01*
X146046917Y-87718137D01*
X145963255Y-87859603D01*
X145963254Y-87859606D01*
X145917402Y-88017426D01*
X145917401Y-88017432D01*
X145914500Y-88054304D01*
X145914500Y-88485696D01*
X145917401Y-88522567D01*
X145917402Y-88522573D01*
X145963254Y-88680393D01*
X145963255Y-88680396D01*
X145963256Y-88680398D01*
X145994622Y-88733436D01*
X146046917Y-88821862D01*
X146051702Y-88828031D01*
X146049256Y-88829927D01*
X146075857Y-88878642D01*
X146070873Y-88948334D01*
X146050069Y-88980703D01*
X146051702Y-88981969D01*
X146046917Y-88988137D01*
X145963255Y-89129603D01*
X145963254Y-89129606D01*
X145917402Y-89287426D01*
X145917401Y-89287432D01*
X145914500Y-89324304D01*
X145914500Y-89755696D01*
X145917401Y-89792567D01*
X145917402Y-89792573D01*
X145948876Y-89900905D01*
X145948677Y-89970775D01*
X145910735Y-90029445D01*
X145847096Y-90058288D01*
X145829800Y-90059500D01*
X144872230Y-90059500D01*
X144805191Y-90039815D01*
X144784549Y-90023181D01*
X144290563Y-89529195D01*
X144257078Y-89467872D01*
X144254716Y-89430710D01*
X144265277Y-89310000D01*
X144263515Y-89289864D01*
X144258034Y-89227208D01*
X144246207Y-89092023D01*
X144196180Y-88905320D01*
X144189577Y-88880677D01*
X144189576Y-88880676D01*
X144189575Y-88880670D01*
X144097102Y-88682362D01*
X144097100Y-88682359D01*
X144097099Y-88682357D01*
X143971599Y-88503124D01*
X143902682Y-88434207D01*
X143816877Y-88348402D01*
X143637639Y-88222898D01*
X143637640Y-88222898D01*
X143637638Y-88222897D01*
X143538484Y-88176661D01*
X143439330Y-88130425D01*
X143439326Y-88130424D01*
X143439322Y-88130422D01*
X143227977Y-88073793D01*
X143010002Y-88054723D01*
X143009998Y-88054723D01*
X142864681Y-88067436D01*
X142792023Y-88073793D01*
X142792020Y-88073793D01*
X142580677Y-88130422D01*
X142580668Y-88130426D01*
X142382361Y-88222898D01*
X142382357Y-88222900D01*
X142203121Y-88348402D01*
X142048402Y-88503121D01*
X141922900Y-88682357D01*
X141922898Y-88682361D01*
X141830426Y-88880668D01*
X141830422Y-88880677D01*
X141773793Y-89092020D01*
X141773793Y-89092023D01*
X141769612Y-89139815D01*
X141754723Y-89309997D01*
X141754723Y-89310001D01*
X141758633Y-89354693D01*
X141744866Y-89423193D01*
X141696251Y-89473376D01*
X141635105Y-89489500D01*
X140256874Y-89489500D01*
X140189835Y-89469815D01*
X140169193Y-89453181D01*
X140133044Y-89417032D01*
X140133040Y-89417029D01*
X139988705Y-89328001D01*
X139988699Y-89327998D01*
X139988697Y-89327997D01*
X139950811Y-89315443D01*
X139827709Y-89274651D01*
X139728346Y-89264500D01*
X139181662Y-89264500D01*
X139181644Y-89264501D01*
X139082292Y-89274650D01*
X139082289Y-89274651D01*
X138921305Y-89327996D01*
X138921294Y-89328001D01*
X138776959Y-89417029D01*
X138776955Y-89417032D01*
X138657032Y-89536955D01*
X138657029Y-89536959D01*
X138568001Y-89681294D01*
X138567996Y-89681305D01*
X138514651Y-89842290D01*
X138504500Y-89941647D01*
X138504500Y-90538337D01*
X138504501Y-90538355D01*
X138514650Y-90637707D01*
X138514651Y-90637710D01*
X138567996Y-90798694D01*
X138568001Y-90798705D01*
X138657029Y-90943040D01*
X138657032Y-90943044D01*
X138776955Y-91062967D01*
X138776959Y-91062970D01*
X138921294Y-91151998D01*
X138921297Y-91151999D01*
X138921303Y-91152003D01*
X139082292Y-91205349D01*
X139181655Y-91215500D01*
X139728344Y-91215499D01*
X139728352Y-91215498D01*
X139728355Y-91215498D01*
X139789558Y-91209246D01*
X139827708Y-91205349D01*
X139988697Y-91152003D01*
X140133044Y-91062968D01*
X140169193Y-91026818D01*
X140230516Y-90993334D01*
X140256874Y-90990500D01*
X142016295Y-90990500D01*
X142034265Y-90991809D01*
X142058023Y-90995289D01*
X142110068Y-90990735D01*
X142115470Y-90990500D01*
X142123704Y-90990500D01*
X142123709Y-90990500D01*
X142135327Y-90989141D01*
X142156276Y-90986693D01*
X142169028Y-90985577D01*
X142232797Y-90979999D01*
X142232805Y-90979996D01*
X142239866Y-90978539D01*
X142239878Y-90978598D01*
X142247243Y-90976965D01*
X142247229Y-90976906D01*
X142254246Y-90975241D01*
X142254255Y-90975241D01*
X142326423Y-90948974D01*
X142399334Y-90924814D01*
X142399343Y-90924807D01*
X142405882Y-90921760D01*
X142405908Y-90921816D01*
X142412690Y-90918532D01*
X142412663Y-90918478D01*
X142419106Y-90915240D01*
X142419117Y-90915237D01*
X142483283Y-90873034D01*
X142548656Y-90832712D01*
X142548662Y-90832705D01*
X142554325Y-90828229D01*
X142554362Y-90828277D01*
X142560204Y-90823518D01*
X142560164Y-90823471D01*
X142565686Y-90818836D01*
X142565696Y-90818830D01*
X142587399Y-90795825D01*
X142618387Y-90762981D01*
X142694338Y-90687029D01*
X142790806Y-90590560D01*
X142852125Y-90557078D01*
X142889288Y-90554716D01*
X142991665Y-90563672D01*
X143009999Y-90565277D01*
X143010000Y-90565277D01*
X143010001Y-90565277D01*
X143025266Y-90563941D01*
X143130708Y-90554716D01*
X143199206Y-90568482D01*
X143229195Y-90590563D01*
X143563446Y-90924814D01*
X143793018Y-91154385D01*
X143826503Y-91215708D01*
X143821519Y-91285399D01*
X143779648Y-91341333D01*
X143747745Y-91358589D01*
X143713576Y-91371025D01*
X143640675Y-91395182D01*
X143634126Y-91398236D01*
X143634101Y-91398183D01*
X143627308Y-91401471D01*
X143627334Y-91401523D01*
X143620880Y-91404764D01*
X143556708Y-91446971D01*
X143491347Y-91487285D01*
X143485683Y-91491765D01*
X143485647Y-91491719D01*
X143479798Y-91496484D01*
X143479835Y-91496528D01*
X143474310Y-91501164D01*
X143474304Y-91501169D01*
X143474304Y-91501170D01*
X143440430Y-91537074D01*
X143421598Y-91557034D01*
X142524358Y-92454272D01*
X142510727Y-92466052D01*
X142503071Y-92471752D01*
X142437543Y-92495998D01*
X142369309Y-92480967D01*
X142341340Y-92459972D01*
X142135729Y-92254361D01*
X142123949Y-92240730D01*
X142116482Y-92230701D01*
X142109612Y-92221472D01*
X142109610Y-92221470D01*
X142069587Y-92187886D01*
X142065612Y-92184244D01*
X142062662Y-92181294D01*
X142059780Y-92178411D01*
X142034040Y-92158059D01*
X142024445Y-92150008D01*
X141975214Y-92108698D01*
X141975213Y-92108697D01*
X141975209Y-92108694D01*
X141969180Y-92104729D01*
X141969212Y-92104680D01*
X141962853Y-92100628D01*
X141962822Y-92100679D01*
X141956680Y-92096891D01*
X141956678Y-92096890D01*
X141956677Y-92096889D01*
X141917474Y-92078608D01*
X141887058Y-92064424D01*
X141852894Y-92047267D01*
X141818433Y-92029960D01*
X141818431Y-92029959D01*
X141818430Y-92029959D01*
X141811645Y-92027489D01*
X141811665Y-92027433D01*
X141804549Y-92024959D01*
X141804531Y-92025015D01*
X141797671Y-92022742D01*
X141769841Y-92016996D01*
X141722434Y-92007207D01*
X141673472Y-91995603D01*
X141647719Y-91989499D01*
X141640547Y-91988661D01*
X141640553Y-91988601D01*
X141633055Y-91987835D01*
X141633050Y-91987895D01*
X141625860Y-91987265D01*
X141549083Y-91989500D01*
X140236874Y-91989500D01*
X140169835Y-91969815D01*
X140149193Y-91953181D01*
X140113044Y-91917032D01*
X140113040Y-91917029D01*
X139968705Y-91828001D01*
X139968699Y-91827998D01*
X139968697Y-91827997D01*
X139962782Y-91826037D01*
X139807709Y-91774651D01*
X139708346Y-91764500D01*
X139161662Y-91764500D01*
X139161644Y-91764501D01*
X139062292Y-91774650D01*
X139062289Y-91774651D01*
X138901305Y-91827996D01*
X138901294Y-91828001D01*
X138756959Y-91917029D01*
X138756955Y-91917032D01*
X138637032Y-92036955D01*
X138637029Y-92036959D01*
X138548001Y-92181294D01*
X138547996Y-92181305D01*
X138494651Y-92342290D01*
X138484500Y-92441647D01*
X138484500Y-93038337D01*
X134722999Y-93038337D01*
X134722999Y-92734998D01*
X134722998Y-92734981D01*
X134712499Y-92632203D01*
X134712498Y-92632200D01*
X134691442Y-92568657D01*
X134657314Y-92465666D01*
X134648149Y-92450807D01*
X134641460Y-92439961D01*
X134623000Y-92374867D01*
X134623000Y-92115132D01*
X134641460Y-92050036D01*
X134657314Y-92024334D01*
X134712499Y-91857797D01*
X134723000Y-91755009D01*
X134722999Y-90704992D01*
X134721164Y-90687032D01*
X134712499Y-90602203D01*
X134712498Y-90602200D01*
X134709882Y-90594306D01*
X134657314Y-90435666D01*
X134646813Y-90418641D01*
X134641460Y-90409961D01*
X134623000Y-90344867D01*
X134623000Y-88883126D01*
X134624527Y-88863725D01*
X134625038Y-88860500D01*
X134626719Y-88849888D01*
X134623084Y-88780540D01*
X134623000Y-88777297D01*
X134623000Y-88755309D01*
X134622999Y-88755300D01*
X134620701Y-88733436D01*
X134620447Y-88730220D01*
X134616813Y-88660855D01*
X134613185Y-88647314D01*
X134609639Y-88628188D01*
X134608174Y-88614244D01*
X134586709Y-88548182D01*
X134585796Y-88545101D01*
X134567820Y-88478012D01*
X134561456Y-88465522D01*
X134554011Y-88447550D01*
X134549679Y-88434216D01*
X134514953Y-88374069D01*
X134513403Y-88371214D01*
X134481883Y-88309351D01*
X134473057Y-88298452D01*
X134462040Y-88282420D01*
X134459565Y-88278133D01*
X134455033Y-88270284D01*
X134412368Y-88222900D01*
X134408558Y-88218668D01*
X134406464Y-88216216D01*
X134392620Y-88199120D01*
X134377068Y-88183568D01*
X134374848Y-88181230D01*
X134329103Y-88130425D01*
X134328374Y-88129615D01*
X134328369Y-88129610D01*
X134317029Y-88121371D01*
X134302236Y-88108736D01*
X133583764Y-87390265D01*
X133571126Y-87375468D01*
X133562887Y-87364128D01*
X133511277Y-87317657D01*
X133508922Y-87315423D01*
X133493382Y-87299882D01*
X133476295Y-87286043D01*
X133473831Y-87283939D01*
X133422220Y-87237470D01*
X133422213Y-87237465D01*
X133410070Y-87230454D01*
X133394043Y-87219438D01*
X133383153Y-87210620D01*
X133383151Y-87210619D01*
X133383149Y-87210617D01*
X133364259Y-87200992D01*
X133321266Y-87179085D01*
X133318414Y-87177537D01*
X133262858Y-87145462D01*
X133258284Y-87142821D01*
X133258283Y-87142820D01*
X133258282Y-87142820D01*
X133244949Y-87138488D01*
X133226978Y-87131043D01*
X133214498Y-87124684D01*
X133214486Y-87124679D01*
X133147409Y-87106705D01*
X133144309Y-87105787D01*
X133078256Y-87084326D01*
X133078251Y-87084325D01*
X133078249Y-87084325D01*
X133064314Y-87082860D01*
X133045189Y-87079315D01*
X133031653Y-87075688D01*
X133031643Y-87075686D01*
X132962290Y-87072051D01*
X132959059Y-87071797D01*
X132944537Y-87070271D01*
X132937192Y-87069500D01*
X132937189Y-87069500D01*
X132915203Y-87069500D01*
X132911959Y-87069415D01*
X132842612Y-87065781D01*
X132842611Y-87065781D01*
X132828772Y-87067973D01*
X132809373Y-87069500D01*
X131700627Y-87069500D01*
X131681228Y-87067973D01*
X131667389Y-87065781D01*
X131667388Y-87065781D01*
X131598046Y-87069415D01*
X131594803Y-87069500D01*
X131572808Y-87069500D01*
X131557403Y-87071118D01*
X131550933Y-87071798D01*
X131547702Y-87072052D01*
X131478356Y-87075687D01*
X131464809Y-87079317D01*
X131445686Y-87082860D01*
X131431745Y-87084325D01*
X131431743Y-87084325D01*
X131365702Y-87105784D01*
X131362590Y-87106705D01*
X131295517Y-87124677D01*
X131295503Y-87124683D01*
X131283022Y-87131043D01*
X131265049Y-87138488D01*
X131251723Y-87142818D01*
X131251713Y-87142822D01*
X131251600Y-87142888D01*
X131251515Y-87142910D01*
X131245786Y-87145462D01*
X131245381Y-87144554D01*
X131189602Y-87159500D01*
X129567808Y-87159500D01*
X129426744Y-87174326D01*
X129426741Y-87174326D01*
X129426740Y-87174327D01*
X129246722Y-87232818D01*
X129246720Y-87232819D01*
X129246717Y-87232820D01*
X129246716Y-87232821D01*
X129229279Y-87242887D01*
X129167282Y-87259500D01*
X128961804Y-87259500D01*
X128924932Y-87262401D01*
X128924926Y-87262402D01*
X128767106Y-87308254D01*
X128767103Y-87308255D01*
X128625637Y-87391917D01*
X128625629Y-87391923D01*
X128509423Y-87508129D01*
X128509417Y-87508137D01*
X128425755Y-87649603D01*
X128425754Y-87649606D01*
X128379902Y-87807426D01*
X128379901Y-87807432D01*
X128377000Y-87844304D01*
X128377000Y-88085500D01*
X128357315Y-88152539D01*
X128304511Y-88198294D01*
X128253000Y-88209500D01*
X128187718Y-88209500D01*
X128125720Y-88192887D01*
X128108284Y-88182821D01*
X128108280Y-88182819D01*
X128108279Y-88182819D01*
X128108277Y-88182818D01*
X127928259Y-88124327D01*
X127928256Y-88124326D01*
X127787192Y-88109500D01*
X127787188Y-88109500D01*
X126809807Y-88109500D01*
X126742768Y-88089815D01*
X126697013Y-88037011D01*
X126687069Y-87967853D01*
X126716094Y-87904297D01*
X126722126Y-87897819D01*
X127929087Y-86690858D01*
X129151623Y-85468321D01*
X129212944Y-85434838D01*
X129250519Y-85432513D01*
X129283384Y-85435500D01*
X129544192Y-85435500D01*
X129611231Y-85455185D01*
X129631873Y-85471819D01*
X130059564Y-85899510D01*
X130069635Y-85912080D01*
X130069822Y-85911926D01*
X130074796Y-85917937D01*
X130074798Y-85917940D01*
X130094253Y-85936209D01*
X130127243Y-85967190D01*
X130148967Y-85988913D01*
X130154757Y-85993405D01*
X130159197Y-85997197D01*
X130188498Y-86024711D01*
X130194607Y-86030448D01*
X130194610Y-86030450D01*
X130194612Y-86030451D01*
X130213207Y-86040674D01*
X130229468Y-86051356D01*
X130246232Y-86064359D01*
X130246236Y-86064362D01*
X130287867Y-86082377D01*
X130290811Y-86083651D01*
X130296050Y-86086217D01*
X130338632Y-86109627D01*
X130359204Y-86114908D01*
X130377594Y-86121205D01*
X130397074Y-86129635D01*
X130445050Y-86137233D01*
X130450747Y-86138413D01*
X130497823Y-86150500D01*
X130519051Y-86150500D01*
X130538448Y-86152026D01*
X130559403Y-86155345D01*
X130559404Y-86155346D01*
X130559404Y-86155345D01*
X130559405Y-86155346D01*
X130607760Y-86150775D01*
X130613599Y-86150500D01*
X132384495Y-86150500D01*
X132400505Y-86152267D01*
X132400528Y-86152026D01*
X132408289Y-86152758D01*
X132408296Y-86152760D01*
X132480203Y-86150500D01*
X132510925Y-86150500D01*
X132518190Y-86149581D01*
X132524016Y-86149122D01*
X132572569Y-86147597D01*
X132592956Y-86141673D01*
X132611996Y-86137731D01*
X132633058Y-86135071D01*
X132678235Y-86117183D01*
X132683735Y-86115300D01*
X132730398Y-86101744D01*
X132748665Y-86090939D01*
X132766136Y-86082380D01*
X132785871Y-86074568D01*
X132825177Y-86046010D01*
X132830043Y-86042813D01*
X132871865Y-86018081D01*
X132886870Y-86003075D01*
X132901668Y-85990436D01*
X132918837Y-85977963D01*
X132949809Y-85940522D01*
X132953713Y-85936231D01*
X134213126Y-84676819D01*
X134274450Y-84643334D01*
X134300808Y-84640500D01*
X135443196Y-84640500D01*
X135461631Y-84639049D01*
X135480069Y-84637598D01*
X135480071Y-84637597D01*
X135480073Y-84637597D01*
X135521691Y-84625505D01*
X135637898Y-84591744D01*
X135779365Y-84508081D01*
X135895581Y-84391865D01*
X135922579Y-84346212D01*
X135973647Y-84298530D01*
X136042389Y-84286026D01*
X136063906Y-84290258D01*
X136192426Y-84327597D01*
X136192429Y-84327597D01*
X136192431Y-84327598D01*
X136204722Y-84328565D01*
X136229304Y-84330500D01*
X136229306Y-84330500D01*
X138010696Y-84330500D01*
X138029131Y-84329049D01*
X138047569Y-84327598D01*
X138047571Y-84327597D01*
X138047573Y-84327597D01*
X138097371Y-84313129D01*
X138205398Y-84281744D01*
X138346865Y-84198081D01*
X138463081Y-84081865D01*
X138546744Y-83940398D01*
X138592598Y-83782569D01*
X138595500Y-83745694D01*
X138595500Y-83314306D01*
X138595053Y-83308632D01*
X138592598Y-83277432D01*
X138592597Y-83277426D01*
X138549532Y-83129197D01*
X138546744Y-83119602D01*
X138463081Y-82978135D01*
X138463078Y-82978132D01*
X138458298Y-82971969D01*
X138460742Y-82970072D01*
X138434142Y-82921357D01*
X138439126Y-82851665D01*
X138459944Y-82819307D01*
X138458298Y-82818031D01*
X138463075Y-82811870D01*
X138463081Y-82811865D01*
X138546744Y-82670398D01*
X138590474Y-82519881D01*
X138592597Y-82512573D01*
X138592598Y-82512567D01*
X138595500Y-82475696D01*
X138595500Y-82044304D01*
X138592598Y-82007432D01*
X138592597Y-82007426D01*
X138550824Y-81863646D01*
X138546744Y-81849602D01*
X138463081Y-81708135D01*
X138463078Y-81708132D01*
X138458298Y-81701969D01*
X138460750Y-81700066D01*
X138434155Y-81651421D01*
X138439104Y-81581726D01*
X138459940Y-81549304D01*
X138458298Y-81548031D01*
X138463075Y-81541870D01*
X138463081Y-81541865D01*
X138546744Y-81400398D01*
X138585229Y-81267934D01*
X138592597Y-81242573D01*
X138592598Y-81242567D01*
X138592885Y-81238928D01*
X138594604Y-81217074D01*
X138595500Y-81205696D01*
X138595500Y-80774304D01*
X138592598Y-80737432D01*
X138592597Y-80737426D01*
X138546745Y-80579606D01*
X138546744Y-80579603D01*
X138546744Y-80579602D01*
X138463081Y-80438135D01*
X138463079Y-80438133D01*
X138463076Y-80438129D01*
X138346870Y-80321923D01*
X138346862Y-80321917D01*
X138268681Y-80275681D01*
X138205398Y-80238256D01*
X138205397Y-80238255D01*
X138205396Y-80238255D01*
X138205393Y-80238254D01*
X138047573Y-80192402D01*
X138047567Y-80192401D01*
X138010696Y-80189500D01*
X138010694Y-80189500D01*
X136229306Y-80189500D01*
X136229304Y-80189500D01*
X136192432Y-80192401D01*
X136192426Y-80192402D01*
X136034606Y-80238254D01*
X136034603Y-80238255D01*
X135893137Y-80321917D01*
X135893129Y-80321923D01*
X135776923Y-80438129D01*
X135776917Y-80438137D01*
X135693255Y-80579603D01*
X135693254Y-80579606D01*
X135647402Y-80737426D01*
X135647401Y-80737432D01*
X135644500Y-80774304D01*
X135644500Y-81025021D01*
X135624815Y-81092060D01*
X135572011Y-81137815D01*
X135502853Y-81147759D01*
X135485908Y-81144098D01*
X135484160Y-81143590D01*
X135480067Y-81142401D01*
X135443196Y-81139500D01*
X135443194Y-81139500D01*
X134136806Y-81139500D01*
X134136804Y-81139500D01*
X134099932Y-81142401D01*
X134099926Y-81142402D01*
X133942106Y-81188254D01*
X133942103Y-81188255D01*
X133800105Y-81272232D01*
X133736984Y-81289500D01*
X133680808Y-81289500D01*
X133613769Y-81269815D01*
X133593127Y-81253181D01*
X132880434Y-80540488D01*
X132870361Y-80527914D01*
X132870174Y-80528070D01*
X132865201Y-80522059D01*
X132812756Y-80472810D01*
X132791035Y-80451089D01*
X132790509Y-80450681D01*
X132785235Y-80446589D01*
X132780798Y-80442799D01*
X132745396Y-80409554D01*
X132745388Y-80409548D01*
X132726792Y-80399325D01*
X132710531Y-80388644D01*
X132693763Y-80375637D01*
X132670180Y-80365432D01*
X132649178Y-80356343D01*
X132643956Y-80353786D01*
X132601368Y-80330373D01*
X132601365Y-80330372D01*
X132580801Y-80325092D01*
X132562396Y-80318790D01*
X132542927Y-80310365D01*
X132542921Y-80310363D01*
X132494951Y-80302766D01*
X132489236Y-80301582D01*
X132472772Y-80297355D01*
X132442180Y-80289500D01*
X132442177Y-80289500D01*
X132420955Y-80289500D01*
X132401555Y-80287973D01*
X132380596Y-80284653D01*
X132380595Y-80284653D01*
X132356786Y-80286903D01*
X132332230Y-80289225D01*
X132326392Y-80289500D01*
X130085504Y-80289500D01*
X130069493Y-80287732D01*
X130069471Y-80287974D01*
X130061704Y-80287240D01*
X130061703Y-80287240D01*
X129989796Y-80289500D01*
X129959075Y-80289500D01*
X129959071Y-80289500D01*
X129959061Y-80289501D01*
X129951793Y-80290419D01*
X129945976Y-80290876D01*
X129897435Y-80292402D01*
X129897424Y-80292404D01*
X129877048Y-80298323D01*
X129858008Y-80302266D01*
X129836947Y-80304927D01*
X129836939Y-80304929D01*
X129791775Y-80322811D01*
X129786247Y-80324703D01*
X129739602Y-80338255D01*
X129721332Y-80349060D01*
X129703863Y-80357618D01*
X129684128Y-80365432D01*
X129684126Y-80365433D01*
X129644839Y-80393977D01*
X129639956Y-80397184D01*
X129598132Y-80421919D01*
X129583126Y-80436926D01*
X129568336Y-80449558D01*
X129551167Y-80462032D01*
X129551165Y-80462034D01*
X129520194Y-80499470D01*
X129516262Y-80503791D01*
X129140483Y-80879569D01*
X129127910Y-80889643D01*
X129128065Y-80889830D01*
X129122059Y-80894798D01*
X129102681Y-80915434D01*
X129072809Y-80947244D01*
X129061949Y-80958104D01*
X129051088Y-80968965D01*
X129051078Y-80968977D01*
X129046587Y-80974765D01*
X129042801Y-80979197D01*
X129009552Y-81014606D01*
X128999322Y-81033213D01*
X128988646Y-81049464D01*
X128975640Y-81066232D01*
X128975636Y-81066238D01*
X128956348Y-81110811D01*
X128953777Y-81116058D01*
X128930372Y-81158630D01*
X128930372Y-81158631D01*
X128925091Y-81179199D01*
X128918791Y-81197601D01*
X128910364Y-81217073D01*
X128902766Y-81265047D01*
X128901581Y-81270767D01*
X128900370Y-81275484D01*
X128889500Y-81317818D01*
X128889499Y-81317825D01*
X128889499Y-81336381D01*
X128869812Y-81403419D01*
X128846705Y-81430086D01*
X128827058Y-81447110D01*
X128732911Y-81555762D01*
X128732896Y-81555783D01*
X128655102Y-81676833D01*
X128655089Y-81676856D01*
X128595183Y-81808033D01*
X128594743Y-81809758D01*
X128554821Y-81945717D01*
X128554818Y-81945727D01*
X128534358Y-82088038D01*
X128534358Y-82144397D01*
X128534353Y-82144414D01*
X128534353Y-82675556D01*
X128534358Y-82675603D01*
X128534358Y-82731962D01*
X128549988Y-82840668D01*
X128553558Y-82865499D01*
X128553558Y-82865501D01*
X128554819Y-82874278D01*
X128563816Y-82904916D01*
X128563816Y-82974786D01*
X128532520Y-83027532D01*
X120360483Y-91199569D01*
X120347910Y-91209643D01*
X120348065Y-91209830D01*
X120342059Y-91214798D01*
X120316660Y-91241845D01*
X120292809Y-91267244D01*
X120282065Y-91277987D01*
X120271551Y-91288502D01*
X120210228Y-91321987D01*
X120140536Y-91317003D01*
X120084603Y-91275131D01*
X120060186Y-91209667D01*
X120059870Y-91200821D01*
X120059870Y-82599900D01*
X120058105Y-82590983D01*
X120055915Y-82560418D01*
X120060837Y-82466499D01*
X120071185Y-82282244D01*
X120071846Y-82276061D01*
X120096031Y-82123367D01*
X120123728Y-81960354D01*
X120124947Y-81954776D01*
X120166004Y-81801551D01*
X120210785Y-81646113D01*
X120212458Y-81641124D01*
X120269943Y-81491370D01*
X120331330Y-81343173D01*
X120333350Y-81338791D01*
X120406624Y-81194982D01*
X120483941Y-81055089D01*
X120486203Y-81051321D01*
X120510045Y-81014607D01*
X120574465Y-80915408D01*
X120666872Y-80785173D01*
X120669214Y-80782085D01*
X120770587Y-80656901D01*
X120772441Y-80654722D01*
X120877954Y-80536653D01*
X120880273Y-80534201D01*
X120994201Y-80420273D01*
X120996653Y-80417954D01*
X121114722Y-80312441D01*
X121116901Y-80310587D01*
X121242085Y-80209214D01*
X121245173Y-80206872D01*
X121375408Y-80114465D01*
X121511321Y-80026203D01*
X121515089Y-80023941D01*
X121654982Y-79946624D01*
X121798791Y-79873350D01*
X121803173Y-79871330D01*
X121951370Y-79809943D01*
X122101124Y-79752458D01*
X122106113Y-79750785D01*
X122261551Y-79706004D01*
X122414776Y-79664947D01*
X122420354Y-79663728D01*
X122583367Y-79636031D01*
X122736061Y-79611846D01*
X122742244Y-79611185D01*
X122926499Y-79600837D01*
X123058379Y-79593925D01*
X123061622Y-79593841D01*
X127503852Y-79593841D01*
X176591619Y-79599364D01*
G37*
%TD.AperFunction*%
%TA.AperFunction,Conductor*%
G36*
X132532678Y-88890185D02*
G01*
X132553320Y-88906819D01*
X132785680Y-89139179D01*
X132819165Y-89200502D01*
X132821999Y-89226860D01*
X132821999Y-90344867D01*
X132803541Y-90409958D01*
X132787687Y-90435662D01*
X132787686Y-90435665D01*
X132765411Y-90502887D01*
X132732501Y-90602203D01*
X132732501Y-90602204D01*
X132732500Y-90602204D01*
X132722000Y-90704983D01*
X132722000Y-91755001D01*
X132722001Y-91755019D01*
X132732500Y-91857796D01*
X132732501Y-91857799D01*
X132787685Y-92024331D01*
X132787687Y-92024336D01*
X132791156Y-92029960D01*
X132803539Y-92050036D01*
X132822000Y-92115132D01*
X132822000Y-92374867D01*
X132803540Y-92439961D01*
X132787687Y-92465663D01*
X132787686Y-92465665D01*
X132777635Y-92495998D01*
X132732501Y-92632203D01*
X132732501Y-92632204D01*
X132732500Y-92632204D01*
X132722000Y-92734983D01*
X132722000Y-93785001D01*
X132722002Y-93785022D01*
X132722296Y-93787900D01*
X132709525Y-93856593D01*
X132661644Y-93907476D01*
X132598938Y-93924500D01*
X132579500Y-93924500D01*
X132512461Y-93904815D01*
X132466706Y-93852011D01*
X132455500Y-93800500D01*
X132455500Y-92846933D01*
X132455487Y-92844469D01*
X132455471Y-92842225D01*
X132441390Y-92750500D01*
X132433640Y-92700015D01*
X132413318Y-92633166D01*
X132413317Y-92633165D01*
X132413316Y-92633163D01*
X132413073Y-92632363D01*
X132411970Y-92630289D01*
X132352303Y-92502862D01*
X132352300Y-92502858D01*
X132301502Y-92445351D01*
X132257050Y-92395027D01*
X132257048Y-92395025D01*
X132257046Y-92395023D01*
X132203826Y-92349788D01*
X132203805Y-92349772D01*
X132082046Y-92273151D01*
X132073310Y-92269261D01*
X132050868Y-92256303D01*
X132029428Y-92240726D01*
X131998809Y-92218480D01*
X131985294Y-92207105D01*
X131974647Y-92196759D01*
X131962168Y-92186153D01*
X131936704Y-92164510D01*
X131882636Y-92124435D01*
X131751758Y-92064663D01*
X131684721Y-92044978D01*
X131684715Y-92044976D01*
X131598592Y-92032594D01*
X131542296Y-92024500D01*
X131542294Y-92024500D01*
X131224885Y-92024500D01*
X131157846Y-92004815D01*
X131112091Y-91952011D01*
X131102147Y-91882853D01*
X131103267Y-91876310D01*
X131104083Y-91872204D01*
X131104086Y-91872196D01*
X131110500Y-91801616D01*
X131110500Y-91138384D01*
X131104086Y-91067804D01*
X131071331Y-90962690D01*
X131070180Y-90892832D01*
X131106981Y-90833440D01*
X131170050Y-90803372D01*
X131239363Y-90812174D01*
X131252836Y-90819069D01*
X131257793Y-90822000D01*
X131262113Y-90824555D01*
X131410844Y-90867765D01*
X131434011Y-90869588D01*
X131445593Y-90870500D01*
X131445594Y-90870499D01*
X131445595Y-90870500D01*
X131678208Y-90870499D01*
X131794405Y-90870499D01*
X131801354Y-90869952D01*
X131829156Y-90867765D01*
X131977887Y-90824555D01*
X132111198Y-90745715D01*
X132220715Y-90636198D01*
X132299555Y-90502887D01*
X132342765Y-90354156D01*
X132345500Y-90319405D01*
X132345499Y-90298174D01*
X132348851Y-90272721D01*
X132348815Y-90272716D01*
X132349189Y-90270161D01*
X132349729Y-90266063D01*
X132349862Y-90265565D01*
X132350950Y-90258135D01*
X132375289Y-90091977D01*
X132375279Y-90091865D01*
X132359998Y-89917202D01*
X132359997Y-89917200D01*
X132351793Y-89892439D01*
X132345499Y-89853436D01*
X132345499Y-89820595D01*
X132342765Y-89785847D01*
X132342765Y-89785844D01*
X132299555Y-89637113D01*
X132220715Y-89503802D01*
X132220713Y-89503800D01*
X132220710Y-89503796D01*
X132111203Y-89394289D01*
X132111194Y-89394282D01*
X131977887Y-89315445D01*
X131977882Y-89315443D01*
X131829160Y-89272235D01*
X131822929Y-89271098D01*
X131823198Y-89269623D01*
X131788043Y-89259808D01*
X131779031Y-89255282D01*
X131768433Y-89249960D01*
X131768431Y-89249959D01*
X131768428Y-89249958D01*
X131761645Y-89247489D01*
X131761665Y-89247433D01*
X131754549Y-89244959D01*
X131754531Y-89245015D01*
X131747671Y-89242742D01*
X131719841Y-89236996D01*
X131672434Y-89227207D01*
X131623472Y-89215603D01*
X131597719Y-89209499D01*
X131590547Y-89208661D01*
X131590553Y-89208601D01*
X131583033Y-89207833D01*
X131583028Y-89207893D01*
X131578169Y-89207467D01*
X131577717Y-89207290D01*
X131574269Y-89206938D01*
X131568782Y-89205805D01*
X131569166Y-89203943D01*
X131523000Y-89185875D01*
X131471580Y-89208477D01*
X131455687Y-89209500D01*
X130484828Y-89209500D01*
X130450233Y-89204576D01*
X130446791Y-89203576D01*
X130387905Y-89165970D01*
X130358699Y-89102497D01*
X130368445Y-89033311D01*
X130414049Y-88980376D01*
X130481032Y-88960501D01*
X130481386Y-88960500D01*
X131449373Y-88960500D01*
X131468770Y-88962027D01*
X131475084Y-88963027D01*
X131521475Y-88985018D01*
X131564589Y-88962367D01*
X131576041Y-88960620D01*
X131577183Y-88960500D01*
X131577192Y-88960500D01*
X131599086Y-88958198D01*
X131602287Y-88957947D01*
X131671646Y-88954313D01*
X131685187Y-88950683D01*
X131704313Y-88947138D01*
X131718256Y-88945674D01*
X131784306Y-88924212D01*
X131787368Y-88923304D01*
X131854488Y-88905320D01*
X131866976Y-88898956D01*
X131884950Y-88891510D01*
X131898284Y-88887179D01*
X131898395Y-88887114D01*
X131898475Y-88887093D01*
X131904224Y-88884534D01*
X131904629Y-88885444D01*
X131960398Y-88870500D01*
X132465639Y-88870500D01*
X132532678Y-88890185D01*
G37*
%TD.AperFunction*%
%TA.AperFunction,Conductor*%
G36*
X128320039Y-89830185D02*
G01*
X128365794Y-89882989D01*
X128377000Y-89934500D01*
X128377000Y-90175696D01*
X128379901Y-90212567D01*
X128379902Y-90212573D01*
X128425754Y-90370393D01*
X128425755Y-90370396D01*
X128435493Y-90386862D01*
X128452676Y-90454586D01*
X128430516Y-90520848D01*
X128376050Y-90564612D01*
X128367766Y-90567689D01*
X128276303Y-90597997D01*
X128276294Y-90598001D01*
X128131959Y-90687029D01*
X128131955Y-90687032D01*
X128012032Y-90806955D01*
X128012029Y-90806959D01*
X127923001Y-90951294D01*
X127922996Y-90951305D01*
X127869651Y-91112290D01*
X127859500Y-91211647D01*
X127859500Y-91808337D01*
X127859501Y-91808355D01*
X127867627Y-91887899D01*
X127854857Y-91956592D01*
X127806976Y-92007476D01*
X127744269Y-92024500D01*
X126304500Y-92024500D01*
X126237461Y-92004815D01*
X126191706Y-91952011D01*
X126180500Y-91900500D01*
X126180500Y-90834360D01*
X126200185Y-90767321D01*
X126216814Y-90746684D01*
X127016680Y-89946818D01*
X127078003Y-89913334D01*
X127104361Y-89910500D01*
X127787188Y-89910500D01*
X127787192Y-89910500D01*
X127928256Y-89895674D01*
X128108284Y-89837179D01*
X128125720Y-89827112D01*
X128187718Y-89810500D01*
X128253000Y-89810500D01*
X128320039Y-89830185D01*
G37*
%TD.AperFunction*%
%TA.AperFunction,Conductor*%
G36*
X132106231Y-81610185D02*
G01*
X132126873Y-81626819D01*
X132839564Y-82339510D01*
X132849635Y-82352080D01*
X132849822Y-82351926D01*
X132854796Y-82357937D01*
X132854798Y-82357940D01*
X132870715Y-82372887D01*
X132907243Y-82407190D01*
X132928966Y-82428912D01*
X132934758Y-82433405D01*
X132939198Y-82437198D01*
X132955260Y-82452280D01*
X132974607Y-82470448D01*
X132993198Y-82480668D01*
X133009463Y-82491352D01*
X133026234Y-82504361D01*
X133026237Y-82504363D01*
X133070827Y-82523658D01*
X133076056Y-82526220D01*
X133118632Y-82549627D01*
X133139193Y-82554905D01*
X133157597Y-82561207D01*
X133177074Y-82569636D01*
X133214927Y-82575630D01*
X133225054Y-82577235D01*
X133230764Y-82578417D01*
X133277823Y-82590500D01*
X133299045Y-82590500D01*
X133318442Y-82592026D01*
X133339405Y-82595347D01*
X133387772Y-82590774D01*
X133393609Y-82590500D01*
X133736984Y-82590500D01*
X133800105Y-82607768D01*
X133837696Y-82629999D01*
X133942102Y-82691744D01*
X133983724Y-82703836D01*
X134099926Y-82737597D01*
X134099929Y-82737597D01*
X134099931Y-82737598D01*
X134112222Y-82738565D01*
X134136804Y-82740500D01*
X134136806Y-82740500D01*
X134622323Y-82740500D01*
X134689362Y-82760185D01*
X134707204Y-82774105D01*
X134724607Y-82790448D01*
X134724610Y-82790449D01*
X134728049Y-82792948D01*
X134730095Y-82795601D01*
X134730295Y-82795789D01*
X134730264Y-82795821D01*
X134770716Y-82848277D01*
X134776697Y-82917890D01*
X134744093Y-82979686D01*
X134718291Y-82999998D01*
X134698131Y-83011921D01*
X134696122Y-83013480D01*
X134694260Y-83014210D01*
X134691423Y-83015889D01*
X134691152Y-83015431D01*
X134631085Y-83039014D01*
X134620123Y-83039500D01*
X134136804Y-83039500D01*
X134099932Y-83042401D01*
X134099926Y-83042402D01*
X133942106Y-83088254D01*
X133942103Y-83088255D01*
X133800637Y-83171917D01*
X133800629Y-83171923D01*
X133684423Y-83288129D01*
X133684416Y-83288138D01*
X133600758Y-83429596D01*
X133597660Y-83436758D01*
X133596084Y-83436076D01*
X133570178Y-83479874D01*
X132302181Y-84747872D01*
X132240858Y-84781357D01*
X132171166Y-84776373D01*
X132115233Y-84734501D01*
X132090816Y-84669037D01*
X132090500Y-84660191D01*
X132090500Y-84128386D01*
X132089617Y-84118669D01*
X132084086Y-84057804D01*
X132033478Y-83895394D01*
X131945472Y-83749815D01*
X131945470Y-83749813D01*
X131945469Y-83749811D01*
X131876819Y-83681161D01*
X131843334Y-83619838D01*
X131840500Y-83593480D01*
X131840500Y-82845502D01*
X131842268Y-82829490D01*
X131842026Y-82829468D01*
X131842758Y-82821710D01*
X131842760Y-82821704D01*
X131841302Y-82775326D01*
X131842504Y-82753781D01*
X131842976Y-82750499D01*
X131845642Y-82731962D01*
X131845642Y-82675603D01*
X131845646Y-82675585D01*
X131845646Y-82624236D01*
X131845647Y-82624236D01*
X131845647Y-82195764D01*
X131845646Y-82195764D01*
X131845646Y-82144476D01*
X131845642Y-82144396D01*
X131845642Y-82088039D01*
X131845642Y-82088038D01*
X131828157Y-81966426D01*
X131825180Y-81945720D01*
X131790216Y-81826648D01*
X131784632Y-81807630D01*
X131765624Y-81766010D01*
X131755682Y-81696852D01*
X131784707Y-81633297D01*
X131843486Y-81595523D01*
X131878420Y-81590500D01*
X132039192Y-81590500D01*
X132106231Y-81610185D01*
G37*
%TD.AperFunction*%
%TD*%
M02*
