%TF.GenerationSoftware,KiCad,Pcbnew,7.0.5-4d25ed1034~172~ubuntu23.04.1*%
%TF.CreationDate,2023-06-02T17:13:36+03:00*%
%TF.ProjectId,nrf52840_dev,6e726635-3238-4343-905f-6465762e6b69,rev?*%
%TF.SameCoordinates,Original*%
%TF.FileFunction,Copper,L1,Top*%
%TF.FilePolarity,Positive*%
%FSLAX46Y46*%
G04 Gerber Fmt 4.6, Leading zero omitted, Abs format (unit mm)*
G04 Created by KiCad (PCBNEW 7.0.5-4d25ed1034~172~ubuntu23.04.1) date 2023-06-02 17:13:36*
%MOMM*%
%LPD*%
G01*
G04 APERTURE LIST*
G04 Aperture macros list*
%AMRoundRect*
0 Rectangle with rounded corners*
0 $1 Rounding radius*
0 $2 $3 $4 $5 $6 $7 $8 $9 X,Y pos of 4 corners*
0 Add a 4 corners polygon primitive as box body*
4,1,4,$2,$3,$4,$5,$6,$7,$8,$9,$2,$3,0*
0 Add four circle primitives for the rounded corners*
1,1,$1+$1,$2,$3*
1,1,$1+$1,$4,$5*
1,1,$1+$1,$6,$7*
1,1,$1+$1,$8,$9*
0 Add four rect primitives between the rounded corners*
20,1,$1+$1,$2,$3,$4,$5,0*
20,1,$1+$1,$4,$5,$6,$7,0*
20,1,$1+$1,$6,$7,$8,$9,0*
20,1,$1+$1,$8,$9,$2,$3,0*%
G04 Aperture macros list end*
%TA.AperFunction,SMDPad,CuDef*%
%ADD10RoundRect,0.250000X-0.475000X0.250000X-0.475000X-0.250000X0.475000X-0.250000X0.475000X0.250000X0*%
%TD*%
%TA.AperFunction,SMDPad,CuDef*%
%ADD11RoundRect,0.250000X-0.450000X0.262500X-0.450000X-0.262500X0.450000X-0.262500X0.450000X0.262500X0*%
%TD*%
%TA.AperFunction,SMDPad,CuDef*%
%ADD12R,0.800000X1.500000*%
%TD*%
%TA.AperFunction,SMDPad,CuDef*%
%ADD13R,1.500000X0.800000*%
%TD*%
%TA.AperFunction,ComponentPad*%
%ADD14R,1.000000X0.650000*%
%TD*%
%TA.AperFunction,ComponentPad*%
%ADD15R,0.650000X1.000000*%
%TD*%
%TA.AperFunction,ComponentPad*%
%ADD16R,1.800000X1.800000*%
%TD*%
%TA.AperFunction,ComponentPad*%
%ADD17C,1.800000*%
%TD*%
%TA.AperFunction,ComponentPad*%
%ADD18R,1.700000X1.700000*%
%TD*%
%TA.AperFunction,ComponentPad*%
%ADD19O,1.700000X1.700000*%
%TD*%
%TA.AperFunction,ComponentPad*%
%ADD20R,1.524000X1.524000*%
%TD*%
%TA.AperFunction,ComponentPad*%
%ADD21C,1.524000*%
%TD*%
%TA.AperFunction,ViaPad*%
%ADD22C,1.200000*%
%TD*%
%TA.AperFunction,Conductor*%
%ADD23C,0.500000*%
%TD*%
%TA.AperFunction,Conductor*%
%ADD24C,1.500000*%
%TD*%
%TA.AperFunction,Conductor*%
%ADD25C,0.800000*%
%TD*%
G04 APERTURE END LIST*
D10*
%TO.P,C1,1*%
%TO.N,/3V3*%
X98670000Y-89850000D03*
%TO.P,C1,2*%
%TO.N,GND*%
X98670000Y-91750000D03*
%TD*%
D11*
%TO.P,R2,1*%
%TO.N,Net-(D2-K)*%
X112450000Y-78937500D03*
%TO.P,R2,2*%
%TO.N,GND*%
X112450000Y-80762500D03*
%TD*%
D12*
%TO.P,U1,1,P1.11*%
%TO.N,/LED2*%
X114905000Y-83301000D03*
%TO.P,U1,2,P1.10*%
%TO.N,unconnected-(U1-P1.10-Pad2)*%
X113635000Y-83301000D03*
%TO.P,U1,3,P0.03(AIN1)*%
%TO.N,unconnected-(U1-P0.03(AIN1)-Pad3)*%
X112365000Y-83301000D03*
%TO.P,U1,4,P0.28(AIN4)*%
%TO.N,unconnected-(U1-P0.28(AIN4)-Pad4)*%
X111095000Y-83301000D03*
%TO.P,U1,5,GND*%
%TO.N,GND*%
X109825000Y-83301000D03*
%TO.P,U1,6,P1.13*%
%TO.N,unconnected-(U1-P1.13-Pad6)*%
X108555000Y-83301000D03*
%TO.P,U1,7,P0.02(AIN0)*%
%TO.N,unconnected-(U1-P0.02(AIN0)-Pad7)*%
X107285000Y-83301000D03*
%TO.P,U1,8,P0.29(AIN5)*%
%TO.N,/LED1*%
X106015000Y-83301000D03*
%TO.P,U1,9,P0.31(AIN7)*%
%TO.N,unconnected-(U1-P0.31(AIN7)-Pad9)*%
X104745000Y-83301000D03*
%TO.P,U1,10,P0.30(AIN6)*%
%TO.N,unconnected-(U1-P0.30(AIN6)-Pad10)*%
X103475000Y-83301000D03*
D13*
%TO.P,U1,11,P0.00(XL1)*%
%TO.N,/MISO*%
X101006000Y-85200000D03*
D14*
%TO.P,U1,12,P0.26*%
%TO.N,/RX*%
X102967000Y-85837000D03*
D13*
%TO.P,U1,13,P0.01(XL2)*%
%TO.N,/MOSI*%
X101006000Y-86470000D03*
D14*
%TO.P,U1,14,P0.06*%
%TO.N,unconnected-(U1-P0.06-Pad14)*%
X102967000Y-87107000D03*
D13*
%TO.P,U1,15,P0.05(AIN3)*%
%TO.N,/SCK*%
X101006000Y-87740000D03*
D14*
%TO.P,U1,16,P0.08*%
%TO.N,unconnected-(U1-P0.08-Pad16)*%
X102967000Y-88377000D03*
D13*
%TO.P,U1,17,P1.09*%
%TO.N,unconnected-(U1-P1.09-Pad17)*%
X101006000Y-89010000D03*
D14*
%TO.P,U1,18,P0.04(AIN2)*%
%TO.N,unconnected-(U1-P0.04(AIN2)-Pad18)*%
X102967000Y-89647000D03*
D13*
%TO.P,U1,19,VDD*%
%TO.N,/3V3*%
X101006000Y-90280000D03*
D14*
%TO.P,U1,20,P0.12*%
%TO.N,unconnected-(U1-P0.12-Pad20)*%
X102967000Y-90917000D03*
D13*
%TO.P,U1,21,GND*%
%TO.N,GND*%
X101006000Y-91550000D03*
D14*
%TO.P,U1,22,P0.07*%
%TO.N,unconnected-(U1-P0.07-Pad22)*%
X102967000Y-92187000D03*
D13*
%TO.P,U1,23,VDDH*%
%TO.N,/3V3*%
X101006000Y-92820000D03*
D14*
%TO.P,U1,24,GND*%
%TO.N,GND*%
X102967000Y-93457000D03*
D13*
%TO.P,U1,25,DCCH*%
%TO.N,unconnected-(U1-DCCH-Pad25)*%
X101006000Y-94090000D03*
D12*
%TO.P,U1,26,P0.18(RST)*%
%TO.N,unconnected-(U1-P0.18(RST)-Pad26)*%
X103475000Y-96039000D03*
%TO.P,U1,27,VBUS*%
%TO.N,unconnected-(U1-VBUS-Pad27)*%
X104745000Y-96039000D03*
D15*
%TO.P,U1,28,P0.15*%
%TO.N,/TX*%
X105507000Y-93711000D03*
D12*
%TO.P,U1,29,USB_DN*%
%TO.N,unconnected-(U1-USB_DN-Pad29)*%
X106015000Y-96039000D03*
D15*
%TO.P,U1,30,P0.17*%
%TO.N,unconnected-(U1-P0.17-Pad30)*%
X106777000Y-93711000D03*
D12*
%TO.P,U1,31,USB_DP*%
%TO.N,unconnected-(U1-USB_DP-Pad31)*%
X107285000Y-96039000D03*
D15*
%TO.P,U1,32,P0.20*%
%TO.N,unconnected-(U1-P0.20-Pad32)*%
X108047000Y-93711000D03*
D12*
%TO.P,U1,33,P0.13*%
%TO.N,/CS*%
X108555000Y-96039000D03*
D15*
%TO.P,U1,34,P0.22*%
%TO.N,unconnected-(U1-P0.22-Pad34)*%
X109317000Y-93711000D03*
D12*
%TO.P,U1,35,P0.24*%
%TO.N,/IRQ*%
X109825000Y-96039000D03*
D15*
%TO.P,U1,36,P1.00*%
%TO.N,unconnected-(U1-P1.00-Pad36)*%
X110587000Y-93711000D03*
D12*
%TO.P,U1,37,SWDIO*%
%TO.N,/SWD_IO*%
X111095000Y-96039000D03*
D15*
%TO.P,U1,38,P1.02*%
%TO.N,unconnected-(U1-P1.02-Pad38)*%
X111857000Y-93711000D03*
D12*
%TO.P,U1,39,SWD_CLK*%
%TO.N,/SWD_CLK*%
X112365000Y-96039000D03*
D15*
%TO.P,U1,40,P1.04*%
%TO.N,unconnected-(U1-P1.04-Pad40)*%
X113127000Y-93711000D03*
D12*
%TO.P,U1,41,P0.09(NFC1)*%
%TO.N,unconnected-(U1-P0.09(NFC1)-Pad41)*%
X113635000Y-96039000D03*
D15*
%TO.P,U1,42,P1.06*%
%TO.N,unconnected-(U1-P1.06-Pad42)*%
X114397000Y-93711000D03*
D12*
%TO.P,U1,43,P0.10(NFC2)*%
%TO.N,unconnected-(U1-P0.10(NFC2)-Pad43)*%
X114905000Y-96039000D03*
%TD*%
D11*
%TO.P,R1,1*%
%TO.N,Net-(D1-K)*%
X108500000Y-78997500D03*
%TO.P,R1,2*%
%TO.N,GND*%
X108500000Y-80822500D03*
%TD*%
D10*
%TO.P,C2,1*%
%TO.N,/3V3*%
X96560000Y-89860000D03*
%TO.P,C2,2*%
%TO.N,GND*%
X96560000Y-91760000D03*
%TD*%
D16*
%TO.P,D1,1,K*%
%TO.N,Net-(D1-K)*%
X108480000Y-76900000D03*
D17*
%TO.P,D1,2,A*%
%TO.N,/LED1*%
X105940000Y-76900000D03*
%TD*%
D18*
%TO.P,J9,1,Pin_1*%
%TO.N,/TX*%
X100495000Y-100820000D03*
%TD*%
D16*
%TO.P,D2,1,K*%
%TO.N,Net-(D2-K)*%
X112455000Y-76890000D03*
D17*
%TO.P,D2,2,A*%
%TO.N,/LED2*%
X114995000Y-76890000D03*
%TD*%
D18*
%TO.P,J6,1,Pin_1*%
%TO.N,/CS*%
X104835000Y-100850000D03*
D19*
%TO.P,J6,2,Pin_2*%
%TO.N,/IRQ*%
X107375000Y-100850000D03*
%TD*%
D18*
%TO.P,J4,1,Pin_1*%
%TO.N,/12VIN*%
X81620000Y-83850000D03*
%TD*%
%TO.P,J1,1,Pin_1*%
%TO.N,GND*%
X116925000Y-100850000D03*
D19*
%TO.P,J1,2,Pin_2*%
%TO.N,/SWD_CLK*%
X114385000Y-100850000D03*
%TO.P,J1,3,Pin_3*%
%TO.N,/SWD_IO*%
X111845000Y-100850000D03*
%TD*%
D20*
%TO.P,DC1,1,Out+*%
%TO.N,/3V3*%
X94493500Y-95293500D03*
D21*
%TO.P,DC1,2,Out-*%
%TO.N,GND*%
X84993500Y-95193500D03*
%TO.P,DC1,3,In+*%
%TO.N,/12VIN*%
X94493500Y-79793500D03*
%TO.P,DC1,4,In-*%
%TO.N,GND*%
X84993500Y-79793500D03*
%TD*%
D18*
%TO.P,J8,1,Pin_1*%
%TO.N,/RX*%
X102050000Y-80370000D03*
%TD*%
%TO.P,J7,1,Pin_1*%
%TO.N,/3V3*%
X90930000Y-98240000D03*
D19*
%TO.P,J7,2,Pin_2*%
%TO.N,GND*%
X90930000Y-100780000D03*
%TD*%
D18*
%TO.P,J5,1,Pin_1*%
%TO.N,GND*%
X81710000Y-90860000D03*
%TD*%
%TO.P,J10,1,Pin_1*%
%TO.N,/3V3*%
X94640000Y-98250000D03*
D19*
%TO.P,J10,2,Pin_2*%
%TO.N,GND*%
X94640000Y-100790000D03*
%TD*%
D18*
%TO.P,J3,1,Pin_1*%
%TO.N,/3V3*%
X87240000Y-98215000D03*
D19*
%TO.P,J3,2,Pin_2*%
%TO.N,GND*%
X87240000Y-100755000D03*
%TD*%
D18*
%TO.P,J2,1,Pin_1*%
%TO.N,/SCK*%
X96590000Y-75600000D03*
D19*
%TO.P,J2,2,Pin_2*%
%TO.N,/MOSI*%
X99130000Y-75600000D03*
%TO.P,J2,3,Pin_3*%
%TO.N,/MISO*%
X101670000Y-75600000D03*
%TD*%
D22*
%TO.N,/3V3*%
X97670000Y-88300000D03*
X99150000Y-94740000D03*
%TD*%
D23*
%TO.N,GND*%
X102967000Y-93457000D02*
X104073000Y-93457000D01*
X104073000Y-93457000D02*
X104350000Y-93180000D01*
X109470000Y-85910000D02*
X109840000Y-85540000D01*
X104350000Y-93180000D02*
X104350000Y-91260000D01*
X104350000Y-91260000D02*
X109240000Y-86370000D01*
X109240000Y-85910000D02*
X109470000Y-85910000D01*
X109240000Y-86370000D02*
X109240000Y-85910000D01*
X109840000Y-85540000D02*
X109825000Y-85525000D01*
X109825000Y-85525000D02*
X109825000Y-83301000D01*
%TO.N,/SWD_CLK*%
X112365000Y-96039000D02*
X112365000Y-98830000D01*
X112365000Y-98830000D02*
X114385000Y-100850000D01*
%TO.N,/LED2*%
X114905000Y-83301000D02*
X114905000Y-76980000D01*
%TO.N,Net-(D2-K)*%
X112455000Y-76890000D02*
X112455000Y-78932500D01*
%TO.N,Net-(D1-K)*%
X108480000Y-76900000D02*
X108480000Y-78977500D01*
D24*
%TO.N,/3V3*%
X94493500Y-95293500D02*
X94493500Y-98103500D01*
X94493500Y-98103500D02*
X94640000Y-98250000D01*
X87240000Y-98215000D02*
X94605000Y-98215000D01*
D23*
%TO.N,/RX*%
X102050000Y-84070000D02*
X102050000Y-80370000D01*
X102857000Y-85837000D02*
X102510000Y-85490000D01*
X102510000Y-85490000D02*
X102510000Y-84530000D01*
X102510000Y-84530000D02*
X102050000Y-84070000D01*
%TO.N,/SCK*%
X101006000Y-87740000D02*
X100000000Y-87740000D01*
X100000000Y-87740000D02*
X97610000Y-85350000D01*
X97610000Y-85350000D02*
X97610000Y-76620000D01*
X97610000Y-76620000D02*
X96590000Y-75600000D01*
%TO.N,/MOSI*%
X101006000Y-86470000D02*
X100226000Y-86470000D01*
X100226000Y-86470000D02*
X98670000Y-84914000D01*
X98670000Y-84914000D02*
X98670000Y-76060000D01*
X98670000Y-76060000D02*
X99130000Y-75600000D01*
%TO.N,/MISO*%
X101006000Y-85200000D02*
X100430000Y-85200000D01*
X100430000Y-85200000D02*
X99710000Y-84480000D01*
X99710000Y-84480000D02*
X99710000Y-78870000D01*
X99710000Y-78870000D02*
X101670000Y-76910000D01*
X101670000Y-76910000D02*
X101670000Y-75600000D01*
%TO.N,/LED1*%
X106015000Y-83301000D02*
X106015000Y-76975000D01*
%TO.N,/TX*%
X105507000Y-93711000D02*
X105507000Y-94023000D01*
X102920000Y-94510000D02*
X100495000Y-96935000D01*
X105507000Y-94023000D02*
X105020000Y-94510000D01*
X105020000Y-94510000D02*
X102920000Y-94510000D01*
X100495000Y-96935000D02*
X100495000Y-100820000D01*
%TO.N,/CS*%
X108555000Y-96039000D02*
X108555000Y-97289000D01*
X108555000Y-97289000D02*
X104994000Y-100850000D01*
%TO.N,/IRQ*%
X109825000Y-96039000D02*
X109825000Y-98400000D01*
X109825000Y-98400000D02*
X107375000Y-100850000D01*
%TO.N,/SWD_IO*%
X111095000Y-96039000D02*
X111095000Y-100100000D01*
X111095000Y-100100000D02*
X111845000Y-100850000D01*
D25*
%TO.N,/12VIN*%
X81620000Y-83850000D02*
X90437000Y-83850000D01*
X90437000Y-83850000D02*
X94493500Y-79793500D01*
D23*
%TO.N,/3V3*%
X99150000Y-93790000D02*
X100120000Y-92820000D01*
X101006000Y-92820000D02*
X100120000Y-92820000D01*
X99150000Y-93790000D02*
X99150000Y-94740000D01*
D25*
X98670000Y-89850000D02*
X97670000Y-89850000D01*
X97670000Y-89850000D02*
X96570000Y-89850000D01*
D23*
X97670000Y-88300000D02*
X97670000Y-89850000D01*
%TO.N,GND*%
X101006000Y-91550000D02*
X98870000Y-91550000D01*
%TO.N,/3V3*%
X101006000Y-90280000D02*
X99100000Y-90280000D01*
X99100000Y-90280000D02*
X98670000Y-89850000D01*
D25*
%TO.N,GND*%
X96560000Y-91760000D02*
X98660000Y-91760000D01*
%TO.N,/3V3*%
X96550000Y-89850000D02*
X95190000Y-89850000D01*
X95190000Y-89850000D02*
X94493500Y-90546500D01*
X94493500Y-90546500D02*
X94493500Y-95293500D01*
%TD*%
%TA.AperFunction,Conductor*%
%TO.N,GND*%
G36*
X120722539Y-72510185D02*
G01*
X120768294Y-72562989D01*
X120779500Y-72614500D01*
X120779500Y-104375500D01*
X120759815Y-104442539D01*
X120707011Y-104488294D01*
X120655500Y-104499500D01*
X78384500Y-104499500D01*
X78317461Y-104479815D01*
X78271706Y-104427011D01*
X78260500Y-104375500D01*
X78260500Y-100657763D01*
X80145787Y-100657763D01*
X80175413Y-100927013D01*
X80175415Y-100927024D01*
X80243926Y-101189082D01*
X80243928Y-101189088D01*
X80349870Y-101438390D01*
X80485777Y-101661082D01*
X80490979Y-101669605D01*
X80490986Y-101669615D01*
X80664253Y-101877819D01*
X80664259Y-101877824D01*
X80735988Y-101942093D01*
X80865998Y-102058582D01*
X81091910Y-102208044D01*
X81337176Y-102323020D01*
X81337183Y-102323022D01*
X81337185Y-102323023D01*
X81596557Y-102401057D01*
X81596564Y-102401058D01*
X81596569Y-102401060D01*
X81864561Y-102440500D01*
X81864566Y-102440500D01*
X82067629Y-102440500D01*
X82067631Y-102440500D01*
X82067636Y-102440499D01*
X82067648Y-102440499D01*
X82105191Y-102437750D01*
X82270156Y-102425677D01*
X82382758Y-102400593D01*
X82534546Y-102366782D01*
X82534548Y-102366781D01*
X82534553Y-102366780D01*
X82787558Y-102270014D01*
X83023777Y-102137441D01*
X83238177Y-101971888D01*
X83426186Y-101776881D01*
X83583799Y-101556579D01*
X83657787Y-101412669D01*
X83707649Y-101315690D01*
X83707651Y-101315684D01*
X83707656Y-101315675D01*
X83795118Y-101059305D01*
X83844319Y-100792933D01*
X83854212Y-100522235D01*
X83824586Y-100252982D01*
X83756072Y-99990912D01*
X83650130Y-99741610D01*
X83509018Y-99510390D01*
X83474989Y-99469500D01*
X83335746Y-99302180D01*
X83335740Y-99302175D01*
X83134002Y-99121418D01*
X83121082Y-99112870D01*
X85889500Y-99112870D01*
X85889501Y-99112876D01*
X85895908Y-99172483D01*
X85946202Y-99307328D01*
X85946206Y-99307335D01*
X86032452Y-99422544D01*
X86032455Y-99422547D01*
X86147664Y-99508793D01*
X86147671Y-99508797D01*
X86209902Y-99532007D01*
X86279598Y-99558002D01*
X86335531Y-99599873D01*
X86359949Y-99665337D01*
X86345098Y-99733610D01*
X86323947Y-99761865D01*
X86201886Y-99883926D01*
X86066400Y-100077420D01*
X86066399Y-100077422D01*
X85966570Y-100291507D01*
X85966567Y-100291513D01*
X85909364Y-100504999D01*
X85909364Y-100505000D01*
X86806314Y-100505000D01*
X86780507Y-100545156D01*
X86740000Y-100683111D01*
X86740000Y-100826889D01*
X86780507Y-100964844D01*
X86806314Y-101005000D01*
X85909364Y-101005000D01*
X85966567Y-101218486D01*
X85966570Y-101218492D01*
X86066399Y-101432578D01*
X86201894Y-101626082D01*
X86368917Y-101793105D01*
X86562421Y-101928600D01*
X86776507Y-102028429D01*
X86776516Y-102028433D01*
X86990000Y-102085634D01*
X86990000Y-101190501D01*
X87097685Y-101239680D01*
X87204237Y-101255000D01*
X87275763Y-101255000D01*
X87382315Y-101239680D01*
X87490000Y-101190501D01*
X87490000Y-102085633D01*
X87703483Y-102028433D01*
X87703492Y-102028429D01*
X87917578Y-101928600D01*
X88111082Y-101793105D01*
X88278105Y-101626082D01*
X88413600Y-101432578D01*
X88513429Y-101218492D01*
X88513432Y-101218486D01*
X88570636Y-101005000D01*
X87673686Y-101005000D01*
X87699493Y-100964844D01*
X87740000Y-100826889D01*
X87740000Y-100683111D01*
X87699493Y-100545156D01*
X87673686Y-100505000D01*
X88570636Y-100505000D01*
X88570635Y-100504999D01*
X88513432Y-100291513D01*
X88513429Y-100291507D01*
X88413600Y-100077422D01*
X88413599Y-100077420D01*
X88278113Y-99883926D01*
X88278108Y-99883920D01*
X88156053Y-99761865D01*
X88122568Y-99700542D01*
X88127552Y-99630850D01*
X88169424Y-99574917D01*
X88200400Y-99558002D01*
X88294176Y-99523027D01*
X88332326Y-99508798D01*
X88332326Y-99508797D01*
X88332331Y-99508796D01*
X88357127Y-99490233D01*
X88422592Y-99465816D01*
X88431439Y-99465500D01*
X89705165Y-99465500D01*
X89772204Y-99485185D01*
X89779476Y-99490233D01*
X89788835Y-99497239D01*
X89827527Y-99526204D01*
X89837668Y-99533795D01*
X89837671Y-99533797D01*
X89897743Y-99556202D01*
X89969598Y-99583002D01*
X90025531Y-99624873D01*
X90049949Y-99690337D01*
X90035098Y-99758610D01*
X90013947Y-99786865D01*
X89891886Y-99908926D01*
X89756400Y-100102420D01*
X89756399Y-100102422D01*
X89656570Y-100316507D01*
X89656567Y-100316513D01*
X89599364Y-100529999D01*
X89599364Y-100530000D01*
X90496314Y-100530000D01*
X90470507Y-100570156D01*
X90430000Y-100708111D01*
X90430000Y-100851889D01*
X90470507Y-100989844D01*
X90496314Y-101030000D01*
X89599364Y-101030000D01*
X89656567Y-101243486D01*
X89656570Y-101243492D01*
X89756399Y-101457578D01*
X89891894Y-101651082D01*
X90058917Y-101818105D01*
X90252421Y-101953600D01*
X90466507Y-102053429D01*
X90466516Y-102053433D01*
X90680000Y-102110634D01*
X90680000Y-101215501D01*
X90787685Y-101264680D01*
X90894237Y-101280000D01*
X90965763Y-101280000D01*
X91072315Y-101264680D01*
X91180000Y-101215501D01*
X91180000Y-102110633D01*
X91393483Y-102053433D01*
X91393492Y-102053429D01*
X91607578Y-101953600D01*
X91801082Y-101818105D01*
X91968105Y-101651082D01*
X92103600Y-101457578D01*
X92203429Y-101243492D01*
X92203432Y-101243486D01*
X92260636Y-101030000D01*
X91363686Y-101030000D01*
X91389493Y-100989844D01*
X91430000Y-100851889D01*
X91430000Y-100708111D01*
X91389493Y-100570156D01*
X91363686Y-100530000D01*
X92260636Y-100530000D01*
X92260635Y-100529999D01*
X92203432Y-100316513D01*
X92203429Y-100316507D01*
X92103600Y-100102422D01*
X92103599Y-100102420D01*
X91968113Y-99908926D01*
X91968108Y-99908920D01*
X91846053Y-99786865D01*
X91812568Y-99725542D01*
X91817552Y-99655850D01*
X91859424Y-99599917D01*
X91890400Y-99583002D01*
X92022331Y-99533796D01*
X92080523Y-99490233D01*
X92145989Y-99465816D01*
X92154835Y-99465500D01*
X93401807Y-99465500D01*
X93468846Y-99485185D01*
X93476118Y-99490233D01*
X93547669Y-99543796D01*
X93547670Y-99543796D01*
X93547671Y-99543797D01*
X93585757Y-99558002D01*
X93679598Y-99593002D01*
X93735531Y-99634873D01*
X93759949Y-99700337D01*
X93745098Y-99768610D01*
X93723947Y-99796865D01*
X93601886Y-99918926D01*
X93466400Y-100112420D01*
X93466399Y-100112422D01*
X93366570Y-100326507D01*
X93366567Y-100326513D01*
X93309364Y-100539999D01*
X93309364Y-100540000D01*
X94206314Y-100540000D01*
X94180507Y-100580156D01*
X94140000Y-100718111D01*
X94140000Y-100861889D01*
X94180507Y-100999844D01*
X94206314Y-101040000D01*
X93309364Y-101040000D01*
X93366567Y-101253486D01*
X93366570Y-101253492D01*
X93466399Y-101467578D01*
X93601894Y-101661082D01*
X93768917Y-101828105D01*
X93962421Y-101963600D01*
X94176507Y-102063429D01*
X94176516Y-102063433D01*
X94390000Y-102120634D01*
X94390000Y-101225501D01*
X94497685Y-101274680D01*
X94604237Y-101290000D01*
X94675763Y-101290000D01*
X94782315Y-101274680D01*
X94889999Y-101225501D01*
X94889999Y-102120633D01*
X95103483Y-102063433D01*
X95103492Y-102063429D01*
X95317578Y-101963600D01*
X95511082Y-101828105D01*
X95678105Y-101661082D01*
X95813600Y-101467578D01*
X95913429Y-101253492D01*
X95913432Y-101253486D01*
X95970636Y-101040000D01*
X95073686Y-101040000D01*
X95099493Y-100999844D01*
X95140000Y-100861889D01*
X95140000Y-100718111D01*
X95099493Y-100580156D01*
X95073686Y-100540000D01*
X95970636Y-100540000D01*
X95970635Y-100539999D01*
X95913432Y-100326513D01*
X95913429Y-100326507D01*
X95813600Y-100112422D01*
X95813599Y-100112420D01*
X95678113Y-99918926D01*
X95678108Y-99918920D01*
X95556053Y-99796865D01*
X95522568Y-99735542D01*
X95527552Y-99665850D01*
X95569424Y-99609917D01*
X95600400Y-99593002D01*
X95732331Y-99543796D01*
X95847546Y-99457546D01*
X95933796Y-99342331D01*
X95984091Y-99207483D01*
X95990500Y-99147873D01*
X95990499Y-97352128D01*
X95984091Y-97292517D01*
X95982965Y-97289499D01*
X95933797Y-97157671D01*
X95933793Y-97157664D01*
X95847548Y-97042457D01*
X95847546Y-97042454D01*
X95847544Y-97042452D01*
X95847542Y-97042450D01*
X95793688Y-97002135D01*
X95751818Y-96946201D01*
X95744000Y-96902869D01*
X95744000Y-96607110D01*
X95744000Y-96200338D01*
X95749323Y-96170889D01*
X95747807Y-96170531D01*
X95749588Y-96162989D01*
X95749591Y-96162983D01*
X95756000Y-96103373D01*
X95755999Y-94483628D01*
X95749591Y-94424017D01*
X95718534Y-94340750D01*
X95699297Y-94289171D01*
X95699293Y-94289164D01*
X95613047Y-94173955D01*
X95613044Y-94173952D01*
X95497834Y-94087705D01*
X95497833Y-94087704D01*
X95474664Y-94079063D01*
X95418731Y-94037191D01*
X95394315Y-93971727D01*
X95393999Y-93962909D01*
X95393999Y-92679020D01*
X95413684Y-92611983D01*
X95466488Y-92566228D01*
X95535646Y-92556284D01*
X95599202Y-92585309D01*
X95605680Y-92591341D01*
X95616654Y-92602315D01*
X95765875Y-92694356D01*
X95765880Y-92694358D01*
X95932302Y-92749505D01*
X95932309Y-92749506D01*
X96035019Y-92759999D01*
X96309999Y-92759999D01*
X96810000Y-92759999D01*
X97084972Y-92759999D01*
X97084986Y-92759998D01*
X97187697Y-92749505D01*
X97354119Y-92694358D01*
X97354124Y-92694356D01*
X97503342Y-92602317D01*
X97532317Y-92573342D01*
X97593640Y-92539856D01*
X97663332Y-92544840D01*
X97707683Y-92573343D01*
X97726655Y-92592316D01*
X97875875Y-92684356D01*
X97875880Y-92684358D01*
X98042302Y-92739505D01*
X98042309Y-92739506D01*
X98145019Y-92749999D01*
X98419999Y-92749999D01*
X98420000Y-92749998D01*
X98420000Y-92000000D01*
X97803120Y-92000000D01*
X97789996Y-92007166D01*
X97763638Y-92010000D01*
X96810000Y-92010000D01*
X96810000Y-92759999D01*
X96309999Y-92759999D01*
X96310000Y-92759998D01*
X96310000Y-91634000D01*
X96329685Y-91566961D01*
X96382489Y-91521206D01*
X96434000Y-91510000D01*
X97426880Y-91510000D01*
X97440004Y-91502834D01*
X97466362Y-91500000D01*
X99716000Y-91500000D01*
X99716000Y-91424000D01*
X99735685Y-91356961D01*
X99788489Y-91311206D01*
X99840000Y-91300000D01*
X101132000Y-91300000D01*
X101199039Y-91319685D01*
X101244794Y-91372489D01*
X101256000Y-91424000D01*
X101256000Y-91676000D01*
X101236315Y-91743039D01*
X101183511Y-91788794D01*
X101132000Y-91800000D01*
X99935000Y-91800000D01*
X99935000Y-91876000D01*
X99915315Y-91943039D01*
X99862511Y-91988794D01*
X99811000Y-92000000D01*
X98920000Y-92000000D01*
X98920000Y-92749999D01*
X98936634Y-92766633D01*
X98970119Y-92827956D01*
X98965135Y-92897648D01*
X98936634Y-92941995D01*
X98664358Y-93214272D01*
X98650729Y-93226051D01*
X98631468Y-93240390D01*
X98597898Y-93280397D01*
X98594253Y-93284376D01*
X98588407Y-93290223D01*
X98568618Y-93315251D01*
X98567481Y-93316647D01*
X98518694Y-93374790D01*
X98514729Y-93380819D01*
X98514682Y-93380788D01*
X98510630Y-93387147D01*
X98510679Y-93387177D01*
X98506889Y-93393321D01*
X98474812Y-93462110D01*
X98474027Y-93463731D01*
X98439957Y-93531572D01*
X98437488Y-93538357D01*
X98437432Y-93538336D01*
X98434960Y-93545450D01*
X98435015Y-93545469D01*
X98432743Y-93552325D01*
X98417391Y-93626670D01*
X98417001Y-93628428D01*
X98399499Y-93702279D01*
X98398661Y-93709454D01*
X98398601Y-93709447D01*
X98397835Y-93716945D01*
X98397895Y-93716951D01*
X98397265Y-93724140D01*
X98399474Y-93800030D01*
X98399500Y-93801833D01*
X98399500Y-93880261D01*
X98379815Y-93947300D01*
X98359040Y-93971897D01*
X98333235Y-93995421D01*
X98210327Y-94158178D01*
X98119422Y-94340739D01*
X98119417Y-94340752D01*
X98063602Y-94536917D01*
X98044785Y-94739999D01*
X98044785Y-94740000D01*
X98063602Y-94943082D01*
X98119417Y-95139247D01*
X98119422Y-95139260D01*
X98210327Y-95321821D01*
X98333237Y-95484581D01*
X98483958Y-95621980D01*
X98483960Y-95621982D01*
X98491716Y-95626784D01*
X98657363Y-95729348D01*
X98847544Y-95803024D01*
X99048024Y-95840500D01*
X99048026Y-95840500D01*
X99251974Y-95840500D01*
X99251976Y-95840500D01*
X99452456Y-95803024D01*
X99642637Y-95729348D01*
X99816041Y-95621981D01*
X99966764Y-95484579D01*
X100089673Y-95321821D01*
X100180582Y-95139250D01*
X100180583Y-95139243D01*
X100180586Y-95139238D01*
X100197280Y-95080565D01*
X100234559Y-95021472D01*
X100297868Y-94991914D01*
X100316546Y-94990499D01*
X101078771Y-94990499D01*
X101145810Y-95010184D01*
X101191565Y-95062988D01*
X101201509Y-95132146D01*
X101172484Y-95195702D01*
X101166452Y-95202180D01*
X100009358Y-96359272D01*
X99995729Y-96371051D01*
X99976468Y-96385390D01*
X99942898Y-96425397D01*
X99939253Y-96429376D01*
X99933407Y-96435223D01*
X99913618Y-96460251D01*
X99912481Y-96461647D01*
X99863694Y-96519790D01*
X99859729Y-96525819D01*
X99859682Y-96525788D01*
X99855630Y-96532147D01*
X99855679Y-96532177D01*
X99851889Y-96538321D01*
X99819812Y-96607110D01*
X99819027Y-96608731D01*
X99784957Y-96676572D01*
X99782488Y-96683357D01*
X99782432Y-96683336D01*
X99779960Y-96690450D01*
X99780015Y-96690469D01*
X99777743Y-96697325D01*
X99762391Y-96771670D01*
X99762001Y-96773428D01*
X99744499Y-96847279D01*
X99743661Y-96854454D01*
X99743601Y-96854447D01*
X99742835Y-96861945D01*
X99742895Y-96861951D01*
X99742265Y-96869140D01*
X99744474Y-96945030D01*
X99744500Y-96946833D01*
X99744499Y-99345500D01*
X99724814Y-99412540D01*
X99672010Y-99458294D01*
X99620504Y-99469500D01*
X99597132Y-99469500D01*
X99597123Y-99469501D01*
X99537516Y-99475908D01*
X99402671Y-99526202D01*
X99402664Y-99526206D01*
X99287455Y-99612452D01*
X99287452Y-99612455D01*
X99201206Y-99727664D01*
X99201202Y-99727671D01*
X99150908Y-99862517D01*
X99145920Y-99908920D01*
X99144501Y-99922123D01*
X99144500Y-99922135D01*
X99144500Y-101717870D01*
X99144501Y-101717876D01*
X99150908Y-101777483D01*
X99201202Y-101912328D01*
X99201206Y-101912335D01*
X99287452Y-102027544D01*
X99287455Y-102027547D01*
X99402664Y-102113793D01*
X99402671Y-102113797D01*
X99537517Y-102164091D01*
X99537516Y-102164091D01*
X99544444Y-102164835D01*
X99597127Y-102170500D01*
X101392872Y-102170499D01*
X101452483Y-102164091D01*
X101587331Y-102113796D01*
X101702546Y-102027546D01*
X101788796Y-101912331D01*
X101839091Y-101777483D01*
X101845500Y-101717873D01*
X101845499Y-99922128D01*
X101839091Y-99862517D01*
X101820063Y-99811501D01*
X101788797Y-99727671D01*
X101788793Y-99727664D01*
X101702547Y-99612455D01*
X101702544Y-99612452D01*
X101587335Y-99526206D01*
X101587328Y-99526202D01*
X101452482Y-99475908D01*
X101452483Y-99475908D01*
X101392883Y-99469501D01*
X101392881Y-99469500D01*
X101392873Y-99469500D01*
X101392865Y-99469500D01*
X101369500Y-99469500D01*
X101302461Y-99449815D01*
X101256706Y-99397011D01*
X101245500Y-99345500D01*
X101245500Y-98467769D01*
X101245500Y-97297225D01*
X101265184Y-97230190D01*
X101281809Y-97209558D01*
X102362821Y-96128545D01*
X102424142Y-96095062D01*
X102493834Y-96100046D01*
X102549767Y-96141918D01*
X102574184Y-96207382D01*
X102574500Y-96216228D01*
X102574500Y-96836870D01*
X102574501Y-96836876D01*
X102580908Y-96896483D01*
X102631202Y-97031328D01*
X102631206Y-97031335D01*
X102717452Y-97146544D01*
X102717455Y-97146547D01*
X102832664Y-97232793D01*
X102832671Y-97232797D01*
X102967517Y-97283091D01*
X102967516Y-97283091D01*
X102974444Y-97283835D01*
X103027127Y-97289500D01*
X103922872Y-97289499D01*
X103982483Y-97283091D01*
X104066668Y-97251691D01*
X104136356Y-97246708D01*
X104153329Y-97251691D01*
X104237517Y-97283091D01*
X104297127Y-97289500D01*
X105192872Y-97289499D01*
X105252483Y-97283091D01*
X105336668Y-97251691D01*
X105406356Y-97246708D01*
X105423329Y-97251691D01*
X105507517Y-97283091D01*
X105567127Y-97289500D01*
X106462872Y-97289499D01*
X106522483Y-97283091D01*
X106606668Y-97251691D01*
X106676356Y-97246708D01*
X106693329Y-97251691D01*
X106777517Y-97283091D01*
X106837127Y-97289500D01*
X107193771Y-97289499D01*
X107260809Y-97309183D01*
X107306564Y-97361987D01*
X107316508Y-97431146D01*
X107287483Y-97494701D01*
X107281451Y-97501180D01*
X105319449Y-99463181D01*
X105258126Y-99496666D01*
X105231768Y-99499500D01*
X103937129Y-99499500D01*
X103937123Y-99499501D01*
X103877516Y-99505908D01*
X103742671Y-99556202D01*
X103742664Y-99556206D01*
X103627455Y-99642452D01*
X103627452Y-99642455D01*
X103541206Y-99757664D01*
X103541202Y-99757671D01*
X103490908Y-99892517D01*
X103484501Y-99952116D01*
X103484500Y-99952135D01*
X103484500Y-101747870D01*
X103484501Y-101747876D01*
X103490908Y-101807483D01*
X103541202Y-101942328D01*
X103541206Y-101942335D01*
X103627452Y-102057544D01*
X103627455Y-102057547D01*
X103742664Y-102143793D01*
X103742671Y-102143797D01*
X103877517Y-102194091D01*
X103877516Y-102194091D01*
X103884444Y-102194835D01*
X103937127Y-102200500D01*
X105732872Y-102200499D01*
X105792483Y-102194091D01*
X105927331Y-102143796D01*
X106042546Y-102057546D01*
X106128796Y-101942331D01*
X106177810Y-101810916D01*
X106219681Y-101754984D01*
X106285145Y-101730566D01*
X106353418Y-101745417D01*
X106381673Y-101766569D01*
X106503599Y-101888495D01*
X106600384Y-101956264D01*
X106697165Y-102024032D01*
X106697167Y-102024033D01*
X106697170Y-102024035D01*
X106911337Y-102123903D01*
X107139592Y-102185063D01*
X107316034Y-102200500D01*
X107374999Y-102205659D01*
X107375000Y-102205659D01*
X107375001Y-102205659D01*
X107433966Y-102200500D01*
X107610408Y-102185063D01*
X107838663Y-102123903D01*
X108052830Y-102024035D01*
X108246401Y-101888495D01*
X108413495Y-101721401D01*
X108549035Y-101527830D01*
X108648903Y-101313663D01*
X108710063Y-101085408D01*
X108730659Y-100850000D01*
X108712022Y-100636985D01*
X108725788Y-100568486D01*
X108747866Y-100538500D01*
X110132819Y-99153546D01*
X110194142Y-99120062D01*
X110263834Y-99125046D01*
X110319767Y-99166918D01*
X110344184Y-99232382D01*
X110344500Y-99241228D01*
X110344500Y-100036294D01*
X110343191Y-100054263D01*
X110339710Y-100078026D01*
X110344263Y-100130063D01*
X110344499Y-100135462D01*
X110344499Y-100143704D01*
X110348202Y-100175391D01*
X110348386Y-100177184D01*
X110355000Y-100252792D01*
X110356461Y-100259867D01*
X110356403Y-100259878D01*
X110358034Y-100267237D01*
X110358092Y-100267224D01*
X110359757Y-100274249D01*
X110359758Y-100274254D01*
X110359759Y-100274255D01*
X110380065Y-100330048D01*
X110385708Y-100345551D01*
X110386299Y-100347253D01*
X110410182Y-100419326D01*
X110413236Y-100425874D01*
X110413182Y-100425898D01*
X110416470Y-100432688D01*
X110416521Y-100432663D01*
X110419761Y-100439113D01*
X110419762Y-100439114D01*
X110419763Y-100439117D01*
X110461494Y-100502567D01*
X110462443Y-100504058D01*
X110483685Y-100538497D01*
X110490936Y-100550251D01*
X110509376Y-100617644D01*
X110508925Y-100626155D01*
X110489341Y-100849998D01*
X110489341Y-100850000D01*
X110509936Y-101085403D01*
X110509938Y-101085413D01*
X110571094Y-101313655D01*
X110571096Y-101313659D01*
X110571097Y-101313663D01*
X110638206Y-101457578D01*
X110670965Y-101527830D01*
X110670967Y-101527834D01*
X110770244Y-101669615D01*
X110806505Y-101721401D01*
X110973599Y-101888495D01*
X111070384Y-101956264D01*
X111167165Y-102024032D01*
X111167167Y-102024033D01*
X111167170Y-102024035D01*
X111381337Y-102123903D01*
X111609592Y-102185063D01*
X111786034Y-102200500D01*
X111844999Y-102205659D01*
X111845000Y-102205659D01*
X111845001Y-102205659D01*
X111903966Y-102200500D01*
X112080408Y-102185063D01*
X112308663Y-102123903D01*
X112522830Y-102024035D01*
X112716401Y-101888495D01*
X112883495Y-101721401D01*
X113013424Y-101535842D01*
X113068002Y-101492217D01*
X113137500Y-101485023D01*
X113199855Y-101516546D01*
X113216575Y-101535842D01*
X113346500Y-101721395D01*
X113346505Y-101721401D01*
X113513599Y-101888495D01*
X113610384Y-101956264D01*
X113707165Y-102024032D01*
X113707167Y-102024033D01*
X113707170Y-102024035D01*
X113921337Y-102123903D01*
X114149592Y-102185063D01*
X114326034Y-102200500D01*
X114384999Y-102205659D01*
X114385000Y-102205659D01*
X114385001Y-102205659D01*
X114443966Y-102200500D01*
X114620408Y-102185063D01*
X114848663Y-102123903D01*
X115062830Y-102024035D01*
X115256401Y-101888495D01*
X115378717Y-101766178D01*
X115440036Y-101732696D01*
X115509728Y-101737680D01*
X115565662Y-101779551D01*
X115582577Y-101810528D01*
X115631646Y-101942088D01*
X115631649Y-101942093D01*
X115717809Y-102057187D01*
X115717812Y-102057190D01*
X115832906Y-102143350D01*
X115832913Y-102143354D01*
X115967620Y-102193596D01*
X115967627Y-102193598D01*
X116027155Y-102199999D01*
X116027172Y-102200000D01*
X116675000Y-102200000D01*
X116675000Y-101285501D01*
X116782685Y-101334680D01*
X116889237Y-101350000D01*
X116960763Y-101350000D01*
X117067315Y-101334680D01*
X117174999Y-101285501D01*
X117174999Y-102200000D01*
X117822828Y-102200000D01*
X117822844Y-102199999D01*
X117882372Y-102193598D01*
X117882379Y-102193596D01*
X118017086Y-102143354D01*
X118017093Y-102143350D01*
X118132187Y-102057190D01*
X118132190Y-102057187D01*
X118218350Y-101942093D01*
X118218354Y-101942086D01*
X118268596Y-101807379D01*
X118268598Y-101807372D01*
X118274999Y-101747844D01*
X118275000Y-101747827D01*
X118275000Y-101100000D01*
X117358686Y-101100000D01*
X117384493Y-101059844D01*
X117425000Y-100921889D01*
X117425000Y-100778111D01*
X117384493Y-100640156D01*
X117358686Y-100600000D01*
X118275000Y-100600000D01*
X118275000Y-99952172D01*
X118274999Y-99952155D01*
X118268598Y-99892627D01*
X118268596Y-99892620D01*
X118218354Y-99757913D01*
X118218350Y-99757906D01*
X118132190Y-99642812D01*
X118132187Y-99642809D01*
X118017093Y-99556649D01*
X118017086Y-99556645D01*
X117882379Y-99506403D01*
X117882372Y-99506401D01*
X117822844Y-99500000D01*
X117175000Y-99500000D01*
X117174999Y-100414498D01*
X117067315Y-100365320D01*
X116960763Y-100350000D01*
X116889237Y-100350000D01*
X116782685Y-100365320D01*
X116675000Y-100414498D01*
X116675000Y-99500000D01*
X116027155Y-99500000D01*
X115967627Y-99506401D01*
X115967620Y-99506403D01*
X115832913Y-99556645D01*
X115832906Y-99556649D01*
X115717812Y-99642809D01*
X115717809Y-99642812D01*
X115631649Y-99757906D01*
X115631645Y-99757913D01*
X115582578Y-99889470D01*
X115540707Y-99945404D01*
X115475242Y-99969821D01*
X115406969Y-99954969D01*
X115378715Y-99933819D01*
X115328816Y-99883920D01*
X115256401Y-99811505D01*
X115256397Y-99811502D01*
X115256396Y-99811501D01*
X115062834Y-99675967D01*
X115062830Y-99675965D01*
X114991727Y-99642809D01*
X114848663Y-99576097D01*
X114848659Y-99576096D01*
X114848655Y-99576094D01*
X114620413Y-99514938D01*
X114620403Y-99514936D01*
X114385001Y-99494341D01*
X114384998Y-99494341D01*
X114171985Y-99512977D01*
X114103485Y-99499210D01*
X114073497Y-99477130D01*
X113151818Y-98555450D01*
X113118333Y-98494127D01*
X113115499Y-98467777D01*
X113115499Y-97413498D01*
X113135184Y-97346460D01*
X113187988Y-97300705D01*
X113239494Y-97289499D01*
X114082872Y-97289499D01*
X114142483Y-97283091D01*
X114226668Y-97251691D01*
X114296356Y-97246708D01*
X114313329Y-97251691D01*
X114397517Y-97283091D01*
X114457127Y-97289500D01*
X115352872Y-97289499D01*
X115412483Y-97283091D01*
X115547331Y-97232796D01*
X115662546Y-97146546D01*
X115748796Y-97031331D01*
X115799091Y-96896483D01*
X115805500Y-96836873D01*
X115805499Y-95241128D01*
X115799091Y-95181517D01*
X115791663Y-95161602D01*
X115748797Y-95046671D01*
X115748793Y-95046664D01*
X115662547Y-94931455D01*
X115662544Y-94931452D01*
X115547335Y-94845206D01*
X115547328Y-94845202D01*
X115412482Y-94794908D01*
X115412483Y-94794908D01*
X115352883Y-94788501D01*
X115352881Y-94788500D01*
X115352873Y-94788500D01*
X115352865Y-94788500D01*
X115158281Y-94788500D01*
X115091242Y-94768815D01*
X115045487Y-94716011D01*
X115035543Y-94646853D01*
X115064568Y-94583297D01*
X115073468Y-94575010D01*
X115073275Y-94574817D01*
X115079542Y-94568548D01*
X115079546Y-94568546D01*
X115165796Y-94453331D01*
X115216091Y-94318483D01*
X115222500Y-94258873D01*
X115222499Y-93163128D01*
X115216091Y-93103517D01*
X115208869Y-93084155D01*
X115165797Y-92968671D01*
X115165793Y-92968664D01*
X115079547Y-92853455D01*
X115079544Y-92853452D01*
X114964335Y-92767206D01*
X114964328Y-92767202D01*
X114829486Y-92716910D01*
X114829485Y-92716909D01*
X114829483Y-92716909D01*
X114769873Y-92710500D01*
X114769863Y-92710500D01*
X114024129Y-92710500D01*
X114024123Y-92710501D01*
X113964516Y-92716908D01*
X113829671Y-92767202D01*
X113821890Y-92771452D01*
X113820154Y-92768274D01*
X113770742Y-92786656D01*
X113702481Y-92771747D01*
X113701528Y-92771134D01*
X113694329Y-92767202D01*
X113559486Y-92716910D01*
X113559485Y-92716909D01*
X113559483Y-92716909D01*
X113499873Y-92710500D01*
X113499863Y-92710500D01*
X112754129Y-92710500D01*
X112754123Y-92710501D01*
X112694516Y-92716908D01*
X112559671Y-92767202D01*
X112551886Y-92771454D01*
X112550153Y-92768280D01*
X112500698Y-92786659D01*
X112432443Y-92771725D01*
X112431497Y-92771117D01*
X112424328Y-92767202D01*
X112289486Y-92716910D01*
X112289485Y-92716909D01*
X112289483Y-92716909D01*
X112229873Y-92710500D01*
X112229863Y-92710500D01*
X111484129Y-92710500D01*
X111484123Y-92710501D01*
X111424516Y-92716908D01*
X111289671Y-92767202D01*
X111281886Y-92771454D01*
X111280153Y-92768280D01*
X111230698Y-92786659D01*
X111162443Y-92771725D01*
X111161497Y-92771117D01*
X111154328Y-92767202D01*
X111019486Y-92716910D01*
X111019485Y-92716909D01*
X111019483Y-92716909D01*
X110959873Y-92710500D01*
X110959863Y-92710500D01*
X110214129Y-92710500D01*
X110214123Y-92710501D01*
X110154516Y-92716908D01*
X110019671Y-92767202D01*
X110011890Y-92771452D01*
X110010154Y-92768274D01*
X109960742Y-92786656D01*
X109892481Y-92771747D01*
X109891528Y-92771134D01*
X109884329Y-92767202D01*
X109749486Y-92716910D01*
X109749485Y-92716909D01*
X109749483Y-92716909D01*
X109689873Y-92710500D01*
X109689863Y-92710500D01*
X108944129Y-92710500D01*
X108944123Y-92710501D01*
X108884516Y-92716908D01*
X108749671Y-92767202D01*
X108741890Y-92771452D01*
X108740154Y-92768274D01*
X108690742Y-92786656D01*
X108622481Y-92771747D01*
X108621528Y-92771134D01*
X108614329Y-92767202D01*
X108479486Y-92716910D01*
X108479485Y-92716909D01*
X108479483Y-92716909D01*
X108419873Y-92710500D01*
X108419863Y-92710500D01*
X107674129Y-92710500D01*
X107674123Y-92710501D01*
X107614516Y-92716908D01*
X107479671Y-92767202D01*
X107471886Y-92771454D01*
X107470153Y-92768280D01*
X107420698Y-92786659D01*
X107352443Y-92771725D01*
X107351497Y-92771117D01*
X107344328Y-92767202D01*
X107209486Y-92716910D01*
X107209485Y-92716909D01*
X107209483Y-92716909D01*
X107149873Y-92710500D01*
X107149863Y-92710500D01*
X106404129Y-92710500D01*
X106404123Y-92710501D01*
X106344516Y-92716908D01*
X106209671Y-92767202D01*
X106201886Y-92771454D01*
X106200153Y-92768280D01*
X106150698Y-92786659D01*
X106082443Y-92771725D01*
X106081497Y-92771117D01*
X106074328Y-92767202D01*
X105939486Y-92716910D01*
X105939485Y-92716909D01*
X105939483Y-92716909D01*
X105879873Y-92710500D01*
X105879863Y-92710500D01*
X105134129Y-92710500D01*
X105134123Y-92710501D01*
X105074516Y-92716908D01*
X104939671Y-92767202D01*
X104939664Y-92767206D01*
X104824455Y-92853452D01*
X104824452Y-92853455D01*
X104738206Y-92968664D01*
X104738202Y-92968671D01*
X104695124Y-93084172D01*
X104687909Y-93103517D01*
X104681500Y-93163127D01*
X104681500Y-93457000D01*
X104681501Y-93635500D01*
X104661817Y-93702539D01*
X104609013Y-93748294D01*
X104557501Y-93759500D01*
X104070862Y-93759500D01*
X104003823Y-93739815D01*
X103983181Y-93723181D01*
X103967000Y-93707000D01*
X102841000Y-93707000D01*
X102773961Y-93687315D01*
X102728206Y-93634511D01*
X102717000Y-93583000D01*
X102717000Y-93457000D01*
X102811709Y-93457000D01*
X102832514Y-93534645D01*
X102889355Y-93591486D01*
X102947254Y-93607000D01*
X102986746Y-93607000D01*
X103044645Y-93591486D01*
X103101486Y-93534646D01*
X103122291Y-93457000D01*
X103101486Y-93379355D01*
X103044645Y-93322514D01*
X102986746Y-93307000D01*
X102947254Y-93307000D01*
X102889355Y-93322514D01*
X102832514Y-93379354D01*
X102811709Y-93457000D01*
X102717000Y-93457000D01*
X102717000Y-93331000D01*
X102736685Y-93263961D01*
X102789489Y-93218206D01*
X102841000Y-93207000D01*
X103967000Y-93207000D01*
X103967000Y-93084172D01*
X103966999Y-93084155D01*
X103960598Y-93024627D01*
X103960597Y-93024623D01*
X103910349Y-92889904D01*
X103906101Y-92882123D01*
X103909360Y-92880343D01*
X103891046Y-92831374D01*
X103905836Y-92763087D01*
X103907023Y-92761239D01*
X103910793Y-92754335D01*
X103910792Y-92754335D01*
X103910796Y-92754331D01*
X103961091Y-92619483D01*
X103967500Y-92559873D01*
X103967499Y-91814128D01*
X103961091Y-91754517D01*
X103956810Y-91743039D01*
X103910797Y-91619670D01*
X103906547Y-91611888D01*
X103909757Y-91610134D01*
X103891361Y-91561001D01*
X103906127Y-91492709D01*
X103906752Y-91491736D01*
X103910797Y-91484329D01*
X103957168Y-91360000D01*
X103961091Y-91349483D01*
X103967500Y-91289873D01*
X103967499Y-90544128D01*
X103961091Y-90484517D01*
X103958452Y-90477441D01*
X103910797Y-90349670D01*
X103906547Y-90341888D01*
X103909757Y-90340134D01*
X103891361Y-90291001D01*
X103906127Y-90222709D01*
X103906752Y-90221736D01*
X103910797Y-90214329D01*
X103924267Y-90178213D01*
X103961091Y-90079483D01*
X103967500Y-90019873D01*
X103967499Y-89274128D01*
X103961091Y-89214517D01*
X103953977Y-89195443D01*
X103910797Y-89079670D01*
X103906547Y-89071888D01*
X103909741Y-89070143D01*
X103891352Y-89020870D01*
X103906190Y-88952594D01*
X103906806Y-88951637D01*
X103910797Y-88944329D01*
X103922052Y-88914150D01*
X103961091Y-88809483D01*
X103967500Y-88749873D01*
X103967499Y-88004128D01*
X103961091Y-87944517D01*
X103944763Y-87900739D01*
X103910797Y-87809670D01*
X103906547Y-87801888D01*
X103909757Y-87800134D01*
X103891361Y-87751001D01*
X103906127Y-87682709D01*
X103906752Y-87681736D01*
X103910797Y-87674329D01*
X103934219Y-87611530D01*
X103961091Y-87539483D01*
X103967500Y-87479873D01*
X103967499Y-86734128D01*
X103961091Y-86674517D01*
X103961091Y-86674516D01*
X103910797Y-86539670D01*
X103906547Y-86531888D01*
X103909757Y-86530134D01*
X103891361Y-86481001D01*
X103906127Y-86412709D01*
X103906752Y-86411736D01*
X103910797Y-86404329D01*
X103922052Y-86374150D01*
X103961091Y-86269483D01*
X103967500Y-86209873D01*
X103967499Y-85464128D01*
X103961091Y-85404517D01*
X103932561Y-85328025D01*
X103910797Y-85269671D01*
X103910793Y-85269664D01*
X103824547Y-85154455D01*
X103824544Y-85154452D01*
X103709335Y-85068206D01*
X103709328Y-85068202D01*
X103574482Y-85017908D01*
X103574483Y-85017908D01*
X103514883Y-85011501D01*
X103514881Y-85011500D01*
X103514873Y-85011500D01*
X103514865Y-85011500D01*
X103384500Y-85011500D01*
X103317461Y-84991815D01*
X103271706Y-84939011D01*
X103260500Y-84887500D01*
X103260500Y-84675499D01*
X103280185Y-84608460D01*
X103332989Y-84562705D01*
X103384500Y-84551499D01*
X103922871Y-84551499D01*
X103922872Y-84551499D01*
X103982483Y-84545091D01*
X104066668Y-84513691D01*
X104136356Y-84508708D01*
X104153329Y-84513691D01*
X104237517Y-84545091D01*
X104297127Y-84551500D01*
X105192872Y-84551499D01*
X105252483Y-84545091D01*
X105336668Y-84513691D01*
X105406356Y-84508708D01*
X105423329Y-84513691D01*
X105507517Y-84545091D01*
X105567127Y-84551500D01*
X106462872Y-84551499D01*
X106522483Y-84545091D01*
X106606668Y-84513691D01*
X106676356Y-84508708D01*
X106693329Y-84513691D01*
X106777517Y-84545091D01*
X106837127Y-84551500D01*
X107732872Y-84551499D01*
X107792483Y-84545091D01*
X107876668Y-84513691D01*
X107946356Y-84508708D01*
X107963329Y-84513691D01*
X108047517Y-84545091D01*
X108107127Y-84551500D01*
X109002872Y-84551499D01*
X109062483Y-84545091D01*
X109147382Y-84513425D01*
X109217070Y-84508440D01*
X109234047Y-84513425D01*
X109317623Y-84544598D01*
X109377155Y-84550999D01*
X109377172Y-84551000D01*
X109575000Y-84551000D01*
X110075000Y-84551000D01*
X110272828Y-84551000D01*
X110272844Y-84550999D01*
X110332374Y-84544598D01*
X110332377Y-84544597D01*
X110415950Y-84513426D01*
X110485641Y-84508441D01*
X110502608Y-84513422D01*
X110587517Y-84545091D01*
X110647127Y-84551500D01*
X111542872Y-84551499D01*
X111602483Y-84545091D01*
X111686668Y-84513691D01*
X111756356Y-84508708D01*
X111773329Y-84513691D01*
X111857517Y-84545091D01*
X111917127Y-84551500D01*
X112812872Y-84551499D01*
X112872483Y-84545091D01*
X112956668Y-84513691D01*
X113026356Y-84508708D01*
X113043329Y-84513691D01*
X113127517Y-84545091D01*
X113187127Y-84551500D01*
X114082872Y-84551499D01*
X114142483Y-84545091D01*
X114226668Y-84513691D01*
X114296356Y-84508708D01*
X114313329Y-84513691D01*
X114397517Y-84545091D01*
X114457127Y-84551500D01*
X115352872Y-84551499D01*
X115412483Y-84545091D01*
X115547331Y-84494796D01*
X115662546Y-84408546D01*
X115748796Y-84293331D01*
X115799091Y-84158483D01*
X115805500Y-84098873D01*
X115805499Y-82503128D01*
X115799091Y-82443517D01*
X115748796Y-82308669D01*
X115727706Y-82280497D01*
X115680233Y-82217080D01*
X115655816Y-82151615D01*
X115655500Y-82142769D01*
X115655500Y-80174500D01*
X115655500Y-78198868D01*
X115675184Y-78131833D01*
X115720479Y-78089819D01*
X115763626Y-78066470D01*
X115763631Y-78066466D01*
X115763633Y-78066465D01*
X115763635Y-78066463D01*
X115810478Y-78030004D01*
X115946784Y-77923913D01*
X116103979Y-77753153D01*
X116230924Y-77558849D01*
X116324157Y-77346300D01*
X116381134Y-77121305D01*
X116381135Y-77121297D01*
X116400300Y-76890006D01*
X116400300Y-76889993D01*
X116381135Y-76658702D01*
X116381133Y-76658691D01*
X116324157Y-76433699D01*
X116230924Y-76221151D01*
X116103983Y-76026852D01*
X116103980Y-76026849D01*
X116103979Y-76026847D01*
X115946784Y-75856087D01*
X115946779Y-75856083D01*
X115946777Y-75856081D01*
X115763634Y-75713535D01*
X115763628Y-75713531D01*
X115559504Y-75603064D01*
X115559495Y-75603061D01*
X115339984Y-75527702D01*
X115149450Y-75495908D01*
X115111049Y-75489500D01*
X114878951Y-75489500D01*
X114840550Y-75495908D01*
X114650015Y-75527702D01*
X114430504Y-75603061D01*
X114430495Y-75603064D01*
X114226371Y-75713531D01*
X114226365Y-75713535D01*
X114043222Y-75856081D01*
X114043218Y-75856085D01*
X114034866Y-75865158D01*
X113974979Y-75901148D01*
X113905141Y-75899047D01*
X113847525Y-75859522D01*
X113827455Y-75824507D01*
X113798797Y-75747671D01*
X113798793Y-75747664D01*
X113712547Y-75632455D01*
X113712544Y-75632452D01*
X113597335Y-75546206D01*
X113597328Y-75546202D01*
X113462482Y-75495908D01*
X113462483Y-75495908D01*
X113402883Y-75489501D01*
X113402881Y-75489500D01*
X113402873Y-75489500D01*
X113402864Y-75489500D01*
X111507129Y-75489500D01*
X111507123Y-75489501D01*
X111447516Y-75495908D01*
X111312671Y-75546202D01*
X111312664Y-75546206D01*
X111197455Y-75632452D01*
X111197452Y-75632455D01*
X111111206Y-75747664D01*
X111111202Y-75747671D01*
X111060908Y-75882517D01*
X111054501Y-75942116D01*
X111054500Y-75942135D01*
X111054500Y-77837870D01*
X111054501Y-77837876D01*
X111060908Y-77897483D01*
X111111202Y-78032328D01*
X111111206Y-78032335D01*
X111197452Y-78147544D01*
X111197455Y-78147547D01*
X111276013Y-78206356D01*
X111317884Y-78262290D01*
X111322868Y-78331981D01*
X111317221Y-78348732D01*
X111317458Y-78348811D01*
X111315187Y-78355664D01*
X111315186Y-78355666D01*
X111260001Y-78522203D01*
X111260001Y-78522204D01*
X111260000Y-78522204D01*
X111249500Y-78624983D01*
X111249500Y-79250001D01*
X111249501Y-79250019D01*
X111260000Y-79352796D01*
X111260001Y-79352799D01*
X111315185Y-79519331D01*
X111315187Y-79519336D01*
X111407289Y-79668657D01*
X111501304Y-79762672D01*
X111534789Y-79823995D01*
X111529805Y-79893687D01*
X111501305Y-79938034D01*
X111407682Y-80031657D01*
X111315643Y-80180875D01*
X111315641Y-80180880D01*
X111260494Y-80347302D01*
X111260493Y-80347309D01*
X111250000Y-80450013D01*
X111250000Y-80450026D01*
X111249999Y-80512499D01*
X111250000Y-80512500D01*
X113649999Y-80512500D01*
X113649999Y-80450028D01*
X113649998Y-80450013D01*
X113639505Y-80347302D01*
X113584358Y-80180880D01*
X113584356Y-80180875D01*
X113492315Y-80031654D01*
X113398695Y-79938034D01*
X113365210Y-79876711D01*
X113370194Y-79807019D01*
X113398691Y-79762676D01*
X113492712Y-79668656D01*
X113584814Y-79519334D01*
X113639999Y-79352797D01*
X113650500Y-79250009D01*
X113650499Y-78624992D01*
X113648212Y-78602607D01*
X113639999Y-78522203D01*
X113639998Y-78522203D01*
X113584814Y-78355666D01*
X113584810Y-78355660D01*
X113583030Y-78350287D01*
X113580628Y-78280459D01*
X113616359Y-78220416D01*
X113626410Y-78212026D01*
X113712546Y-78147546D01*
X113798796Y-78032331D01*
X113812731Y-77994969D01*
X113827455Y-77955493D01*
X113869326Y-77899559D01*
X113934790Y-77875141D01*
X114003063Y-77889992D01*
X114034866Y-77914843D01*
X114043216Y-77923913D01*
X114106662Y-77973295D01*
X114147475Y-78030004D01*
X114154500Y-78071148D01*
X114154500Y-81926500D01*
X114134815Y-81993539D01*
X114082011Y-82039294D01*
X114030500Y-82050500D01*
X113187129Y-82050500D01*
X113187123Y-82050501D01*
X113127516Y-82056908D01*
X113043332Y-82088307D01*
X112973641Y-82093291D01*
X112956667Y-82088307D01*
X112872482Y-82056908D01*
X112872483Y-82056908D01*
X112812883Y-82050501D01*
X112812881Y-82050500D01*
X112812873Y-82050500D01*
X112812864Y-82050500D01*
X111917129Y-82050500D01*
X111917123Y-82050501D01*
X111857516Y-82056908D01*
X111773332Y-82088307D01*
X111703641Y-82093291D01*
X111686667Y-82088307D01*
X111602482Y-82056908D01*
X111602483Y-82056908D01*
X111542883Y-82050501D01*
X111542881Y-82050500D01*
X111542873Y-82050500D01*
X111542864Y-82050500D01*
X110647129Y-82050500D01*
X110647123Y-82050501D01*
X110587514Y-82056909D01*
X110502617Y-82088573D01*
X110432925Y-82093557D01*
X110415953Y-82088573D01*
X110332382Y-82057403D01*
X110332372Y-82057401D01*
X110272844Y-82051000D01*
X110075000Y-82051000D01*
X110075000Y-84551000D01*
X109575000Y-84551000D01*
X109575000Y-82051000D01*
X109377155Y-82051000D01*
X109317627Y-82057401D01*
X109317616Y-82057404D01*
X109234046Y-82088573D01*
X109164354Y-82093557D01*
X109147381Y-82088573D01*
X109079382Y-82063211D01*
X109023448Y-82021340D01*
X108999031Y-81955876D01*
X109013883Y-81887603D01*
X109063288Y-81838197D01*
X109096770Y-81825774D01*
X109102698Y-81824505D01*
X109269119Y-81769358D01*
X109269124Y-81769356D01*
X109418345Y-81677315D01*
X109542315Y-81553345D01*
X109634356Y-81404124D01*
X109634358Y-81404119D01*
X109689505Y-81237697D01*
X109689506Y-81237690D01*
X109699999Y-81134986D01*
X109700000Y-81134973D01*
X109700000Y-81072500D01*
X107300001Y-81072500D01*
X107300001Y-81134986D01*
X107310494Y-81237697D01*
X107365641Y-81404119D01*
X107365643Y-81404124D01*
X107457684Y-81553345D01*
X107581654Y-81677315D01*
X107730875Y-81769356D01*
X107730880Y-81769358D01*
X107897302Y-81824505D01*
X107897310Y-81824506D01*
X107976073Y-81832553D01*
X108040765Y-81858949D01*
X108080916Y-81916129D01*
X108083780Y-81985940D01*
X108048446Y-82046217D01*
X108006805Y-82072093D01*
X107982537Y-82081144D01*
X107963333Y-82088307D01*
X107893642Y-82093291D01*
X107876667Y-82088307D01*
X107792482Y-82056908D01*
X107792483Y-82056908D01*
X107732883Y-82050501D01*
X107732881Y-82050500D01*
X107732873Y-82050500D01*
X107732865Y-82050500D01*
X106889500Y-82050500D01*
X106822461Y-82030815D01*
X106776706Y-81978011D01*
X106765500Y-81926500D01*
X106765500Y-81012500D01*
X111250001Y-81012500D01*
X111250001Y-81074986D01*
X111260494Y-81177697D01*
X111315641Y-81344119D01*
X111315643Y-81344124D01*
X111407684Y-81493345D01*
X111531654Y-81617315D01*
X111680875Y-81709356D01*
X111680880Y-81709358D01*
X111847302Y-81764505D01*
X111847309Y-81764506D01*
X111950019Y-81774999D01*
X112199999Y-81774999D01*
X112200000Y-81774998D01*
X112200000Y-81012500D01*
X112700000Y-81012500D01*
X112700000Y-81774999D01*
X112949972Y-81774999D01*
X112949986Y-81774998D01*
X113052697Y-81764505D01*
X113219119Y-81709358D01*
X113219124Y-81709356D01*
X113368345Y-81617315D01*
X113492315Y-81493345D01*
X113584356Y-81344124D01*
X113584358Y-81344119D01*
X113639505Y-81177697D01*
X113639506Y-81177690D01*
X113649999Y-81074986D01*
X113650000Y-81074973D01*
X113650000Y-81012500D01*
X112700000Y-81012500D01*
X112200000Y-81012500D01*
X111250001Y-81012500D01*
X106765500Y-81012500D01*
X106765500Y-78092823D01*
X106785185Y-78025784D01*
X106813336Y-77994970D01*
X106891784Y-77933913D01*
X106900130Y-77924846D01*
X106960010Y-77888854D01*
X107029849Y-77890949D01*
X107087468Y-77930469D01*
X107107544Y-77965491D01*
X107136203Y-78042330D01*
X107136206Y-78042335D01*
X107198078Y-78124984D01*
X107222454Y-78157546D01*
X107337669Y-78243796D01*
X107337671Y-78243796D01*
X107338298Y-78244266D01*
X107380169Y-78300200D01*
X107385153Y-78369892D01*
X107369529Y-78408624D01*
X107365188Y-78415662D01*
X107365186Y-78415665D01*
X107365186Y-78415666D01*
X107310001Y-78582203D01*
X107310001Y-78582204D01*
X107310000Y-78582204D01*
X107299500Y-78684983D01*
X107299500Y-79310001D01*
X107299501Y-79310019D01*
X107310000Y-79412796D01*
X107310001Y-79412799D01*
X107365185Y-79579331D01*
X107365187Y-79579336D01*
X107457289Y-79728657D01*
X107551304Y-79822672D01*
X107584789Y-79883995D01*
X107579805Y-79953687D01*
X107551305Y-79998034D01*
X107457682Y-80091657D01*
X107365643Y-80240875D01*
X107365641Y-80240880D01*
X107310494Y-80407302D01*
X107310493Y-80407309D01*
X107300000Y-80510013D01*
X107300000Y-80572500D01*
X109699999Y-80572500D01*
X109699999Y-80510028D01*
X109699998Y-80510013D01*
X109689505Y-80407302D01*
X109634358Y-80240880D01*
X109634356Y-80240875D01*
X109542315Y-80091654D01*
X109448695Y-79998034D01*
X109415210Y-79936711D01*
X109420194Y-79867019D01*
X109448691Y-79822676D01*
X109542712Y-79728656D01*
X109634814Y-79579334D01*
X109689999Y-79412797D01*
X109700500Y-79310009D01*
X109700499Y-78684992D01*
X109689999Y-78582203D01*
X109634814Y-78415666D01*
X109617838Y-78388144D01*
X109599398Y-78320753D01*
X109620320Y-78254090D01*
X109649062Y-78223785D01*
X109737546Y-78157546D01*
X109823796Y-78042331D01*
X109874091Y-77907483D01*
X109880500Y-77847873D01*
X109880499Y-75952128D01*
X109874091Y-75892517D01*
X109870361Y-75882517D01*
X109823797Y-75757671D01*
X109823793Y-75757664D01*
X109737547Y-75642455D01*
X109737544Y-75642452D01*
X109622335Y-75556206D01*
X109622328Y-75556202D01*
X109487482Y-75505908D01*
X109487483Y-75505908D01*
X109427883Y-75499501D01*
X109427881Y-75499500D01*
X109427873Y-75499500D01*
X109427864Y-75499500D01*
X107532129Y-75499500D01*
X107532123Y-75499501D01*
X107472516Y-75505908D01*
X107337671Y-75556202D01*
X107337664Y-75556206D01*
X107222455Y-75642452D01*
X107222452Y-75642455D01*
X107136206Y-75757664D01*
X107136203Y-75757670D01*
X107107544Y-75834508D01*
X107065672Y-75890441D01*
X107000208Y-75914858D01*
X106931935Y-75900006D01*
X106900135Y-75875158D01*
X106891784Y-75866087D01*
X106891778Y-75866082D01*
X106891777Y-75866081D01*
X106708634Y-75723535D01*
X106708628Y-75723531D01*
X106504504Y-75613064D01*
X106504495Y-75613061D01*
X106284984Y-75537702D01*
X106094450Y-75505908D01*
X106056049Y-75499500D01*
X105823951Y-75499500D01*
X105785550Y-75505908D01*
X105595015Y-75537702D01*
X105375504Y-75613061D01*
X105375495Y-75613064D01*
X105171371Y-75723531D01*
X105171365Y-75723535D01*
X104988222Y-75866081D01*
X104988219Y-75866084D01*
X104988216Y-75866086D01*
X104988216Y-75866087D01*
X104955940Y-75901148D01*
X104831016Y-76036852D01*
X104704075Y-76231151D01*
X104610842Y-76443699D01*
X104553866Y-76668691D01*
X104553864Y-76668702D01*
X104534700Y-76899993D01*
X104534700Y-76900006D01*
X104553864Y-77131297D01*
X104553866Y-77131308D01*
X104610842Y-77356300D01*
X104704075Y-77568848D01*
X104831016Y-77763147D01*
X104831019Y-77763151D01*
X104831021Y-77763153D01*
X104988216Y-77933913D01*
X104988219Y-77933915D01*
X104988222Y-77933918D01*
X105171365Y-78076464D01*
X105171380Y-78076474D01*
X105199516Y-78091700D01*
X105249107Y-78140918D01*
X105264500Y-78200755D01*
X105264500Y-81926500D01*
X105244815Y-81993539D01*
X105192011Y-82039294D01*
X105140500Y-82050500D01*
X104297129Y-82050500D01*
X104297123Y-82050501D01*
X104237516Y-82056908D01*
X104153332Y-82088307D01*
X104083641Y-82093291D01*
X104066667Y-82088307D01*
X103982482Y-82056908D01*
X103982483Y-82056908D01*
X103922883Y-82050501D01*
X103922881Y-82050500D01*
X103922873Y-82050500D01*
X103922864Y-82050500D01*
X103027129Y-82050500D01*
X103027123Y-82050501D01*
X102967512Y-82056909D01*
X102959969Y-82058692D01*
X102959658Y-82057378D01*
X102898120Y-82061770D01*
X102836803Y-82028274D01*
X102803328Y-81966946D01*
X102800500Y-81940616D01*
X102800500Y-81844497D01*
X102820185Y-81777458D01*
X102872990Y-81731704D01*
X102924500Y-81720499D01*
X102947871Y-81720499D01*
X102947872Y-81720499D01*
X103007483Y-81714091D01*
X103142331Y-81663796D01*
X103257546Y-81577546D01*
X103343796Y-81462331D01*
X103394091Y-81327483D01*
X103400500Y-81267873D01*
X103400499Y-79472128D01*
X103394091Y-79412517D01*
X103394090Y-79412515D01*
X103343797Y-79277671D01*
X103343793Y-79277664D01*
X103257547Y-79162455D01*
X103257544Y-79162452D01*
X103142335Y-79076206D01*
X103142328Y-79076202D01*
X103007482Y-79025908D01*
X103007483Y-79025908D01*
X102947883Y-79019501D01*
X102947881Y-79019500D01*
X102947873Y-79019500D01*
X102947864Y-79019500D01*
X101152129Y-79019500D01*
X101152123Y-79019501D01*
X101092516Y-79025908D01*
X100957671Y-79076202D01*
X100957664Y-79076206D01*
X100842455Y-79162452D01*
X100842452Y-79162455D01*
X100756206Y-79277664D01*
X100756202Y-79277671D01*
X100705909Y-79412515D01*
X100705177Y-79415615D01*
X100703948Y-79417771D01*
X100703198Y-79419785D01*
X100702871Y-79419663D01*
X100670604Y-79476331D01*
X100608693Y-79508717D01*
X100539102Y-79502491D01*
X100483924Y-79459628D01*
X100460678Y-79393739D01*
X100460500Y-79387100D01*
X100460500Y-79232228D01*
X100480185Y-79165189D01*
X100496814Y-79144552D01*
X102155638Y-77485727D01*
X102169267Y-77473950D01*
X102188530Y-77459610D01*
X102188532Y-77459606D01*
X102188534Y-77459606D01*
X102206663Y-77437999D01*
X102222113Y-77419585D01*
X102225767Y-77415599D01*
X102231591Y-77409776D01*
X102251400Y-77384721D01*
X102252476Y-77383401D01*
X102301302Y-77325214D01*
X102301304Y-77325209D01*
X102305274Y-77319175D01*
X102305325Y-77319208D01*
X102309369Y-77312860D01*
X102309317Y-77312828D01*
X102313106Y-77306682D01*
X102313111Y-77306677D01*
X102345212Y-77237834D01*
X102345961Y-77236287D01*
X102380040Y-77168433D01*
X102380041Y-77168428D01*
X102382508Y-77161650D01*
X102382566Y-77161671D01*
X102385043Y-77154544D01*
X102384986Y-77154526D01*
X102387256Y-77147676D01*
X102387257Y-77147672D01*
X102402618Y-77073272D01*
X102402984Y-77071619D01*
X102420500Y-76997721D01*
X102420500Y-76997717D01*
X102420501Y-76997713D01*
X102421339Y-76990548D01*
X102421398Y-76990554D01*
X102422164Y-76983054D01*
X102422105Y-76983049D01*
X102422734Y-76975859D01*
X102420526Y-76899967D01*
X102420500Y-76898164D01*
X102420500Y-76787700D01*
X102440185Y-76720661D01*
X102473375Y-76686126D01*
X102541401Y-76638495D01*
X102708495Y-76471401D01*
X102844035Y-76277830D01*
X102943903Y-76063663D01*
X103005063Y-75835408D01*
X103025659Y-75600000D01*
X103005063Y-75364592D01*
X102943903Y-75136337D01*
X102844035Y-74922171D01*
X102838425Y-74914158D01*
X102708494Y-74728597D01*
X102541402Y-74561506D01*
X102541395Y-74561501D01*
X102347834Y-74425967D01*
X102347830Y-74425965D01*
X102347830Y-74425964D01*
X102133663Y-74326097D01*
X102133659Y-74326096D01*
X102133655Y-74326094D01*
X101905413Y-74264938D01*
X101905403Y-74264936D01*
X101670001Y-74244341D01*
X101669999Y-74244341D01*
X101434596Y-74264936D01*
X101434586Y-74264938D01*
X101206344Y-74326094D01*
X101206335Y-74326098D01*
X100992171Y-74425964D01*
X100992169Y-74425965D01*
X100798597Y-74561505D01*
X100631508Y-74728594D01*
X100501574Y-74914159D01*
X100446997Y-74957784D01*
X100377498Y-74964976D01*
X100315144Y-74933454D01*
X100298424Y-74914158D01*
X100168494Y-74728597D01*
X100001402Y-74561506D01*
X100001395Y-74561501D01*
X99807834Y-74425967D01*
X99807830Y-74425965D01*
X99807828Y-74425964D01*
X99593663Y-74326097D01*
X99593659Y-74326096D01*
X99593655Y-74326094D01*
X99365413Y-74264938D01*
X99365403Y-74264936D01*
X99130001Y-74244341D01*
X99129999Y-74244341D01*
X98894596Y-74264936D01*
X98894586Y-74264938D01*
X98666344Y-74326094D01*
X98666335Y-74326098D01*
X98452171Y-74425964D01*
X98452169Y-74425965D01*
X98258600Y-74561503D01*
X98136673Y-74683430D01*
X98075350Y-74716914D01*
X98005658Y-74711930D01*
X97949725Y-74670058D01*
X97932810Y-74639081D01*
X97883797Y-74507671D01*
X97883793Y-74507664D01*
X97797547Y-74392455D01*
X97797544Y-74392452D01*
X97682335Y-74306206D01*
X97682328Y-74306202D01*
X97547482Y-74255908D01*
X97547483Y-74255908D01*
X97487883Y-74249501D01*
X97487881Y-74249500D01*
X97487873Y-74249500D01*
X97487864Y-74249500D01*
X95692129Y-74249500D01*
X95692123Y-74249501D01*
X95632516Y-74255908D01*
X95497671Y-74306202D01*
X95497664Y-74306206D01*
X95382455Y-74392452D01*
X95382452Y-74392455D01*
X95296206Y-74507664D01*
X95296202Y-74507671D01*
X95245908Y-74642517D01*
X95239501Y-74702116D01*
X95239500Y-74702135D01*
X95239500Y-76497870D01*
X95239501Y-76497876D01*
X95245908Y-76557483D01*
X95296202Y-76692328D01*
X95296206Y-76692335D01*
X95382452Y-76807544D01*
X95382455Y-76807547D01*
X95497664Y-76893793D01*
X95497671Y-76893797D01*
X95632517Y-76944091D01*
X95632516Y-76944091D01*
X95639444Y-76944835D01*
X95692127Y-76950500D01*
X96735500Y-76950499D01*
X96802539Y-76970183D01*
X96848294Y-77022987D01*
X96859500Y-77074499D01*
X96859500Y-85286294D01*
X96858191Y-85304263D01*
X96854710Y-85328025D01*
X96859264Y-85380064D01*
X96859500Y-85385470D01*
X96859500Y-85393712D01*
X96863202Y-85425391D01*
X96863386Y-85427185D01*
X96870000Y-85502792D01*
X96871461Y-85509867D01*
X96871403Y-85509878D01*
X96873034Y-85517237D01*
X96873092Y-85517224D01*
X96874757Y-85524249D01*
X96900708Y-85595551D01*
X96901299Y-85597253D01*
X96925182Y-85669326D01*
X96928236Y-85675874D01*
X96928182Y-85675898D01*
X96931470Y-85682688D01*
X96931521Y-85682663D01*
X96934761Y-85689113D01*
X96934762Y-85689114D01*
X96934763Y-85689117D01*
X96976494Y-85752567D01*
X96977443Y-85754058D01*
X97017289Y-85818657D01*
X97021766Y-85824319D01*
X97021719Y-85824356D01*
X97026482Y-85830202D01*
X97026528Y-85830164D01*
X97031173Y-85835699D01*
X97086364Y-85887769D01*
X97087658Y-85889026D01*
X98317121Y-87118489D01*
X98350606Y-87179812D01*
X98345622Y-87249504D01*
X98303750Y-87305437D01*
X98238286Y-87329854D01*
X98170013Y-87315002D01*
X98164175Y-87311604D01*
X98162637Y-87310652D01*
X98162635Y-87310651D01*
X98067546Y-87273814D01*
X97972456Y-87236976D01*
X97771976Y-87199500D01*
X97568024Y-87199500D01*
X97367544Y-87236976D01*
X97367541Y-87236976D01*
X97367541Y-87236977D01*
X97177364Y-87310651D01*
X97177357Y-87310655D01*
X97003960Y-87418017D01*
X97003958Y-87418019D01*
X96853237Y-87555418D01*
X96730327Y-87718178D01*
X96639422Y-87900739D01*
X96639417Y-87900752D01*
X96583602Y-88096917D01*
X96564785Y-88299999D01*
X96564785Y-88300000D01*
X96583602Y-88503082D01*
X96600403Y-88562129D01*
X96637231Y-88691565D01*
X96640077Y-88701565D01*
X96639491Y-88771433D01*
X96601224Y-88829891D01*
X96537427Y-88858382D01*
X96520811Y-88859500D01*
X96034998Y-88859500D01*
X96034980Y-88859501D01*
X95932203Y-88870000D01*
X95932200Y-88870001D01*
X95807300Y-88911389D01*
X95765666Y-88925186D01*
X95756174Y-88931040D01*
X95691081Y-88949500D01*
X95270627Y-88949500D01*
X95251228Y-88947973D01*
X95237388Y-88945781D01*
X95168041Y-88949415D01*
X95164798Y-88949500D01*
X95142808Y-88949500D01*
X95136559Y-88950156D01*
X95120941Y-88951797D01*
X95117710Y-88952051D01*
X95048358Y-88955686D01*
X95048353Y-88955687D01*
X95034803Y-88959317D01*
X95015691Y-88962859D01*
X95001749Y-88964325D01*
X95001737Y-88964327D01*
X94959221Y-88978142D01*
X94935687Y-88985788D01*
X94932607Y-88986701D01*
X94900364Y-88995341D01*
X94865514Y-89004679D01*
X94865512Y-89004679D01*
X94865512Y-89004680D01*
X94860394Y-89007288D01*
X94853020Y-89011045D01*
X94835053Y-89018487D01*
X94821714Y-89022821D01*
X94761591Y-89057533D01*
X94758740Y-89059081D01*
X94696850Y-89090617D01*
X94685951Y-89099442D01*
X94669931Y-89110452D01*
X94657787Y-89117464D01*
X94657783Y-89117467D01*
X94606190Y-89163921D01*
X94603726Y-89166026D01*
X94586620Y-89179879D01*
X94571056Y-89195443D01*
X94568719Y-89197660D01*
X94550000Y-89214516D01*
X94517113Y-89244127D01*
X94517109Y-89244131D01*
X94508874Y-89255467D01*
X94496238Y-89270261D01*
X93913763Y-89852736D01*
X93898974Y-89865369D01*
X93887626Y-89873614D01*
X93841166Y-89925213D01*
X93838935Y-89927565D01*
X93823390Y-89943110D01*
X93823375Y-89943127D01*
X93809539Y-89960210D01*
X93807436Y-89962672D01*
X93760969Y-90014281D01*
X93760966Y-90014285D01*
X93753958Y-90026423D01*
X93742944Y-90042448D01*
X93734126Y-90053337D01*
X93734116Y-90053353D01*
X93702582Y-90115240D01*
X93701033Y-90118092D01*
X93666321Y-90178213D01*
X93661987Y-90191553D01*
X93654545Y-90209520D01*
X93648180Y-90222012D01*
X93630206Y-90289084D01*
X93629285Y-90292192D01*
X93607826Y-90358242D01*
X93607825Y-90358245D01*
X93606360Y-90372186D01*
X93602815Y-90391312D01*
X93599186Y-90404852D01*
X93595551Y-90474210D01*
X93595297Y-90477441D01*
X93593000Y-90499310D01*
X93593000Y-90521297D01*
X93592915Y-90524542D01*
X93589281Y-90593887D01*
X93591473Y-90607725D01*
X93593000Y-90627126D01*
X93593000Y-93962882D01*
X93573315Y-94029921D01*
X93520511Y-94075676D01*
X93512336Y-94079063D01*
X93489165Y-94087705D01*
X93373955Y-94173952D01*
X93373952Y-94173955D01*
X93287706Y-94289164D01*
X93287702Y-94289171D01*
X93237408Y-94424017D01*
X93231001Y-94483616D01*
X93231001Y-94483623D01*
X93231000Y-94483635D01*
X93231000Y-96103370D01*
X93231001Y-96103376D01*
X93237409Y-96162987D01*
X93239192Y-96170531D01*
X93237683Y-96170887D01*
X93243000Y-96200345D01*
X93243000Y-96840500D01*
X93223315Y-96907539D01*
X93170511Y-96953294D01*
X93119000Y-96964500D01*
X92087487Y-96964500D01*
X92028058Y-96949331D01*
X92022330Y-96946203D01*
X91887482Y-96895908D01*
X91887483Y-96895908D01*
X91827883Y-96889501D01*
X91827881Y-96889500D01*
X91827873Y-96889500D01*
X91827864Y-96889500D01*
X90032129Y-96889500D01*
X90032123Y-96889501D01*
X89972516Y-96895908D01*
X89837669Y-96946203D01*
X89831942Y-96949331D01*
X89772513Y-96964500D01*
X88431439Y-96964500D01*
X88364400Y-96944815D01*
X88357128Y-96939767D01*
X88332331Y-96921204D01*
X88332328Y-96921202D01*
X88197482Y-96870908D01*
X88197483Y-96870908D01*
X88137883Y-96864501D01*
X88137881Y-96864500D01*
X88137873Y-96864500D01*
X88137864Y-96864500D01*
X86342129Y-96864500D01*
X86342123Y-96864501D01*
X86282516Y-96870908D01*
X86147671Y-96921202D01*
X86147664Y-96921206D01*
X86032455Y-97007452D01*
X86032452Y-97007455D01*
X85946206Y-97122664D01*
X85946202Y-97122671D01*
X85895908Y-97257517D01*
X85889501Y-97317116D01*
X85889500Y-97317135D01*
X85889500Y-99112870D01*
X83121082Y-99112870D01*
X82908092Y-98971957D01*
X82902516Y-98969343D01*
X82662824Y-98856980D01*
X82662819Y-98856978D01*
X82662814Y-98856976D01*
X82403442Y-98778942D01*
X82403428Y-98778939D01*
X82287791Y-98761921D01*
X82135439Y-98739500D01*
X81932369Y-98739500D01*
X81932351Y-98739500D01*
X81729844Y-98754323D01*
X81729831Y-98754325D01*
X81465453Y-98813217D01*
X81465446Y-98813220D01*
X81212439Y-98909987D01*
X80976226Y-99042557D01*
X80761822Y-99208112D01*
X80573822Y-99403109D01*
X80573816Y-99403116D01*
X80416202Y-99623419D01*
X80416199Y-99623424D01*
X80292350Y-99864309D01*
X80292343Y-99864327D01*
X80204884Y-100120685D01*
X80204881Y-100120699D01*
X80155681Y-100387068D01*
X80155680Y-100387075D01*
X80145787Y-100657763D01*
X78260500Y-100657763D01*
X78260500Y-95193500D01*
X83726679Y-95193500D01*
X83745924Y-95413476D01*
X83745926Y-95413486D01*
X83803075Y-95626770D01*
X83803080Y-95626784D01*
X83896399Y-95826907D01*
X83896400Y-95826909D01*
X83941758Y-95891687D01*
X84608596Y-95224849D01*
X84608551Y-95225398D01*
X84639766Y-95348662D01*
X84709313Y-95455112D01*
X84809657Y-95533213D01*
X84929922Y-95574500D01*
X84966053Y-95574500D01*
X84295311Y-96245241D01*
X84360082Y-96290594D01*
X84360092Y-96290600D01*
X84560215Y-96383919D01*
X84560229Y-96383924D01*
X84773513Y-96441073D01*
X84773523Y-96441075D01*
X84993499Y-96460321D01*
X84993501Y-96460321D01*
X85213476Y-96441075D01*
X85213486Y-96441073D01*
X85426770Y-96383924D01*
X85426784Y-96383919D01*
X85626908Y-96290600D01*
X85626920Y-96290593D01*
X85691686Y-96245242D01*
X85691687Y-96245240D01*
X85020948Y-95574500D01*
X85025069Y-95574500D01*
X85118921Y-95558839D01*
X85230751Y-95498320D01*
X85316871Y-95404769D01*
X85367948Y-95288323D01*
X85373605Y-95220052D01*
X86045240Y-95891687D01*
X86045242Y-95891686D01*
X86090593Y-95826920D01*
X86090600Y-95826908D01*
X86183919Y-95626784D01*
X86183924Y-95626770D01*
X86241073Y-95413486D01*
X86241075Y-95413476D01*
X86260321Y-95193500D01*
X86260321Y-95193499D01*
X86241075Y-94973523D01*
X86241073Y-94973513D01*
X86183924Y-94760229D01*
X86183920Y-94760220D01*
X86090598Y-94560090D01*
X86045240Y-94495311D01*
X85378403Y-95162148D01*
X85378449Y-95161602D01*
X85347234Y-95038338D01*
X85277687Y-94931888D01*
X85177343Y-94853787D01*
X85057078Y-94812500D01*
X85020947Y-94812500D01*
X85691687Y-94141758D01*
X85626909Y-94096400D01*
X85626907Y-94096399D01*
X85426784Y-94003080D01*
X85426770Y-94003075D01*
X85213486Y-93945926D01*
X85213476Y-93945924D01*
X84993501Y-93926679D01*
X84993499Y-93926679D01*
X84773523Y-93945924D01*
X84773513Y-93945926D01*
X84560229Y-94003075D01*
X84560220Y-94003079D01*
X84360086Y-94096403D01*
X84295312Y-94141757D01*
X84295311Y-94141758D01*
X84966054Y-94812500D01*
X84961931Y-94812500D01*
X84868079Y-94828161D01*
X84756249Y-94888680D01*
X84670129Y-94982231D01*
X84619052Y-95098677D01*
X84613394Y-95166947D01*
X83941758Y-94495311D01*
X83941757Y-94495312D01*
X83896403Y-94560086D01*
X83803079Y-94760220D01*
X83803075Y-94760229D01*
X83745926Y-94973513D01*
X83745924Y-94973523D01*
X83726679Y-95193499D01*
X83726679Y-95193500D01*
X78260500Y-95193500D01*
X78260500Y-91757844D01*
X80360000Y-91757844D01*
X80366401Y-91817372D01*
X80366403Y-91817379D01*
X80416645Y-91952086D01*
X80416649Y-91952093D01*
X80502809Y-92067187D01*
X80502812Y-92067190D01*
X80617906Y-92153350D01*
X80617913Y-92153354D01*
X80752620Y-92203596D01*
X80752627Y-92203598D01*
X80812155Y-92209999D01*
X80812172Y-92210000D01*
X81460000Y-92210000D01*
X81460000Y-91295501D01*
X81567685Y-91344680D01*
X81674237Y-91360000D01*
X81745763Y-91360000D01*
X81852315Y-91344680D01*
X81960000Y-91295501D01*
X81960000Y-92210000D01*
X82607828Y-92210000D01*
X82607844Y-92209999D01*
X82667372Y-92203598D01*
X82667379Y-92203596D01*
X82802086Y-92153354D01*
X82802093Y-92153350D01*
X82917187Y-92067190D01*
X82917190Y-92067187D01*
X83003350Y-91952093D01*
X83003354Y-91952086D01*
X83053596Y-91817379D01*
X83053598Y-91817372D01*
X83059999Y-91757844D01*
X83060000Y-91757827D01*
X83060000Y-91110000D01*
X82143686Y-91110000D01*
X82169493Y-91069844D01*
X82210000Y-90931889D01*
X82210000Y-90788111D01*
X82169493Y-90650156D01*
X82143686Y-90610000D01*
X83060000Y-90610000D01*
X83060000Y-89962172D01*
X83059999Y-89962155D01*
X83053598Y-89902627D01*
X83053596Y-89902620D01*
X83003354Y-89767913D01*
X83003350Y-89767906D01*
X82917190Y-89652812D01*
X82917187Y-89652809D01*
X82802093Y-89566649D01*
X82802086Y-89566645D01*
X82667379Y-89516403D01*
X82667372Y-89516401D01*
X82607844Y-89510000D01*
X81960000Y-89510000D01*
X81960000Y-90424498D01*
X81852315Y-90375320D01*
X81745763Y-90360000D01*
X81674237Y-90360000D01*
X81567685Y-90375320D01*
X81460000Y-90424498D01*
X81460000Y-89510000D01*
X80812155Y-89510000D01*
X80752627Y-89516401D01*
X80752620Y-89516403D01*
X80617913Y-89566645D01*
X80617906Y-89566649D01*
X80502812Y-89652809D01*
X80502809Y-89652812D01*
X80416649Y-89767906D01*
X80416645Y-89767913D01*
X80366403Y-89902620D01*
X80366401Y-89902627D01*
X80360000Y-89962155D01*
X80360000Y-90610000D01*
X81276314Y-90610000D01*
X81250507Y-90650156D01*
X81210000Y-90788111D01*
X81210000Y-90931889D01*
X81250507Y-91069844D01*
X81276314Y-91110000D01*
X80360000Y-91110000D01*
X80360000Y-91757844D01*
X78260500Y-91757844D01*
X78260500Y-84747870D01*
X80269500Y-84747870D01*
X80269501Y-84747876D01*
X80275908Y-84807483D01*
X80326202Y-84942328D01*
X80326206Y-84942335D01*
X80412452Y-85057544D01*
X80412455Y-85057547D01*
X80527664Y-85143793D01*
X80527671Y-85143797D01*
X80662517Y-85194091D01*
X80662516Y-85194091D01*
X80669444Y-85194835D01*
X80722127Y-85200500D01*
X82517872Y-85200499D01*
X82577483Y-85194091D01*
X82712331Y-85143796D01*
X82827546Y-85057546D01*
X82913796Y-84942331D01*
X82934247Y-84887500D01*
X82955258Y-84831167D01*
X82997129Y-84775233D01*
X83062593Y-84750816D01*
X83071440Y-84750500D01*
X90356373Y-84750500D01*
X90375772Y-84752027D01*
X90389612Y-84754219D01*
X90458959Y-84750584D01*
X90462203Y-84750500D01*
X90484191Y-84750500D01*
X90484192Y-84750500D01*
X90500988Y-84748734D01*
X90506064Y-84748201D01*
X90509284Y-84747947D01*
X90578646Y-84744313D01*
X90592187Y-84740683D01*
X90611313Y-84737138D01*
X90625256Y-84735674D01*
X90691306Y-84714212D01*
X90694368Y-84713304D01*
X90761488Y-84695320D01*
X90773976Y-84688956D01*
X90791950Y-84681510D01*
X90805284Y-84677179D01*
X90865476Y-84642425D01*
X90868222Y-84640934D01*
X90930149Y-84609383D01*
X90941031Y-84600569D01*
X90957083Y-84589537D01*
X90969216Y-84582533D01*
X91020847Y-84536043D01*
X91023260Y-84533982D01*
X91040380Y-84520119D01*
X91055929Y-84504568D01*
X91058270Y-84502347D01*
X91109888Y-84455871D01*
X91118130Y-84444525D01*
X91130760Y-84429737D01*
X94468356Y-81092141D01*
X94529677Y-81058658D01*
X94545218Y-81056297D01*
X94713568Y-81041570D01*
X94926950Y-80984394D01*
X95127162Y-80891034D01*
X95308120Y-80764326D01*
X95464326Y-80608120D01*
X95591034Y-80427162D01*
X95684394Y-80226950D01*
X95741570Y-80013568D01*
X95760823Y-79793500D01*
X95758032Y-79761602D01*
X95747248Y-79638338D01*
X95741570Y-79573432D01*
X95684394Y-79360050D01*
X95591034Y-79159839D01*
X95464326Y-78978880D01*
X95308120Y-78822674D01*
X95308116Y-78822671D01*
X95308115Y-78822670D01*
X95127166Y-78695968D01*
X95127162Y-78695966D01*
X95103602Y-78684980D01*
X94926950Y-78602606D01*
X94926947Y-78602605D01*
X94926945Y-78602604D01*
X94713570Y-78545430D01*
X94713562Y-78545429D01*
X94493502Y-78526177D01*
X94493498Y-78526177D01*
X94273437Y-78545429D01*
X94273429Y-78545430D01*
X94060054Y-78602604D01*
X94060048Y-78602607D01*
X93859840Y-78695965D01*
X93859838Y-78695966D01*
X93678877Y-78822675D01*
X93522675Y-78978877D01*
X93395966Y-79159838D01*
X93395965Y-79159840D01*
X93302607Y-79360048D01*
X93302604Y-79360054D01*
X93245430Y-79573429D01*
X93245429Y-79573436D01*
X93230702Y-79741771D01*
X93205249Y-79806839D01*
X93194855Y-79818644D01*
X90100320Y-82913181D01*
X90038997Y-82946666D01*
X90012639Y-82949500D01*
X83071440Y-82949500D01*
X83004401Y-82929815D01*
X82958646Y-82877011D01*
X82955258Y-82868833D01*
X82913797Y-82757671D01*
X82913793Y-82757664D01*
X82827547Y-82642455D01*
X82827544Y-82642452D01*
X82712335Y-82556206D01*
X82712328Y-82556202D01*
X82577482Y-82505908D01*
X82577483Y-82505908D01*
X82517883Y-82499501D01*
X82517881Y-82499500D01*
X82517873Y-82499500D01*
X82517864Y-82499500D01*
X80722129Y-82499500D01*
X80722123Y-82499501D01*
X80662516Y-82505908D01*
X80527671Y-82556202D01*
X80527664Y-82556206D01*
X80412455Y-82642452D01*
X80412452Y-82642455D01*
X80326206Y-82757664D01*
X80326202Y-82757671D01*
X80275908Y-82892517D01*
X80269501Y-82952116D01*
X80269500Y-82952135D01*
X80269500Y-84747870D01*
X78260500Y-84747870D01*
X78260500Y-79793500D01*
X83726679Y-79793500D01*
X83745924Y-80013476D01*
X83745926Y-80013486D01*
X83803075Y-80226770D01*
X83803080Y-80226784D01*
X83896399Y-80426907D01*
X83896400Y-80426909D01*
X83941758Y-80491687D01*
X84608596Y-79824849D01*
X84608551Y-79825398D01*
X84639766Y-79948662D01*
X84709313Y-80055112D01*
X84809657Y-80133213D01*
X84929922Y-80174500D01*
X84966053Y-80174500D01*
X84295311Y-80845241D01*
X84360082Y-80890594D01*
X84360092Y-80890600D01*
X84560215Y-80983919D01*
X84560229Y-80983924D01*
X84773513Y-81041073D01*
X84773523Y-81041075D01*
X84993499Y-81060321D01*
X84993501Y-81060321D01*
X85213476Y-81041075D01*
X85213486Y-81041073D01*
X85426770Y-80983924D01*
X85426784Y-80983919D01*
X85626908Y-80890600D01*
X85626920Y-80890593D01*
X85691686Y-80845242D01*
X85691687Y-80845240D01*
X85020948Y-80174500D01*
X85025069Y-80174500D01*
X85118921Y-80158839D01*
X85230751Y-80098320D01*
X85316871Y-80004769D01*
X85367948Y-79888323D01*
X85373605Y-79820052D01*
X86045240Y-80491687D01*
X86045242Y-80491686D01*
X86090593Y-80426920D01*
X86090600Y-80426908D01*
X86183919Y-80226784D01*
X86183924Y-80226770D01*
X86241073Y-80013486D01*
X86241075Y-80013476D01*
X86260321Y-79793500D01*
X86260321Y-79793499D01*
X86241075Y-79573523D01*
X86241073Y-79573513D01*
X86183924Y-79360229D01*
X86183920Y-79360220D01*
X86090598Y-79160090D01*
X86045240Y-79095311D01*
X85378403Y-79762148D01*
X85378449Y-79761602D01*
X85347234Y-79638338D01*
X85277687Y-79531888D01*
X85177343Y-79453787D01*
X85057078Y-79412500D01*
X85020947Y-79412500D01*
X85691687Y-78741758D01*
X85626909Y-78696400D01*
X85626907Y-78696399D01*
X85426784Y-78603080D01*
X85426770Y-78603075D01*
X85213486Y-78545926D01*
X85213476Y-78545924D01*
X84993501Y-78526679D01*
X84993499Y-78526679D01*
X84773523Y-78545924D01*
X84773513Y-78545926D01*
X84560229Y-78603075D01*
X84560220Y-78603079D01*
X84360086Y-78696403D01*
X84295312Y-78741757D01*
X84295311Y-78741758D01*
X84966054Y-79412500D01*
X84961931Y-79412500D01*
X84868079Y-79428161D01*
X84756249Y-79488680D01*
X84670129Y-79582231D01*
X84619052Y-79698677D01*
X84613394Y-79766947D01*
X83941758Y-79095311D01*
X83941757Y-79095312D01*
X83896403Y-79160086D01*
X83803079Y-79360220D01*
X83803075Y-79360229D01*
X83745926Y-79573513D01*
X83745924Y-79573523D01*
X83726679Y-79793499D01*
X83726679Y-79793500D01*
X78260500Y-79793500D01*
X78260500Y-72614500D01*
X78280185Y-72547461D01*
X78332989Y-72501706D01*
X78384500Y-72490500D01*
X120655500Y-72490500D01*
X120722539Y-72510185D01*
G37*
%TD.AperFunction*%
%TD*%
M02*
