M48
; DRILL file {KiCad 7.0.5-4d25ed1034~172~ubuntu23.04.1} date Пт 02 июн 2023 17:13:41
; FORMAT={-:-/ absolute / inch / decimal}
; #@! TF.CreationDate,2023-06-02T17:13:41+03:00
; #@! TF.GenerationSoftware,Kicad,Pcbnew,7.0.5-4d25ed1034~172~ubuntu23.04.1
; #@! TF.FileFunction,Plated,1,2,PTH
FMAT,2
INCH
; #@! TA.AperFunction,Plated,PTH,ComponentDrill
T1C0.0118
; #@! TA.AperFunction,Plated,PTH,ViaDrill
T2C0.0236
; #@! TA.AperFunction,Plated,PTH,ComponentDrill
T3C0.0300
; #@! TA.AperFunction,Plated,PTH,ComponentDrill
T4C0.0354
; #@! TA.AperFunction,Plated,PTH,ComponentDrill
T5C0.0394
%
G90
G05
T1
X4.0538Y-3.3794
X4.0538Y-3.4294
X4.0538Y-3.4794
X4.0538Y-3.5294
X4.0538Y-3.5794
X4.0538Y-3.6294
X4.0538Y-3.6794
X4.1538Y-3.6894
X4.2038Y-3.6894
X4.2538Y-3.6894
X4.3038Y-3.6894
X4.3538Y-3.6894
X4.4038Y-3.6894
X4.4538Y-3.6894
X4.5038Y-3.6894
T2
X3.8453Y-3.4764
X3.9035Y-3.7299
T3
X3.3462Y-3.1415
X3.3462Y-3.7478
X3.7202Y-3.1415
X3.7202Y-3.7517
T4
X4.1709Y-3.0276
X4.2709Y-3.0276
X4.4274Y-3.0272
X4.5274Y-3.0272
T5
X3.2134Y-3.3012
X3.2169Y-3.5772
X3.4346Y-3.8667
X3.4346Y-3.9667
X3.5799Y-3.8677
X3.5799Y-3.9677
X3.726Y-3.8681
X3.726Y-3.9681
X3.8028Y-2.9764
X3.9028Y-2.9764
X3.9565Y-3.9693
X4.0028Y-2.9764
X4.0177Y-3.1642
X4.1274Y-3.9705
X4.2274Y-3.9705
X4.4033Y-3.9705
X4.5033Y-3.9705
X4.6033Y-3.9705
T0
M30
